<svg width="347" height="230" viewBox="0 0 347 230" fill="none" xmlns="http://www.w3.org/2000/svg">
<path d="M19.6912 73.3815H47.1864C47.8453 73.3815 48.3245 72.8424 48.3245 72.2434V64.5759C48.3245 63.917 47.7854 63.4377 47.1864 63.4377H19.6912C19.0323 63.4377 18.5531 63.9769 18.5531 64.5759V72.2434C18.5531 72.9023 19.0323 73.3815 19.6912 73.3815Z" fill="#8155FF"/>
<path d="M24.3636 67.3315H43.8918" stroke="white" stroke-width="0.6238" stroke-miterlimit="10"/>
<path d="M24.3636 69.5481H30.1143" stroke="white" stroke-width="0.6238" stroke-miterlimit="10"/>
<path d="M44.7901 72.0637V76.5564L39.0994 72.0637H44.7901Z" fill="#8155FF"/>
<path d="M342.385 120.644C344.237 120.644 345.739 119.116 345.739 117.23C345.739 115.344 344.237 113.815 342.385 113.815C340.532 113.815 339.03 115.344 339.03 117.23C339.03 119.116 340.532 120.644 342.385 120.644Z" stroke="white" stroke-width="1.0888" stroke-miterlimit="10"/>
<path d="M6.15326 143.467C8.79991 143.467 10.9454 141.295 10.9454 138.615C10.9454 135.935 8.79991 133.763 6.15326 133.763C3.50661 133.763 1.36108 135.935 1.36108 138.615C1.36108 141.295 3.50661 143.467 6.15326 143.467Z" stroke="white" stroke-width="1.0888" stroke-miterlimit="10"/>
<path d="M187.896 37.7395C187.896 38.7579 187.058 39.5965 186.099 39.5965C185.141 39.5965 184.302 38.7579 184.302 37.7395C184.302 36.7212 185.141 35.8826 186.099 35.8826C187.058 35.8826 187.896 36.7212 187.896 37.7395Z" stroke="white" stroke-width="1.0888" stroke-miterlimit="10"/>
<path d="M31.3123 27.8558H109.245C109.245 27.8558 108.886 24.7409 100.2 22.2849C91.514 19.8289 85.344 26.1786 75.5201 22.2849C65.756 18.3913 60.5445 12.8803 47.9052 15.9353C35.3257 19.0502 31.3123 27.8558 31.3123 27.8558Z" stroke="#202730" stroke-width="1.103" stroke-miterlimit="10" stroke-linecap="round" stroke-linejoin="round"/>
<path d="M278.289 55.171H318.603C318.603 55.171 318.423 53.2542 313.931 51.6967C309.438 50.1393 306.263 54.1527 301.171 51.6967C296.14 49.2407 293.444 45.7664 286.915 47.7432C280.385 49.66 278.289 55.171 278.289 55.171Z" stroke="#202730" stroke-width="1.103" stroke-miterlimit="10" stroke-linecap="round" stroke-linejoin="round"/>
<path d="M256.923 17.4494C258.081 10.2635 253.195 3.49953 246.009 2.34155C238.823 1.18358 232.059 6.07013 230.901 13.256C229.743 20.4418 234.63 27.2058 241.816 28.3638C249.002 29.5218 255.766 24.6352 256.923 17.4494Z" fill="#FDB9B9"/>
<path d="M236.597 91.5918H99.4807V229.127H236.597V91.5918Z" fill="#F0ECFF"/>
<path d="M236.597 69.967V91.5917H99.4807V69.967C99.4807 65.654 102.955 62.1797 107.268 62.1797H228.81C233.123 62.1797 236.597 65.654 236.597 69.967Z" fill="#8155FF"/>
<path d="M215.332 82.0673C218.905 82.0673 221.801 79.1708 221.801 75.5979C221.801 72.0249 218.905 69.1284 215.332 69.1284C211.759 69.1284 208.862 72.0249 208.862 75.5979C208.862 79.1708 211.759 82.0673 215.332 82.0673Z" fill="#2B4183"/>
<path d="M215.332 78.0539C217.368 78.0539 219.046 76.3766 219.046 74.34V57.6273C219.046 55.5906 217.368 53.9133 215.332 53.9133C213.295 53.9133 211.618 55.5906 211.618 57.6273V74.34C211.618 76.3766 213.295 78.0539 215.332 78.0539Z" fill="#FFCB2D"/>
<path d="M169.806 82.0673C173.379 82.0673 176.276 79.1708 176.276 75.5979C176.276 72.0249 173.379 69.1284 169.806 69.1284C166.233 69.1284 163.337 72.0249 163.337 75.5979C163.337 79.1708 166.233 82.0673 169.806 82.0673Z" fill="#2B4183"/>
<path d="M169.806 78.0539C171.843 78.0539 173.52 76.3766 173.52 74.34V57.6273C173.52 55.5906 171.843 53.9133 169.806 53.9133C167.77 53.9133 166.092 55.5906 166.092 57.6273V74.34C166.092 76.3766 167.77 78.0539 169.806 78.0539Z" fill="#FFCB2D"/>
<path d="M124.28 82.0673C127.853 82.0673 130.75 79.1708 130.75 75.5979C130.75 72.0249 127.853 69.1284 124.28 69.1284C120.707 69.1284 117.811 72.0249 117.811 75.5979C117.811 79.1708 120.707 82.0673 124.28 82.0673Z" fill="#2B4183"/>
<path d="M124.28 78.0539C126.317 78.0539 127.994 76.3766 127.994 74.34V57.6273C127.994 55.5906 126.317 53.9133 124.28 53.9133C122.244 53.9133 120.566 55.5906 120.566 57.6273V74.34C120.566 76.3766 122.244 78.0539 124.28 78.0539Z" fill="#FFCB2D"/>
<path d="M190.282 139.771H216.34V113.714H190.282V139.771Z" stroke="#F0E0DF" stroke-width="2.2132" stroke-miterlimit="10"/>
<path d="M155.591 139.771H181.649V113.714H155.591V139.771Z" stroke="#F0E0DF" stroke-width="2.2132" stroke-miterlimit="10"/>
<path d="M120.901 139.771H146.958V113.714H120.901V139.771Z" stroke="#F0E0DF" stroke-width="2.2132" stroke-miterlimit="10"/>
<path d="M190.282 172.834H216.34V146.777H190.282V172.834Z" stroke="#F0E0DF" stroke-width="2.2132" stroke-miterlimit="10"/>
<path d="M155.591 172.834H181.649V146.777H155.591V172.834Z" stroke="#F0E0DF" stroke-width="2.2132" stroke-miterlimit="10"/>
<path d="M120.901 172.834H146.958V146.777H120.901V172.834Z" fill="#F88AA0"/>
<path d="M130.271 156.107L137.519 163.535" stroke="white" stroke-width="2.0174" stroke-miterlimit="10"/>
<path d="M137.519 156.107L130.271 163.535" stroke="white" stroke-width="2.0174" stroke-miterlimit="10"/>
<path d="M190.282 205.957H216.34V179.899H190.282V205.957Z" stroke="#F0E0DF" stroke-width="2.2132" stroke-miterlimit="10"/>
<path d="M155.591 205.957H181.649V179.899H155.591V205.957Z" stroke="#F0E0DF" stroke-width="2.2132" stroke-miterlimit="10"/>
<path d="M120.901 205.957H146.958V179.899H120.901V205.957Z" stroke="#F0E0DF" stroke-width="2.2132" stroke-miterlimit="10"/>
<path d="M234.26 138.495H221.561V146.822H234.26V138.495Z" fill="#FFA80A"/>
<path d="M236.177 140.652H219.584C217.668 140.652 216.17 139.094 216.17 137.237C216.17 135.321 217.727 133.823 219.584 133.823H236.177C238.094 133.823 239.592 135.38 239.592 137.237C239.592 139.154 238.094 140.652 236.177 140.652Z" fill="#FFCB2D"/>
<path d="M197.121 151.176L189.963 158.334L195.003 163.375L202.162 156.216L197.121 151.176Z" fill="#FFA80A"/>
<path d="M199.397 150.895L189.394 160.899C188.375 161.917 186.758 161.917 185.74 160.899C184.721 159.88 184.721 158.263 185.74 157.245L195.743 147.241C196.762 146.223 198.379 146.223 199.397 147.241C200.416 148.259 200.416 149.877 199.397 150.895Z" fill="#FFCB2D"/>
<path d="M227.731 229.008C251.419 229.008 270.621 209.805 270.621 186.118C270.621 162.43 251.419 143.228 227.731 143.228C204.044 143.228 184.841 162.43 184.841 186.118C184.841 209.805 204.044 229.008 227.731 229.008Z" fill="#F67B91"/>
<path d="M227.731 226.671C250.128 226.671 268.284 208.515 268.284 186.117C268.284 163.72 250.128 145.564 227.731 145.564C205.333 145.564 187.177 163.72 187.177 186.117C187.177 208.515 205.333 226.671 227.731 226.671Z" fill="#F88AA0"/>
<path d="M227.731 222.119C247.614 222.119 263.732 206.001 263.732 186.118C263.732 166.235 247.614 150.116 227.731 150.116C207.848 150.116 191.73 166.235 191.73 186.118C191.73 206.001 207.848 222.119 227.731 222.119Z" fill="#F6F6F6"/>
<g opacity="0.71">
<path d="M193.886 173.658L225.035 221.04L242.407 218.285L255.286 206.904L216.05 153.291L193.886 173.658Z" fill="white"/>
<path d="M221.202 152.093L258.58 202.411L261.875 193.126L228.929 150.296L221.202 152.093Z" fill="white"/>
</g>
<path d="M227.911 158.263C227.432 158.263 227.012 157.844 227.012 157.364V155.268C227.012 154.789 227.432 154.369 227.911 154.369C228.39 154.369 228.809 154.789 228.809 155.268V157.364C228.809 157.844 228.39 158.263 227.911 158.263Z" fill="#8054FF"/>
<path d="M227.911 218.405C227.432 218.405 227.012 217.986 227.012 217.506V215.41C227.012 214.931 227.432 214.511 227.911 214.511C228.39 214.511 228.81 214.931 228.81 215.41V217.506C228.81 217.986 228.39 218.405 227.911 218.405Z" fill="#8054FF"/>
<path d="M207.424 166.769C207.184 166.769 206.945 166.709 206.765 166.53L205.268 165.032C204.908 164.673 204.908 164.134 205.268 163.774C205.627 163.415 206.166 163.415 206.526 163.774L208.023 165.272C208.383 165.631 208.383 166.17 208.023 166.53C207.843 166.65 207.664 166.769 207.424 166.769Z" fill="#8054FF"/>
<path d="M249.954 209.3C249.715 209.3 249.475 209.24 249.296 209.06L247.798 207.563C247.439 207.203 247.439 206.664 247.798 206.305C248.157 205.945 248.697 205.945 249.056 206.305L250.554 207.802C250.913 208.162 250.913 208.701 250.554 209.06C250.374 209.18 250.134 209.3 249.954 209.3Z" fill="#8054FF"/>
<path d="M205.926 209.3C205.687 209.3 205.447 209.24 205.267 209.06C204.908 208.701 204.908 208.162 205.267 207.802L206.765 206.305C207.124 205.945 207.663 205.945 208.023 206.305C208.382 206.664 208.382 207.203 208.023 207.563L206.525 209.06C206.346 209.18 206.106 209.3 205.926 209.3Z" fill="#8054FF"/>
<path d="M248.457 166.769C248.217 166.769 247.978 166.709 247.798 166.53C247.439 166.17 247.439 165.631 247.798 165.272L249.296 163.774C249.655 163.415 250.194 163.415 250.554 163.774C250.913 164.134 250.913 164.673 250.554 165.032L249.056 166.53C248.876 166.65 248.637 166.769 248.457 166.769Z" fill="#8054FF"/>
<path d="M198.918 187.256H196.822C196.342 187.256 195.923 186.836 195.923 186.357C195.923 185.878 196.342 185.459 196.822 185.459H198.918C199.397 185.459 199.817 185.878 199.817 186.357C199.817 186.836 199.397 187.256 198.918 187.256Z" fill="#8054FF"/>
<path d="M259.06 187.256H256.964C256.484 187.256 256.065 186.836 256.065 186.357C256.065 185.878 256.484 185.459 256.964 185.459H259.06C259.539 185.459 259.959 185.878 259.959 186.357C259.959 186.836 259.539 187.256 259.06 187.256Z" fill="#8054FF"/>
<path d="M230.067 185.998H225.754V167.249C225.754 166.051 226.713 165.092 227.911 165.092C229.109 165.092 230.067 166.051 230.067 167.249V185.998Z" fill="#8054FF"/>
<path d="M227.911 190.97C230.657 190.97 232.883 188.744 232.883 185.998C232.883 183.252 230.657 181.026 227.911 181.026C225.165 181.026 222.939 183.252 222.939 185.998C222.939 188.744 225.165 190.97 227.911 190.97Z" fill="#2B4183"/>
<path d="M79.8929 141.431L87.7401 175.994C88.2193 179.289 86.9613 182.583 84.4454 184.62L61.0237 202.89L61.443 186.058L73.1239 176.533L61.0237 140.472L79.8929 141.431Z" fill="#7041FD"/>
<path d="M49.5825 203.07L60.8441 197.139L56.4113 190.85L44.1913 197.559L48.0849 202.471L49.5825 203.07Z" fill="#FA849B"/>
<path d="M46.8872 194.863C46.8872 194.863 48.804 201.812 54.2551 201.452L56.3517 218.105L40.1781 197.619L46.8872 194.863Z" fill="#181F42"/>
<path d="M56.4178 218.106L40.246 197.599L38.3175 199.119L54.4894 219.627L56.4178 218.106Z" fill="white"/>
<path d="M54.5546 203.669C54.5546 203.669 53.2966 203.25 51.3798 203.369" stroke="white" stroke-width="1.5042" stroke-miterlimit="10" stroke-linecap="round" stroke-linejoin="round"/>
<path d="M55.0338 206.065C55.0338 206.065 53.7759 205.646 51.859 205.765" stroke="white" stroke-width="1.5042" stroke-miterlimit="10" stroke-linecap="round" stroke-linejoin="round"/>
<path d="M55.513 208.521C55.513 208.521 54.255 208.102 52.3381 208.221" stroke="white" stroke-width="1.5042" stroke-miterlimit="10" stroke-linecap="round" stroke-linejoin="round"/>
<path d="M59.6457 223.436L60.7839 210.917L53.1164 210.498L51.9783 224.275H58.268L59.6457 223.436Z" fill="#FA849B"/>
<path d="M50.9599 220.442C50.9599 220.442 57.6091 223.257 60.724 218.704L75.1005 227.33H48.9832L50.9599 220.442Z" fill="#181F42"/>
<path d="M75.1004 227.39H48.983V229.846H75.1004V227.39Z" fill="white"/>
<path d="M62.5806 219.902C62.5806 219.902 61.5024 220.621 60.3643 222.179" stroke="white" stroke-width="1.5042" stroke-miterlimit="10" stroke-linecap="round" stroke-linejoin="round"/>
<path d="M64.7973 221.04C64.7973 221.04 63.7191 221.759 62.5809 223.317" stroke="white" stroke-width="1.5042" stroke-miterlimit="10" stroke-linecap="round" stroke-linejoin="round"/>
<path d="M67.0135 222.178C67.0135 222.178 65.9353 222.897 64.7971 224.455" stroke="white" stroke-width="1.5042" stroke-miterlimit="10" stroke-linecap="round" stroke-linejoin="round"/>
<path d="M54.0149 140.592L50.4807 213.493H63.8389L73.603 140.831L54.0149 140.592Z" fill="#8155FF"/>
<path d="M79.8926 141.43L71.7459 154.129L70.0686 141.131L79.8926 141.43Z" fill="#8155FF"/>
<path d="M114.636 129.091L106.669 129.69L108.046 121.663L116.433 122.382L114.636 129.091Z" fill="#FA849B"/>
<path d="M121.344 128.672C119.008 130.708 115.474 130.409 113.437 128.073C111.401 125.737 111.7 122.202 114.036 120.166C116.373 118.129 119.907 118.429 121.944 120.765C123.98 123.161 123.681 126.695 121.344 128.672Z" fill="#FA849B"/>
<path d="M117.99 118.848C117.99 118.848 116.972 116.512 114.576 118.249C112.18 119.986 110.083 123.52 113.438 128.073L117.99 118.848Z" fill="#FA849B"/>
<path d="M117.99 118.848L124.4 117.23C124.939 117.051 125.538 117.35 125.718 117.889C125.897 118.369 125.658 118.848 125.239 119.028L118.709 121.963L117.99 118.848Z" fill="#FA849B"/>
<path d="M84.4452 107.646L94.988 124.359C96.4855 127.054 95.6469 130.409 93.0711 132.086C90.3755 133.823 86.7814 133.104 84.9843 130.409L73.4232 114.355C71.7459 111.779 72.1054 108.365 74.2618 106.208C77.2569 103.213 82.4085 103.932 84.4452 107.646Z" fill="#FFCD2E"/>
<path d="M81.1503 125.137L81.8092 115.972L84.0855 129.091L81.1503 125.137Z" fill="#F2BB19"/>
<path d="M89.5367 122.681L112.779 119.926L112.719 130.528L91.0942 133.284C87.6797 133.943 84.5648 131.247 84.6846 127.773C84.8044 125.137 86.8411 122.921 89.5367 122.681Z" fill="#FFCD2E"/>
<path d="M49.3421 154.13C49.3421 154.13 51.9179 154.31 51.4986 151.375C51.0792 148.439 48.8629 144.845 43.2321 145.624L49.3421 154.13Z" fill="#FA849B"/>
<path d="M30.6308 177.88H56.6882V151.823H30.6308L30.6308 177.88Z" fill="#FFCD2E"/>
<path d="M31.8432 177.88H57.9006V151.823H31.8432L31.8432 177.88Z" fill="#FFCD2E"/>
<path d="M38.9193 152.453C38.2604 149.398 40.1772 146.343 43.2322 145.624C46.2872 144.965 49.3423 146.882 50.0611 149.937C50.72 152.992 48.8031 156.047 45.7481 156.766C42.6332 157.425 39.5782 155.508 38.9193 152.453Z" fill="#FA849B"/>
<path d="M50.0015 124.119L49.7619 147.481L39.5187 147.002L39.2191 124.299C38.9795 120.825 42.0345 118.069 45.5089 118.608C48.2045 119.087 50.1213 121.424 50.0015 124.119Z" fill="#FFCD2E"/>
<path d="M63.1798 114.355L49.0429 128.132C46.7067 130.169 43.2922 130.049 41.0759 127.893C38.7996 125.616 38.7996 121.962 41.016 119.686L54.2543 104.95C56.4108 102.794 59.8253 102.374 62.401 104.052C66.0551 106.388 66.4145 111.539 63.1798 114.355Z" fill="#FFCD2E"/>
<path d="M78.9342 104.351L58.867 103.033C57.0699 102.913 53.8352 106.208 54.0149 108.005V140.592L79.8926 141.431L82.5283 108.365C82.6481 106.268 81.0308 104.471 78.9342 104.351Z" fill="#FFCD2E"/>
<path d="M54.0148 123.28L59.8253 117.589L54.0148 133.044V123.28Z" fill="#F2BB19"/>
<path d="M75.6995 90.8131C75.5797 92.3107 76.658 93.6285 78.0956 93.8082C79.5333 93.928 80.8511 92.8498 80.9709 91.2923C81.0907 89.7948 80.0125 88.4769 78.5748 88.2972C77.0773 88.1774 75.8193 89.3156 75.6995 90.8131Z" fill="#E6728C"/>
<path d="M74.142 97.2824L74.0221 103.872C73.9622 106.148 72.5845 107.406 70.3681 107.346C68.5111 107.286 66.4745 106.328 66.5943 104.291L67.2532 93.9878L74.142 97.2824Z" fill="#FA849B"/>
<path d="M74.0822 101.656C74.0822 101.656 68.7509 102.015 67.1934 95.9649C66.7142 94.048 74.202 96.6238 74.202 96.6238L74.0822 101.656Z" fill="#312725"/>
<path d="M72.1057 99.1394C75.8795 99.1993 78.9944 96.2042 79.1741 93.0893L79.4736 86.5001C79.7132 82.5465 76.8379 79.1321 73.0042 78.7727C69.1105 78.4133 64.9773 81.3485 64.6179 85.4218L64.4382 90.5734C64.2585 95.1859 67.6729 98.78 72.1057 99.1394Z" fill="#F8879D"/>
<path d="M75.2803 90.2144L75.4601 92.3708H74.5615" stroke="#312725" stroke-width="0.5974" stroke-miterlimit="10" stroke-linecap="round" stroke-linejoin="round"/>
<path d="M71.2067 85.8413C71.2067 85.8413 72.7642 85.7215 72.7642 86.3804C72.7642 86.3804 72.7642 86.7998 71.3864 86.8597C70.0686 86.9196 69.7091 86.7998 69.5893 86.3804C69.5294 85.9611 70.4879 85.7814 71.2067 85.8413Z" fill="#312725"/>
<path d="M77.6762 87.339C77.6762 87.339 76.4183 87.1593 76.2985 87.7583C76.2985 87.7583 76.2385 88.1776 77.3168 88.2974C78.395 88.4172 78.8143 88.2974 78.8742 87.938C78.9941 87.5786 78.2752 87.339 77.6762 87.339Z" fill="#312725"/>
<path d="M76.658 89.7947C76.658 90.1541 76.8976 90.4536 77.257 90.5135C77.6164 90.5135 77.9159 90.2739 77.9159 89.8546C77.9159 89.4952 77.6763 89.1956 77.3169 89.1357C77.0174 89.1357 76.7179 89.4353 76.658 89.7947Z" fill="#312725"/>
<path d="M71.0269 89.4951C71.0269 89.8545 71.2665 90.154 71.6259 90.2139C71.9853 90.2139 72.2848 89.9743 72.2848 89.555C72.2848 89.1956 72.0452 88.8961 71.6858 88.8362C71.3863 88.8362 71.0269 89.1357 71.0269 89.4951Z" fill="#312725"/>
<path d="M72.5845 93.3289C72.6444 93.4487 73.483 94.3472 74.741 94.0477" stroke="#312725" stroke-width="0.5974" stroke-miterlimit="10" stroke-linecap="round" stroke-linejoin="round"/>
<path d="M77.9758 75.5383C76.5382 74.9393 72.8841 74.2204 72.0455 77.4551C68.3915 77.1556 62.581 77.2155 62.0418 80.3904C61.2032 85.0627 64.4978 89.6153 64.4978 89.6153L65.3964 90.0945C65.3964 90.0945 67.7325 88.8965 67.1335 83.3256C67.1335 83.3256 75.5797 85.3622 79.5333 83.2058C83.4868 81.1092 82.2888 77.3952 77.9758 75.5383Z" fill="#312725"/>
<path d="M61.0235 90.3342C60.9037 91.8318 61.9819 93.1496 63.4196 93.2694C64.8572 93.3892 66.1751 92.311 66.2949 90.8134C66.4147 89.3159 65.3365 87.998 63.8988 87.8782C62.4012 87.7584 61.1433 88.8367 61.0235 90.3342Z" fill="#F8879D"/>
<path d="M64.4975 91.2925C64.4975 91.2925 64.6772 89.3157 62.8202 89.4954" stroke="#312725" stroke-width="0.5974" stroke-miterlimit="10" stroke-linecap="round" stroke-linejoin="round"/>
<path d="M64.0186 103.333L76.0589 104.111C76.0589 104.111 76.4183 108.244 71.087 107.945C65.0968 107.645 64.0186 103.333 64.0186 103.333Z" fill="#FA849B"/>
<path d="M315.548 203.609L303.687 198.098L307.94 191.449L320.879 197.679L317.105 202.95L315.548 203.609Z" fill="#FA849B"/>
<path d="M317.944 195.103C317.944 195.103 316.327 202.351 310.636 202.231L309.258 219.423L324.893 197.559L317.944 195.103Z" fill="#181F42"/>
<path d="M311.281 220.843L326.953 198.984L324.909 197.518L309.236 219.377L311.281 220.843Z" fill="white"/>
<path d="M310.456 204.447C310.456 204.447 311.714 203.968 313.691 203.968" stroke="white" stroke-width="1.5477" stroke-miterlimit="10" stroke-linecap="round" stroke-linejoin="round"/>
<path d="M310.097 206.964C310.097 206.964 311.355 206.484 313.331 206.484" stroke="white" stroke-width="1.5477" stroke-miterlimit="10" stroke-linecap="round" stroke-linejoin="round"/>
<path d="M309.737 209.539C309.737 209.539 310.995 209.06 312.972 209.06" stroke="white" stroke-width="1.5477" stroke-miterlimit="10" stroke-linecap="round" stroke-linejoin="round"/>
<path d="M288.053 131.427C288.053 131.427 280.326 160.36 279.187 166.05C278.049 171.741 275.773 183.183 280.565 187.256C285.357 191.389 303.747 201.213 303.747 201.213L310.516 189.053L299.554 182.464L288.053 131.427Z" fill="#243B77"/>
<path d="M298.476 223.377L296.08 210.498L303.987 210.138L306.383 224.215H299.913L298.476 223.377Z" fill="#FA849B"/>
<path d="M306.802 220.321C306.802 220.321 299.973 223.257 296.798 218.524L281.943 227.45H308.839L306.802 220.321Z" fill="#181F42"/>
<path d="M281.976 230H308.872V227.484H281.976V230Z" fill="white"/>
<path d="M294.822 219.723C294.822 219.723 295.96 220.501 297.098 222.059" stroke="white" stroke-width="1.5477" stroke-miterlimit="10" stroke-linecap="round" stroke-linejoin="round"/>
<path d="M292.545 220.921C292.545 220.921 293.684 221.699 294.822 223.257" stroke="white" stroke-width="1.5477" stroke-miterlimit="10" stroke-linecap="round" stroke-linejoin="round"/>
<path d="M290.269 222.059C290.269 222.059 291.407 222.837 292.545 224.395" stroke="white" stroke-width="1.5477" stroke-miterlimit="10" stroke-linecap="round" stroke-linejoin="round"/>
<path d="M288.053 131.427L287.274 175.035C287.274 176.593 287.394 178.15 287.633 179.708L294.103 213.373H307.701L303.927 175.455C304.107 168.506 306.383 160.659 307.281 152.153C307.281 152.153 309.917 136.339 302.669 131.546L288.053 131.427Z" fill="#2B4183"/>
<path d="M279.367 125.437L257.203 117.35L254.628 121.663L276.252 133.104C279.846 134.482 283.56 131.367 282.901 127.593C282.542 125.856 281.044 126.036 279.367 125.437Z" fill="#FA849B"/>
<path d="M254.448 114.055C254.029 113.636 253.43 113.456 252.89 113.576C252.172 113.755 251.872 114.474 252.291 115.133L252.591 115.672C251.872 115.972 250.435 116.032 247.739 113.276C247.26 112.797 246.541 112.737 246.062 113.037C245.702 113.276 245.642 113.755 245.822 114.115C245.822 114.115 245.822 114.175 245.882 114.175C245.523 114.055 245.103 114.055 244.804 114.295C244.444 114.534 244.384 115.013 244.564 115.373C244.564 115.433 244.624 115.493 244.684 115.552C244.504 115.552 244.324 115.612 244.205 115.732C243.845 115.972 243.785 116.451 243.965 116.81C244.025 116.93 244.085 117.05 244.205 117.11C244.265 117.17 244.265 117.17 244.324 117.23H244.265C243.905 117.469 243.845 117.949 244.025 118.308C244.085 118.428 244.145 118.548 244.265 118.607C244.983 119.386 245.762 119.985 246.481 120.464C246.481 120.464 246.481 120.464 246.541 120.464C246.9 120.704 247.2 120.884 247.559 121.063C249.117 121.962 252.411 121.183 255.287 121.663L257.503 117.469L254.448 114.055Z" fill="#FA849B"/>
<path d="M246.599 129.112L257.312 104.637L232.837 93.9234L222.124 118.398L246.599 129.112Z" fill="#FFCD2E"/>
<path d="M254.807 114.474L252.651 111.959C252.291 111.539 251.692 111.539 251.333 111.959C251.093 112.258 251.033 112.617 251.213 112.917L252.291 115.073C252.291 115.073 251.333 118.009 253.609 120.525L254.807 114.474Z" fill="#FA849B"/>
<path d="M289.191 125.916L281.104 132.325C279.487 133.643 277.211 133.763 275.414 132.684C272.898 131.127 271.4 129.749 273.197 127.413L282.063 118.428L289.191 125.916Z" fill="#FA849B"/>
<path d="M295.421 118.188C295.421 118.188 294.343 123.46 287.993 128.312L278.169 119.027L286.136 110.161L295.421 118.188Z" fill="#7041FD"/>
<path d="M310.756 125.197L327.828 146.702L331.662 144.126C331.662 144.126 321.898 125.916 317.345 120.165C314.949 117.17 310.157 117.949 308.839 121.543C308.24 123.22 309.618 123.819 310.756 125.197Z" fill="#FA849B"/>
<path d="M328.667 151.074C328.787 151.614 329.266 152.093 329.745 152.213C330.464 152.392 331.003 151.913 331.003 151.194V150.595C331.722 150.715 333.04 151.314 334.058 154.908C334.238 155.507 334.837 155.927 335.376 155.867C335.795 155.807 336.095 155.507 336.095 155.028V154.968C336.334 155.268 336.694 155.387 337.053 155.387C337.472 155.328 337.772 155.028 337.772 154.549C337.772 154.489 337.772 154.429 337.772 154.369C337.952 154.429 338.131 154.489 338.311 154.429C338.73 154.369 339.03 154.07 339.03 153.59C339.03 153.471 339.03 153.351 338.97 153.231C338.97 153.171 338.97 153.111 338.91 153.111H338.97C339.389 153.051 339.689 152.752 339.689 152.273C339.689 152.153 339.689 152.033 339.629 151.913C339.329 150.955 339.03 150.056 338.611 149.277C338.611 149.277 338.611 149.277 338.611 149.218C338.431 148.858 338.251 148.499 338.011 148.199C337.113 146.702 333.938 145.803 331.662 144.066L327.828 146.642L328.667 151.074Z" fill="#FA849B"/>
<path d="M308.18 111.899L315.967 118.728C317.525 120.105 318.064 122.322 317.285 124.239C316.207 126.994 315.069 128.731 312.493 127.353L302.07 120.225L308.18 111.899Z" fill="#FA849B"/>
<path d="M298.177 107.167C298.177 107.167 304.826 107.286 310.696 112.678L305.425 122.501L295.002 118.907L298.177 107.167Z" fill="#8155FF"/>
<path d="M289.79 107.765C289.79 107.765 283.321 109.562 283.321 118.188C283.321 122.921 288.053 131.427 288.053 131.427L302.609 131.487C302.609 131.487 304.766 125.556 306.024 120.165C307.281 114.774 303.208 109.682 298.236 107.106L289.79 107.765Z" fill="#8155FF"/>
<path d="M305.424 122.501L299.734 118.428L304.106 126.934L305.424 122.501Z" fill="#7041FD"/>
<path d="M293.445 110.521C295.482 110.222 296.201 108.844 295.901 106.867L293.625 95.3062L287.515 96.2646L289.192 107.406C289.552 109.443 291.468 110.821 293.445 110.521Z" fill="#F8879D"/>
<path d="M292.247 97.582C292.247 97.582 294.224 103.752 288.953 105.849L288.473 102.135L293.865 98.0613" fill="#32292A"/>
<path d="M287.754 102.914C291.588 102.555 294.403 99.4996 294.044 96.0852L292.966 84.9434H286.556C284.22 85.183 280.925 88.2979 281.165 90.3945L282.303 97.2832C282.483 99.859 284.52 103.214 287.754 102.914Z" fill="#F8879D"/>
<path d="M282.543 93.3896L281.105 97.1036C280.866 97.463 281.165 97.9422 281.644 97.8823L284.16 97.6427L282.543 93.3896Z" fill="#F8879D"/>
<path d="M283.86 91.6518C283.86 91.6518 282.483 91.7117 282.542 92.2509C282.542 92.2509 282.602 92.6103 283.8 92.5504C284.998 92.4905 285.298 92.3707 285.358 92.0112C285.418 91.6518 284.459 91.5919 283.86 91.6518Z" fill="#312725"/>
<path d="M283.92 94.3473C283.98 94.6468 283.74 94.9463 283.441 95.0062C283.141 95.0661 282.842 94.8265 282.782 94.527C282.722 94.2274 282.962 93.9279 283.261 93.868C283.561 93.8081 283.86 93.9878 283.92 94.3473Z" fill="#312725"/>
<path d="M283.5 98.6601C283.5 98.6601 284.459 98.6601 284.878 97.522" stroke="#312725" stroke-width="0.5974" stroke-miterlimit="10" stroke-linecap="round" stroke-linejoin="round"/>
<path d="M294.104 106.508L298.237 107.166C298.237 107.166 293.924 114.175 289.611 112.498C284.699 110.581 291.228 106.867 291.228 106.867L294.104 106.508Z" fill="#F8879D"/>
<path d="M292.366 93.8682C289.132 93.0296 288.533 90.0344 288.533 90.0344L279.967 91.7117C279.967 91.7117 278.649 83.2056 288.892 81.5882C294.044 80.8095 297.278 83.2655 299.016 85.7215C300.633 88.0577 300.813 91.1726 299.674 93.8083C298.836 95.6652 296.739 98.3009 294.463 99.499L293.684 95.2459C293.624 95.2459 292.906 94.0479 292.366 93.8682Z" fill="#32292A"/>
<path d="M296.44 93.2692C296.44 94.7667 295.242 96.0247 293.744 96.0247C292.247 96.0247 291.108 94.7667 291.108 93.2692C291.108 91.7716 292.306 90.5137 293.804 90.5137C295.242 90.5137 296.44 91.7716 296.44 93.2692Z" fill="#F8879D"/>
<path d="M292.845 93.9281C292.845 93.9281 292.845 91.9514 294.702 92.2509" stroke="#312725" stroke-width="0.6026" stroke-miterlimit="10" stroke-linecap="round" stroke-linejoin="round"/>
<path d="M310.038 82.367C310.637 85.9612 308.241 89.4355 304.587 90.0345C300.992 90.6335 297.518 88.2374 296.919 84.5834C296.32 80.9893 298.716 77.5149 302.37 76.9159C305.964 76.3169 309.439 78.7729 310.038 82.367Z" fill="#32292A"/>
</svg>
