<?xml version="1.0" encoding="utf-8"?>
<!-- Generator: Adobe Illustrator 26.5.0, SVG Export Plug-In . SVG Version: 6.00 Build 0)  -->
<svg version="1.1" id="Layer_1" xmlns="http://www.w3.org/2000/svg" xmlns:xlink="http://www.w3.org/1999/xlink" x="0px" y="0px"
	 viewBox="0 0 512 512" style="enable-background:new 0 0 512 512;" xml:space="preserve">
<style type="text/css">
	.st0{fill:#0FB3C9;}
	.st1{fill:#FFFFFF;}
</style>
<g>
	<path class="st0" d="M256,512L256,512C114.6,512,0,397.4,0,256v0c0-141.4,114.6-256,256-256h0c141.4,0,256,114.6,256,256v0
		C512,397.4,397.4,512,256,512z"/>
	<g>
		<path class="st1" d="M384.5,200c0-43.9-35.6-79.5-79.5-79.5h-97.9c-43.9,0-79.5,35.6-79.5,79.5v76c0,43.9,35.6,79.5,79.5,79.5
			h69.7c10.5,7.3,19.9,19.5,3.8,35.8c0,0,75.6,2.6,98.8-87l0,0c3.4-8.8,5.2-18.4,5.2-28.4V200z M201.7,251.4
			c-7.4,0-13.4-6-13.4-13.4c0-7.4,6-13.4,13.4-13.4c7.4,0,13.4,6,13.4,13.4C215.1,245.4,209.1,251.4,201.7,251.4z M254.5,255.2
			c-9.5,0-17.1-7.7-17.1-17.1c0-9.5,7.7-17.1,17.1-17.1c9.5,0,17.1,7.7,17.1,17.1C271.6,247.5,263.9,255.2,254.5,255.2z M306,251.4
			c-7.4,0-13.4-6-13.4-13.4c0-7.4,6-13.4,13.4-13.4s13.4,6,13.4,13.4C319.4,245.4,313.4,251.4,306,251.4z"/>
	</g>
</g>
</svg>
