<svg width="460" height="207" viewBox="0 0 460 207" fill="none" xmlns="http://www.w3.org/2000/svg">
<path d="M0 20C0 8.95431 8.95431 0 20 0H440C451.046 0 460 8.9543 460 20V206H0V20Z" fill="#6842EF"/>
<path d="M137.114 189.481C139.543 189.756 141.743 190.26 143.76 190.947C143.806 190.947 143.806 190.947 143.852 190.993C143.943 191.039 143.989 191.039 144.081 191.085C156.182 195.394 161.728 194.614 166.495 193.148C179.33 189.206 186.985 172.2 207.795 175.5C216.641 176.875 223.746 178.8 229.247 182.651C229.293 182.697 229.338 182.697 229.384 182.742C230.163 183.293 230.943 183.888 231.676 184.438C242.494 191.497 253.266 182.284 256.382 180.221C256.612 180.038 256.841 178.755 257.07 178.571C257.208 178.48 257.253 178.434 257.253 178.434C270.821 168.854 292.411 159.182 313.175 161.566C348.928 165.645 363.275 206.165 363.275 206.165H246.894H237.406H163.333H147.014H96.3184C100.49 196.54 117.174 187.189 137.114 189.481Z" fill="#9274FF"/>
<path d="M110.021 86.3922H131.061C131.565 86.3922 131.932 85.9797 131.932 85.5213V79.6541C131.932 79.1499 131.519 78.7832 131.061 78.7832H110.021C109.517 78.7832 109.15 79.1957 109.15 79.6541V85.5213C109.15 86.0255 109.517 86.3922 110.021 86.3922Z" fill="#5B38D9"/>
<path d="M113.6 81.7627H128.543" stroke="white" stroke-width="0.6238" stroke-miterlimit="10"/>
<path d="M113.6 83.4587H118" stroke="white" stroke-width="0.6238" stroke-miterlimit="10"/>
<path d="M129.228 85.384V88.8218L124.873 85.384H129.228Z" fill="#5B38D9"/>
<path d="M356.954 122.558C358.371 122.558 359.521 121.388 359.521 119.945C359.521 118.502 358.371 117.333 356.954 117.333C355.536 117.333 354.387 118.502 354.387 119.945C354.387 121.388 355.536 122.558 356.954 122.558Z" stroke="#5B38D9" stroke-width="1.0888" stroke-miterlimit="10"/>
<path d="M99.667 140.022C101.692 140.022 103.334 138.36 103.334 136.309C103.334 134.259 101.692 132.596 99.667 132.596C97.6418 132.596 96 134.259 96 136.309C96 138.36 97.6418 140.022 99.667 140.022Z" stroke="#5B38D9" stroke-width="1.0888" stroke-miterlimit="10"/>
<path d="M238.737 59.119C238.737 59.8982 238.095 60.5399 237.361 60.5399C236.628 60.5399 235.986 59.8982 235.986 59.119C235.986 58.3397 236.628 57.698 237.361 57.698C238.095 57.698 238.737 58.3397 238.737 59.119Z" stroke="#5B38D9" stroke-width="1.0888" stroke-miterlimit="10"/>
<path d="M118.92 51.556H178.554C178.554 51.556 178.279 49.1725 171.633 47.2931C164.986 45.4138 160.265 50.2726 152.748 47.2931C145.276 44.3137 141.289 40.0967 131.617 42.4344C121.991 44.8179 118.92 51.556 118.92 51.556Z" stroke="#5B38D9" stroke-width="1.103" stroke-miterlimit="10" stroke-linecap="round" stroke-linejoin="round"/>
<path d="M333.348 72.4578H364.196C364.196 72.4578 364.059 70.991 360.621 69.7992C357.183 68.6075 354.754 71.6786 350.858 69.7992C347.007 67.9199 344.944 65.2613 339.948 66.774C334.952 68.2408 333.348 72.4578 333.348 72.4578Z" stroke="#5B38D9" stroke-width="1.103" stroke-miterlimit="10" stroke-linecap="round" stroke-linejoin="round"/>
<path d="M233.646 38.165C234.532 32.6664 230.792 27.4905 225.294 26.6044C219.795 25.7184 214.619 29.4576 213.733 34.9562C212.847 40.4548 216.586 45.6307 222.085 46.5168C227.584 47.4028 232.76 43.6636 233.646 38.165Z" fill="#5B38D9"/>
<path d="M160.485 77.5914C161.127 81.6251 158.285 88.3174 154.389 88.3174C150.493 88.3174 147.33 85.0171 147.33 80.8917C147.33 76.7664 150.585 74.1995 154.389 73.4661C157.964 72.8243 159.89 73.6953 160.485 77.5914Z" fill="#202730"/>
<path d="M119.231 185.722C119.231 185.722 116.71 188.609 114.098 189.526C114.098 189.526 116.252 194.477 120.332 191.726C120.332 191.726 119.002 190.397 124.09 187.876C129.132 185.309 119.231 185.722 119.231 185.722Z" fill="#DE6004"/>
<path d="M101.08 192.735C101.08 192.735 101.172 191.498 101.584 191.222C101.997 190.947 110.385 191.268 112.127 189.847C113.869 188.426 114.052 187.418 114.465 187.556C114.877 187.693 116.848 188.701 117.123 189.343C117.398 189.985 116.344 192.185 120.378 191.681C120.378 191.681 121.89 193.973 119.965 197.915C119.919 197.961 101.126 192.552 101.08 192.735Z" fill="#202730"/>
<path d="M103.419 192.322C105.482 192.964 107.59 193.514 109.699 194.11C111.807 194.706 113.916 195.302 116.024 195.898C116.574 196.035 117.124 196.219 117.674 196.402C118.224 196.585 118.729 196.815 119.233 197.044C119.416 197.135 119.508 196.86 119.37 196.723C118.591 196.127 117.537 195.898 116.62 195.669C115.566 195.394 114.511 195.119 113.457 194.844C111.349 194.293 109.194 193.698 107.086 193.102C105.848 192.781 104.656 192.414 103.419 192.139C103.327 192.093 103.281 192.277 103.419 192.322Z" fill="#656565"/>
<path d="M169.928 193.973C169.882 194.752 169.882 195.531 169.882 196.31C169.882 197.181 170.02 197.777 170.432 198.511C170.982 199.473 171.257 199.29 170.34 200.161C168.874 201.49 164.519 202.04 164.611 199.152C164.702 196.861 164.794 194.615 164.886 192.323C164.886 192.048 164.932 191.727 165.115 191.498C165.848 190.581 169.149 192.323 170.02 192.598C169.974 193.056 169.928 193.514 169.928 193.973Z" fill="#E06001"/>
<path d="M182.808 206.074C182.808 206.074 183.037 204.836 182.716 204.469C182.396 204.103 174.282 202.086 172.953 200.252C171.67 198.419 171.761 197.41 171.349 197.41C170.936 197.41 168.736 197.869 168.323 198.419C167.911 198.969 168.278 201.352 164.565 199.794C164.565 199.794 162.502 201.582 163.281 205.936C163.236 205.936 182.808 205.89 182.808 206.074Z" fill="#202730"/>
<path d="M180.652 204.836C178.498 204.744 176.298 204.79 174.143 204.744C171.943 204.744 169.743 204.698 167.543 204.652C166.947 204.652 166.397 204.606 165.801 204.652C165.251 204.652 164.655 204.698 164.105 204.927C163.967 204.973 163.921 205.294 164.151 205.248C164.655 205.202 165.113 205.111 165.617 205.065C166.122 205.019 166.672 205.019 167.176 205.019C168.276 205.019 169.33 205.019 170.43 205.019C172.585 205.019 174.739 205.019 176.893 205.019C178.131 205.019 179.369 205.065 180.606 205.019C180.79 205.065 180.79 204.836 180.652 204.836Z" fill="#656565"/>
<path d="M119.783 183.705C121.754 184.713 123.863 185.447 126.063 185.767C126.384 185.813 126.567 185.309 126.2 185.263C124.046 184.896 121.983 184.255 120.012 183.292C119.737 183.109 119.462 183.567 119.783 183.705Z" fill="#FDFAF1"/>
<path d="M177.032 127.921C177.032 127.921 174.19 162.803 173.778 174.309C173.365 185.814 172.953 195.485 172.953 195.485L163.373 193.652C163.373 193.652 162.548 192.873 162.914 188.656C163.281 184.439 156.176 195.715 160.256 155.424L160.577 148.915C137.383 186.593 131.974 181.872 130.003 185.63C128.032 189.389 126.932 189.572 126.932 189.572L117.627 186.318C117.627 186.318 122.807 177.563 128.628 167.662C134.495 157.761 154.48 125.171 154.48 125.171" fill="#202730"/>
<path d="M170.843 189.481C168.689 189.252 166.58 188.656 164.564 187.785C164.289 187.693 164.105 188.106 164.38 188.244C166.397 189.206 168.597 189.756 170.843 189.939C171.164 189.985 171.118 189.527 170.843 189.481Z" fill="#656565"/>
<path d="M127.936 184.622C125.781 184.21 123.765 183.476 121.794 182.514C121.519 182.376 121.244 182.789 121.564 182.926C123.49 183.98 125.644 184.714 127.844 185.035C128.119 185.08 128.257 184.668 127.936 184.622Z" fill="#656565"/>
<path d="M157.094 129.296C156.911 129.846 156.636 130.396 156.315 130.855C155.948 131.45 155.582 132 155.123 132.505C154.115 133.696 152.556 134.109 151.044 134.246C150.86 134.246 150.86 134.521 151.044 134.521C152.556 134.705 154.344 133.971 155.352 132.826C155.811 132.275 156.223 131.68 156.59 131.084C156.911 130.534 157.232 129.938 157.415 129.342C157.507 129.204 157.14 129.113 157.094 129.296Z" fill="#656565"/>
<path d="M171.623 135.942C171.623 137.455 172.036 139.013 172.769 140.389C173.136 141.076 173.548 141.672 174.052 142.222C174.557 142.772 175.153 143.368 175.84 143.689C175.978 143.781 176.161 143.597 176.023 143.46C175.519 142.955 174.923 142.497 174.465 141.901C174.007 141.351 173.594 140.755 173.227 140.114C172.54 138.83 172.127 137.409 172.036 135.897C172.081 135.667 171.623 135.667 171.623 135.942Z" fill="#8066FF"/>
<path d="M151.088 109.494L140.912 109.54C140.912 109.54 142.196 100.281 144.442 97.6682C146.688 95.0555 162.96 89.5092 164.152 89.4175C165.343 89.3258 168.781 89.555 171.44 89.6467C174.053 89.7383 177.628 128.929 177.628 128.929C177.628 128.929 175.794 128.288 168.46 128.838C160.531 129.388 154.022 125.95 154.022 125.95L151.088 109.494Z" fill="#FFD600"/>
<path d="M160.487 77.5918C160.487 77.5918 161.817 84.4674 161.083 85.8884C160.396 87.3093 158.929 87.2635 158.929 87.2635L159.754 91.4805C159.754 91.4805 161.633 93.1307 160.029 94.3683C158.425 95.6059 153.062 94.0016 153.062 94.0016L152.466 85.7967C152.466 85.7967 149.257 85.6133 149.532 82.9548C149.807 80.2962 152.558 81.763 152.558 81.763C152.558 81.763 153.841 80.2504 153.612 78.2335C153.612 78.2335 155.858 79.3336 156.5 77.7293C156.454 77.6835 158.654 79.1044 160.487 77.5918Z" fill="#DE6004"/>
<path d="M156.362 77.5915C157.966 78.0957 159.799 78.5082 160.899 77.2248C161.404 76.6747 161.633 75.9413 161.724 75.2079C162 73.6495 161.908 71.9535 161.083 70.5784C160.899 71.9535 159.387 72.9619 158.057 72.5952C157.691 72.5035 157.324 72.2743 156.957 72.1368C155.216 71.4493 153.107 72.0452 151.64 73.1911C150.173 74.3829 149.211 76.0788 148.432 77.8207" fill="#202730"/>
<path d="M275.996 100.327H171.074V205.57H275.996V100.327Z" fill="white"/>
<path d="M275.996 83.7801V100.327H171.074V83.7801C171.074 80.4799 173.733 77.8213 177.033 77.8213H270.037C273.337 77.8213 275.996 80.4799 275.996 83.7801Z" fill="#202730"/>
<path d="M259.722 93.0395C262.456 93.0395 264.672 90.8232 264.672 88.0891C264.672 85.3551 262.456 83.1387 259.722 83.1387C256.988 83.1387 254.771 85.3551 254.771 88.0891C254.771 90.8232 256.988 93.0395 259.722 93.0395Z" fill="black"/>
<path d="M259.723 89.9683C261.281 89.9683 262.565 88.6849 262.565 87.1264V74.3378C262.565 72.7793 261.281 71.4958 259.723 71.4958C258.164 71.4958 256.881 72.7793 256.881 74.3378V87.1264C256.881 88.6849 258.164 89.9683 259.723 89.9683Z" fill="#24CBC7"/>
<path d="M224.884 93.0395C227.618 93.0395 229.834 90.8232 229.834 88.0891C229.834 85.3551 227.618 83.1387 224.884 83.1387C222.15 83.1387 219.934 85.3551 219.934 88.0891C219.934 90.8232 222.15 93.0395 224.884 93.0395Z" fill="black"/>
<path d="M224.885 89.9683C226.443 89.9683 227.727 88.6849 227.727 87.1264V74.3378C227.727 72.7793 226.443 71.4958 224.885 71.4958C223.326 71.4958 222.043 72.7793 222.043 74.3378V87.1264C222.043 88.6849 223.326 89.9683 224.885 89.9683Z" fill="#24CBC7"/>
<path d="M190.05 93.0395C192.784 93.0395 195 90.8232 195 88.0891C195 85.3551 192.784 83.1387 190.05 83.1387C187.316 83.1387 185.1 85.3551 185.1 88.0891C185.1 90.8232 187.316 93.0395 190.05 93.0395Z" fill="black"/>
<path d="M190.051 89.9683C191.609 89.9683 192.893 88.6849 192.893 87.1264V74.3378C192.893 72.7793 191.609 71.4958 190.051 71.4958C188.492 71.4958 187.209 72.7793 187.209 74.3378V87.1264C187.209 88.6849 188.492 89.9683 190.051 89.9683Z" fill="#24CBC7"/>
<path d="M240.559 137.194H260.498V117.255H240.559V137.194Z" stroke="#EBE6FF" stroke-width="2.2132" stroke-miterlimit="10"/>
<path d="M214.012 137.194H233.951V117.255H214.012V137.194Z" stroke="#EBE6FF" stroke-width="2.2132" stroke-miterlimit="10"/>
<path d="M187.467 137.194H207.406V117.255H187.467V137.194Z" stroke="#EBE6FF" stroke-width="2.2132" stroke-miterlimit="10"/>
<path d="M240.559 162.494H260.498V142.555H240.559V162.494Z" stroke="#EBE6FF" stroke-width="2.2132" stroke-miterlimit="10"/>
<path d="M214.012 162.494H233.951V142.555H214.012V162.494Z" stroke="#EBE6FF" stroke-width="2.2132" stroke-miterlimit="10"/>
<path d="M187.467 162.494H207.406V142.555H187.467V162.494Z" fill="#6842EF"/>
<path d="M193.814 152.261L196.565 155.012" stroke="white" stroke-width="2.0174" stroke-miterlimit="10"/>
<path d="M201.56 149.373L196.014 155.057" stroke="white" stroke-width="2.0174" stroke-miterlimit="10"/>
<path d="M240.559 187.839H260.498V167.9H240.559V187.839Z" stroke="#EBE6FF" stroke-width="2.2132" stroke-miterlimit="10"/>
<path d="M214.012 187.839H233.951V167.9H214.012V187.839Z" stroke="#EBE6FF" stroke-width="2.2132" stroke-miterlimit="10"/>
<path d="M187.467 187.839H207.406V167.9H187.467V187.839Z" stroke="#EBE6FF" stroke-width="2.2132" stroke-miterlimit="10"/>
<path d="M274.212 136.219H264.494V142.59H274.212V136.219Z" fill="#FFA80A"/>
<path d="M275.679 137.868H262.982C261.515 137.868 260.369 136.677 260.369 135.256C260.369 133.789 261.561 132.643 262.982 132.643H275.679C277.146 132.643 278.292 133.835 278.292 135.256C278.292 136.722 277.146 137.868 275.679 137.868Z" fill="#FFCB2D"/>
<path d="M245.792 145.922L240.314 151.399L244.171 155.256L249.649 149.779L245.792 145.922Z" fill="#FFA80A"/>
<path d="M247.533 145.707L239.879 153.362C239.099 154.141 237.862 154.141 237.082 153.362C236.303 152.582 236.303 151.345 237.082 150.565L244.737 142.911C245.517 142.131 246.754 142.131 247.533 142.911C248.313 143.69 248.313 144.927 247.533 145.707Z" fill="#FFCB2D"/>
<path d="M269.216 205.478C287.342 205.478 302.036 190.785 302.036 172.659C302.036 154.533 287.342 139.839 269.216 139.839C251.09 139.839 236.396 154.533 236.396 172.659C236.396 190.785 251.09 205.478 269.216 205.478Z" fill="#13B3C9"/>
<path d="M269.215 203.691C286.354 203.691 300.247 189.797 300.247 172.659C300.247 155.52 286.354 141.627 269.215 141.627C252.077 141.627 238.184 155.52 238.184 172.659C238.184 189.797 252.077 203.691 269.215 203.691Z" fill="#24CBC7"/>
<path d="M269.218 200.207C284.433 200.207 296.766 187.873 296.766 172.659C296.766 157.444 284.433 145.111 269.218 145.111C254.004 145.111 241.67 157.444 241.67 172.659C241.67 187.873 254.004 200.207 269.218 200.207Z" fill="#F6F6F6"/>
<path d="M269.352 151.344C268.985 151.344 268.664 151.023 268.664 150.656V149.052C268.664 148.685 268.985 148.365 269.352 148.365C269.718 148.365 270.039 148.685 270.039 149.052V150.656C270.039 151.023 269.718 151.344 269.352 151.344Z" fill="#6842EF"/>
<path d="M269.352 197.365C268.985 197.365 268.664 197.044 268.664 196.677V195.073C268.664 194.706 268.985 194.385 269.352 194.385C269.718 194.385 270.039 194.706 270.039 195.073V196.677C270.039 197.044 269.718 197.365 269.352 197.365Z" fill="#6842EF"/>
<path d="M253.677 157.853C253.493 157.853 253.31 157.807 253.173 157.67L252.027 156.524C251.752 156.249 251.752 155.836 252.027 155.561C252.302 155.286 252.714 155.286 252.989 155.561L254.135 156.707C254.41 156.982 254.41 157.395 254.135 157.67C253.998 157.761 253.86 157.853 253.677 157.853Z" fill="#6842EF"/>
<path d="M286.22 190.398C286.036 190.398 285.853 190.352 285.715 190.214L284.57 189.068C284.295 188.793 284.295 188.381 284.57 188.106C284.845 187.831 285.257 187.831 285.532 188.106L286.678 189.252C286.953 189.527 286.953 189.939 286.678 190.214C286.541 190.306 286.357 190.398 286.22 190.398Z" fill="#6842EF"/>
<path d="M252.531 190.398C252.347 190.398 252.164 190.352 252.027 190.214C251.752 189.939 251.752 189.527 252.027 189.252L253.173 188.106C253.448 187.831 253.86 187.831 254.135 188.106C254.41 188.381 254.41 188.793 254.135 189.068L252.989 190.214C252.852 190.306 252.668 190.398 252.531 190.398Z" fill="#6842EF"/>
<path d="M285.074 157.853C284.89 157.853 284.707 157.807 284.57 157.67C284.295 157.395 284.295 156.982 284.57 156.707L285.715 155.561C285.991 155.286 286.403 155.286 286.678 155.561C286.953 155.836 286.953 156.249 286.678 156.524L285.532 157.67C285.395 157.761 285.211 157.853 285.074 157.853Z" fill="#6842EF"/>
<path d="M247.165 173.529H245.561C245.194 173.529 244.873 173.208 244.873 172.842C244.873 172.475 245.194 172.154 245.561 172.154H247.165C247.532 172.154 247.852 172.475 247.852 172.842C247.852 173.208 247.532 173.529 247.165 173.529Z" fill="#6842EF"/>
<path d="M293.184 173.529H291.58C291.213 173.529 290.893 173.208 290.893 172.842C290.893 172.475 291.213 172.154 291.58 172.154H293.184C293.551 172.154 293.872 172.475 293.872 172.842C293.872 173.208 293.551 173.529 293.184 173.529Z" fill="#6842EF"/>
<path d="M271.001 172.567H267.701V158.22C267.701 157.303 268.435 156.57 269.351 156.57C270.268 156.57 271.001 157.303 271.001 158.22V172.567Z" fill="#6842EF"/>
<path d="M269.351 176.372C271.453 176.372 273.156 174.669 273.156 172.567C273.156 170.466 271.453 168.763 269.351 168.763C267.25 168.763 265.547 170.466 265.547 172.567C265.547 174.669 267.25 176.372 269.351 176.372Z" fill="#202730"/>
<path d="M336.416 186.042L327.34 181.825L330.594 176.737L340.495 181.504L337.607 185.538L336.416 186.042Z" fill="#FA849B"/>
<path d="M338.248 179.533C338.248 179.533 337.01 185.079 332.656 184.988L331.602 198.143L343.565 181.412L338.248 179.533Z" fill="#202730"/>
<path d="M333.148 199.229L345.141 182.503L343.576 181.381L331.584 198.107L333.148 199.229Z" fill="white"/>
<path d="M332.518 186.684C332.518 186.684 333.48 186.317 334.993 186.317" stroke="white" stroke-width="1.5477" stroke-miterlimit="10" stroke-linecap="round" stroke-linejoin="round"/>
<path d="M332.244 188.608C332.244 188.608 333.207 188.242 334.719 188.242" stroke="white" stroke-width="1.5477" stroke-miterlimit="10" stroke-linecap="round" stroke-linejoin="round"/>
<path d="M331.969 190.58C331.969 190.58 332.931 190.213 334.444 190.213" stroke="white" stroke-width="1.5477" stroke-miterlimit="10" stroke-linecap="round" stroke-linejoin="round"/>
<path d="M315.376 130.809C315.376 130.809 309.463 152.948 308.592 157.303C307.721 161.657 305.98 170.412 309.646 173.529C313.313 176.692 327.386 184.209 327.386 184.209L332.565 174.904L324.177 169.862L315.376 130.809Z" fill="#12192C"/>
<path d="M323.349 201.169L321.516 191.314L327.566 191.039L329.4 201.811H324.449L323.349 201.169Z" fill="#FA849B"/>
<path d="M329.718 198.831C329.718 198.831 324.492 201.077 322.063 197.456L310.695 204.286H331.276L329.718 198.831Z" fill="#202730"/>
<path d="M310.722 206.237H331.303V204.312H310.722V206.237Z" fill="white"/>
<path d="M320.551 198.373C320.551 198.373 321.422 198.968 322.293 200.16" stroke="white" stroke-width="1.5477" stroke-miterlimit="10" stroke-linecap="round" stroke-linejoin="round"/>
<path d="M318.809 199.29C318.809 199.29 319.679 199.885 320.55 201.077" stroke="white" stroke-width="1.5477" stroke-miterlimit="10" stroke-linecap="round" stroke-linejoin="round"/>
<path d="M317.066 200.161C317.066 200.161 317.937 200.757 318.808 201.948" stroke="white" stroke-width="1.5477" stroke-miterlimit="10" stroke-linecap="round" stroke-linejoin="round"/>
<path d="M315.373 130.809L314.777 164.178C314.777 165.37 314.869 166.562 315.052 167.754L320.003 193.514H330.408L327.52 164.499C327.658 159.182 329.399 153.177 330.087 146.668C330.087 146.668 332.104 134.567 326.558 130.9L315.373 130.809Z" fill="#202730"/>
<path d="M308.736 126.225L291.776 120.037L289.805 123.337L306.352 132.092C309.102 133.146 311.944 130.763 311.44 127.875C311.165 126.546 310.019 126.683 308.736 126.225Z" fill="#FA849B"/>
<path d="M289.671 117.516C289.35 117.195 288.892 117.057 288.479 117.149C287.929 117.286 287.7 117.836 288.021 118.341L288.25 118.753C287.7 118.982 286.6 119.028 284.537 116.92C284.17 116.553 283.62 116.507 283.254 116.736C282.979 116.92 282.933 117.286 283.07 117.561C283.07 117.561 283.07 117.607 283.116 117.607C282.841 117.516 282.52 117.516 282.291 117.699C282.016 117.882 281.97 118.249 282.108 118.524C282.108 118.57 282.154 118.616 282.199 118.661C282.062 118.661 281.924 118.707 281.833 118.799C281.558 118.982 281.512 119.349 281.649 119.624C281.695 119.716 281.741 119.807 281.833 119.853C281.878 119.899 281.878 119.899 281.924 119.945H281.878C281.603 120.128 281.558 120.495 281.695 120.77C281.741 120.862 281.787 120.953 281.878 120.999C282.429 121.595 283.024 122.053 283.574 122.42C283.574 122.42 283.574 122.42 283.62 122.42C283.895 122.603 284.125 122.741 284.4 122.878C285.591 123.566 288.112 122.97 290.313 123.337L292.009 120.128L289.671 117.516Z" fill="#FA849B"/>
<path d="M283.66 129.037L291.857 110.308L273.129 102.111L264.931 120.839L283.66 129.037Z" fill="#24CBC7"/>
<path d="M289.943 117.836L288.293 115.911C288.018 115.59 287.56 115.59 287.285 115.911C287.102 116.14 287.056 116.416 287.193 116.645L288.018 118.295C288.018 118.295 287.285 120.541 289.027 122.466L289.943 117.836Z" fill="#FA849B"/>
<path d="M316.251 126.591L310.063 131.496C308.825 132.504 307.083 132.596 305.708 131.771C303.783 130.579 302.637 129.525 304.012 127.737L310.796 120.862L316.251 126.591Z" fill="#FA849B"/>
<path d="M321.018 120.678C321.018 120.678 320.192 124.712 315.334 128.425L307.816 121.32L313.913 114.536L321.018 120.678Z" fill="#EDEDED"/>
<path d="M332.748 126.041L345.811 142.497L348.745 140.526C348.745 140.526 341.273 126.591 337.79 122.191C335.956 119.899 332.289 120.495 331.281 123.245C330.823 124.529 331.877 124.987 332.748 126.041Z" fill="#FA849B"/>
<path d="M346.45 145.843C346.542 146.255 346.909 146.622 347.275 146.714C347.825 146.851 348.238 146.485 348.238 145.935V145.476C348.788 145.568 349.796 146.026 350.576 148.777C350.713 149.235 351.172 149.556 351.584 149.51C351.905 149.464 352.134 149.235 352.134 148.868V148.822C352.318 149.052 352.593 149.143 352.868 149.143C353.188 149.097 353.418 148.868 353.418 148.502C353.418 148.456 353.418 148.41 353.418 148.364C353.555 148.41 353.693 148.456 353.83 148.41C354.151 148.364 354.38 148.135 354.38 147.768C354.38 147.676 354.38 147.585 354.334 147.493C354.334 147.447 354.334 147.401 354.289 147.401H354.334C354.655 147.356 354.884 147.126 354.884 146.76C354.884 146.668 354.884 146.576 354.839 146.485C354.609 145.751 354.38 145.064 354.059 144.468C354.059 144.468 354.059 144.468 354.059 144.422C353.922 144.147 353.784 143.872 353.601 143.643C352.913 142.497 350.484 141.809 348.742 140.48L345.809 142.451L346.45 145.843Z" fill="#FA849B"/>
<path d="M330.781 115.865L336.74 121.091C337.932 122.145 338.344 123.841 337.748 125.308C336.923 127.416 336.052 128.746 334.081 127.691L326.105 122.237L330.781 115.865Z" fill="#FA849B"/>
<path d="M323.125 112.244C323.125 112.244 328.213 112.336 332.705 116.461L328.671 123.979L320.695 121.228L323.125 112.244Z" fill="white"/>
<path d="M316.704 112.703C316.704 112.703 311.754 114.078 311.754 120.678C311.754 124.3 315.375 130.808 315.375 130.808L326.514 130.854C326.514 130.854 328.164 126.316 329.126 122.191C330.089 118.066 326.972 114.169 323.167 112.198L316.704 112.703Z" fill="white"/>
<path d="M328.667 123.979L324.312 120.862L327.659 127.37L328.667 123.979Z" fill="#EDEDED"/>
<path d="M319.499 114.811C321.057 114.582 321.607 113.528 321.378 112.015L319.636 103.169L314.961 103.902L316.244 112.428C316.519 113.986 317.986 115.041 319.499 114.811Z" fill="#F8879D"/>
<path d="M318.581 104.91C318.581 104.91 320.094 109.632 316.06 111.236L315.693 108.394L319.819 105.277" fill="#32292A"/>
<path d="M315.145 108.99C318.079 108.715 320.233 106.377 319.958 103.764L319.133 95.2385H314.229C312.441 95.4219 309.92 97.8054 310.103 99.4097L310.974 104.681C311.112 106.652 312.67 109.219 315.145 108.99Z" fill="#F8879D"/>
<path d="M311.155 101.702L310.055 104.544C309.871 104.819 310.101 105.186 310.467 105.14L312.392 104.956L311.155 101.702Z" fill="#F8879D"/>
<path d="M320.004 111.74L323.167 112.244C323.167 112.244 319.867 117.607 316.567 116.323C312.808 114.856 317.804 112.015 317.804 112.015L320.004 111.74Z" fill="#F8879D"/>
<path d="M318.675 102.068C316.2 101.426 315.742 99.1345 315.742 99.1345L309.187 100.418C309.187 100.418 308.178 93.909 316.017 92.6714C319.959 92.0755 322.434 93.9549 323.763 95.8342C325.001 97.6219 325.138 100.005 324.267 102.022C323.626 103.443 322.021 105.46 320.279 106.377L319.684 103.122C319.638 103.122 319.088 102.206 318.675 102.068Z" fill="#202730"/>
<path d="M321.792 101.609C321.792 102.755 320.876 103.718 319.73 103.718C318.584 103.718 317.713 102.755 317.713 101.609C317.713 100.464 318.63 99.501 319.776 99.501C320.876 99.501 321.792 100.464 321.792 101.609Z" fill="#F8879D"/>
<path d="M319.043 102.114C319.043 102.114 319.043 100.601 320.464 100.83" stroke="#312725" stroke-width="0.6026" stroke-miterlimit="10" stroke-linecap="round" stroke-linejoin="round"/>
<path d="M332.196 93.2674C332.655 96.0176 330.821 98.6762 328.025 99.1346C325.275 99.593 322.616 97.7595 322.158 94.9634C321.7 92.2131 323.533 89.5546 326.329 89.0962C329.079 88.6378 331.738 90.5172 332.196 93.2674Z" fill="#202730"/>
<g opacity="0.7">
<path d="M289.016 48.256L289.887 48.2102C290.07 48.2102 290.208 48.3477 290.208 48.4852C290.208 48.6686 290.07 48.8061 289.933 48.8061L289.108 48.8519C288.924 48.8519 288.787 48.7144 288.787 48.5769C288.695 48.4394 288.833 48.256 289.016 48.256Z" fill="white"/>
<path d="M291.171 48.2102C291.767 48.256 292.317 48.3019 292.913 48.3936C293.097 48.4394 293.188 48.5769 293.188 48.7603C293.142 48.9436 293.005 49.0353 292.822 49.0353C292.271 48.9436 291.676 48.8978 291.126 48.8978C290.942 48.8978 290.805 48.7603 290.805 48.5769C290.851 48.3477 291.034 48.2102 291.171 48.2102Z" fill="white"/>
<path d="M294.242 48.5769C294.792 48.7144 295.388 48.8519 295.938 48.9894C296.075 49.0353 296.167 49.2186 296.121 49.3561C296.075 49.4937 295.892 49.5853 295.754 49.5395C295.204 49.402 294.654 49.2645 294.104 49.127C293.921 49.0811 293.829 48.9436 293.875 48.7603C293.921 48.6686 294.058 48.5769 294.242 48.5769Z" fill="white"/>
<path d="M297.175 49.4477C297.726 49.631 298.276 49.8602 298.78 50.1352C298.917 50.1811 298.963 50.3644 298.917 50.5019C298.871 50.6395 298.688 50.6853 298.551 50.6395C298.046 50.4103 297.496 50.1811 296.992 49.9977C296.855 49.9519 296.763 49.7685 296.809 49.631C296.855 49.4477 297.038 49.4018 297.175 49.4477Z" fill="white"/>
<path d="M299.971 50.7315C300.475 51.0066 300.979 51.3274 301.438 51.6941C301.575 51.7858 301.575 51.9691 301.484 52.0608C301.392 52.1983 301.209 52.1983 301.117 52.1067C300.659 51.7858 300.2 51.4649 299.696 51.1899C299.559 51.0982 299.513 50.9607 299.604 50.8232C299.696 50.6857 299.834 50.6399 299.971 50.7315Z" fill="white"/>
<path d="M302.448 52.5187C302.86 52.9312 303.273 53.3438 303.639 53.8022C303.731 53.9397 303.685 54.0772 303.594 54.1689C303.456 54.2605 303.319 54.2147 303.227 54.123C302.86 53.6646 302.493 53.2979 302.081 52.8854C301.989 52.7937 301.943 52.6104 302.081 52.5187C302.173 52.427 302.356 52.427 302.448 52.5187Z" fill="white"/>
<path d="M304.371 54.9485C304.646 55.4527 304.876 56.0027 305.059 56.5986C305.105 56.7361 305.013 56.8736 304.876 56.9195C304.738 56.9653 304.6 56.8736 304.555 56.7361C304.417 56.1861 304.188 55.6818 303.913 55.2235C303.821 55.086 303.867 54.9485 304.005 54.8568C304.142 54.7651 304.325 54.8109 304.371 54.9485Z" fill="white"/>
<path d="M305.288 57.9277C305.334 58.5236 305.334 59.1195 305.242 59.7154C305.242 59.8529 305.105 59.9445 304.967 59.9445C304.83 59.9445 304.738 59.807 304.738 59.6695C304.83 59.1195 304.83 58.5694 304.784 58.0194C304.784 57.8819 304.876 57.7443 305.013 57.7443C305.151 57.6985 305.288 57.7902 305.288 57.9277Z" fill="white"/>
<path d="M304.967 60.9988C304.784 61.5489 304.555 62.0989 304.325 62.649C304.28 62.7865 304.142 62.8323 304.005 62.7407C303.867 62.6948 303.821 62.5573 303.913 62.4198C304.142 61.9156 304.371 61.3655 304.509 60.8613C304.555 60.7238 304.692 60.678 304.83 60.678C304.967 60.678 305.013 60.8613 304.967 60.9988Z" fill="white"/>
<path d="M303.637 63.7946C303.316 64.2988 302.949 64.7572 302.582 65.2156C302.491 65.3072 302.353 65.3072 302.261 65.2156C302.17 65.1239 302.17 64.9864 302.216 64.8947C302.582 64.4822 302.903 64.0238 303.224 63.5196C303.27 63.4279 303.453 63.3821 303.545 63.4279C303.682 63.5196 303.728 63.6571 303.637 63.7946Z" fill="white"/>
<path d="M301.669 66.1328C301.256 66.5454 300.798 66.9121 300.293 67.2329C300.202 67.2788 300.064 67.2788 300.018 67.1871C299.973 67.0954 299.973 66.9579 300.064 66.9121C300.523 66.5912 300.981 66.2245 301.394 65.8578C301.485 65.7661 301.623 65.7661 301.714 65.8578C301.806 65.9495 301.76 66.0412 301.669 66.1328Z" fill="white"/>
<path d="M299.193 67.9205C298.689 68.1955 298.139 68.4247 297.589 68.6081C297.497 68.6539 297.36 68.6081 297.314 68.4706C297.268 68.3789 297.314 68.2414 297.452 68.1955C298.002 68.0122 298.506 67.783 299.01 67.508C299.102 67.4621 299.239 67.508 299.285 67.5996C299.331 67.7372 299.285 67.8288 299.193 67.9205Z" fill="white"/>
<path d="M296.304 68.9282C295.708 69.0657 295.158 69.1116 294.562 69.1116C294.471 69.1116 294.379 69.0199 294.379 68.9282C294.379 68.8365 294.471 68.7449 294.562 68.7449C295.112 68.7449 295.662 68.6532 296.212 68.5615C296.304 68.5157 296.442 68.6073 296.442 68.699C296.487 68.8365 296.396 68.9282 296.304 68.9282Z" fill="white"/>
<path d="M293.232 69.0202C292.636 68.8826 292.086 68.6535 291.582 68.2868C291.49 68.2409 291.49 68.1034 291.536 68.0117C291.582 67.9201 291.719 67.9201 291.811 67.9659C292.224 68.2868 292.774 68.5159 293.278 68.6535C293.369 68.6535 293.461 68.791 293.415 68.8826C293.415 68.9743 293.324 69.0202 293.232 69.0202Z" fill="white"/>
<path d="M290.667 67.2324C290.346 66.7282 290.163 66.1782 290.025 65.5823C290.025 65.4906 290.071 65.3989 290.163 65.3989C290.255 65.3989 290.346 65.4448 290.346 65.5364C290.484 66.0865 290.667 66.5907 290.942 67.0949C290.988 67.1866 290.988 67.2783 290.896 67.3241C290.85 67.3699 290.759 67.3241 290.667 67.2324Z" fill="white"/>
<path d="M290.025 64.2071C290.163 63.6112 290.438 63.0612 290.759 62.6028C290.805 62.5111 290.896 62.5111 290.988 62.557C291.08 62.6028 291.08 62.6945 291.034 62.7862C290.713 63.2445 290.438 63.7487 290.346 64.2529C290.346 64.3446 290.255 64.3905 290.163 64.3905C290.071 64.3905 290.025 64.2988 290.025 64.2071Z" fill="white"/>
<path d="M291.723 61.6408C292.181 61.2741 292.686 60.9533 293.19 60.7241C293.281 60.6782 293.373 60.7241 293.373 60.7699C293.419 60.8616 293.373 60.9533 293.327 60.9533C292.823 61.2283 292.319 61.5033 291.906 61.87C291.861 61.9158 291.723 61.9158 291.677 61.87C291.631 61.8242 291.677 61.7325 291.723 61.6408Z" fill="white"/>
<path d="M294.424 60.2198C294.974 60.0365 295.524 59.899 296.12 59.7615C296.212 59.7615 296.257 59.8073 296.303 59.8531C296.303 59.9448 296.257 59.9907 296.212 60.0365C295.662 60.1282 295.111 60.3115 294.561 60.4949C294.47 60.5407 294.378 60.4949 294.378 60.4032C294.286 60.3574 294.332 60.2657 294.424 60.2198Z" fill="white"/>
<path d="M297.407 59.5778C298.002 59.5319 298.552 59.4861 299.148 59.5319C299.24 59.5319 299.286 59.5778 299.286 59.6694C299.286 59.7611 299.24 59.8069 299.148 59.8069C298.598 59.8069 298.002 59.8069 297.452 59.8528C297.361 59.8528 297.315 59.807 297.315 59.7153C297.269 59.6694 297.315 59.5778 297.407 59.5778Z" fill="white"/>
<path d="M300.431 59.6235C301.027 59.7152 301.577 59.8069 302.127 59.9444C302.173 59.9444 302.219 60.0361 302.219 60.0819C302.219 60.1277 302.127 60.1736 302.081 60.1736C301.531 60.0361 300.981 59.9444 300.385 59.8527C300.293 59.8527 300.248 59.761 300.293 59.7152C300.339 59.6694 300.385 59.6235 300.431 59.6235Z" fill="white"/>
<path d="M303.409 60.3113C303.959 60.4946 304.509 60.7238 305.013 60.9988C305.059 61.0447 305.105 61.0905 305.059 61.1364C305.013 61.1822 304.967 61.228 304.922 61.1822C304.417 60.9072 303.913 60.678 303.363 60.4946C303.317 60.4946 303.271 60.403 303.271 60.3571C303.271 60.3113 303.363 60.3113 303.409 60.3113Z" fill="white"/>
<path d="M306.114 61.6863C306.572 62.0071 307.031 62.3738 307.489 62.7864C307.535 62.8322 307.535 62.8781 307.489 62.9239C307.443 62.9697 307.398 62.9697 307.352 62.9239C306.939 62.5572 306.481 62.1905 306.022 61.8696C305.977 61.8238 305.977 61.778 305.977 61.7321C305.977 61.6863 306.068 61.6863 306.114 61.6863Z" fill="white"/>
<path d="M308.358 63.749C308.725 64.2074 309.092 64.6657 309.367 65.1699C309.413 65.2158 309.367 65.2616 309.321 65.3074C309.275 65.3533 309.229 65.3074 309.183 65.2616C308.863 64.7574 308.542 64.299 308.175 63.8865C308.129 63.8407 308.129 63.7948 308.175 63.749C308.267 63.7031 308.358 63.7031 308.358 63.749Z" fill="white"/>
<path d="M310.009 66.27C310.238 66.7742 310.467 67.3242 310.65 67.8743C310.65 67.9201 310.65 67.9659 310.604 67.9659C310.559 67.9659 310.513 67.9659 310.513 67.9201C310.329 67.3701 310.1 66.8658 309.871 66.3158C309.871 66.27 309.871 66.2241 309.917 66.2241C309.963 66.2241 310.009 66.2241 310.009 66.27Z" fill="white"/>
<path d="M311.02 69.1578C311.158 69.7079 311.25 70.3038 311.341 70.8538C311.341 70.8997 311.295 70.9455 311.295 70.9455C311.249 70.9455 311.204 70.8997 311.204 70.8997C311.158 70.3496 311.02 69.7537 310.883 69.2037C310.883 69.1578 310.883 69.112 310.929 69.112C310.974 69.0662 311.02 69.112 311.02 69.1578Z" fill="white"/>
<path d="M311.385 72.1371C311.385 72.733 311.339 73.2831 311.202 73.879C311.202 73.9248 311.156 73.9248 311.11 73.9248C311.064 73.9248 311.064 73.879 311.064 73.8331C311.156 73.2831 311.202 72.6872 311.248 72.1371C311.248 72.0913 311.294 72.0913 311.294 72.0913C311.385 72.0913 311.385 72.1371 311.385 72.1371Z" fill="white"/>
<path d="M310.881 75.1627C310.698 75.7127 310.423 76.2169 310.148 76.7211C310.148 76.767 310.102 76.767 310.056 76.7211C310.01 76.7211 310.01 76.6753 310.056 76.6295C310.331 76.1252 310.606 75.621 310.789 75.071C310.789 75.0251 310.835 75.0251 310.881 75.0251C310.881 75.071 310.881 75.1168 310.881 75.1627Z" fill="white"/>
<path d="M309.367 77.7752C309.001 78.2336 308.588 78.6461 308.13 79.0128H308.084V78.967C308.497 78.6003 308.909 78.1877 309.276 77.7294C309.276 77.7294 309.322 77.6835 309.367 77.7294C309.367 77.6835 309.367 77.7294 309.367 77.7752Z" fill="white"/>
<path d="M307.122 79.7919C306.664 80.1128 306.159 80.4337 305.655 80.7087H305.609V80.6628C306.114 80.3878 306.618 80.067 307.076 79.7461H307.122V79.7919Z" fill="white"/>
<path d="M304.511 81.3048C304.007 81.534 303.457 81.7632 302.907 81.9465H302.861V81.9007C303.411 81.7173 303.916 81.4882 304.466 81.2131H304.511C304.511 81.259 304.511 81.259 304.511 81.3048Z" fill="white"/>
<path d="M301.667 82.3591C301.117 82.5424 300.567 82.6799 300.017 82.8174H299.971V82.7716C300.521 82.6341 301.071 82.4507 301.621 82.3132C301.667 82.3132 301.667 82.3132 301.667 82.3591Z" fill="white"/>
<path d="M298.735 83.1386L297.039 83.4595L298.735 83.1386C298.735 83.0928 298.735 83.0928 298.735 83.1386C298.781 83.0928 298.735 83.1386 298.735 83.1386Z" fill="white"/>
<path d="M295.757 83.6424L294.061 83.8258L295.757 83.6424C295.757 83.5966 295.757 83.6424 295.757 83.6424C295.802 83.6424 295.757 83.6424 295.757 83.6424Z" fill="white"/>
<path d="M292.773 83.9172L291.902 83.9631L292.773 83.9172Z" fill="white"/>
</g>
<path d="M279.161 42.0673C279.069 42.0214 284.524 41.6089 284.524 41.6089L288.191 48.6678L282.874 45.2759L277.327 47.8886L265.639 46.4218L279.161 42.0673Z" fill="#DFDFDF"/>
<path d="M265.682 46.4676L288.188 48.6678L282.916 45.2759L265.682 46.4676Z" fill="#A0A0A0"/>
<path d="M265.682 46.4678L286.492 37.1169L284.567 41.609L265.682 46.4678L282.916 45.276L279.708 53.1142L265.682 46.4678Z" fill="white"/>
<path d="M173.736 77.9124C173.369 76.904 172.957 75.9414 172.819 74.8872C172.773 74.5663 172.773 74.2454 172.865 73.9246C172.911 73.7871 172.957 73.6496 173.094 73.512C173.278 73.3287 173.598 73.3745 173.828 73.512C174.057 73.6496 174.24 73.8787 174.378 74.0621C174.928 74.7955 175.89 76.2164 175.799 76.2164L176.394 78.1875L173.873 78.6L173.736 77.9124Z" fill="#A63B00"/>
<path d="M156.638 87.263C156.638 87.263 155.722 87.1255 154.896 86.7588C154.896 86.7588 155.905 88.2714 156.867 88.4548L156.638 87.263Z" fill="#A63B00"/>
<path d="M169.793 112.107L172.222 113.573L171.535 110.731L169.793 112.107Z" fill="#082E38"/>
<path d="M162.506 100.143L169.794 112.153C169.794 112.153 171.444 112.061 171.536 110.778L164.431 98.814L162.506 100.143Z" fill="#4D70F2"/>
<path d="M162.824 98.4928C162.274 98.8595 162.182 99.5929 162.503 100.097L164.428 98.7679C164.061 98.2636 163.374 98.172 162.824 98.4928Z" fill="#FF3067"/>
<path d="M141.833 109.494C141.833 109.494 140.183 120.358 141.833 122.97C143.483 125.583 146.783 125.675 152.788 119.578C158.793 113.528 160.672 109.769 161.91 109.998C163.147 110.227 165.302 112.565 168.969 110.365C168.969 110.365 168.144 111.648 168.51 112.153C168.877 112.657 172.315 111.328 173.002 109.173C173.69 107.019 171.856 104.177 170.069 103.627C168.281 103.123 164.614 102.939 161.91 103.764C159.205 104.589 151.092 109.494 151.092 109.494H141.833Z" fill="#DE6004"/>
<path d="M148.656 109.495C147.372 110.457 146.226 111.557 145.218 112.749C144.714 113.345 144.255 113.941 143.843 114.583C143.43 115.224 142.972 115.912 142.697 116.645C142.651 116.691 142.789 116.737 142.789 116.691C143.201 116.049 143.568 115.408 143.98 114.766C144.393 114.124 144.897 113.482 145.401 112.887C146.41 111.695 147.51 110.641 148.747 109.678C148.885 109.632 148.747 109.403 148.656 109.495Z" fill="#A63B00"/>
<path d="M166.584 110.32C166.859 110.044 167.18 109.724 167.363 109.403C167.363 109.357 167.318 109.357 167.318 109.357C167.043 109.632 166.768 109.953 166.447 110.228C166.401 110.274 166.538 110.411 166.584 110.32Z" fill="#A63B00"/>
<path d="M168.328 107.202C168.695 107.477 169.016 107.844 169.291 108.21C169.566 108.577 169.795 108.99 169.979 109.402C170.024 109.448 170.116 109.402 170.07 109.356C169.841 108.44 169.199 107.66 168.466 107.064C168.328 106.973 168.191 107.11 168.328 107.202Z" fill="#A63B00"/>
<path d="M169.013 106.011C169.196 106.24 169.425 106.469 169.563 106.745C169.746 107.02 169.884 107.295 170.067 107.524C170.113 107.57 170.204 107.57 170.204 107.478C170.113 107.157 169.929 106.882 169.746 106.607C169.563 106.332 169.379 106.103 169.15 105.874C169.058 105.736 168.921 105.874 169.013 106.011Z" fill="#A63B00"/>
<path d="M175.477 74.7494C175.661 74.291 175.981 73.8326 176.44 73.6493C176.898 73.4659 177.494 73.6035 177.769 74.016C177.861 73.7868 178.09 73.6035 178.319 73.5118C178.548 73.4201 178.823 73.3743 179.052 73.3743C179.327 73.3743 179.603 73.4201 179.832 73.5576C180.061 73.6951 180.244 73.9243 180.29 74.1535C180.473 73.741 180.886 73.5576 181.344 73.5118C181.619 73.4659 181.94 73.4659 182.215 73.5576C182.628 73.6951 182.903 74.0618 183.04 74.4744C183.407 74.1077 184.003 74.016 184.461 74.291C184.828 74.4744 185.011 74.8869 185.103 75.2536C185.195 75.6661 185.149 76.0328 185.103 76.4454C184.92 78.233 184.415 80.0207 183.224 81.3958C183.04 81.625 182.811 81.8083 182.536 81.9C182.261 81.9459 181.894 81.8083 181.849 81.5333C181.665 81.9459 181.207 82.2667 180.748 82.2209C180.29 82.2209 179.832 81.9 179.694 81.4416C179.465 81.8083 179.007 82.1292 178.594 82.1292C178.182 82.175 177.723 81.9917 177.402 81.6708C177.219 82.0375 176.669 82.0834 176.302 81.9459C175.936 81.8083 175.661 81.4416 175.523 81.0291C175.385 80.6624 175.385 80.204 175.385 79.8373C175.34 78.9664 175.34 78.1414 175.294 77.2704C175.294 76.8121 175.248 76.3537 175.294 75.8953C175.294 75.5286 175.34 75.1161 175.477 74.7494Z" fill="#DE6004"/>
<path d="M177.315 81.6709C177.407 80.8458 177.499 80.0207 177.636 79.1956C177.728 78.3706 177.865 77.5455 177.911 76.7204C177.911 76.6746 177.819 76.6746 177.819 76.7204C177.636 77.4996 177.544 78.3706 177.453 79.1498C177.361 79.9749 177.269 80.8458 177.178 81.6709C177.178 81.7625 177.269 81.7625 177.315 81.6709Z" fill="#A63B00"/>
<path d="M179.604 81.8083C179.741 80.9832 179.925 80.1123 180.108 79.2872C180.291 78.4622 180.475 77.6829 180.566 76.8579C180.566 76.812 180.475 76.812 180.475 76.8579C180.2 77.6371 180.062 78.4622 179.879 79.2872C179.741 80.1123 179.558 80.9374 179.466 81.7625C179.42 81.8541 179.558 81.9 179.604 81.8083Z" fill="#A63B00"/>
<path d="M181.805 81.7164C182.035 80.8914 182.264 80.0663 182.493 79.2871C182.585 78.8745 182.722 78.462 182.814 78.0953C182.906 77.7286 183.043 77.3161 183.089 76.9035C183.089 76.8577 183.043 76.8577 182.997 76.9035C182.814 77.2244 182.722 77.6369 182.631 78.0036C182.539 78.4162 182.401 78.8287 182.31 79.2412C182.081 80.0663 181.851 80.8914 181.668 81.7164C181.668 81.7623 181.76 81.8081 181.805 81.7164Z" fill="#A63B00"/>
</svg>
