<svg width="382" height="220" viewBox="0 0 382 220" fill="none" xmlns="http://www.w3.org/2000/svg">
<g id="objects">
<g id="Group">
<g id="Group_2">
<g id="Group_3">
<g id="Group_4">
<path id="Vector" d="M48.8699 215.965C48.188 207.726 45.5173 199.941 42.9035 192.213C40.2896 184.542 37.3348 176.473 37.1643 168.29C37.1075 164.767 38.6985 157.551 43.7558 158.914C45.4605 159.369 46.5402 161.244 47.2789 162.665C48.3017 164.54 49.0972 166.586 49.7791 168.631C52.393 176.302 52.9044 184.485 52.8476 192.554C52.8476 198.577 52.393 204.657 52.9044 210.737C52.9612 211.078 53.4726 211.135 53.4726 210.737C53.4726 202.271 53.9272 193.804 55.4046 185.451C56.1433 181.473 57.1093 177.553 58.2458 173.632C58.6435 172.268 59.9505 170.109 61.3711 169.768C63.4735 169.199 66.0874 169.825 66.9398 172.097C70.0082 180.621 67.3943 189.826 64.5532 198.066C63.3599 201.532 62.1666 204.998 60.6324 208.351C59.3822 211.078 58.1321 213.806 56.9388 216.533C56.5979 217.329 56.257 218.124 55.916 218.977C55.8024 219.318 56.3138 219.488 56.4843 219.147C58.6435 213.976 61.3142 208.976 63.1894 203.691C66.0306 195.793 69.2127 187.667 68.8149 179.087C68.7581 177.212 68.4172 175.336 67.9626 173.518C67.508 171.87 66.9966 170.62 65.5192 169.711C64.4963 169.086 63.1326 169.029 61.9961 169.143C60.5187 169.313 60.0073 169.711 59.155 170.961C58.8708 171.416 58.1321 172.097 57.9617 172.609C57.6775 173.575 57.3934 174.541 57.1093 175.45C56.5411 177.496 56.0297 179.541 55.5751 181.587C54.7227 185.337 54.1545 189.145 53.6999 193.008C53.018 198.918 52.8476 204.828 52.8476 210.794C53.018 210.794 53.2453 210.794 53.4158 210.794C52.8476 203.862 53.4158 196.872 53.359 189.883C53.2453 181.985 52.393 174.086 49.5518 166.699C48.529 163.972 47.2789 160.733 44.8355 158.971C42.2784 157.153 39.4372 159.142 38.0735 161.358C36.1983 164.313 36.312 168.233 36.7097 171.586C37.1643 175.45 38.0735 179.2 39.1531 182.894C42.3352 193.918 47.2789 204.487 48.188 216.022C48.3017 216.306 48.8699 216.306 48.8699 215.965Z" fill="#6842EF"/>
</g>
<g id="Group_5">
<path id="Vector_2" d="M48.8132 215.851C48.6427 214.26 48.4722 212.726 48.1881 211.135C48.1313 210.851 47.6199 210.908 47.6199 211.192C47.7335 212.783 47.9608 214.317 48.1881 215.908C48.2449 216.249 48.8132 216.136 48.7563 215.738C48.529 214.204 48.3018 212.726 48.1881 211.192C48.0176 211.192 47.7903 211.249 47.6199 211.249C47.9608 212.726 48.1313 214.26 48.2449 215.795C48.3018 216.192 48.87 216.192 48.8132 215.851Z" fill="#6842EF"/>
</g>
<g id="Group_6">
<path id="Vector_3" d="M41.0284 216.079C38.6418 209.715 33.5845 205.055 29.0955 200.168C26.7089 197.554 24.436 194.77 22.8449 191.588C21.3107 188.576 19.265 184.03 21.3107 180.848C23.129 178.064 27.0498 180.337 28.9818 181.644C31.4821 183.349 33.4709 185.565 35.3461 187.894C40.5738 194.315 44.5514 201.816 46.7676 209.771C47.3358 211.703 47.7336 213.749 48.0745 215.738C48.1313 216.079 48.6995 215.965 48.6427 215.567C47.3926 207.839 44.4378 200.452 40.2897 193.804C37.0508 188.633 33.0731 183.064 27.6181 180.11C25.8566 179.144 23.5268 178.405 21.7084 179.598C19.3787 181.132 19.7765 184.542 20.3447 186.872C22.0494 193.463 26.7089 198.52 31.2548 203.35C34.8915 207.214 38.5282 211.192 40.4602 216.249C40.6306 216.533 41.1989 216.42 41.0284 216.079Z" fill="#6842EF"/>
</g>
<g id="Group_7">
<path id="Vector_4" d="M63.2463 173.291C59.496 179.144 60.1779 186.644 59.0414 193.236C58.3595 197.043 56.9958 200.623 56.3139 204.43C55.5752 208.408 54.7796 212.385 53.8136 216.363C53.7 216.704 54.2682 216.874 54.3819 216.533C55.2911 212.726 56.0866 208.976 56.7685 205.112C57.3935 201.532 58.6436 198.066 59.3823 194.486C60.0642 191.076 60.3483 187.61 60.6325 184.201C60.9734 180.507 61.6553 176.814 63.7009 173.632C63.9282 173.234 63.4736 172.95 63.2463 173.291Z" fill="#6842EF"/>
</g>
<g id="Group_8">
<path id="Vector_5" d="M41.9945 164.71C42.2786 168.972 43.6992 173.063 44.6652 177.212C45.7448 181.814 46.654 186.531 47.62 191.19C48.5292 195.736 49.3247 200.282 50.2907 204.828C51.3135 209.487 52.109 214.26 52.109 219.034C52.109 219.375 52.6773 219.375 52.6773 219.034C52.6773 214.715 51.9954 210.453 51.143 206.248C50.177 201.532 49.2679 196.872 48.3587 192.156C47.4495 187.667 46.5972 183.121 45.5743 178.632C44.5515 174.029 42.8468 169.484 42.5627 164.71C42.5059 164.369 41.9376 164.369 41.9945 164.71Z" fill="#6842EF"/>
</g>
<g id="Group_9">
<path id="Vector_6" d="M27.8453 188.406C32.1071 192.497 35.6301 197.27 38.8691 202.157C40.5169 204.657 41.9943 207.271 43.4717 209.885C45.1196 212.783 46.0856 215.851 47.2789 218.977C47.3926 219.318 47.9608 219.147 47.8471 218.806C46.7675 216.022 45.972 213.181 44.5514 210.51C43.0172 207.726 41.4261 204.941 39.7214 202.271C36.4256 197.157 32.789 192.156 28.3567 187.951C28.0158 187.781 27.5612 188.179 27.8453 188.406Z" fill="#6842EF"/>
</g>
<g id="Group_10">
<path id="Vector_7" d="M28.6409 196.077C32.1071 198.407 35.8574 200.225 39.1532 202.782C39.4373 203.009 39.8351 202.612 39.551 202.384C36.2552 199.77 32.448 197.895 28.925 195.566C28.6409 195.395 28.3568 195.85 28.6409 196.077Z" fill="#6842EF"/>
</g>
<g id="Group_11">
<path id="Vector_8" d="M38.1302 195.622C39.3804 197.27 40.1191 199.43 40.8578 201.362C41.7101 203.748 42.3352 206.248 42.9034 208.749C42.9602 209.09 43.5285 208.976 43.4716 208.578C42.8466 205.964 42.2215 203.35 41.2555 200.85C40.5737 198.975 39.835 196.929 38.5848 195.338C38.4144 195.054 37.903 195.338 38.1302 195.622Z" fill="#6842EF"/>
</g>
<g id="Group_12">
<path id="Vector_9" d="M56.8252 189.031C56.9957 191.417 58.189 193.634 58.2458 196.02C58.2458 196.361 58.814 196.361 58.814 196.02C58.7572 193.577 57.5639 191.417 57.3934 189.031C57.3934 188.633 56.8252 188.633 56.8252 189.031Z" fill="#6842EF"/>
</g>
<g id="Group_13">
<path id="Vector_10" d="M45.7447 169.029C44.9492 171.529 45.0628 174.257 44.7219 176.814C44.6651 177.155 45.2333 177.155 45.2901 176.814C45.6311 174.257 45.5174 171.643 46.3129 169.143C46.4266 168.859 45.8584 168.688 45.7447 169.029Z" fill="#6842EF"/>
</g>
<g id="Group_14">
<path id="Vector_11" d="M41.2557 179.371C42.5058 181.132 43.5286 183.008 44.8355 184.769C46.0288 186.36 46.9948 187.894 47.3926 189.883C47.4494 190.224 48.0177 190.111 47.9608 189.713C47.5631 188.008 46.8812 186.758 45.9152 185.337C44.4946 183.292 43.1877 181.132 41.7671 179.087C41.5398 178.803 41.0284 179.087 41.2557 179.371Z" fill="#6842EF"/>
</g>
<g id="Group_15">
<path id="Vector_12" d="M50.3475 186.246C49.7793 189.77 49.211 193.236 48.8701 196.759C48.8133 197.1 49.3815 197.1 49.4383 196.759C49.7793 193.293 50.3475 189.826 50.9157 186.36C50.9725 186.076 50.4043 185.906 50.3475 186.246Z" fill="#6842EF"/>
</g>
<g id="Group_16">
<path id="Vector_13" d="M65.3487 177.212C63.9281 180.905 61.5416 184.144 59.8937 187.667C59.7232 188.008 60.2346 188.292 60.4051 187.951C62.1098 184.371 64.4964 181.076 65.917 177.382C66.0306 177.041 65.4624 176.871 65.3487 177.212Z" fill="#6842EF"/>
</g>
</g>
<g id="Group_17">
<g id="Group_18">
<path id="Vector_14" d="M288.208 211.83C287.128 209.159 285.708 206.772 283.719 204.67C281.276 201.999 278.094 200.238 275.934 197.283C273.832 194.385 272.013 191.146 270.252 188.021C269.229 186.202 268.377 184.327 268.036 182.225C267.695 180.179 267.809 178.077 267.922 176.031C267.752 176.088 267.638 176.201 267.468 176.258C268.831 176.826 269.854 177.906 270.934 178.872C272.013 179.838 273.32 180.577 274.514 181.429C277.241 183.418 279.741 186.089 281.73 188.816C283.605 191.373 284.912 194.328 286.162 197.226C287.242 199.726 288.151 202.567 289.742 204.783C289.913 205.011 290.367 204.897 290.254 204.556C288.265 198.817 287.469 192.737 287.64 186.714C287.697 183.986 288.038 181.202 288.492 178.474C288.89 175.86 289.515 173.19 290.879 170.86C290.708 170.86 290.538 170.86 290.367 170.86C291.049 172.11 291.163 173.531 291.447 174.951C291.731 176.542 292.299 178.02 292.868 179.497C294.118 182.736 294.8 186.259 295.425 189.668C296.107 193.305 296.277 196.715 295.709 200.408C295.197 203.761 294.288 207.056 293.549 210.409C293.493 210.693 293.89 210.92 294.061 210.636C295.084 208.591 295.993 206.545 296.845 204.443C297.754 202.17 298.379 199.783 299.175 197.453C300.425 193.817 302.641 190.521 306.107 188.702C310.256 186.543 319.802 184.384 320.882 191.146C320.995 191.032 321.166 190.919 321.279 190.805C314.972 188.134 310.085 194.044 306.903 198.703C304.744 201.885 302.528 204.84 300.084 207.795C299.118 208.988 298.266 210.409 297.129 211.432C296.107 212.341 294.175 213.705 292.754 213.591C292.413 213.534 292.413 214.103 292.754 214.159C294.629 214.33 297.3 212.398 298.323 210.977C300.482 208.022 303.039 205.352 305.198 202.397C308.721 197.51 313.438 188.134 320.995 191.316C321.222 191.43 321.45 191.26 321.393 190.975C320.313 184.27 311.563 185.804 307.073 187.623C303.664 189.043 301.277 191.487 299.686 194.783C298.55 197.056 297.982 199.499 297.186 201.885C296.22 204.783 294.913 207.568 293.549 210.295C293.72 210.352 293.89 210.466 294.061 210.523C294.8 207.056 295.766 203.59 296.277 200.067C296.788 196.658 296.618 193.419 295.993 190.066C295.368 186.43 294.572 182.793 293.322 179.327C292.754 177.849 292.243 176.372 291.902 174.781C291.618 173.36 291.447 171.94 290.765 170.576C290.652 170.405 290.367 170.405 290.254 170.576C287.64 175.008 287.299 180.747 286.958 185.748C286.56 192.112 287.469 198.703 289.572 204.783C289.742 204.727 289.913 204.613 290.083 204.556C288.379 202.226 287.413 199.158 286.276 196.544C284.912 193.476 283.492 190.464 281.446 187.793C279.628 185.407 277.412 183.134 275.025 181.315C273.661 180.236 272.127 179.383 270.82 178.247C269.797 177.338 268.831 176.429 267.524 175.86C267.297 175.747 267.127 175.86 267.07 176.088C266.786 179.724 266.956 183.247 268.547 186.6C270.195 190.066 272.354 193.362 274.4 196.544C275.309 197.908 276.275 199.158 277.468 200.294C278.775 201.545 280.253 202.511 281.617 203.704C284.174 206.034 286.049 208.875 287.356 212.057C287.81 212.341 288.322 212.171 288.208 211.83Z" fill="#6842EF"/>
</g>
<g id="Group_19">
<path id="Vector_15" d="M284.344 212.227C281.105 207 278.548 199.953 272.411 197.567C269.116 196.317 265.138 196.999 262.069 198.476C258.603 200.124 255.819 203.079 253.376 205.977C253.205 206.204 253.376 206.545 253.66 206.431C258.944 204.897 265.536 204.556 270.423 207.454C272.752 208.818 274.571 211.205 276.446 213.137C277.639 214.443 278.548 216.603 280.423 217.057C280.764 217.171 280.935 216.603 280.594 216.489C279.344 216.205 278.491 214.784 277.753 213.818C277.071 212.909 276.275 212.114 275.48 211.261C273.605 209.273 271.729 207.227 269.172 206.09C264.342 204.045 258.49 204.329 253.546 205.806C253.66 205.977 253.716 206.147 253.83 206.261C258.319 200.976 264.797 195.464 272.298 198.021C275.366 199.101 277.582 201.885 279.287 204.499C280.992 207.056 282.299 209.841 283.946 212.398C284.06 212.796 284.515 212.511 284.344 212.227Z" fill="#6842EF"/>
</g>
<g id="Group_20">
<path id="Vector_16" d="M275.707 187.509C277.98 192.339 282.071 195.919 285.026 200.294C286.503 202.454 287.754 204.897 288.833 207.284C290.197 210.239 289.742 213.25 289.742 216.375C289.742 216.716 290.311 216.716 290.311 216.375C290.311 213.705 290.765 210.92 289.913 208.363C289.004 205.693 287.413 203.136 285.992 200.749C283.151 195.919 278.605 192.282 276.218 187.168C276.048 186.884 275.593 187.168 275.707 187.509Z" fill="#6842EF"/>
</g>
<g id="Group_21">
<path id="Vector_17" d="M267.922 202.113C272.127 204.329 276.219 206.659 279.173 210.523C280.196 211.886 281.219 213.307 282.299 214.614C282.583 215.012 283.492 216.489 284.117 216.432C284.458 216.375 284.458 215.807 284.117 215.864C283.662 215.921 282.128 213.421 281.901 213.137C280.935 211.886 280.026 210.579 279.06 209.329C276.332 205.806 272.184 203.647 268.263 201.601C267.922 201.488 267.638 201.942 267.922 202.113Z" fill="#6842EF"/>
</g>
<g id="Group_22">
<path id="Vector_18" d="M291.504 186.543C291.561 189.043 292.243 191.43 292.527 193.93C292.868 196.885 292.584 199.954 292.129 202.908C291.333 208.307 291.674 213.818 290.197 219.16C290.367 219.16 290.595 219.217 290.765 219.217C290.765 218.989 290.765 218.762 290.765 218.592C290.765 218.251 290.197 218.251 290.197 218.592C290.197 218.819 290.197 219.046 290.197 219.217C290.197 219.558 290.652 219.614 290.765 219.273C292.186 214.103 292.072 208.761 292.64 203.477C292.925 200.635 293.322 197.851 293.152 194.953C293.038 192.112 292.129 189.384 292.072 186.543C292.072 186.145 291.504 186.145 291.504 186.543Z" fill="#6842EF"/>
</g>
<g id="Group_23">
<path id="Vector_19" d="M309.972 190.123C305.653 192.851 302.471 197.624 299.971 202.056C297.584 206.318 295.482 211.545 290.765 213.648C290.424 213.818 290.708 214.273 291.049 214.159C295.254 212.284 297.527 207.909 299.573 204.045C302.187 199.158 305.482 193.703 310.256 190.691C310.597 190.407 310.312 189.896 309.972 190.123Z" fill="#6842EF"/>
</g>
</g>
</g>
</g>
<g id="Group_24">
<g id="Group_25">
<path id="Vector_20" d="M191.665 95.7622C191.665 98.7739 189.222 101.217 186.21 101.217C183.198 101.217 180.755 98.7739 180.755 95.7622V91.9551C180.755 88.9434 183.198 86.5 186.21 86.5C189.222 86.5 191.665 88.9434 191.665 91.9551V95.7622Z" fill="#FFD600"/>
<path id="Vector_21" d="M247.466 155.54C245.931 148.153 239.397 128.208 223.486 120.992C207.576 113.775 192.631 119.628 187.119 122.981C181.607 126.333 175.243 139.403 172.345 151.62C169.504 163.837 159.787 163.666 152.23 166.394L155.753 179.122L233.487 179.634C233.487 179.634 233.487 179.634 233.658 177.645C254 176.508 248.943 162.927 247.466 155.54ZM167.913 175.088C171.038 175.088 184.846 164.689 187.688 165.03C189.108 172.644 189.279 176.679 189.449 177.19C189.62 177.645 168.765 181.338 167.913 175.088Z" fill="#FFD600"/>
<path id="Vector_22" d="M195.529 126.56C194.506 131.39 190.415 160.768 197.404 180.088C202.859 180.543 211.042 180.088 211.042 180.088C209.451 169.917 206.326 141.789 212.803 125.651C206.382 125.765 195.529 126.56 195.529 126.56Z" fill="#FFE4B5"/>
<path id="Vector_23" d="M199.109 117.867C193.597 118.207 192.29 124.174 194.79 127.867C197.291 131.561 202.064 128.549 202.916 126.674C208.883 132.3 216.667 127.242 218.315 118.833C218.315 118.151 208.826 116.332 199.109 117.867Z" fill="#FFE4B5"/>
<path id="Vector_24" d="M214.849 87.5229C214.622 81.9542 208.883 71.3282 195.302 71.8964C185.642 72.6351 184.449 81.7837 184.449 81.7837C184.108 82.8065 182.403 84.9658 182.403 84.9658C181.892 80.7041 184.619 69.2826 196.836 68.9984C210.587 68.6575 217.122 79.3971 217.406 87.1251C216.27 89.0003 214.849 87.5229 214.849 87.5229Z" fill="#FFD600"/>
<path id="Vector_25" d="M187.915 77.0105C183.255 80.1926 180.471 85.4772 182.858 90.7618C185.187 96.0463 185.869 98.3193 183.596 102.467C180.414 108.263 179.05 113.662 181.437 118.605C195.984 116.616 202.405 114.969 202.405 114.969C202.405 114.969 196.779 76.3855 187.915 77.0105Z" fill="#31241C"/>
<path id="Vector_26" d="M209.508 103.49C209.508 103.49 213.088 114.343 213.428 118.946C213.713 123.151 199.848 125.935 198.825 121.56C197.802 116.332 196.268 107.411 196.268 107.411" fill="#C97440"/>
<path id="Vector_27" d="M210.701 108.036L209.564 103.49L196.381 107.354C196.381 107.354 196.836 110.082 197.461 113.548C198.427 113.718 199.45 113.832 200.473 113.775C204.734 113.605 208.428 111.332 210.701 108.036Z" fill="#AB5D2D"/>
<path id="Vector_28" d="M186.437 98.2056C186.778 105.422 192.858 111.048 200.075 110.707C207.292 110.366 212.917 104.286 212.576 97.0692L211.951 83.2611C211.61 76.0445 205.53 70.419 198.313 70.76C191.097 71.1009 185.471 77.181 185.812 84.3976L186.437 98.2056Z" fill="#C97440"/>
<g id="Group_26">
<path id="Vector_29" d="M203.712 83.8862C202.064 82.977 199.905 82.5792 198.143 83.4884C197.518 83.8293 198.086 84.7953 198.711 84.4544C200.075 83.7725 201.836 84.1703 203.143 84.8522C203.768 85.2499 204.337 84.2271 203.712 83.8862Z" fill="#31241C"/>
</g>
<g id="Group_27">
<path id="Vector_30" d="M187.915 85.7613C188.71 85.0226 189.79 84.7385 190.87 84.9658C191.551 85.1363 191.892 83.9998 191.154 83.8862C189.733 83.602 188.199 83.943 187.119 84.9658C186.608 85.4204 187.403 86.2159 187.915 85.7613Z" fill="#31241C"/>
</g>
<g id="Group_28">
<path id="Vector_31" d="M195.756 96.8191C195.643 96.8191 195.529 96.7622 195.472 96.7054L192.915 94.4325C192.802 94.3188 192.745 94.2052 192.802 94.0915C192.858 93.9779 192.915 93.8074 193.029 93.7506L195.586 92.33C195.813 92.2164 196.041 92.2732 196.154 92.5005C196.268 92.7278 196.211 92.9551 195.984 93.0687L193.938 94.2052L196.041 96.0804C196.211 96.2508 196.211 96.4781 196.097 96.7054C195.984 96.7622 195.87 96.8191 195.756 96.8191Z" fill="#31241C"/>
</g>
<g id="Group_29">
<path id="Vector_32" d="M197.048 100.637C196.366 100.637 195.684 100.466 195.173 100.068C195.002 99.9548 194.945 99.6707 195.059 99.5002C195.173 99.3298 195.457 99.2729 195.627 99.3866C196.366 99.898 197.559 99.898 198.412 99.4434C198.923 99.1593 199.491 98.5911 199.435 97.4546C199.435 97.2273 199.605 97 199.832 97C200.06 97 200.287 97.1705 200.287 97.3978C200.344 98.6479 199.832 99.6139 198.809 100.182C198.298 100.466 197.673 100.637 197.048 100.637Z" fill="#31241C"/>
</g>
<path id="Vector_33" d="M198.598 91.1027C198.882 91.8983 199.848 92.3528 200.643 92.0119C201.439 91.7278 201.893 90.7618 201.552 89.9663C201.268 89.1707 200.302 88.7161 199.507 89.0571C198.711 89.3412 198.314 90.3072 198.598 91.1027Z" fill="#1A191F"/>
<path id="Vector_34" d="M189.108 91.671C189.392 92.4665 190.358 92.9211 191.154 92.5801C191.949 92.296 192.404 91.33 192.063 90.5345C191.779 89.739 190.813 89.2844 190.017 89.6253C189.165 89.9094 188.767 90.8754 189.108 91.671Z" fill="#1A191F"/>
<path id="Vector_35" d="M225.077 98.3193C222.918 93.6598 225.589 90.7618 224.452 86.2727C223.429 82.3519 218.827 82.5224 216.383 76.9537C212.69 68.487 193.824 60.8727 186.835 78.0333C194.677 72.7488 202.689 75.4763 205.7 79.3971C211.837 87.2955 205.53 90.6481 207.917 95.3645C209.621 98.7739 210.758 101.104 208.542 106.275C206.326 111.445 209.451 116.389 209.451 116.389C216.781 115.594 225.02 114.855 232.521 113.605C232.464 100.99 227.237 102.979 225.077 98.3193Z" fill="#31241C"/>
<path id="Vector_36" d="M191.836 163.098C185.471 163.666 183.028 165.541 177.289 168.553C171.607 171.565 170.356 172.246 171.72 172.815C168.368 173.042 170.3 174.804 172.686 174.065C171.095 174.747 173.311 175.485 176.437 174.292C177.232 175.542 181.267 174.974 183.824 173.497C186.381 172.019 192.518 170.826 198.143 172.701C198.825 169.235 196.666 163.212 196.666 163.212L191.836 163.098Z" fill="#C97440"/>
<path id="Vector_37" d="M195.927 163.155C199.336 162.416 208.996 161.621 214.679 161.961C215.02 166.451 212.576 175.485 212.576 175.485L197.404 172.133C197.348 172.133 198.086 167.36 195.927 163.155Z" fill="#FFD600"/>
<g id="Group_30">
<path id="Vector_38" d="M195.643 163.268C202.405 162.302 209.28 162.302 216.099 162.132C219.395 162.018 222.577 161.677 225.816 161.28C228.941 160.939 232.578 161.621 235.59 162.473C235.93 162.587 236.101 162.018 235.76 161.905C233.032 161.052 229.794 160.541 226.896 160.598C225.475 160.655 224.054 160.939 222.634 161.109C220.645 161.393 218.656 161.393 216.724 161.507C209.621 161.734 202.575 161.677 195.529 162.7C195.074 162.757 195.245 163.325 195.643 163.268Z" fill="#1F0E03"/>
</g>
<g id="Group_31">
<path id="Vector_39" d="M225.873 145.824C226.498 150.54 226.839 155.313 226.896 160.029C226.896 160.37 227.464 160.37 227.464 160.029C227.464 155.199 227.123 150.426 226.441 145.653C226.384 145.312 225.816 145.483 225.873 145.824Z" fill="#1F0E03"/>
</g>
<g id="Group_32">
<path id="Vector_40" d="M196.893 172.417C198.939 172.417 200.871 173.326 202.803 173.838C205.132 174.463 207.405 175.258 209.678 175.883C214.338 177.19 219.225 177.986 224.054 178.27C231.782 178.724 241.102 178.327 246.897 172.587C247.182 172.303 246.784 171.906 246.5 172.19C240.42 178.213 230.419 178.213 222.463 177.588C217.69 177.247 212.917 176.224 208.314 174.917C206.269 174.292 204.223 173.667 202.121 173.042C200.416 172.531 198.711 171.792 196.893 171.849C196.495 171.849 196.495 172.417 196.893 172.417Z" fill="#1F0E03"/>
</g>
<g id="Group_33">
<path id="Vector_41" d="M185.528 139.971C185.017 141.505 185.187 143.153 185.187 144.744C185.244 146.903 185.358 149.119 185.471 151.279C185.585 153.438 185.642 155.597 185.812 157.7C185.983 159.689 186.722 161.564 186.835 163.496C186.835 163.837 187.403 163.837 187.403 163.496C187.29 161.677 186.608 160.029 186.437 158.211C186.267 156.222 186.153 154.29 186.096 152.301C185.983 150.313 185.869 148.324 185.812 146.335C185.756 144.346 185.415 142.016 186.096 140.084C186.21 139.8 185.642 139.63 185.528 139.971Z" fill="#1F0E03"/>
</g>
<g id="Group_34">
<path id="Vector_42" d="M194.165 120.537C193.256 123.663 192.631 127.697 196.154 129.458C197.404 130.084 198.882 129.799 200.075 129.231C200.927 128.833 201.666 128.208 202.405 127.583C203.143 126.958 203.428 127.924 204.053 128.379C209.224 132.072 216.042 126.958 217.747 121.844C217.861 121.503 217.293 121.333 217.179 121.674C215.361 127.129 207.519 132.129 203.03 126.56C202.916 126.447 202.746 126.447 202.632 126.56C200.757 128.265 198.314 130.254 195.813 128.663C193.029 126.958 193.938 123.208 194.62 120.708C194.79 120.367 194.222 120.196 194.165 120.537Z" fill="#1F0E03"/>
</g>
<g id="Group_35">
<path id="Vector_43" d="M176.152 174.747C177.971 174.406 179.391 173.326 180.869 172.36C182.971 171.053 185.301 170.315 187.517 169.405C187.858 169.292 187.687 168.723 187.346 168.837C185.471 169.633 183.596 170.258 181.778 171.167C179.846 172.133 178.141 173.838 175.925 174.179C175.641 174.292 175.811 174.804 176.152 174.747Z" fill="#1F0E03"/>
</g>
<g id="Group_36">
<path id="Vector_44" d="M172.118 174.747C176.664 172.815 180.812 170.144 185.471 168.496C185.812 168.383 185.642 167.814 185.301 167.928C180.585 169.576 176.38 172.303 171.834 174.235C171.493 174.406 171.777 174.86 172.118 174.747Z" fill="#1F0E03"/>
</g>
<g id="Group_37">
<path id="Vector_45" d="M171.095 173.383C172.857 172.303 174.902 171.792 176.777 170.826C178.596 169.86 180.414 168.894 182.289 168.042C182.63 167.871 182.346 167.417 182.005 167.53C180.13 168.383 178.312 169.349 176.493 170.315C174.675 171.28 172.629 171.792 170.811 172.872C170.527 173.099 170.811 173.553 171.095 173.383Z" fill="#1F0E03"/>
</g>
<g id="Group_38">
<path id="Vector_46" d="M200.587 131.39C200.757 132.413 202.178 132.357 202.689 131.561C202.973 131.106 202.689 130.595 202.291 130.368C201.78 130.084 201.098 130.14 200.757 130.595C200.53 130.879 201.041 131.163 201.268 130.879C201.496 130.538 202.575 130.879 202.178 131.277C201.893 131.561 201.268 131.618 201.212 131.163C201.041 130.879 200.53 131.05 200.587 131.39Z" fill="#1F0E03"/>
</g>
<g id="Group_39">
<path id="Vector_47" d="M199.791 135.595C199.62 136.618 200.814 136.902 201.496 136.334C201.837 136.05 202.007 135.482 201.723 135.084C201.439 134.686 200.814 134.743 200.416 134.857C200.075 134.97 200.189 135.539 200.586 135.425C200.814 135.368 201.098 135.254 201.268 135.425C201.439 135.539 201.211 135.823 201.098 135.936C200.871 136.107 200.302 136.22 200.359 135.766C200.416 135.425 199.848 135.254 199.791 135.595Z" fill="#1F0E03"/>
</g>
<g id="Group_40">
<path id="Vector_48" d="M199.45 141.05C199.507 142.187 201.155 141.732 201.325 140.88C201.552 139.857 199.677 139.232 199.507 140.369C199.45 140.71 200.018 140.88 200.075 140.539C200.132 140.084 200.757 140.425 200.757 140.766C200.757 141.05 200.018 141.391 199.961 141.05C200.018 140.71 199.45 140.71 199.45 141.05Z" fill="#1F0E03"/>
</g>
<g id="Group_41">
<path id="Vector_49" d="M188.426 172.133C188.369 172.985 188.483 173.951 188.767 174.747C188.881 175.088 189.449 174.917 189.335 174.576C189.051 173.838 188.938 172.928 188.994 172.133C188.994 171.792 188.426 171.792 188.426 172.133Z" fill="#1F0E03"/>
</g>
<g id="Group_42">
<path id="Vector_50" d="M195.529 163.325C196.609 164.064 196.666 165.541 196.95 166.678C197.347 168.212 197.632 170.087 196.95 171.565C196.779 171.906 197.291 172.19 197.461 171.849C198.2 170.144 197.916 168.269 197.518 166.507C197.177 165.144 197.007 163.666 195.813 162.814C195.472 162.643 195.188 163.098 195.529 163.325Z" fill="#1F0E03"/>
</g>
<g id="Group_43">
<path id="Vector_51" d="M181.778 99.058C180.869 105.706 190.699 105.706 194.904 105.479C195.245 105.479 195.245 104.911 194.904 104.911C191.154 105.081 181.494 105.252 182.346 99.1717C182.403 98.8307 181.835 98.6602 181.778 99.058Z" fill="#1F0E03"/>
</g>
<path id="Vector_52" d="M198.2 105.138C198.2 106.104 197.234 106.843 196.097 106.843C194.961 106.843 193.995 106.104 193.995 105.138C193.995 104.172 194.904 103.433 196.097 103.433C197.291 103.433 198.2 104.172 198.2 105.138Z" fill="#FFD600"/>
<path id="Vector_53" d="M196.836 69.0553C189.847 69.2257 185.983 72.9761 184.051 77.0105C184.733 77.0674 185.415 77.2947 186.04 77.5788C187.46 75.0785 190.245 72.351 195.359 71.9533C208.939 71.3282 214.679 82.011 214.906 87.5797C214.906 87.5797 216.326 89.0571 217.406 87.2388C217.122 79.4539 210.587 68.7143 196.836 69.0553Z" fill="#FFD600"/>
<path id="Vector_54" d="M221.782 95.7622C221.782 98.7739 219.338 101.217 216.327 101.217C213.315 101.217 210.871 98.7739 210.871 95.7622V91.9551C210.871 88.9434 213.315 86.5 216.327 86.5C219.338 86.5 221.782 88.9434 221.782 91.9551V95.7622Z" fill="#FFD600"/>
<g id="Group_44">
<path id="Vector_55" d="M220.531 95.194C220.304 98.8875 215.36 99.7399 213.997 96.2737C213.599 95.2508 213.826 93.7734 213.826 92.6938C213.826 88.8866 219.054 88.2616 220.361 91.6141C220.759 92.637 220.531 94.1144 220.531 95.194C220.531 95.5349 221.1 95.5349 221.1 95.194C221.1 92.9211 221.327 90.705 219.168 89.2844C216.554 87.5797 213.428 89.8526 213.258 92.637C213.144 94.8531 213.144 97.1828 215.19 98.5466C217.804 100.251 220.929 97.9783 221.1 95.194C221.1 94.7962 220.531 94.7962 220.531 95.194Z" fill="#1F0E03"/>
</g>
</g>
<g id="Group_45">
<path id="Vector_56" d="M156.435 174.69C159.56 174.69 198.086 174.69 200.132 174.69C202.121 174.69 202.575 178.724 199.223 178.724C195.87 178.724 98.9863 178.724 98.9863 178.724C95.9747 172.701 82.4507 135.823 81.0869 132.356C79.7232 128.89 80.9733 124.856 86.4283 124.856C91.8834 124.856 120.863 124.856 124.841 124.856C128.875 124.856 133.308 125.538 136.149 131.675C138.99 137.812 156.435 174.69 156.435 174.69Z" fill="#5F7E91"/>
<path id="Vector_57" d="M200.246 178.554C200.359 178.497 200.473 178.44 200.586 178.383C200.586 178.383 200.586 178.383 200.643 178.383C202.348 177.417 201.78 174.69 200.132 174.69C199.791 174.69 198.484 174.69 196.552 174.69C186.494 174.69 159.049 174.69 156.435 174.69C156.435 174.69 156.435 174.633 156.378 174.633C156.378 174.576 156.321 174.519 156.321 174.463C156.151 174.122 155.866 173.497 155.412 172.587C151.662 164.632 138.592 136.959 136.206 131.675C133.421 125.538 128.932 124.856 124.898 124.856C124.273 124.856 123.023 124.856 121.318 124.856C125.352 124.856 129.785 125.538 132.626 131.675C135.41 137.812 152.855 174.69 152.855 174.69L154.389 178.611C154.389 178.611 156.264 178.668 159.276 178.724C174.902 178.724 189.222 178.724 195.643 178.724C197.632 178.724 198.882 178.724 199.223 178.724C199.45 178.724 199.62 178.724 199.791 178.668C199.905 178.668 200.018 178.611 200.075 178.611C200.132 178.611 200.189 178.611 200.246 178.554Z" fill="#49687A"/>
<path id="Vector_58" d="M120.125 152.358C121.204 155.086 119.897 157.302 117.227 157.302C114.499 157.302 111.431 155.086 110.294 152.358C109.214 149.631 110.521 147.415 113.192 147.415C115.92 147.415 119.045 149.631 120.125 152.358Z" stroke="#1F0E03" stroke-miterlimit="10"/>
</g>
<g id="Group_46">
<path id="Vector_59" d="M251.387 181.85H93.7585V219C110.5 219 132.543 218.716 155.5 219C186.923 219.398 221.5 219 251.387 219V181.85Z" fill="#F5CDB3"/>
<path id="Vector_60" d="M257.921 181.225C257.921 182.702 256.728 183.952 255.194 183.952H89.9514C88.474 183.952 87.2239 182.759 87.2239 181.225C87.2239 179.747 88.4172 178.497 89.9514 178.497H255.251C256.728 178.554 257.921 179.747 257.921 181.225Z" fill="#C97440"/>
</g>
</g>
<g id="Group_47">
<path id="Vector_61" d="M74.7797 85.5341C78.53 89.0571 81.5985 89.0571 81.5985 85.5341C81.5985 82.011 81.5985 76.1582 81.5985 72.6351C81.5985 69.1121 78.53 66.1573 74.7797 66.1573C71.0293 66.1573 64.9492 66.1573 61.1989 66.1573C57.4485 66.1573 57.4485 69.0553 61.1989 72.6351C64.8924 76.1582 71.0293 81.9542 74.7797 85.5341Z" fill="#6842EF"/>
<path id="Vector_62" d="M164.106 51.1559C164.106 63.2025 154.332 72.9761 142.286 72.9761H62.2784C50.2319 72.9761 40.4583 63.2025 40.4583 51.1559V22.4033C40.4583 10.3567 50.2319 0.583099 62.2784 0.583099H142.343C154.389 0.583099 164.163 10.3567 164.163 22.4033V51.1559H164.106Z" fill="#6842EF"/>
<path id="HELP!" d="M106.736 12.64V24H104.544V19.152H99.392V24H97.184V12.64H99.392V17.232H104.544V12.64H106.736ZM116.994 22.064V24H109.106V12.64H116.85V14.576H111.314V17.312H116.098V19.104H111.314V22.064H116.994ZM118.715 24V12.64H120.923V22.064H126.715V24H118.715ZM128.059 24V12.64H132.875C133.398 12.64 133.878 12.752 134.315 12.976C134.763 13.1893 135.147 13.4773 135.467 13.84C135.787 14.192 136.038 14.5973 136.219 15.056C136.4 15.504 136.491 15.9573 136.491 16.416C136.491 16.896 136.406 17.3653 136.235 17.824C136.064 18.272 135.824 18.672 135.515 19.024C135.206 19.376 134.832 19.6587 134.395 19.872C133.958 20.0853 133.478 20.192 132.955 20.192H130.267V24H128.059ZM130.267 18.256H132.827C133.232 18.256 133.568 18.0907 133.835 17.76C134.112 17.4293 134.251 16.9813 134.251 16.416C134.251 16.128 134.208 15.872 134.123 15.648C134.038 15.4133 133.926 15.216 133.787 15.056C133.648 14.896 133.483 14.7787 133.291 14.704C133.11 14.6187 132.923 14.576 132.731 14.576H130.267V18.256ZM138.236 19.728V12.528H140.38V19.728H138.236ZM138.236 24V21.584H140.38V24H138.236Z" fill="#FFD600"/>
<path id="Vector_63" d="M152.457 29.0516H96.5997V32.6883H152.457V29.0516Z" fill="#FFF2DB"/>
<path id="Vector_64" d="M144.843 37.8592H96.5997V41.4959H144.843V37.8592Z" fill="#FFF2DB"/>
<path id="Vector_65" d="M128.591 46.6669H96.5997V50.3036H128.591V46.6669Z" fill="#FFF2DB"/>
<path id="Vector_66" d="M148.309 55.4745H96.5997V59.1112H148.309V55.4745Z" fill="#FFF2DB"/>
<g id="Group_48">
<path id="Vector_67" d="M85.5193 57.7474C83.8714 53.5993 78.0754 50.6445 75.1774 50.7013H65.2333C61.9944 50.9854 56.5394 53.5993 54.8915 57.7474C58.7555 61.6114 64.2105 63.998 70.2338 63.998C76.2002 63.998 81.5985 61.6114 85.5193 57.7474Z" fill="#31241C"/>
<path id="Vector_68" d="M66.1425 42.2346C66.1425 42.2346 65.1765 50.0763 64.5514 54.4517C64.0968 57.6906 75.632 58.5998 76.0297 55.1335C76.3139 50.9854 76.7116 43.9962 76.7116 43.9962" fill="#C97440"/>
<path id="Vector_69" d="M65.6311 45.8145L66.0857 42.2346L76.598 43.9962C76.598 43.9962 76.4844 46.1555 76.3139 48.8261C75.5752 49.0534 74.7797 49.2239 73.9841 49.2807C70.7452 49.5648 67.6767 48.2011 65.6311 45.8145Z" fill="#AB5D2D"/>
<path id="Vector_70" d="M83.4167 36.0409C83.8145 41.6096 79.6664 46.4964 74.0409 46.8941C68.4722 47.2919 63.5854 43.1438 63.1876 37.5183L62.3921 26.8355C61.9943 21.2668 66.1424 16.38 71.7679 15.9822C77.3366 15.5845 82.2234 19.7326 82.6212 25.3581L83.4167 36.0409Z" fill="#C97440"/>
<g id="Group_49">
<path id="Vector_71" d="M69.6086 28.0288C71.0291 27.7447 72.1656 27.1196 73.018 25.9263C73.4157 25.3581 72.4497 24.7898 72.052 25.3581C71.3701 26.3241 70.4041 26.7218 69.3244 26.9491C68.5857 27.0628 68.8698 28.1424 69.6086 28.0288Z" fill="#31241C"/>
</g>
<g id="Group_50">
<path id="Vector_72" d="M81.0301 25.8127C80.2346 25.6422 79.7232 25.3013 79.3822 24.5626C79.0413 23.9375 78.0753 24.5058 78.4163 25.1308C78.9277 26.0968 79.7232 26.665 80.746 26.8923C81.4847 27.006 81.7688 25.9263 81.0301 25.8127Z" fill="#31241C"/>
</g>
<g id="Group_51">
<path id="Vector_73" d="M75.973 35.1885C75.8593 35.1885 75.7457 35.1317 75.6889 35.0749C75.5184 34.9044 75.5184 34.6203 75.6321 34.4498L76.9958 32.9156L75.4616 32.2905C75.2343 32.1769 75.1206 31.9496 75.2343 31.7223C75.3479 31.495 75.5752 31.3814 75.8025 31.495L77.905 32.3474C78.0186 32.4042 78.1323 32.5178 78.1323 32.6315C78.1891 32.7451 78.1323 32.9156 78.0186 33.0292L76.2571 35.0181C76.2003 35.1317 76.0866 35.1885 75.973 35.1885Z" fill="#31241C"/>
</g>
<g id="Group_52">
<path id="Vector_74" d="M73.416 39.5071C73.3023 39.5071 73.1318 39.4503 73.075 39.3366C72.9614 39.1662 72.9614 38.882 73.1887 38.7684C74.8934 37.5751 76.3708 37.1205 77.6777 37.3478C77.905 37.4046 78.0755 37.6319 78.0186 37.8592C77.9618 38.0865 77.7345 38.257 77.5072 38.2002C76.4276 37.9729 75.1775 38.4275 73.7001 39.4503C73.5864 39.4503 73.5296 39.5071 73.416 39.5071Z" fill="#31241C"/>
</g>
<path id="Vector_75" d="M73.3589 31.7223C73.1885 32.4042 72.5066 32.8019 71.8815 32.6315C71.1997 32.461 70.8019 31.7791 70.9724 31.1541C71.1428 30.4722 71.8247 30.0744 72.4498 30.2449C73.1316 30.3585 73.5294 31.0404 73.3589 31.7223Z" fill="#1A191F"/>
<path id="Vector_76" d="M80.746 31.2677C80.5756 31.9496 79.8937 32.3474 79.2686 32.1769C78.5867 32.0064 78.189 31.3245 78.3594 30.6995C78.5299 30.0176 79.2118 29.6198 79.8369 29.7903C80.5187 29.9608 80.9165 30.5858 80.746 31.2677Z" fill="#1A191F"/>
<path id="Vector_77" d="M65.1196 34.9044C65.5742 36.8932 64.3809 38.8821 62.3921 39.3366C60.4033 39.7912 58.4145 38.5979 57.9599 36.6091L57.6758 35.4727C57.2212 33.4838 58.4145 31.495 60.4033 31.0404C62.3921 30.5858 64.3809 31.7791 64.8355 33.768L65.1196 34.9044Z" fill="#C97440"/>
<path id="Vector_78" d="M59.5508 31.4382C58.6985 28.9948 54.4935 18.937 60.7441 18.6529C61.1419 14.7321 66.5969 12.6296 73.4726 11.3227C80.2914 9.95895 84.5531 13.1979 84.0417 16.38C83.5303 19.5621 79.3254 20.7554 75.9728 19.7894C75.0068 23.2556 70.4609 22.0623 69.4381 21.3805C68.6426 24.733 64.8354 25.5286 65.29 27.8583C65.7446 30.1881 65.915 32.5747 66.0287 33.0292C66.1423 33.4838 64.0967 34.4498 63.6989 33.4838C63.2443 32.5747 61.5396 30.8131 59.5508 31.4382Z" fill="#31241C"/>
</g>
<g id="Group_53">
<path id="Vector_79" d="M78.473 86.2159C82.6211 87.0115 80.2345 72.9761 80.2345 70.8168C80.1209 70.9305 80.0641 70.9873 79.9504 71.1009C88.8717 71.1577 97.793 71.2146 106.714 71.1009C113.078 71.0441 119.5 70.8736 125.864 70.8736C129.785 70.8736 133.705 70.7032 137.626 70.5895C141.831 70.419 146.036 70.419 150.127 69.3394C157.969 67.2369 160.81 58.9975 161.606 51.7242C161.662 51.3832 161.094 51.3832 161.037 51.7242C160.412 57.1224 158.821 63.032 154.446 66.6119C151.15 69.3394 146.377 69.6803 142.286 69.8508C138.251 70.0213 134.16 70.1918 130.125 70.2486C117.34 70.419 104.498 70.5327 91.7129 70.5327C87.7921 70.5327 83.8144 70.5327 79.8936 70.4759C79.7231 70.4759 79.6095 70.5895 79.6095 70.76C79.6095 72.5783 81.4847 86.1591 78.5867 85.5909C78.2457 85.5909 78.0753 86.1023 78.473 86.2159Z" fill="#1F0E03"/>
</g>
<g id="Group_54">
<path id="Vector_80" d="M161.322 27.4037C161.322 34.4498 161.606 41.5527 161.151 48.5988C161.151 48.9398 161.719 48.9398 161.719 48.5988C162.174 41.5527 161.89 34.4498 161.89 27.4037C161.89 27.0628 161.322 27.0628 161.322 27.4037Z" fill="#1F0E03"/>
</g>
</g>
<g id="Group_55">
<path id="Vector_81" d="M381.967 119.628C381.967 132.129 371.852 142.244 359.351 142.244H276.332C263.831 142.244 253.716 132.129 253.716 119.628V89.8526C253.716 77.3515 263.831 67.2369 276.332 67.2369H359.351C371.852 67.2369 381.967 77.3515 381.967 89.8526V119.628Z" fill="#6842EF"/>
<path id="Vector_82" d="M279.344 155.199C275.48 158.893 272.298 158.893 272.298 155.199C272.298 151.506 272.298 145.483 272.298 141.846C272.298 138.152 275.48 135.141 279.344 135.141C283.208 135.141 289.572 135.141 293.436 135.141C297.3 135.141 297.3 138.152 293.436 141.846C289.572 145.54 283.208 151.563 279.344 155.199Z" fill="#6842EF"/>
<path id="THANKS!" d="M273.68 84.576H270.048V94H267.856V84.576H264.224V82.64H273.68V84.576ZM284.642 82.64V94H282.45V89.152H277.298V94H275.09V82.64H277.298V87.232H282.45V82.64H284.642ZM290.244 82.64H292.196L296.516 94H294.244L293.188 91.168H289.22L288.18 94H285.908L290.244 82.64ZM292.788 89.616L291.22 85.152L289.588 89.616H292.788ZM299.97 86.72V94H297.762V82.64H299.474L305.394 90.096V82.656H307.602V94H305.81L299.97 86.72ZM309.965 94V82.656H312.173V88.048L316.941 82.64H319.373L315.021 87.68L319.645 94H317.165L313.629 89.088L312.173 90.608V94H309.965ZM327.436 85.616C327.362 85.5413 327.223 85.44 327.02 85.312C326.828 85.184 326.588 85.0613 326.3 84.944C326.023 84.816 325.719 84.7093 325.388 84.624C325.058 84.5387 324.722 84.496 324.38 84.496C323.772 84.496 323.319 84.608 323.02 84.832C322.722 85.056 322.572 85.3707 322.572 85.776C322.572 86.0107 322.626 86.208 322.732 86.368C322.85 86.5173 323.015 86.6507 323.228 86.768C323.442 86.8853 323.708 86.992 324.028 87.088C324.359 87.184 324.738 87.2853 325.164 87.392C325.719 87.5413 326.22 87.7013 326.668 87.872C327.127 88.0427 327.511 88.256 327.82 88.512C328.14 88.768 328.386 89.0773 328.556 89.44C328.727 89.792 328.812 90.2293 328.812 90.752C328.812 91.36 328.695 91.8827 328.46 92.32C328.236 92.7467 327.927 93.0933 327.532 93.36C327.148 93.6267 326.7 93.824 326.188 93.952C325.687 94.0693 325.159 94.128 324.604 94.128C323.751 94.128 322.908 94 322.076 93.744C321.244 93.488 320.498 93.1253 319.836 92.656L320.812 90.752C320.908 90.848 321.079 90.976 321.324 91.136C321.58 91.2853 321.879 91.44 322.22 91.6C322.562 91.7493 322.94 91.8773 323.356 91.984C323.772 92.0907 324.199 92.144 324.636 92.144C325.852 92.144 326.46 91.7547 326.46 90.976C326.46 90.7307 326.391 90.5227 326.252 90.352C326.114 90.1813 325.916 90.032 325.66 89.904C325.404 89.776 325.095 89.6587 324.732 89.552C324.37 89.4453 323.964 89.328 323.516 89.2C322.972 89.0507 322.498 88.8907 322.092 88.72C321.698 88.5387 321.367 88.3307 321.1 88.096C320.834 87.8507 320.631 87.5733 320.492 87.264C320.364 86.944 320.3 86.5653 320.3 86.128C320.3 85.552 320.407 85.04 320.62 84.592C320.834 84.144 321.127 83.7707 321.5 83.472C321.884 83.1733 322.327 82.9493 322.828 82.8C323.33 82.64 323.868 82.56 324.444 82.56C325.244 82.56 325.98 82.688 326.652 82.944C327.324 83.1893 327.911 83.4827 328.412 83.824L327.436 85.616ZM330.689 89.728V82.528H332.833V89.728H330.689ZM330.689 94V91.584H332.833V94H330.689Z" fill="#FFD600"/>
<path id="Vector_83" d="M321.678 101.206H263.775V104.956H321.678V101.206Z" fill="#FFF2DB"/>
<path id="Vector_84" d="M313.779 110.354H263.775V114.105H313.779V110.354Z" fill="#FFF2DB"/>
<path id="Vector_85" d="M296.96 119.503H263.775V123.253H296.96V119.503Z" fill="#FFF2DB"/>
<g id="Group_56">
<path id="Vector_86" d="M339.974 127.867C341.679 123.606 347.646 120.537 350.714 120.537H360.999C364.408 120.878 370.034 123.549 371.739 127.867C367.704 131.845 362.079 134.345 355.828 134.345C349.634 134.345 344.009 131.845 339.974 127.867Z" fill="#31241C"/>
<g id="Group_57">
<path id="Vector_87" d="M360.033 111.786C360.033 111.786 360.999 119.912 361.681 124.458C362.193 127.811 350.146 128.72 349.805 125.14C349.464 120.878 349.123 113.605 349.123 113.605" fill="#C97440"/>
<path id="Vector_88" d="M360.545 115.48L360.033 111.73L349.123 113.548C349.123 113.548 349.237 115.764 349.407 118.548C350.146 118.776 350.998 118.946 351.794 119.003C355.26 119.344 358.442 117.923 360.545 115.48Z" fill="#AB5D2D"/>
<path id="Vector_89" d="M342.134 105.365C341.679 111.161 346.055 116.219 351.851 116.616C357.647 117.071 362.704 112.696 363.102 106.9L363.954 95.8191C364.409 90.0231 360.033 84.9658 354.237 84.568C348.441 84.1134 343.384 88.4889 342.986 94.2848L342.134 105.365Z" fill="#C97440"/>
<g id="Group_58">
<path id="Vector_90" d="M356.567 95.9895C355.999 94.9099 354.748 94.1144 353.498 94.2848C352.76 94.3417 352.76 95.4781 353.498 95.4213C354.408 95.3077 355.203 95.8191 355.601 96.5578C355.885 97.1828 356.908 96.6146 356.567 95.9895Z" fill="#31241C"/>
</g>
<g id="Group_59">
<path id="Vector_91" d="M345.145 95.6486C345.657 95.1372 346.566 94.7962 347.248 94.9667C347.93 95.1372 348.27 94.0575 347.532 93.8871C346.452 93.6029 345.088 94.0575 344.35 94.8531C343.838 95.3645 344.634 96.16 345.145 95.6486Z" fill="#31241C"/>
</g>
<g id="Group_60">
<path id="Vector_92" d="M349.862 104.399C349.748 104.399 349.634 104.343 349.521 104.286L347.703 102.24C347.589 102.126 347.589 102.013 347.589 101.842C347.646 101.729 347.702 101.615 347.816 101.558L349.975 100.649C350.203 100.535 350.43 100.649 350.544 100.876C350.657 101.104 350.544 101.331 350.316 101.445L348.668 102.126L350.089 103.718C350.26 103.888 350.203 104.172 350.032 104.343C350.032 104.399 349.919 104.399 349.862 104.399Z" fill="#31241C"/>
</g>
<g id="Group_61">
<path id="Vector_93" d="M349.691 110.252C348.498 110.252 347.759 109.002 347.248 106.445C347.248 106.331 347.248 106.161 347.362 106.047C347.475 105.934 347.589 105.877 347.703 105.934C348.441 106.047 349.351 106.161 350.657 106.161C351.339 106.161 352.078 106.161 352.93 106.104C353.101 106.104 353.215 106.161 353.328 106.331C353.385 106.445 353.385 106.615 353.328 106.786C351.964 109.116 350.771 110.252 349.691 110.252ZM348.214 106.9C348.555 108.491 349.066 109.4 349.691 109.4C350.089 109.4 350.885 109.059 352.192 107.013C350.657 107.07 349.464 107.07 348.214 106.9Z" fill="#31241C"/>
</g>
<path id="Vector_94" d="M352.532 100.82C352.703 101.501 353.385 101.899 354.066 101.729C354.748 101.558 355.146 100.876 354.976 100.194C354.805 99.5126 354.123 99.1148 353.441 99.2853C352.76 99.4558 352.362 100.138 352.532 100.82Z" fill="#1A191F"/>
<path id="Vector_95" d="M344.862 100.365C345.032 101.047 345.714 101.445 346.396 101.274C347.078 101.104 347.475 100.422 347.305 99.7399C347.134 99.058 346.453 98.6602 345.771 98.8307C345.146 99.0012 344.691 99.6831 344.862 100.365Z" fill="#1A191F"/>
</g>
<path id="Vector_96" d="M361.113 104.115C360.601 106.161 361.852 108.207 363.897 108.718C365.943 109.229 367.988 107.979 368.5 105.934L368.784 104.74C369.295 102.695 368.045 100.649 366 100.138C363.954 99.6262 361.908 100.876 361.397 102.922L361.113 104.115Z" fill="#C97440"/>
<path id="Vector_97" d="M366.852 100.535C367.761 97.9784 372.136 87.5797 365.602 87.2387C365.204 83.1475 359.522 80.9882 352.419 79.6244C345.316 78.2606 340.883 81.5564 341.452 84.8522C341.963 88.1479 346.338 89.398 349.805 88.3752C350.771 91.9551 355.544 90.7618 356.567 90.0231C357.362 93.4893 361.283 94.3417 360.885 96.7851C360.431 99.2285 360.26 101.672 360.147 102.183C360.033 102.695 362.135 103.661 362.59 102.638C363.045 101.729 364.806 99.9104 366.852 100.535Z" fill="#31241C"/>
</g>
<g id="Group_62">
<path id="Vector_98" d="M359.067 140.539C367.42 140.198 376.341 134.914 378.16 126.276C378.216 125.935 377.705 125.765 377.591 126.106C375.887 134.459 367.193 139.63 359.067 139.971C358.726 139.971 358.726 140.539 359.067 140.539Z" fill="#1F0E03"/>
</g>
<g id="Group_63">
<path id="Vector_99" d="M352.191 140.596C353.726 140.653 355.26 140.653 356.737 140.71C357.078 140.71 357.078 140.141 356.737 140.141C355.203 140.084 353.669 140.084 352.191 140.028C351.794 140.028 351.794 140.596 352.191 140.596Z" fill="#1F0E03"/>
</g>
<g id="Group_64">
<path id="Vector_100" d="M279.173 153.154C282.015 150.597 284.913 148.04 287.583 145.255C288.833 144.005 289.913 142.301 291.447 141.335C292.356 140.71 293.436 140.653 294.459 140.596C296.505 140.482 298.55 140.539 300.596 140.482C304.289 140.425 308.04 140.255 311.733 140.255C315.711 140.255 319.688 140.425 323.666 140.596C331.394 140.937 339.179 141.335 346.907 140.539C347.248 140.482 347.248 139.914 346.907 139.971C339.008 140.766 331.053 140.369 323.098 140.028C318.95 139.857 314.745 139.687 310.597 139.687C306.846 139.687 303.153 139.914 299.459 139.971C296.902 139.971 293.379 139.459 291.106 140.88C289.686 141.789 288.606 143.323 287.526 144.517C284.742 147.415 281.73 150.085 278.719 152.813C278.492 152.983 278.946 153.381 279.173 153.154Z" fill="#1F0E03"/>
</g>
</g>
<g id="Group_65">
<path id="Vector_101" d="M335.144 38.2002C335.144 44.7349 329.86 50.0194 323.325 50.0194H213.088C206.553 50.0194 201.268 44.7349 201.268 38.2002V27.1764C201.268 20.6418 206.553 15.3572 213.088 15.3572H323.268C329.803 15.3572 335.087 20.6418 335.087 27.1764V38.2002H335.144Z" fill="#24CBC7"/>
<g id="Group_66">
<g id="Group_67">
<path id="Vector_102" d="M219.679 23.5966C220.077 22.7442 220.759 22.7442 221.213 23.5966L222.52 26.2673C222.918 27.1196 224.055 27.9151 224.964 28.0288L227.919 28.4834C228.828 28.597 229.055 29.2789 228.373 29.904L226.214 32.0064C225.532 32.6883 225.134 33.9384 225.305 34.9044L225.816 37.8592C225.987 38.7684 225.418 39.1662 224.623 38.7684L221.952 37.3478C221.1 36.8932 219.736 36.8932 218.94 37.3478L216.27 38.7684C215.417 39.223 214.906 38.8252 215.076 37.8592L215.588 34.9044C215.758 33.9953 215.304 32.6883 214.679 32.0064L212.519 29.904C211.838 29.2221 212.065 28.597 212.974 28.4834L215.929 28.0288C216.838 27.9151 217.974 27.1196 218.372 26.2673L219.679 23.5966Z" fill="white"/>
</g>
<g id="Group_68">
<path id="Vector_103" d="M243.318 23.5966C243.715 22.7442 244.397 22.7442 244.852 23.5966L246.159 26.2673C246.557 27.1196 247.693 27.9151 248.602 28.0288L251.557 28.4834C252.466 28.597 252.693 29.2789 252.012 29.904L249.852 32.0064C249.17 32.6883 248.773 33.9384 248.943 34.9044L249.454 37.8592C249.625 38.7684 249.057 39.1662 248.261 38.7684L245.591 37.3478C244.738 36.8932 243.374 36.8932 242.579 37.3478L239.908 38.7684C239.056 39.223 238.544 38.8252 238.715 37.8592L239.226 34.9044C239.397 33.9953 238.942 32.6883 238.317 32.0064L236.158 29.904C235.476 29.2221 235.703 28.597 236.612 28.4834L239.567 28.0288C240.476 27.9151 241.613 27.1196 242.011 26.2673L243.318 23.5966Z" fill="white"/>
</g>
<g id="Group_69">
<path id="Vector_104" d="M267.013 23.5966C267.411 22.7442 268.093 22.7442 268.547 23.5966L269.854 26.2673C270.252 27.1196 271.389 27.9151 272.298 28.0288L275.253 28.4834C276.162 28.597 276.389 29.2789 275.707 29.904L273.548 32.0064C272.866 32.6883 272.468 33.9384 272.639 34.9044L273.15 37.8592C273.321 38.7684 272.752 39.1662 271.957 38.7684L269.286 37.3478C268.434 36.8932 267.07 36.8932 266.274 37.3478L263.604 38.7684C262.751 39.223 262.24 38.8252 262.41 37.8592L262.922 34.9044C263.092 33.9953 262.638 32.6883 262.013 32.0064L259.853 29.904C259.172 29.2221 259.399 28.597 260.308 28.4834L263.263 28.0288C264.172 27.9151 265.308 27.1196 265.706 26.2673L267.013 23.5966Z" fill="white"/>
</g>
<g id="Group_70">
<path id="Vector_105" d="M290.708 23.5966C291.106 22.7442 291.788 22.7442 292.243 23.5966L293.549 26.2673C293.947 27.1196 295.084 27.9151 295.993 28.0288L298.948 28.4834C299.857 28.597 300.084 29.2789 299.402 29.904L297.243 32.0064C296.561 32.6883 296.163 33.9384 296.334 34.9044L296.845 37.8592C297.016 38.7684 296.447 39.1662 295.652 38.7684L292.981 37.3478C292.129 36.8932 290.765 36.8932 289.97 37.3478L287.299 38.7684C286.447 39.223 285.935 38.8252 286.106 37.8592L286.617 34.9044C286.788 33.9953 286.333 32.6883 285.708 32.0064L283.549 29.904C282.867 29.2221 283.094 28.597 284.003 28.4834L286.958 28.0288C287.867 27.9151 289.004 27.1196 289.401 26.2673L290.708 23.5966Z" fill="white"/>
</g>
<g id="Group_71">
<path id="Vector_106" d="M314.347 23.5966C314.745 22.7442 315.427 22.7442 315.881 23.5966L317.188 26.2673C317.586 27.1196 318.722 27.9151 319.632 28.0288L322.586 28.4834C323.496 28.597 323.723 29.2789 323.041 29.904L320.882 32.0064C320.2 32.6883 319.802 33.9384 319.972 34.9044L320.484 37.8592C320.654 38.7684 320.086 39.1662 319.291 38.7684L316.62 37.3478C315.768 36.8932 314.461 36.8932 313.608 37.3478L310.938 38.7684C310.085 39.223 309.574 38.8252 309.744 37.8592L310.256 34.9044C310.426 33.9953 309.972 32.6883 309.347 32.0064L307.187 29.904C306.505 29.2221 306.733 28.597 307.642 28.4834L310.597 28.0288C311.506 27.9151 312.642 27.1196 313.04 26.2673L314.347 23.5966Z" fill="white"/>
</g>
</g>
<g id="Group_72">
<path id="Vector_107" d="M260.478 48.2579C262.354 48.2579 264.229 48.0874 266.104 48.0306C266.445 48.0306 266.445 47.4624 266.104 47.4624C264.229 47.4624 262.354 47.6329 260.478 47.6897C260.081 47.6897 260.081 48.2579 260.478 48.2579Z" fill="#1F0E03"/>
</g>
<g id="Group_73">
<path id="Vector_108" d="M268.661 48.0874C275.366 47.917 282.014 48.2579 288.72 48.1443C292.072 48.0874 295.368 47.8033 298.664 47.6329C302.187 47.4624 305.653 47.5192 309.176 47.6329C312.529 47.7465 315.881 47.8602 319.177 47.917C321.507 47.9738 323.836 48.0874 326.109 47.576C329.803 46.7805 331.394 43.7689 331.621 40.189C331.621 39.8481 331.053 39.8481 331.053 40.189C330.939 42.1778 330.485 44.1098 329.007 45.5304C327.644 46.8373 325.655 47.1783 323.893 47.2919C321.222 47.5192 318.552 47.2919 315.881 47.2351C312.756 47.1783 309.574 47.0078 306.448 46.951C300.141 46.8373 293.947 47.5192 287.64 47.576C281.332 47.6329 275.025 47.4056 268.718 47.5192C268.32 47.5192 268.32 48.0874 268.661 48.0874Z" fill="#1F0E03"/>
</g>
</g>
<g id="Group_74">
<path id="Vector_109" d="M70.4042 123.265C70.4042 129.799 65.1196 135.084 58.5849 135.084H11.8193C5.28458 135.084 0 129.799 0 123.265V109.513C0 102.979 5.28458 97.6942 11.8193 97.6942H58.5849C65.1196 97.6942 70.4042 102.979 70.4042 109.513V123.265Z" fill="#24CBC7"/>
<path id="24/7" d="M9.76 124C9.76 123.4 9.80667 122.86 9.9 122.38C9.99333 121.887 10.1533 121.433 10.38 121.02C10.62 120.607 10.94 120.22 11.34 119.86C11.7533 119.5 12.2733 119.147 12.9 118.8C13.4467 118.507 13.9267 118.253 14.34 118.04C14.7667 117.813 15.12 117.607 15.4 117.42C15.68 117.233 15.8933 117.047 16.04 116.86C16.1867 116.66 16.26 116.433 16.26 116.18C16.26 115.78 16.1 115.44 15.78 115.16C15.46 114.867 15 114.72 14.4 114.72C14.08 114.72 13.7867 114.767 13.52 114.86C13.2533 114.94 13 115.053 12.76 115.2C12.5333 115.347 12.32 115.513 12.12 115.7C11.9333 115.873 11.76 116.06 11.6 116.26L9.88 114.28C10.0533 114.093 10.3 113.893 10.62 113.68C10.94 113.453 11.3133 113.247 11.74 113.06C12.18 112.86 12.66 112.7 13.18 112.58C13.7133 112.447 14.28 112.38 14.88 112.38C15.56 112.38 16.1667 112.467 16.7 112.64C17.2333 112.8 17.68 113.033 18.04 113.34C18.4133 113.633 18.6933 113.993 18.88 114.42C19.08 114.833 19.18 115.287 19.18 115.78C19.18 116.247 19.0933 116.66 18.92 117.02C18.7467 117.38 18.5267 117.7 18.26 117.98C17.9933 118.26 17.7 118.507 17.38 118.72C17.0733 118.92 16.7733 119.1 16.48 119.26C16.24 119.393 15.9667 119.547 15.66 119.72C15.3533 119.893 15.0467 120.087 14.74 120.3C14.4467 120.5 14.1733 120.713 13.92 120.94C13.6667 121.153 13.4733 121.367 13.34 121.58H19.4V124H9.76ZM26.5291 126.54V123.56H20.6891V121.18L27.3891 112.58H29.2091V121.16H30.9691V123.56H29.2091V126.54H26.5291ZM23.3691 121.16H26.8291V116.64L23.3691 121.16ZM45.1348 109.8L35.2148 124H32.2548L42.1548 109.8H45.1348ZM52.6997 114.78H46.2397V112.34H56.9197L49.8797 126.54H46.8397L52.6997 114.78Z" fill="white"/>
<g id="Group_75">
<path id="Vector_110" d="M40.572 133.038C48.6978 131.05 57.7327 135.027 65.0629 130.027C65.347 129.799 65.0629 129.345 64.7788 129.515C57.5054 134.459 48.4136 130.481 40.4015 132.47C40.0606 132.584 40.2311 133.152 40.572 133.038Z" fill="#1F0E03"/>
</g>
<g id="Group_76">
<path id="Vector_111" d="M67.7904 112.071C67.904 113.321 67.8472 114.514 68.0177 115.707C68.1882 117.128 68.4154 118.492 68.4154 119.912C68.4154 122.64 68.1882 125.481 66.5971 127.811C66.3698 128.095 66.8812 128.379 67.1085 128.095C68.4723 126.106 68.8132 123.663 68.9837 121.276C69.0405 120.026 69.0973 118.776 68.9269 117.582C68.6996 115.764 68.5859 113.946 68.4154 112.127C68.3018 111.673 67.7336 111.673 67.7904 112.071Z" fill="#1F0E03"/>
</g>
</g>
</g>
</svg>
