<svg width="460" height="206" viewBox="0 0 460 206" fill="none" xmlns="http://www.w3.org/2000/svg">
<path d="M0 20C0 8.95431 8.95431 0 20 0H440C451.046 0 460 8.9543 460 20V206H0V20Z" fill="#6842EF"/>
<path d="M227.308 165.13C261.465 165.13 289.155 137.44 289.155 103.283C289.155 69.1265 261.465 41.4368 227.308 41.4368C193.151 41.4368 165.461 69.1265 165.461 103.283C165.461 137.44 193.151 165.13 227.308 165.13Z" fill="#5B38D9"/>
<path d="M214.642 117.527V68.611C214.642 65.3381 217.295 62.6799 220.573 62.6799H269.494C272.767 62.6799 275.425 65.3326 275.425 68.611V115.555C275.425 133.503 274.024 147.426 271.228 157.311C268.426 167.196 262.5 175.303 253.44 181.649C245.571 187.16 234.778 190.46 221.06 191.557C217.616 191.833 214.653 189.087 214.653 185.631V171.061C214.653 168.336 216.525 165.972 219.172 165.329C235.924 161.237 244.303 149.259 244.303 129.4C244.303 126.127 241.65 123.469 238.372 123.469H220.573C217.295 123.458 214.642 120.805 214.642 117.527Z" fill="#9274FF"/>
<path d="M196.716 88.5417V65.4765C196.716 63.9315 195.465 62.6799 193.92 62.6799H170.855C169.31 62.6799 168.058 63.9315 168.058 65.4765V87.6113C168.058 96.0731 168.717 102.641 170.041 107.298C171.359 111.961 174.155 115.782 178.43 118.773C182.141 121.37 187.23 122.926 193.698 123.447C195.321 123.574 196.722 122.284 196.722 120.65V113.778C196.722 112.493 195.836 111.38 194.59 111.075C186.687 109.148 182.739 103.499 182.739 94.1293C182.739 92.5843 183.99 91.3327 185.536 91.3327H193.925C195.465 91.3383 196.716 90.0867 196.716 88.5417Z" fill="#9274FF"/>
<path d="M244.337 54.6887L235.637 54.9656L235.388 56.854L239.807 65.194L244.747 64.0698L250.556 65.3325L253.939 58.3991L253.042 54.9656L244.337 54.6887Z" fill="#181D23"/>
<path d="M242.204 23.8595C242.204 23.8595 240.969 22.9846 240.582 22.4252C240.194 21.8659 239.574 20.0938 240.903 19.3019C240.903 19.3019 240.094 18.1445 241.224 16.6714C241.761 15.9681 243.04 15.2593 244.198 15.6801C244.198 15.6801 246.114 14.1572 248.373 15.6691C248.373 15.6691 251.142 17.6239 249.259 21.445C249.259 21.445 250.029 22.68 249.005 23.3058C249.005 23.3058 248.894 24.7788 247.338 24.4853L242.204 23.8595Z" fill="#181D23"/>
<path d="M248.705 97.391L248.345 98.3934C248.068 99.1632 248.08 99.9994 248.373 100.764L250.372 105.947C250.627 106.612 251.491 106.783 251.984 106.263L252.554 105.659C253.329 104.839 253.623 103.671 253.324 102.58L251.834 97.1418L248.705 97.391Z" fill="white"/>
<path d="M235.382 99.7003L235.576 103.555C235.637 104.74 236.345 105.792 237.425 106.285L238.367 106.717C238.976 106.994 239.663 106.534 239.629 105.869C239.557 104.479 239.402 101.987 239.048 97.9226L235.382 99.7003Z" fill="white"/>
<path d="M254.814 31.3246C254.792 30.6157 254.67 29.9014 254.377 29.2479C253.967 28.3231 251.669 27.1657 249.42 26.2962C246.646 25.2274 243.583 25.2274 240.809 26.2962C238.561 27.1657 236.268 28.3231 235.853 29.2479C235.559 29.9069 235.437 30.6157 235.415 31.3246C235.349 33.3459 235.149 50.5575 234.634 55.6025L244.469 56.0898H244.669H244.868L256.071 54.794C256.082 49.0734 254.881 33.3459 254.814 31.3246Z" fill="white"/>
<path d="M236.351 33.7224L235.315 36.7793C235.199 42.8599 234.994 52.1191 234.64 55.6024L244.475 56.0898H244.674H244.874L256.077 54.7939C256.077 53.0883 255.971 50.491 255.816 47.639C237.226 50.8288 236.351 33.7224 236.351 33.7224Z" fill="#EDEDED"/>
<path d="M234.673 55.4806L235.947 56.7211L238.754 56.9371L244.94 56.0953L244.336 54.6887L234.673 55.4806Z" fill="#1B2128"/>
<path d="M228.869 58.9362C228.21 62.2921 228.493 67.0879 235.232 99.6615C235.426 100.586 236.301 101.207 237.237 101.068L237.99 100.957C238.81 100.841 239.441 100.177 239.518 99.3514C240.011 93.6917 241.673 72.4485 239.624 63.1339C239.624 63.1339 236.677 53.199 231.422 55.2203C230.143 55.7187 229.19 57.3136 228.869 58.9362Z" fill="#1B2128"/>
<path d="M239.53 99.263C239.53 99.263 242.005 73.933 239.624 63.1342C239.624 63.1342 238.477 59.2687 236.34 56.8542C236.351 56.8709 239.624 62.4309 239.181 70.2946C239.186 70.2946 239.779 95.4253 239.53 99.263Z" fill="#181D23"/>
<path d="M236.556 101.029C233.887 85.7778 232.059 63.6375 232.059 63.6375C231.561 57.0641 235.105 55.7516 235.127 55.7405C234.053 54.9653 232.851 54.6717 231.423 55.22C230.143 55.7129 229.191 57.3133 228.87 58.9359C228.2 62.3472 228.128 65.4484 235.199 99.5117C235.199 99.5117 235.299 100.221 235.681 100.564C236.102 100.94 236.556 101.029 236.556 101.029Z" fill="#202730"/>
<path d="M239.485 56.7264C239.485 56.7264 241.213 57.4186 241.501 59.2682C241.501 59.2682 241.667 57.773 240.393 56.5547L239.983 56.3276L239.485 56.7264Z" fill="#1B2128"/>
<path d="M239.098 65.7592C239.098 65.7592 238.439 63.4444 236.556 61.2625C236.556 61.2625 238.256 61.9104 238.976 63.6991L239.829 66.4791L239.098 65.7592Z" fill="#181D23"/>
<path d="M256.88 55.3311L253.657 58.8255L251.176 56.3667L244.879 56.0898L244.336 54.6887L256.88 55.3311Z" fill="#1B2128"/>
<path d="M258.857 54.7939L244.337 54.6887L235.637 54.9656L235.831 55.6966L236.672 55.6468L244.337 55.4031L254.471 55.2923L256.88 55.3311L258.857 54.7939Z" fill="#202730"/>
<path d="M262.678 59.2905C262.905 62.7073 263.132 67.5585 252.283 99.1962C252.017 99.977 251.181 100.42 250.389 100.199L249.226 99.8773C248.551 99.689 248.08 99.0743 248.08 98.3766C248.069 93.0436 248.219 71.1968 251.48 62.0926C251.48 62.0926 255.661 52.6118 260.618 55.2866C261.825 55.9345 262.567 57.6402 262.678 59.2905Z" fill="#1B2128"/>
<path d="M248.081 97.4683C248.081 97.4683 247.754 72.5037 251.481 62.0926C251.481 62.0926 253.109 58.4044 255.534 56.2778C255.523 56.2944 251.569 61.3948 251.01 69.2475C251.01 69.2475 248.319 93.6306 248.081 97.4683Z" fill="#181D23"/>
<path d="M250.844 100.254C255.424 85.4627 258.918 63.5495 258.918 63.5495C260.247 57.0924 256.897 55.3424 256.88 55.3313C258.043 54.7 259.272 54.5616 260.618 55.287C261.825 55.9405 262.567 57.6461 262.678 59.2964C262.911 62.7631 263.642 66.2353 252.311 99.1246C252.311 99.1246 252.112 99.7836 251.697 100.044C251.381 100.238 250.844 100.254 250.844 100.254Z" fill="#202730"/>
<path d="M252.649 56.2667C252.649 56.2667 250.606 56.6488 249.244 59.1686C249.244 59.1686 249.415 57.4795 251.132 56.3664L251.525 56.1006L252.649 56.2667Z" fill="#1B2128"/>
<path d="M250.783 69.2805C250.783 69.2805 251.763 67.0875 253.939 65.1936C253.939 65.1936 252.162 65.5923 251.198 67.2648L249.958 69.8952L250.783 69.2805Z" fill="#181D23"/>
<path d="M232.568 54.9434C232.568 54.9434 241.196 53.8857 244.441 53.7417C244.441 53.7417 249.851 53.858 258.662 54.7994L244.917 55.1151L235.126 55.7519L232.568 54.9434Z" fill="#202730"/>
<path d="M243.279 26.1634V25.3936C243.279 25.3936 241.651 23.8984 241.784 21.783C241.784 21.783 242.958 21.1849 243.445 20.8637C244.359 20.2656 244.481 19.3906 244.481 19.3906C244.481 19.3906 245.417 21.9934 248.086 22.1263C248.086 22.1263 247.914 24.3359 246.591 25.2995L246.63 26.3185L244.16 27.2101L243.296 26.612L243.279 26.1634Z" fill="white"/>
<path d="M244.442 37.2722L245.012 36.3751L244.337 33.1133L243.755 34.8079L244.442 37.2722Z" fill="#181D23"/>
<path d="M243.921 30.8813L246.934 31.1416L246.419 37.045L243.688 36.8068L243.921 30.8813Z" fill="#181D23"/>
<path d="M235.946 29.0874L229.539 38.9614C228.558 40.4898 228.077 42.3118 228.337 44.1116C228.448 44.8869 228.691 45.6456 229.151 46.216C229.151 46.216 237.142 46.0166 244.447 37.2723L243.76 34.8025L235.658 38.7952L235.946 29.0874Z" fill="white"/>
<path d="M236.351 33.7224L232.884 40.1242L235.653 38.784L236.351 33.7224Z" fill="#EDEDED"/>
<path d="M244.442 37.2723L244.193 36.3696L244.043 36.4306C244.043 36.4306 238.417 45.3077 228.293 43.7128C228.305 43.8457 228.31 43.9786 228.332 44.1115C228.443 44.8868 228.687 45.6455 229.146 46.2159C229.152 46.2159 237.137 46.0166 244.442 37.2723Z" fill="#EDEDED"/>
<path d="M254.26 29.0874L260.667 38.9614C261.647 40.4898 262.129 42.3118 261.869 44.1116C261.758 44.8869 261.514 45.6456 261.055 46.216C261.055 46.216 253.064 46.0166 245.759 37.2723L246.446 34.8025L254.548 38.7952L254.26 29.0874Z" fill="white"/>
<path d="M253.989 33.8665L257.317 40.1242L254.548 38.7841L253.989 33.8665Z" fill="#EDEDED"/>
<path d="M245.759 37.2723L246.008 36.3696L246.158 36.4306C246.158 36.4306 251.784 45.3077 261.908 43.7128C261.897 43.8457 261.891 43.9786 261.869 44.1115C261.758 44.8868 261.514 45.6455 261.055 46.2159C261.055 46.2159 253.064 46.0166 245.759 37.2723Z" fill="#EDEDED"/>
<path d="M246.446 34.8079L244.336 33.1133C244.336 33.1133 244.237 36.1314 245.76 37.2777L246.446 34.8079Z" fill="#181D23"/>
<path d="M161.518 137.735V135.951C161.518 135.829 161.424 135.735 161.302 135.735H159.519C159.397 135.735 159.303 135.829 159.303 135.951V137.663C159.303 138.316 159.353 138.825 159.458 139.185C159.557 139.545 159.773 139.839 160.106 140.071C160.394 140.271 160.787 140.393 161.285 140.431C161.413 140.443 161.518 140.343 161.518 140.215V139.684C161.518 139.584 161.451 139.501 161.352 139.473C160.743 139.324 160.438 138.886 160.438 138.166C160.438 138.045 160.532 137.95 160.654 137.95H161.302C161.424 137.95 161.518 137.851 161.518 137.735Z" fill="#202730"/>
<path d="M164.187 137.735V135.951C164.187 135.829 164.093 135.735 163.971 135.735H162.188C162.066 135.735 161.972 135.829 161.972 135.951V137.663C161.972 138.316 162.022 138.825 162.127 139.185C162.227 139.545 162.443 139.839 162.775 140.071C163.063 140.271 163.456 140.393 163.955 140.431C164.082 140.443 164.187 140.343 164.187 140.215V139.684C164.187 139.584 164.121 139.501 164.021 139.473C163.412 139.324 163.107 138.886 163.107 138.166C163.107 138.045 163.202 137.95 163.323 137.95H163.971C164.093 137.95 164.187 137.851 164.187 137.735Z" fill="#202730"/>
<path d="M204.259 151.075V149.292C204.259 149.17 204.353 149.076 204.475 149.076H206.258C206.38 149.076 206.474 149.17 206.474 149.292V151.003C206.474 151.656 206.424 152.166 206.319 152.526C206.219 152.886 206.003 153.179 205.671 153.412C205.383 153.611 204.99 153.733 204.491 153.772C204.364 153.783 204.259 153.683 204.259 153.556V153.024C204.259 152.924 204.325 152.841 204.425 152.814C205.034 152.664 205.339 152.227 205.339 151.507C205.339 151.385 205.245 151.291 205.123 151.291H204.475C204.358 151.291 204.259 151.191 204.259 151.075Z" fill="#202730"/>
<path d="M201.59 151.075V149.292C201.59 149.17 201.684 149.076 201.806 149.076H203.589C203.711 149.076 203.805 149.17 203.805 149.292V151.003C203.805 151.656 203.755 152.166 203.65 152.526C203.55 152.886 203.334 153.179 203.002 153.412C202.714 153.611 202.321 153.733 201.822 153.772C201.695 153.783 201.59 153.683 201.59 153.556V153.024C201.59 152.924 201.656 152.841 201.756 152.814C202.365 152.664 202.67 152.227 202.67 151.507C202.67 151.385 202.576 151.291 202.454 151.291H201.806C201.684 151.291 201.59 151.191 201.59 151.075Z" fill="#202730"/>
<path d="M206.441 136.089H165.949C165.871 136.089 165.81 136.028 165.81 135.951C165.81 135.873 165.871 135.812 165.949 135.812H206.441C206.519 135.812 206.58 135.873 206.58 135.951C206.58 136.028 206.513 136.089 206.441 136.089Z" fill="white"/>
<path d="M206.441 142.07H159.248C159.17 142.07 159.109 142.009 159.109 141.932C159.109 141.854 159.17 141.793 159.248 141.793H206.441C206.519 141.793 206.58 141.854 206.58 141.932C206.58 142.009 206.513 142.07 206.441 142.07Z" fill="white"/>
<path d="M206.441 148.051H159.248C159.17 148.051 159.109 147.99 159.109 147.912C159.109 147.835 159.17 147.774 159.248 147.774H206.441C206.519 147.774 206.58 147.835 206.58 147.912C206.58 147.99 206.513 148.051 206.441 148.051Z" fill="white"/>
<path d="M200.361 154.032H159.248C159.17 154.032 159.109 153.971 159.109 153.894C159.109 153.816 159.17 153.755 159.248 153.755H200.361C200.438 153.755 200.499 153.816 200.499 153.894C200.499 153.971 200.433 154.032 200.361 154.032Z" fill="white"/>
<path d="M295.484 132.7C295.484 121.17 285.754 111.911 274.058 112.686C264.306 113.334 256.326 121.104 255.445 130.834C254.565 140.564 260.634 149.015 269.257 151.795C269.91 152.005 270.447 152.487 270.763 153.096L273.017 157.388C274.036 159.326 276.805 159.326 277.824 157.388L280.078 153.096C280.399 152.487 280.936 152.005 281.595 151.795C289.652 149.181 295.484 141.621 295.484 132.7Z" fill="#202730"/>
<path d="M213.845 170.929C213.778 170.929 213.717 170.879 213.706 170.812C213.695 170.735 213.745 170.669 213.817 170.652L214.293 170.569L213.019 167.756C212.986 167.684 213.019 167.606 213.086 167.573C213.158 167.54 213.235 167.573 213.269 167.639L214.692 170.779L213.861 170.918C213.861 170.929 213.85 170.929 213.845 170.929Z" fill="white"/>
<path d="M207.963 172.335C206.928 172.335 206.014 171.809 205.433 170.878C205.394 170.812 205.411 170.729 205.477 170.69C205.543 170.651 205.627 170.668 205.665 170.734C206.214 171.615 207.089 172.108 208.069 172.058C208.966 172.025 209.852 171.604 210.71 171.194C212.527 170.33 214.41 169.433 215.999 167.744C216.187 167.545 216.381 167.34 216.625 167.307C216.924 167.262 217.173 167.484 217.394 167.678L217.422 167.7C219.809 169.799 222.545 169.749 225.446 169.704C227.612 169.666 229.849 169.632 231.926 170.574C231.992 170.607 232.025 170.69 231.992 170.757C231.959 170.823 231.876 170.856 231.809 170.823C229.794 169.909 227.584 169.948 225.452 169.981C222.633 170.031 219.709 170.075 217.245 167.91L217.217 167.888C217.034 167.727 216.841 167.561 216.669 167.583C216.519 167.606 216.37 167.766 216.226 167.921C214.581 169.666 212.676 170.574 210.838 171.449C209.957 171.87 209.043 172.302 208.091 172.34C208.041 172.335 208.002 172.335 207.963 172.335Z" fill="white"/>
<path d="M239.009 171.41C237.73 171.41 236.45 171.31 235.182 171.117L235.21 170.84C238.128 170.939 241.141 170.795 243.14 168.043L234.086 168.015C234.008 168.015 233.947 167.954 233.947 167.877C233.947 167.799 234.008 167.738 234.086 167.738L243.666 167.772L243.522 167.988C241.999 170.247 239.878 170.934 237.647 171.1C242.426 171.36 247.266 170.242 251.774 167.799L252.117 167.611L250.948 170.441C251.391 170.696 251.884 170.95 252.372 170.923C252.826 170.884 253.38 170.485 253.529 169.693L253.546 169.605L253.629 169.583C256.364 168.879 259.156 168.636 261.924 168.846C262.002 168.852 262.057 168.918 262.052 168.996C262.046 169.073 261.991 169.134 261.902 169.123C259.189 168.912 256.459 169.151 253.778 169.826C253.579 170.707 252.925 171.155 252.388 171.194C251.779 171.249 251.209 170.912 250.699 170.618L250.594 170.557L251.558 168.22C247.543 170.33 243.267 171.41 239.009 171.41Z" fill="white"/>
<path d="M161.595 171.693C161.523 171.693 161.463 171.637 161.457 171.565C161.379 170.386 161.407 169.195 161.529 168.021C161.535 167.943 161.607 167.888 161.679 167.899C161.756 167.905 161.811 167.977 161.8 168.054C161.679 169.212 161.656 170.391 161.728 171.554C161.734 171.632 161.673 171.698 161.601 171.698C161.601 171.693 161.595 171.693 161.595 171.693Z" fill="white"/>
<path d="M186.2 176.826C186.161 176.826 186.117 176.821 186.078 176.798C185.773 176.665 185.746 176.261 185.735 176.112C185.618 174.295 185.53 172.468 185.474 170.64C185.436 170.64 185.397 170.635 185.364 170.629C185.076 170.59 184.843 170.463 184.688 170.258L182.772 171.067L182.711 170.962C182.329 170.314 181.587 169.904 180.834 169.904C180.828 169.904 180.823 169.904 180.817 169.904L180.706 171.017L180.557 170.989C179.167 170.74 177.871 169.987 176.968 168.901C176.769 169.4 176.437 169.843 176.021 170.17L175.827 170.319L175.589 168.442C175.257 169.106 174.509 169.583 173.789 169.693C172.771 169.854 171.757 169.505 170.871 169.195L159.092 165.136C159.02 165.114 158.981 165.03 159.009 164.958C159.037 164.886 159.114 164.848 159.186 164.87L170.965 168.929C171.824 169.228 172.798 169.56 173.751 169.416C174.62 169.278 175.534 168.564 175.495 167.644L175.772 167.622L176.043 169.787C176.392 169.455 176.653 169.034 176.791 168.58L176.869 168.32L177.035 168.536C177.871 169.632 179.117 170.408 180.463 170.69L180.568 169.644L180.684 169.638C181.537 169.572 182.412 170.015 182.888 170.723L184.81 169.915L184.871 170.026C184.97 170.208 185.159 170.33 185.402 170.358C185.424 170.358 185.447 170.363 185.474 170.363C185.391 167.65 185.38 164.931 185.43 162.234L185.441 161.691L185.69 162.173C186.671 164.056 187.163 166.177 187.119 168.298C187.108 168.918 187.025 169.693 186.532 170.219C186.338 170.43 186.056 170.568 185.762 170.618C185.818 172.446 185.906 174.273 186.023 176.09C186.039 176.355 186.095 176.494 186.2 176.544C186.211 176.549 186.233 176.544 186.244 176.533C186.288 176.505 186.305 176.455 186.305 176.444C186.233 176.422 186.194 176.361 186.216 176.283C186.239 176.211 186.322 176.178 186.394 176.2C186.488 176.228 186.554 176.294 186.571 176.389C186.599 176.527 186.515 176.665 186.421 176.743C186.349 176.798 186.272 176.826 186.2 176.826ZM185.69 162.815C185.652 165.313 185.668 167.833 185.746 170.341C185.967 170.297 186.178 170.186 186.322 170.037C186.754 169.577 186.82 168.868 186.831 168.298C186.875 166.409 186.482 164.527 185.69 162.815Z" fill="white"/>
<path d="M194.086 172.257L191.943 170.109C191.799 169.965 191.638 169.804 191.444 169.738C191.24 169.671 191.013 169.716 190.736 169.782L188.072 170.413C187.994 170.43 187.922 170.386 187.906 170.308C187.889 170.236 187.934 170.159 188.011 170.142L190.675 169.511C190.924 169.45 191.24 169.378 191.533 169.472C191.788 169.555 191.982 169.749 192.142 169.909L193.842 171.621C193.892 170.435 193.853 169.245 193.726 168.065C193.626 167.561 193.554 167.046 193.51 166.531L193.787 166.498C193.876 167.002 193.948 167.511 194.003 168.026C194.147 168.752 194.352 169.461 194.618 170.153C195.138 169.848 195.803 169.788 196.445 169.992C196.971 170.164 197.409 170.491 197.686 170.906C197.697 170.901 197.708 170.895 197.719 170.89C198.223 170.596 198.743 170.297 199.336 170.175C200.012 170.037 200.665 170.186 201.08 170.579C201.136 170.629 201.136 170.718 201.086 170.773C201.036 170.829 200.947 170.834 200.892 170.779C200.543 170.447 199.984 170.325 199.391 170.447C198.843 170.557 198.345 170.851 197.857 171.128C197.846 171.133 197.835 171.144 197.824 171.15C197.857 171.216 197.885 171.283 197.907 171.355L197.929 171.421L197.891 171.477C197.83 171.565 197.719 171.593 197.614 171.549C197.503 171.504 197.403 171.382 197.425 171.238C197.436 171.183 197.453 171.133 197.481 171.094C197.243 170.718 196.849 170.413 196.368 170.264C195.747 170.064 195.105 170.147 194.64 170.48L194.496 170.585L194.429 170.419C194.319 170.142 194.219 169.865 194.13 169.583C194.164 170.375 194.158 171.166 194.119 171.958L194.086 172.257Z" fill="white"/>
<path d="M274.301 130.031L274.672 129.643C275.569 128.719 276.688 128.026 277.911 127.639C277.983 127.617 278.061 127.655 278.083 127.727C278.105 127.799 278.067 127.877 277.995 127.899C276.998 128.215 276.073 128.741 275.287 129.433L277.103 128.879C277.585 128.73 278.133 128.597 278.582 128.874C278.714 128.957 278.82 129.062 278.919 129.167C278.986 129.234 279.052 129.306 279.13 129.367C279.274 129.483 279.495 129.538 279.612 129.439C279.672 129.383 279.706 129.289 279.739 129.173L280.049 128.132L280.199 128.209C280.431 128.331 280.597 128.553 280.758 128.769C280.991 129.079 281.14 129.267 281.362 129.206C281.411 129.189 281.467 129.162 281.522 129.128C281.572 129.101 281.616 129.073 281.666 129.051C282.026 128.896 282.403 129.04 282.735 129.167L282.835 129.206C284.164 129.699 285.742 129.45 286.855 128.569L286.949 128.497C287.093 128.381 287.248 128.259 287.431 128.181C287.774 128.038 288.14 128.087 288.494 128.137C288.782 128.176 289.054 128.215 289.308 128.154C289.386 128.132 289.458 128.181 289.474 128.253C289.491 128.325 289.447 128.403 289.375 128.42C289.065 128.497 288.755 128.453 288.45 128.409C288.118 128.364 287.808 128.32 287.531 128.436C287.381 128.497 287.254 128.602 287.115 128.713L287.021 128.791C285.836 129.727 284.153 129.992 282.735 129.466L282.63 129.428C282.331 129.311 282.021 129.195 281.771 129.306C281.733 129.322 281.694 129.344 281.655 129.367C281.589 129.405 281.517 129.45 281.428 129.472C281.007 129.583 280.752 129.239 280.525 128.935C280.426 128.796 280.32 128.658 280.204 128.558L279.999 129.25C279.966 129.367 279.916 129.533 279.789 129.643C279.556 129.848 279.191 129.771 278.953 129.583C278.87 129.516 278.792 129.439 278.714 129.361C278.62 129.267 278.532 129.178 278.432 129.112C278.083 128.901 277.601 129.018 277.18 129.151L274.301 130.031Z" fill="white"/>
<path d="M264.654 130.673C264.555 130.673 264.46 130.657 264.377 130.629C263.957 130.491 263.746 130.048 263.624 129.726C263.425 129.206 263.281 128.663 263.198 128.109C263.187 128.032 263.237 127.965 263.314 127.954C263.397 127.943 263.458 127.993 263.469 128.071C263.552 128.602 263.691 129.128 263.879 129.632C263.979 129.904 264.15 130.269 264.46 130.374C264.627 130.43 264.831 130.408 265.075 130.308C265.884 129.981 266.437 129.106 266.388 128.237L266.377 128.071L266.543 128.093C267.229 128.181 267.861 128.525 268.315 129.045L269.201 127.34L269.323 127.572C269.539 127.976 269.738 128.386 269.932 128.802C270.065 128.635 270.264 128.514 270.497 128.464C270.84 128.386 271.178 128.475 271.399 128.702C271.444 128.746 271.488 128.802 271.532 128.851C271.676 129.029 271.787 129.145 271.892 129.112C271.931 129.101 271.975 129.062 272.02 129.023L272.058 128.995C272.424 128.696 272.944 128.624 273.382 128.796C273.454 128.824 273.487 128.907 273.459 128.979C273.432 129.051 273.349 129.084 273.277 129.056C272.939 128.918 272.518 128.984 272.23 129.217L272.197 129.245C272.136 129.294 272.064 129.355 271.97 129.383C271.682 129.472 271.477 129.228 271.322 129.034C271.283 128.984 271.244 128.94 271.206 128.901C271.056 128.746 270.812 128.685 270.563 128.741C270.314 128.796 270.12 128.957 270.054 129.162L269.943 129.505L269.799 129.173C269.616 128.757 269.417 128.342 269.212 127.943L268.37 129.56L268.237 129.383C267.866 128.879 267.29 128.525 266.676 128.397C266.653 129.328 266.055 130.219 265.186 130.568C264.992 130.635 264.82 130.673 264.654 130.673Z" fill="white"/>
<path d="M265.357 135.22L265.141 134.721C264.936 134.262 264.615 133.863 264.2 133.575C264.139 133.531 264.122 133.442 264.167 133.381C264.211 133.32 264.294 133.304 264.36 133.348C264.682 133.575 264.959 133.857 265.169 134.19L265.28 132.883L265.911 134.539C266.293 134.24 266.642 133.891 266.947 133.503L267.068 133.348L267.561 134.145C267.589 134.19 267.617 134.234 267.65 134.251C267.727 134.3 267.871 134.184 267.977 134.046L268.32 133.608C268.359 133.558 268.42 133.481 268.525 133.453C268.641 133.426 268.735 133.475 268.807 133.509C269.383 133.797 270.048 133.885 270.674 133.758C270.746 133.747 270.823 133.791 270.834 133.869C270.851 133.946 270.801 134.018 270.723 134.029C270.031 134.168 269.306 134.073 268.68 133.758C268.658 133.747 268.614 133.725 268.591 133.725C268.58 133.73 268.547 133.769 268.536 133.78L268.193 134.217C267.96 134.511 267.711 134.611 267.506 134.489C267.417 134.433 267.362 134.35 267.323 134.289L267.035 133.83C266.709 134.223 266.337 134.572 265.922 134.871L265.778 134.976L265.446 134.112L265.357 135.22Z" fill="white"/>
<path d="M275.525 135.015L275.503 134.905C275.425 134.517 275.337 134.124 275.237 133.736L274.528 133.841C274.362 133.864 274.174 133.897 273.986 133.852C273.864 133.825 273.753 133.769 273.676 133.697C273.548 133.952 273.388 134.218 273.122 134.384C272.956 134.489 272.706 134.556 272.507 134.428C272.374 134.345 272.313 134.207 272.269 134.107L271.782 133.055C271.748 132.989 271.782 132.906 271.848 132.872C271.914 132.845 271.998 132.872 272.031 132.939L272.518 133.991C272.562 134.08 272.601 134.157 272.657 134.196C272.745 134.251 272.884 134.207 272.978 134.152C273.249 133.98 273.404 133.637 273.532 133.36L273.687 133.016L273.792 133.382C273.825 133.493 273.947 133.565 274.052 133.587C274.191 133.614 274.346 133.592 274.495 133.57L275.176 133.47C275.121 133.265 275.066 133.055 275.01 132.856L274.933 132.59L275.193 132.69C275.547 132.828 275.88 133.005 276.19 133.227C276.3 133.304 276.312 133.393 276.3 133.454C276.3 133.47 276.295 133.487 276.284 133.504C276.71 133.642 277.126 133.847 277.486 134.102C277.546 134.146 277.563 134.235 277.519 134.296C277.474 134.356 277.386 134.373 277.325 134.329C277.076 134.152 276.804 134.002 276.522 133.886C276.528 133.902 276.533 133.919 276.539 133.941C276.561 134.03 276.528 134.113 276.511 134.163C276.428 134.373 276.184 135.021 275.653 135.021H275.525V135.015ZM275.514 133.697C275.597 134.041 275.675 134.379 275.747 134.722C275.929 134.661 276.096 134.439 276.24 134.057C276.245 134.041 276.262 134.002 276.256 133.991C276.24 133.969 276.145 133.947 276.101 133.941L276.062 133.93C275.952 133.902 275.819 133.808 275.78 133.675C275.78 133.67 275.78 133.664 275.774 133.659L275.514 133.697ZM275.348 133.049C275.381 133.171 275.414 133.299 275.448 133.426L275.896 133.36C275.719 133.238 275.536 133.138 275.348 133.049Z" fill="white"/>
<path d="M278.35 135.048L278.322 134.943C278.278 134.771 278.233 134.588 278.195 134.4L276.661 134.267L276.96 134.051C277.342 133.774 277.746 133.525 278.167 133.309C278.278 132.789 278.61 132.373 279.036 132.224C279.263 132.146 279.485 132.174 279.629 132.296C279.734 132.39 279.778 132.517 279.812 132.617L279.823 132.656C280.122 132.573 280.421 132.501 280.72 132.445C280.792 132.429 280.869 132.484 280.88 132.556C280.892 132.634 280.842 132.706 280.77 132.717C280.482 132.767 280.194 132.833 279.911 132.916L280.166 133.653C280.183 133.697 280.199 133.752 280.227 133.774C280.271 133.813 280.327 133.791 280.515 133.647C280.62 133.564 280.742 133.475 280.88 133.437C281.096 133.376 281.285 133.47 281.456 133.553C281.556 133.603 281.65 133.647 281.739 133.658C281.844 133.675 281.949 133.653 282.071 133.636L282.176 133.619C282.403 133.586 282.636 133.586 282.852 133.586C284.347 133.597 285.842 133.553 287.31 133.442C287.393 133.426 287.454 133.492 287.459 133.57C287.465 133.647 287.41 133.714 287.332 133.719C285.853 133.83 284.347 133.874 282.869 133.863C282.63 133.863 282.42 133.857 282.215 133.891L282.115 133.907C281.983 133.929 281.839 133.957 281.689 133.935C281.562 133.913 281.445 133.858 281.329 133.802C281.185 133.736 281.058 133.675 280.947 133.702C280.864 133.725 280.764 133.797 280.676 133.869C280.504 134.001 280.266 134.179 280.044 133.985C279.961 133.913 279.928 133.808 279.9 133.741L279.64 132.994C279.219 133.127 278.804 133.293 278.411 133.492C278.383 133.708 278.394 133.924 278.427 134.14L280.271 134.301C280.349 134.306 280.493 134.323 280.581 134.428C280.653 134.516 280.67 134.622 280.62 134.716C280.543 134.888 280.277 134.998 280.083 135.004L278.35 135.048ZM278.483 134.422C278.505 134.539 278.532 134.655 278.56 134.766L280.083 134.732C280.221 134.732 280.36 134.644 280.377 134.605C280.354 134.588 280.282 134.583 280.249 134.577L278.483 134.422ZM277.436 134.051L278.15 134.112C278.128 133.952 278.123 133.797 278.128 133.636C277.89 133.763 277.663 133.902 277.436 134.051ZM279.291 132.445C279.236 132.445 279.175 132.456 279.125 132.473C278.809 132.584 278.61 132.855 278.505 133.132C278.848 132.971 279.197 132.839 279.557 132.722L279.546 132.695C279.518 132.617 279.49 132.534 279.441 132.49C279.407 132.462 279.352 132.445 279.291 132.445Z" fill="white"/>
<path d="M265.257 139.633C265.18 139.633 265.113 139.611 265.069 139.595C264.72 139.473 264.316 139.34 263.995 139.08C263.862 138.974 263.746 138.847 263.662 138.714C263.491 138.869 263.269 138.969 263.053 138.997C262.599 139.058 262.167 138.875 261.807 138.692C261.663 138.62 261.503 138.531 261.425 138.365C261.337 138.188 261.37 137.989 261.397 137.845C261.497 137.291 261.68 136.626 262.245 136.427C262.533 136.322 262.843 136.377 263.109 136.438C263.602 136.549 264.205 136.715 264.715 137.053C264.897 137.075 265.08 137.136 265.246 137.236C265.313 137.274 265.329 137.363 265.291 137.424C265.274 137.452 265.246 137.474 265.213 137.485C265.412 137.717 265.567 138.005 265.651 138.315C265.745 138.277 265.828 138.21 265.922 138.144C266.022 138.066 266.121 137.989 266.249 137.939C266.476 137.845 266.725 137.867 266.924 137.883L267.417 137.922C267.899 137.961 268.137 138.111 268.248 138.277C268.364 138.138 268.414 137.944 268.381 137.767L268.292 137.33L268.613 137.64C268.868 137.889 269.029 138.232 269.045 138.587C269.051 138.664 268.99 138.731 268.912 138.731C268.835 138.731 268.768 138.675 268.768 138.598C268.757 138.432 268.713 138.266 268.63 138.116C268.575 138.321 268.442 138.504 268.264 138.614L268.087 138.731L268.054 138.52C268.015 138.277 267.622 138.205 267.395 138.188L266.897 138.149C266.719 138.133 266.514 138.116 266.348 138.188C266.26 138.227 266.177 138.288 266.088 138.36C265.983 138.443 265.878 138.526 265.739 138.576C265.723 138.581 265.711 138.587 265.695 138.592C265.723 138.875 265.684 139.163 265.545 139.434C265.518 139.489 265.479 139.55 265.407 139.595C265.363 139.622 265.307 139.633 265.257 139.633ZM263.851 138.493C263.934 138.642 264.05 138.775 264.166 138.869C264.454 139.096 264.831 139.224 265.158 139.34C265.241 139.368 265.263 139.362 265.268 139.362C265.274 139.362 265.279 139.351 265.302 139.312C265.412 139.096 265.446 138.869 265.429 138.637C265.174 138.631 264.925 138.515 264.687 138.399C264.432 138.277 264.189 138.166 263.956 138.188C263.939 138.293 263.901 138.399 263.851 138.493ZM262.599 136.649C262.505 136.649 262.416 136.66 262.333 136.693C261.907 136.848 261.757 137.391 261.663 137.9C261.641 138.039 261.625 138.16 261.663 138.249C261.708 138.338 261.818 138.399 261.924 138.454C262.25 138.62 262.632 138.781 263.015 138.731C263.203 138.709 263.397 138.609 263.53 138.459C263.469 138.299 263.446 138.127 263.469 137.961C263.518 137.59 263.795 137.252 264.161 137.119C264.183 137.114 264.2 137.103 264.222 137.097C263.829 136.903 263.408 136.793 263.042 136.709C262.898 136.676 262.743 136.649 262.599 136.649ZM264.017 137.906C264.288 137.906 264.548 138.027 264.803 138.144C265.003 138.238 265.191 138.327 265.374 138.349C265.285 138.039 265.102 137.751 264.886 137.546C264.803 137.463 264.715 137.391 264.62 137.324C264.504 137.324 264.377 137.335 264.266 137.374C264.011 137.468 263.812 137.695 263.762 137.944L263.79 137.939C263.862 137.917 263.939 137.906 264.017 137.906Z" fill="white"/>
<path d="M272.23 139.357L272.214 138.997C272.203 138.72 272.214 138.438 272.241 138.161C271.942 138.111 271.643 138.039 271.355 137.951L271.211 137.901L271.272 137.762C271.328 137.635 271.438 137.535 271.588 137.491C271.782 137.43 272.014 137.458 272.197 137.563C272.241 137.591 272.286 137.618 272.325 137.657C272.391 137.314 272.496 136.97 272.629 136.649C272.657 136.577 272.74 136.544 272.812 136.572C272.884 136.599 272.917 136.682 272.889 136.754C272.734 137.131 272.629 137.53 272.563 137.929C272.635 137.934 272.701 137.945 272.773 137.951C272.762 137.906 272.751 137.862 272.756 137.818C272.762 137.607 272.928 137.413 273.161 137.347C273.349 137.292 273.543 137.325 273.703 137.347L273.809 137.364L273.825 137.469C273.853 137.679 273.859 137.895 273.836 138.106V138.111C274.196 138.122 274.567 138.095 274.933 138.039C275.049 138.023 275.165 137.967 275.199 137.912L275.154 137.779L275.293 137.707C275.381 137.679 275.476 137.69 275.559 137.74C275.642 137.79 275.703 137.868 275.725 137.956C275.741 138.028 275.697 138.106 275.625 138.122C275.553 138.139 275.476 138.095 275.459 138.023C275.459 138.017 275.459 138.017 275.453 138.012C275.448 138.028 275.437 138.045 275.426 138.061C275.332 138.211 275.127 138.288 274.966 138.316C274.49 138.388 274.003 138.405 273.526 138.377C273.377 138.366 273.211 138.349 273.067 138.277C273.05 138.266 273.028 138.255 273.011 138.244C272.895 138.239 272.784 138.233 272.668 138.222C272.673 138.239 272.673 138.255 272.679 138.272C272.734 138.576 272.657 138.875 272.48 139.091L272.23 139.357ZM273.094 137.962C273.249 137.967 273.399 137.962 273.554 137.956C273.559 137.84 273.559 137.718 273.548 137.602C273.438 137.591 273.327 137.58 273.227 137.613C273.133 137.641 273.028 137.724 273.022 137.823C273.022 137.868 273.05 137.917 273.094 137.962ZM271.677 137.757C271.832 137.801 271.987 137.834 272.147 137.868C272.12 137.845 272.092 137.823 272.059 137.807C271.942 137.735 271.787 137.718 271.677 137.757Z" fill="white"/>
<path d="M277.84 138.183C277.768 138.183 277.708 138.128 277.702 138.056C277.697 137.978 277.752 137.912 277.829 137.906L278.799 137.817C279.745 137.729 280.731 137.635 281.7 137.613C281.817 137.613 281.922 137.613 282.033 137.64C282.127 137.668 282.204 137.712 282.276 137.751C282.31 137.773 282.348 137.79 282.382 137.806C282.664 137.939 283.029 137.895 283.323 137.851L284.84 137.64C284.923 137.635 284.984 137.685 284.995 137.757C285.006 137.834 284.951 137.901 284.879 137.912L283.362 138.122C283.035 138.166 282.62 138.222 282.265 138.056C282.221 138.033 282.182 138.011 282.138 137.989C282.077 137.956 282.016 137.917 281.955 137.901C281.883 137.878 281.806 137.878 281.706 137.884C280.742 137.906 279.768 138 278.821 138.089L277.852 138.177C277.852 138.183 277.846 138.183 277.84 138.183Z" fill="white"/>
<path d="M301.066 125.18C301.033 125.18 301.005 125.158 300.999 125.124C300.988 125.074 299.77 119.858 295.412 114.996C291.391 110.504 283.799 105.398 270.453 106.573C270.414 106.573 270.381 106.55 270.375 106.512C270.37 106.473 270.397 106.44 270.436 106.434C276.356 105.914 281.65 106.573 286.18 108.383C289.802 109.834 292.947 112.027 295.517 114.907C299.897 119.802 301.121 125.041 301.132 125.097C301.138 125.135 301.116 125.169 301.083 125.18C301.077 125.18 301.071 125.18 301.066 125.18Z" fill="white"/>
<path d="M256.879 91.9919C256.873 91.9919 256.868 91.9919 256.862 91.9919C256.824 91.9808 256.801 91.942 256.812 91.9088L262.622 70.5549C262.633 70.5161 262.666 70.494 262.705 70.505C262.743 70.5161 262.766 70.5549 262.755 70.5881L256.945 91.942C256.94 91.9697 256.912 91.9919 256.879 91.9919Z" fill="white"/>
<path d="M165.399 68.4668C165.361 68.4668 165.333 68.4336 165.333 68.4004V64.1584C165.333 61.467 167.52 59.2795 170.212 59.2795H173.518C173.557 59.2795 173.584 59.3128 173.584 59.346C173.584 59.3848 173.551 59.4125 173.518 59.4125H170.212C167.598 59.4125 165.471 61.539 165.471 64.1528V68.3948C165.471 68.4391 165.438 68.4668 165.399 68.4668Z" fill="white"/>
</svg>
