<svg width="509" height="214" viewBox="0 0 509 214" fill="none" xmlns="http://www.w3.org/2000/svg">
<mask id="mask0_13619_3296" style="mask-type:alpha" maskUnits="userSpaceOnUse" x="0" y="0" width="509" height="214">
<path d="M0 31.19C0 13.9643 13.9642 0 31.19 0H477.81C495.036 0 509 13.9642 509 31.19V134.28C509 150.137 500.492 164.707 485.91 170.937C448.898 186.749 369.007 214 258 214C146.654 214 63.0639 186.581 24.1582 170.792C9.02211 164.649 0 149.716 0 133.381V31.19Z" fill="white" fill-opacity="0.65" shape-rendering="crispEdges"/>
<path d="M0 31.19C0 13.9643 13.9642 0 31.19 0H477.81C495.036 0 509 13.9642 509 31.19V134.28C509 150.137 500.492 164.707 485.91 170.937C448.898 186.749 369.007 214 258 214C146.654 214 63.0639 186.581 24.1582 170.792C9.02211 164.649 0 149.716 0 133.381V31.19Z" fill="url(#paint0_linear_13619_3296)" fill-opacity="0.8" shape-rendering="crispEdges"/>
<path d="M0.5 31.19C0.5 14.2404 14.2404 0.5 31.19 0.5H477.81C494.76 0.5 508.5 14.2404 508.5 31.19V134.28C508.5 149.962 500.09 164.335 485.713 170.477C448.749 186.269 368.924 213.5 258 213.5C146.735 213.5 63.2098 186.101 24.3462 170.328C9.41892 164.27 0.5 149.535 0.5 133.381V31.19Z" stroke="#222222" stroke-opacity="0.15" shape-rendering="crispEdges"/>
</mask>
<g mask="url(#mask0_13619_3296)">
<g opacity="0.21">
<path d="M32.238 166.604L36.153 167.247V173.558L32.238 174.317V166.604Z" fill="#EBEBEB"/>
<path d="M36.6385 174.202H36.3772C36.1749 174.202 36.0112 174.038 36.0112 173.836V166.855C36.0112 166.653 36.1752 166.489 36.3772 166.489H36.6385C36.8408 166.489 37.0045 166.653 37.0045 166.855V173.836C37.0047 174.038 36.8408 174.202 36.6385 174.202Z" fill="#EBEBEB"/>
<path d="M37.3551 171.54H36.8037V168.561H37.3551C37.9617 168.561 38.4532 169.052 38.4532 169.659V170.442C38.4532 171.049 37.9617 171.54 37.3551 171.54Z" fill="#EBEBEB"/>
<path d="M35.9834 173.583C35.9296 173.583 35.886 172.168 35.886 170.422C35.886 168.675 35.9296 167.26 35.9834 167.26C36.0372 167.26 36.0808 168.675 36.0808 170.422C36.0808 172.168 36.0372 173.583 35.9834 173.583Z" fill="#E0E0E0"/>
<path d="M36.9541 173.627C36.9003 173.627 36.8567 172.211 36.8567 170.465C36.8567 168.718 36.9003 167.303 36.9541 167.303C37.0079 167.303 37.0515 168.718 37.0515 170.465C37.0515 172.211 37.0079 173.627 36.9541 173.627Z" fill="#E0E0E0"/>
<path d="M18.1882 191.233V159.195C18.1882 155.315 21.3338 152.169 25.214 152.169C29.0942 152.169 32.24 155.315 32.24 159.195V191.233L18.1882 191.233Z" fill="#EBEBEB"/>
<path d="M33.16 163.843H17.4041C16.6137 163.843 15.9727 163.203 15.9727 162.412V161.39C15.9727 160.6 16.6135 159.959 17.4041 159.959H33.16C33.9507 159.959 34.5915 160.6 34.5915 161.39V162.412C34.5912 163.203 33.9504 163.843 33.16 163.843Z" fill="#EBEBEB"/>
<path d="M23.0443 152.675L23.0302 152.397C22.9739 151.278 23.8206 150.326 24.9215 150.27L25.4682 150.243C26.5691 150.187 27.5071 151.05 27.5637 152.169L27.588 152.648L23.0443 152.675Z" fill="#EBEBEB"/>
<path d="M25.9754 150.587H24.6418V149.859C24.6418 149.64 24.8193 149.463 25.0381 149.463H25.5788C25.7976 149.463 25.9751 149.64 25.9751 149.859L25.9754 150.587Z" fill="#EBEBEB"/>
<path d="M32.2409 159.897C32.2409 159.951 29.1014 159.995 25.2295 159.995C21.3562 159.995 18.2175 159.951 18.2175 159.897C18.2175 159.843 21.3565 159.8 25.2295 159.8C29.1014 159.8 32.2409 159.843 32.2409 159.897Z" fill="#E0E0E0"/>
<path d="M23.2396 152.935C23.2515 152.965 22.835 153.133 22.2033 153.475C21.5777 153.817 20.7269 154.362 20.0463 155.212C19.3741 156.065 19.0418 157.025 18.8936 157.718C18.7435 158.419 18.7752 158.869 18.7401 158.87C18.7285 158.871 18.707 158.759 18.6979 158.555C18.6874 158.351 18.7001 158.054 18.7581 157.693C18.8754 156.975 19.1938 155.98 19.8937 155.09C20.601 154.207 21.4897 153.668 22.1399 153.352C22.468 153.194 22.7418 153.085 22.9336 153.018C23.1256 152.951 23.2349 152.923 23.2396 152.935Z" fill="#FAFAFA"/>
<path d="M27.5882 152.53C27.5689 152.599 26.5743 152.198 25.293 152.178C24.0091 152.165 23.0178 152.581 22.9985 152.512C22.99 152.49 23.2254 152.366 23.6346 152.234C24.0425 152.102 24.6334 151.976 25.2952 151.983C25.9567 151.99 26.5434 152.125 26.951 152.255C27.3592 152.388 27.5965 152.507 27.5882 152.53Z" fill="#E0E0E0"/>
<path d="M26.1148 150.366C26.0932 150.419 25.7679 150.323 25.3611 150.316C24.954 150.303 24.6245 150.382 24.6057 150.329C24.5842 150.283 24.9162 150.108 25.366 150.121C25.8156 150.13 26.1388 150.321 26.1148 150.366Z" fill="#E0E0E0"/>
<path d="M30.193 171.302C30.193 173.983 28.0194 176.157 25.3383 176.157C22.6572 176.157 20.4836 173.983 20.4836 171.302C20.4836 168.621 22.6572 166.447 25.3383 166.447C28.0194 166.447 30.193 168.621 30.193 171.302Z" fill="#E0E0E0"/>
<path d="M30.1939 170.461C30.1939 173.142 28.0204 175.316 25.3393 175.316C22.6582 175.316 20.4846 173.142 20.4846 170.461C20.4846 167.78 22.6582 165.606 25.3393 165.606C28.0204 165.606 30.1939 167.78 30.1939 170.461Z" fill="#F5F5F5"/>
<path d="M30.1971 170.46C30.1684 170.462 30.1982 170.027 30.0084 169.284C29.8207 168.555 29.3339 167.484 28.238 166.656C27.6949 166.251 27.0113 165.908 26.2236 165.771C25.4413 165.638 24.5587 165.665 23.7195 165.985C23.2969 166.132 22.8896 166.355 22.5154 166.635C22.1367 166.91 21.7932 167.252 21.51 167.647C20.9247 168.426 20.5949 169.428 20.5855 170.459C20.5949 171.492 20.9244 172.493 21.5097 173.273C21.7929 173.668 22.1367 174.01 22.5154 174.285C22.8896 174.566 23.2969 174.788 23.7197 174.935C24.5592 175.256 25.4415 175.281 26.2242 175.149C27.0121 175.012 27.6954 174.669 28.2385 174.264C29.3347 173.436 29.8212 172.365 30.0089 171.636C30.1979 170.892 30.1684 170.457 30.1971 170.46C30.2037 170.46 30.2051 170.566 30.201 170.77C30.2015 170.873 30.1966 170.999 30.1723 171.146C30.153 171.294 30.1347 171.466 30.082 171.654C29.9142 172.399 29.4382 173.506 28.3216 174.373C27.7685 174.796 27.0667 175.158 26.2534 175.307C25.4457 175.452 24.5316 175.431 23.6582 175.103C23.2188 174.953 22.7944 174.724 22.4044 174.434C22.0101 174.149 21.6516 173.796 21.3557 173.385C20.745 172.576 20.3995 171.533 20.3904 170.459C20.3998 169.385 20.7453 168.342 21.356 167.534C21.6519 167.123 22.0101 166.77 22.4044 166.485C22.7944 166.195 23.2186 165.967 23.6579 165.816C24.5314 165.488 25.4454 165.467 26.2529 165.612C27.0662 165.761 27.768 166.123 28.321 166.546C29.4376 167.413 29.9137 168.52 30.0818 169.265C30.1345 169.453 30.1527 169.625 30.172 169.773C30.1963 169.92 30.2013 170.047 30.2007 170.149C30.2051 170.353 30.2037 170.46 30.1971 170.46Z" fill="#E0E0E0"/>
<path d="M27.3348 169.438C27.8991 170.539 27.4647 171.888 26.3644 172.452C25.2644 173.016 23.9149 172.582 23.3508 171.482C22.7864 170.382 23.2208 169.032 24.3211 168.468C25.4211 167.904 26.7704 168.338 27.3348 169.438Z" fill="#E0E0E0"/>
<path d="M26.8691 170.461C26.8691 171.306 26.1841 171.991 25.3391 171.991C24.494 171.991 23.8091 171.306 23.8091 170.461C23.8091 169.616 24.494 168.931 25.3391 168.931C26.1841 168.931 26.8691 169.616 26.8691 170.461Z" fill="#F5F5F5"/>
<path d="M26.868 170.46C26.8498 170.461 26.85 170.324 26.7832 170.096C26.7173 169.872 26.5603 169.547 26.2219 169.299C25.8946 169.05 25.3612 168.914 24.8473 169.107C24.3378 169.285 23.8996 169.828 23.9054 170.46C23.8996 171.092 24.3378 171.635 24.8473 171.813C25.3612 172.006 25.8946 171.87 26.2219 171.621C26.5603 171.373 26.7176 171.048 26.7832 170.824C26.85 170.596 26.85 170.459 26.868 170.46C26.8765 170.459 26.9036 170.597 26.8569 170.843C26.8106 171.083 26.6643 171.445 26.3055 171.731C25.9592 172.017 25.3683 172.19 24.786 171.981C24.209 171.792 23.7034 171.179 23.7103 170.46C23.7037 169.741 24.209 169.128 24.786 168.939C25.3683 168.73 25.9589 168.902 26.3055 169.189C26.6646 169.475 26.8108 169.837 26.8569 170.077C26.9036 170.323 26.8765 170.461 26.868 170.46Z" fill="#E0E0E0"/>
<path d="M32.2399 163.894C32.2399 163.948 29.0681 163.992 25.1565 163.992C21.2435 163.992 18.0725 163.948 18.0725 163.894C18.0725 163.84 21.2437 163.797 25.1565 163.797C29.0681 163.797 32.2399 163.84 32.2399 163.894Z" fill="#E0E0E0"/>
<path d="M18.073 160.399C18.0727 160.43 17.8869 160.433 17.6148 160.522C17.3452 160.608 16.9853 160.803 16.7301 161.148C16.4759 161.493 16.3953 161.895 16.3925 162.177C16.3873 162.464 16.4397 162.642 16.4099 162.651C16.3898 162.66 16.2869 162.493 16.2548 162.183C16.2209 161.879 16.2849 161.424 16.573 161.032C16.8628 160.641 17.2793 160.445 17.5795 160.389C17.8853 160.328 18.0757 160.377 18.073 160.399Z" fill="#FAFAFA"/>
<path d="M23.0913 166.786C23.1081 166.817 22.7706 166.983 22.3326 167.382C21.8963 167.775 21.3742 168.438 21.1181 169.301C20.8634 170.165 20.9406 171.005 21.093 171.572C21.2434 172.146 21.4357 172.469 21.4054 172.485C21.3949 172.491 21.3356 172.418 21.2494 172.271C21.1628 172.125 21.0554 171.902 20.9608 171.611C20.7687 171.035 20.663 170.155 20.9312 169.246C21.2006 168.338 21.7683 167.656 22.2424 167.278C22.48 167.085 22.6917 166.956 22.844 166.881C22.9961 166.805 23.0858 166.776 23.0913 166.786Z" fill="#FAFAFA"/>
<path d="M32.24 177.11C32.1862 177.11 32.1426 174.132 32.1426 170.461C32.1426 166.788 32.1862 163.812 32.24 163.812C32.2938 163.812 32.3374 166.788 32.3374 170.461C32.3374 174.132 32.2938 177.11 32.24 177.11Z" fill="#E0E0E0"/>
<path d="M13.6277 195.16V193.607C13.6277 192.964 14.149 192.443 14.7923 192.443V191.944C14.7923 190.719 15.7855 189.726 17.0111 189.726H17.9754H32.7585C33.9838 189.726 34.9597 191.11 34.9597 192.336H35.5193C36.1623 192.336 36.6853 192.466 36.6853 193.109V195.16H13.6277Z" fill="#E0E0E0"/>
<path d="M35.5212 192.336C35.5212 192.39 30.8683 192.433 25.1297 192.433C19.3894 192.433 14.7373 192.39 14.7373 192.336C14.7373 192.282 19.3894 192.238 25.1297 192.238C30.8683 192.238 35.5212 192.282 35.5212 192.336Z" fill="#F5F5F5"/>
<path d="M18.2175 174.144L14.3025 173.502V167.191L18.2175 166.432V174.144Z" fill="#EBEBEB"/>
<path d="M13.8142 166.547H14.0753C14.2775 166.547 14.4412 166.711 14.4412 166.913V173.894C14.4412 174.096 14.2773 174.26 14.0753 174.26H13.8142C13.6119 174.26 13.4482 174.096 13.4482 173.894V166.913C13.4482 166.711 13.6119 166.547 13.8142 166.547Z" fill="#EBEBEB"/>
<path d="M13.0979 169.209H13.6493V172.189H13.0979C12.4913 172.189 11.9998 171.697 11.9998 171.091V170.307C11.9998 169.7 12.4913 169.209 13.0979 169.209Z" fill="#EBEBEB"/>
<path d="M14.4697 167.165C14.5235 167.165 14.5674 168.581 14.5674 170.327C14.5674 172.073 14.5238 173.489 14.4697 173.489C14.4159 173.489 14.3723 172.073 14.3723 170.327C14.3723 168.581 14.4159 167.165 14.4697 167.165Z" fill="#E0E0E0"/>
<path d="M13.5007 167.123C13.5546 167.123 13.5982 168.539 13.5982 170.285C13.5982 172.031 13.5546 173.446 13.5007 173.446C13.4469 173.446 13.4033 172.031 13.4033 170.285C13.4033 168.539 13.4469 167.123 13.5007 167.123Z" fill="#E0E0E0"/>
<path d="M18.2173 181.03C18.1635 181.03 18.1199 177.268 18.1199 172.627C18.1199 167.985 18.1635 164.224 18.2173 164.224C18.2711 164.224 18.3147 167.985 18.3147 172.627C18.3147 177.268 18.2711 181.03 18.2173 181.03Z" fill="#E0E0E0"/>
<path d="M88.6555 98.7812H75.2285V102.333H88.6555V98.7812Z" fill="#F5F5F5"/>
<path d="M82.979 105.96C82.9776 105.958 82.9762 105.937 82.9748 105.895C82.9737 105.848 82.9724 105.788 82.9704 105.713C82.9679 105.546 82.9646 105.313 82.9605 105.014C82.955 104.401 82.9473 103.519 82.9376 102.408L82.9793 102.449C79.9135 102.456 75.0378 102.465 69.5531 102.476C69.5835 102.446 69.4841 102.544 69.6207 102.408V102.409V102.411V102.414V102.422V102.436V102.465V102.522V102.636V102.864C69.6207 103.015 69.6207 103.166 69.6207 103.317C69.6207 103.618 69.6205 103.917 69.6205 104.213C69.6202 104.806 69.6196 105.389 69.6194 105.96L69.5526 105.894C73.3759 105.906 76.7213 105.917 79.1209 105.924C80.3161 105.932 81.2751 105.939 81.9452 105.943C82.2711 105.947 82.5261 105.95 82.7088 105.952C82.791 105.954 82.8567 105.955 82.9086 105.956C82.9536 105.957 82.9773 105.958 82.979 105.96C82.9804 105.961 82.9594 105.963 82.9169 105.964C82.8672 105.965 82.8043 105.967 82.7254 105.969C82.5463 105.971 82.2957 105.974 81.9761 105.978C81.3099 105.982 80.3559 105.989 79.1672 105.997C76.756 106.004 73.3941 106.015 69.5523 106.027L69.4855 106.027V105.96C69.4852 105.389 69.4847 104.806 69.4844 104.213C69.4844 103.917 69.4841 103.618 69.4841 103.317C69.4841 103.166 69.4841 103.015 69.4841 102.863V102.636V102.521V102.464V102.436V102.421V102.414V102.411V102.409V102.408C69.621 102.271 69.5225 102.37 69.5534 102.339C75.0381 102.35 79.9137 102.36 82.9795 102.366H83.0215L83.0212 102.408C83.0113 103.53 83.0036 104.42 82.9983 105.039C82.9939 105.333 82.9906 105.564 82.9881 105.728C82.9864 105.8 82.9848 105.857 82.9837 105.903C82.9817 105.942 82.9804 105.961 82.979 105.96Z" fill="#E0E0E0"/>
<path d="M31.5227 122.854H18.0957V126.406H31.5227V122.854Z" fill="#F5F5F5"/>
<path d="M25.843 130.033C25.8416 130.032 25.8402 130.01 25.8389 129.969C25.8378 129.921 25.8364 129.861 25.8344 129.786C25.832 129.619 25.8287 129.386 25.8245 129.087C25.819 128.474 25.8113 127.593 25.8016 126.481L25.8433 126.523C22.7775 126.529 17.9018 126.538 12.4171 126.549C12.4475 126.519 12.3481 126.618 12.4848 126.481V126.482V126.484V126.488V126.495V126.509V126.538V126.595V126.709V126.937C12.4848 127.088 12.4848 127.24 12.4848 127.39C12.4848 127.691 12.4845 127.99 12.4845 128.286C12.4842 128.879 12.4836 129.462 12.4834 130.034L12.4166 129.967C16.2399 129.979 19.5853 129.989 21.9849 129.997C23.1801 130.005 24.1391 130.012 24.8092 130.016C25.1351 130.02 25.3904 130.023 25.5728 130.025C25.6551 130.027 25.7207 130.028 25.7726 130.03C25.8176 130.03 25.8416 130.032 25.843 130.033C25.8444 130.034 25.8234 130.036 25.7809 130.038C25.7312 130.039 25.6683 130.04 25.5894 130.042C25.4103 130.044 25.1597 130.047 24.8401 130.051C24.1739 130.055 23.2199 130.062 22.0312 130.07C19.6201 130.078 16.2581 130.088 12.4163 130.1L12.3495 130.1V130.033C12.3492 129.462 12.3487 128.879 12.3484 128.286C12.3484 127.99 12.3481 127.691 12.3481 127.39C12.3481 127.239 12.3481 127.088 12.3481 126.937V126.709V126.595V126.538V126.509V126.495V126.487V126.484V126.482V126.481C12.485 126.344 12.3865 126.443 12.4174 126.413C17.9021 126.424 22.7778 126.433 25.8436 126.439H25.8855L25.8852 126.481C25.8753 127.603 25.8676 128.493 25.8623 129.112C25.8579 129.407 25.8546 129.637 25.8521 129.802C25.8505 129.873 25.8488 129.931 25.8477 129.977C25.8458 130.015 25.8444 130.034 25.843 130.033Z" fill="#E0E0E0"/>
<path d="M120.922 83.1875C120.92 83.1861 120.919 83.1643 120.918 83.1229C120.917 83.0754 120.915 83.0156 120.913 82.9408C120.911 82.7735 120.908 82.5406 120.903 82.2417C120.898 81.6285 120.89 80.7471 120.88 79.6354L120.922 79.6771C117.856 79.6832 112.98 79.6928 107.496 79.7039C107.526 79.6735 107.427 79.772 107.563 79.6354V79.6363V79.6382V79.6418V79.6489V79.6633V79.692V79.7491V79.8634V80.0911C107.563 80.2426 107.563 80.3938 107.563 80.5442C107.563 80.8453 107.563 81.1442 107.563 81.4406C107.563 82.0334 107.562 82.6165 107.562 83.1878L107.495 83.121C111.319 83.1331 114.664 83.1439 117.063 83.1513C118.259 83.1593 119.218 83.166 119.888 83.1704C120.214 83.1742 120.469 83.177 120.651 83.1792C120.734 83.1809 120.799 83.1822 120.851 83.1836C120.896 83.1845 120.92 83.1858 120.922 83.1875C120.923 83.1889 120.902 83.1905 120.86 83.1919C120.81 83.193 120.747 83.1944 120.668 83.1963C120.489 83.1985 120.239 83.2013 119.919 83.2052C119.253 83.2096 118.299 83.2162 117.11 83.2242C114.699 83.2319 111.337 83.2424 107.495 83.2546L107.428 83.2548V83.1878C107.428 82.6165 107.428 82.0334 107.427 81.4406C107.427 81.1442 107.427 80.8453 107.427 80.5442C107.427 80.3938 107.427 80.2426 107.427 80.0911V79.8634V79.7491V79.692V79.6633V79.6489V79.6418V79.6382V79.6363V79.6354C107.564 79.4985 107.465 79.5973 107.496 79.567C112.981 79.578 117.857 79.5877 120.922 79.5938H120.964L120.964 79.6354C120.954 80.7575 120.946 81.6473 120.941 82.2666C120.937 82.5613 120.933 82.7912 120.931 82.9562C120.929 83.028 120.928 83.0854 120.927 83.1312C120.925 83.1698 120.923 83.1889 120.922 83.1875Z" fill="#E0E0E0"/>
<path d="M122.741 79.6357C122.739 79.6341 122.737 79.6112 122.735 79.5681C122.734 79.5171 122.732 79.4552 122.73 79.3799C122.727 79.2052 122.723 78.9676 122.718 78.6676C122.712 78.0447 122.703 77.1652 122.691 76.0837L122.741 76.1328C120.651 76.1378 117.808 76.1447 114.674 76.1521C114.612 76.2131 114.756 76.0688 114.742 76.0839V76.0848V76.0867V76.0903V76.0977V76.1124V76.1416V76.1999V76.3163V76.5487C114.742 76.703 114.742 76.8567 114.741 77.0093C114.741 77.3145 114.741 77.6162 114.741 77.9134C114.74 78.5076 114.739 79.0838 114.738 79.6357L114.673 79.5706C117.002 79.583 119.007 79.5938 120.444 79.6015C121.153 79.6092 121.721 79.615 122.125 79.6195C122.314 79.6228 122.464 79.6255 122.579 79.6277C122.682 79.6302 122.738 79.633 122.741 79.6357C122.743 79.6385 122.693 79.641 122.594 79.6437C122.483 79.6457 122.337 79.6484 122.154 79.652C121.753 79.6564 121.19 79.6625 120.488 79.67C119.04 79.6777 117.02 79.6884 114.673 79.7009L114.608 79.7011V79.6357C114.607 79.0838 114.606 78.5076 114.605 77.9134C114.605 77.6162 114.605 77.3145 114.605 77.0093C114.605 76.8567 114.605 76.703 114.605 76.5487V76.3163V76.1999V76.1416V76.1124V76.0977V76.0903V76.0867V76.0848V76.0839C114.59 76.0983 114.734 75.954 114.674 76.0152C117.807 76.0227 120.65 76.0296 122.74 76.0345H122.79L122.789 76.0837C122.778 77.1779 122.769 78.0676 122.763 78.6977C122.758 78.993 122.754 79.2267 122.751 79.3989C122.747 79.5576 122.744 79.639 122.741 79.6357Z" fill="#E0E0E0"/>
<path d="M118.903 175.748C118.902 175.747 118.9 175.725 118.899 175.683C118.898 175.636 118.896 175.576 118.895 175.501C118.892 175.334 118.889 175.101 118.884 174.802C118.879 174.189 118.871 173.308 118.861 172.196L118.903 172.238C115.837 172.244 110.962 172.253 105.477 172.264C105.507 172.234 105.408 172.333 105.545 172.196V172.197V172.199V172.202V172.209V172.224V172.253V172.31V172.424V172.652C105.545 172.803 105.545 172.954 105.545 173.105C105.545 173.406 105.544 173.705 105.544 174.001C105.544 174.594 105.543 175.177 105.543 175.748L105.476 175.682C109.3 175.694 112.645 175.704 115.045 175.712C116.24 175.72 117.199 175.727 117.869 175.731C118.195 175.735 118.45 175.738 118.633 175.74C118.715 175.741 118.781 175.743 118.832 175.744C118.878 175.745 118.902 175.747 118.903 175.748C118.904 175.749 118.883 175.751 118.841 175.752C118.791 175.754 118.728 175.755 118.649 175.757C118.47 175.759 118.22 175.762 117.9 175.766C117.234 175.77 116.28 175.777 115.091 175.785C112.68 175.792 109.318 175.803 105.476 175.815L105.41 175.815V175.748C105.409 175.177 105.409 174.594 105.408 174.001C105.408 173.705 105.408 173.406 105.408 173.105C105.408 172.954 105.408 172.803 105.408 172.652V172.424V172.31V172.253V172.224V172.209V172.202V172.199V172.197V172.196C105.545 172.059 105.447 172.158 105.477 172.128C110.962 172.139 115.838 172.148 118.904 172.154H118.946L118.945 172.196C118.935 173.318 118.928 174.208 118.922 174.827C118.918 175.122 118.915 175.352 118.912 175.517C118.91 175.589 118.909 175.646 118.908 175.692C118.906 175.731 118.904 175.749 118.903 175.748Z" fill="#E0E0E0"/>
<path d="M120.723 172.197C120.721 172.195 120.719 172.172 120.718 172.129C120.716 172.078 120.714 172.016 120.712 171.941C120.709 171.766 120.705 171.529 120.7 171.229C120.694 170.606 120.685 169.726 120.674 168.645L120.723 168.694C118.633 168.699 115.79 168.706 112.656 168.713C112.595 168.774 112.739 168.63 112.724 168.645V168.646V168.648V168.651V168.658V168.673V168.702V168.761V168.877V169.109C112.724 169.264 112.724 169.417 112.724 169.57C112.723 169.875 112.723 170.177 112.723 170.474C112.722 171.068 112.721 171.644 112.721 172.196L112.655 172.131C114.984 172.143 116.989 172.154 118.426 172.162C119.135 172.169 119.703 172.175 120.107 172.18C120.296 172.183 120.447 172.186 120.561 172.188C120.665 172.191 120.72 172.194 120.723 172.197C120.726 172.199 120.675 172.202 120.576 172.205C120.466 172.207 120.32 172.209 120.136 172.213C119.736 172.217 119.173 172.223 118.47 172.231C117.022 172.239 115.002 172.249 112.655 172.262L112.59 172.262V172.197C112.589 171.645 112.588 171.069 112.588 170.474C112.587 170.177 112.587 169.875 112.587 169.57C112.587 169.418 112.587 169.264 112.587 169.11V168.878V168.761V168.703V168.674V168.659V168.652V168.648V168.646V168.645C112.572 168.66 112.716 168.515 112.656 168.577C115.789 168.584 118.633 168.591 120.722 168.596H120.772L120.772 168.645C120.761 169.739 120.751 170.629 120.745 171.259C120.74 171.555 120.736 171.788 120.733 171.96C120.73 172.119 120.726 172.2 120.723 172.197Z" fill="#E0E0E0"/>
<path d="M33.6118 87.4709C33.6104 87.4695 33.609 87.4477 33.6077 87.4063C33.6066 87.3588 33.6052 87.2989 33.6032 87.2242C33.6008 87.0569 33.5975 86.824 33.593 86.5251C33.5875 85.9119 33.5798 85.0304 33.5701 83.9188L33.6118 83.9605C30.546 83.9666 25.6704 83.9765 20.1857 83.9873C20.216 83.9569 20.1167 84.0554 20.2533 83.9191V83.9199V83.9219V83.9254V83.9326V83.947V83.9757V84.0328V84.147V84.3747C20.2533 84.5262 20.2533 84.6772 20.2533 84.8279C20.2533 85.129 20.253 85.4278 20.253 85.7242C20.2527 86.317 20.2522 86.9002 20.2519 87.4714L20.1851 87.4046C24.0085 87.4168 27.3541 87.4273 29.7534 87.435C30.9487 87.443 31.9077 87.4496 32.5777 87.454C32.9037 87.4579 33.1587 87.4607 33.3413 87.4629C33.4236 87.4648 33.4893 87.4662 33.5412 87.4673C33.5864 87.4678 33.6104 87.4692 33.6118 87.4709C33.6132 87.4723 33.5922 87.4736 33.5497 87.4753C33.5 87.4764 33.4371 87.4778 33.3582 87.4797C33.1791 87.4819 32.9288 87.4847 32.6089 87.4885C31.9427 87.493 30.9887 87.4996 29.8 87.5076C27.3889 87.5153 24.0269 87.5258 20.1851 87.5379L20.1183 87.5382V87.4712C20.118 86.8999 20.1175 86.3168 20.1172 85.724C20.1172 85.4276 20.1169 85.1287 20.1169 84.8276C20.1169 84.6772 20.1169 84.526 20.1169 84.3744V84.1468V84.0322V83.9751V83.9464V83.9321V83.9249V83.9213V83.9194V83.9185C20.2538 83.7817 20.1553 83.8807 20.1862 83.8501C25.6709 83.8611 30.5466 83.8708 33.6124 83.8769H33.6543L33.654 83.9185C33.6441 85.0407 33.6364 85.9304 33.6311 86.5497C33.6267 86.8444 33.6234 87.0746 33.6209 87.2393C33.6193 87.3111 33.6176 87.3685 33.6165 87.4143C33.6146 87.4532 33.6132 87.4723 33.6118 87.4709Z" fill="#E0E0E0"/>
<path d="M120.428 131.66C120.426 131.659 120.425 131.637 120.424 131.595C120.422 131.548 120.421 131.488 120.419 131.413C120.417 131.246 120.413 131.013 120.409 130.714C120.404 130.101 120.396 129.22 120.386 128.108L120.428 128.15C117.362 128.156 112.487 128.166 107.002 128.176C107.032 128.146 106.933 128.245 107.069 128.108V128.109V128.111V128.115V128.122V128.136V128.165V128.222V128.336V128.564C107.069 128.715 107.069 128.866 107.069 129.017C107.069 129.318 107.069 129.617 107.069 129.913C107.069 130.506 107.068 131.089 107.068 131.661L107.001 131.594C110.825 131.606 114.17 131.616 116.57 131.624C117.765 131.632 118.724 131.639 119.394 131.643C119.72 131.647 119.975 131.65 120.158 131.652C120.24 131.654 120.305 131.655 120.357 131.656C120.402 131.657 120.426 131.659 120.428 131.66C120.429 131.661 120.408 131.663 120.366 131.664C120.316 131.666 120.253 131.667 120.174 131.669C119.995 131.671 119.745 131.674 119.425 131.678C118.759 131.682 117.805 131.689 116.616 131.697C114.205 131.704 110.843 131.715 107.001 131.727L106.934 131.727V131.66C106.934 131.089 106.933 130.506 106.933 129.913C106.933 129.617 106.933 129.318 106.933 129.017C106.933 128.866 106.933 128.715 106.933 128.564V128.336V128.222V128.165V128.136V128.122V128.114V128.111V128.109V128.108C107.07 127.971 106.971 128.07 107.002 128.04C112.487 128.051 117.362 128.06 120.428 128.066H120.47L120.47 128.108C120.46 129.23 120.452 130.12 120.447 130.739C120.443 131.034 120.439 131.264 120.437 131.429C120.435 131.5 120.434 131.558 120.432 131.603C120.43 131.642 120.429 131.661 120.428 131.66Z" fill="#E0E0E0"/>
<path d="M135.605 195.39C135.605 195.406 109.607 195.419 77.5454 195.419C45.4726 195.419 19.4807 195.406 19.4807 195.39C19.4807 195.375 45.4723 195.362 77.5454 195.362C109.607 195.362 135.605 195.375 135.605 195.39Z" fill="#222222"/>
<path d="M137.189 197.931C137.189 197.947 110.837 197.96 78.3378 197.96C45.8272 197.96 19.4807 197.947 19.4807 197.931C19.4807 197.916 45.827 197.903 78.3378 197.903C110.837 197.903 137.189 197.916 137.189 197.931Z" fill="#222222"/>
<path d="M74.8341 198C74.8183 198 74.8059 197.4 74.8059 196.66C74.8059 195.919 74.8186 195.319 74.8341 195.319C74.8495 195.319 74.8622 195.919 74.8622 196.66C74.8622 197.4 74.8495 198 74.8341 198Z" fill="#222222"/>
<path d="M60.1439 197.998C60.1284 197.998 60.1157 197.398 60.1157 196.658C60.1157 195.917 60.1284 195.317 60.1439 195.317C60.1593 195.317 60.172 195.917 60.172 196.658C60.172 197.398 60.1596 197.998 60.1439 197.998Z" fill="#222222"/>
<path d="M45.4517 197.999C45.4363 197.999 45.4236 197.399 45.4236 196.659C45.4236 195.918 45.4363 195.318 45.4517 195.318C45.4672 195.318 45.4799 195.918 45.4799 196.659C45.4799 197.399 45.4675 197.999 45.4517 197.999Z" fill="#222222"/>
<path d="M30.7623 197.999C30.7466 197.999 30.7341 197.399 30.7341 196.659C30.7341 195.918 30.7468 195.318 30.7623 195.318C30.7777 195.318 30.7904 195.918 30.7904 196.659C30.7904 197.399 30.7777 197.999 30.7623 197.999Z" fill="#222222"/>
<path d="M89.6192 197.998C89.6038 197.998 89.5911 197.398 89.5911 196.658C89.5911 195.917 89.6038 195.317 89.6192 195.317C89.6347 195.317 89.6474 195.917 89.6474 196.658C89.6474 197.398 89.6347 197.998 89.6192 197.998Z" fill="#222222"/>
<path d="M104.406 197.999C104.39 197.999 104.378 197.399 104.378 196.659C104.378 195.918 104.39 195.318 104.406 195.318C104.421 195.318 104.434 195.918 104.434 196.659C104.434 197.399 104.421 197.999 104.406 197.999Z" fill="#222222"/>
<path d="M119.189 198C119.174 198 119.161 197.4 119.161 196.66C119.161 195.919 119.174 195.319 119.189 195.319C119.205 195.319 119.217 195.919 119.217 196.66C119.217 197.4 119.205 198 119.189 198Z" fill="#222222"/>
<path d="M133.976 197.999C133.96 197.999 133.948 197.399 133.948 196.659C133.948 195.918 133.96 195.318 133.976 195.318C133.991 195.318 134.004 195.918 134.004 196.659C134.004 197.399 133.991 197.999 133.976 197.999Z" fill="#222222"/>
<path d="M129.408 180.507C130.094 180.804 130.598 181.438 130.851 182.142C131.104 182.845 131.127 183.613 131.043 184.356C130.88 185.794 130.064 187.244 129.184 188.393C127.974 187.337 127.696 185.494 127.613 184.55C127.482 183.059 128.152 180.284 129.408 180.507Z" fill="white"/>
<path d="M130.59 190.764C130.396 189.952 130.735 189.061 131.358 188.506C131.981 187.95 132.853 187.715 133.685 187.779C134.07 187.808 134.486 187.92 134.707 188.237C134.913 188.534 134.89 188.947 134.723 189.267C134.555 189.587 134.266 189.826 133.96 190.018C132.912 190.676 131.776 191.12 130.59 190.764Z" fill="white"/>
<path d="M129.044 195.172C129.036 195.17 129.053 195.065 129.087 194.877C129.125 194.669 129.174 194.401 129.233 194.078C129.367 193.411 129.538 192.456 130.057 191.529C130.568 190.604 131.284 189.922 131.886 189.584C132.186 189.411 132.448 189.308 132.632 189.254C132.724 189.223 132.798 189.212 132.847 189.199C132.897 189.189 132.923 189.185 132.924 189.189C132.933 189.212 132.505 189.289 131.925 189.648C131.343 189.996 130.651 190.67 130.148 191.58C129.64 192.488 129.457 193.43 129.306 194.093C129.232 194.428 129.173 194.699 129.126 194.885C129.081 195.071 129.051 195.173 129.044 195.172Z" fill="#222222"/>
<path d="M129.084 182.663C129.087 182.663 129.092 182.707 129.099 182.792C129.105 182.888 129.112 183.011 129.121 183.162C129.138 183.484 129.157 183.95 129.175 184.526C129.213 185.678 129.242 187.269 129.235 189.027C129.227 190.786 129.184 192.378 129.136 193.529C129.113 194.105 129.09 194.57 129.07 194.892C129.059 195.044 129.051 195.166 129.045 195.262C129.038 195.347 129.032 195.391 129.029 195.391C129.025 195.39 129.023 195.346 129.023 195.261C129.025 195.165 129.027 195.042 129.029 194.89C129.037 194.555 129.048 194.093 129.062 193.527C129.09 192.375 129.122 190.784 129.129 189.027C129.137 187.27 129.119 185.679 129.101 184.528C129.092 183.962 129.085 183.499 129.08 183.164C129.079 183.012 129.078 182.889 129.078 182.793C129.078 182.708 129.08 182.663 129.084 182.663Z" fill="#222222"/>
<path d="M128.499 191.639C128.223 189.9 127.051 188.328 125.463 187.567C125.059 187.373 124.531 187.247 124.198 187.548C123.865 187.849 123.94 188.39 124.103 188.808C124.781 190.55 126.602 191.779 128.47 191.757" fill="white"/>
<path d="M125.655 188.929C125.658 188.923 125.749 188.963 125.912 189.041C125.993 189.08 126.093 189.128 126.202 189.196C126.311 189.264 126.442 189.33 126.572 189.428C126.704 189.521 126.851 189.62 126.994 189.746C127.145 189.863 127.291 190.005 127.444 190.155C127.742 190.462 128.042 190.829 128.299 191.253C128.551 191.679 128.734 192.117 128.862 192.526C128.919 192.733 128.975 192.929 129.004 193.117C129.045 193.303 129.06 193.48 129.077 193.641C129.099 193.802 129.091 193.949 129.097 194.077C129.103 194.205 129.094 194.316 129.087 194.406C129.074 194.586 129.063 194.685 129.056 194.684C129.032 194.683 129.073 194.285 129.003 193.649C128.982 193.491 128.963 193.317 128.919 193.134C128.886 192.949 128.828 192.757 128.769 192.555C128.639 192.154 128.456 191.726 128.209 191.307C127.957 190.89 127.664 190.528 127.375 190.222C127.226 190.073 127.084 189.931 126.938 189.813C126.799 189.686 126.656 189.585 126.529 189.489C126.009 189.116 125.644 188.95 125.655 188.929Z" fill="#222222"/>
<path d="M91.628 132.845L88.4527 132.18C88.0484 132.095 87.7892 131.699 87.874 131.294L89.6203 122.954C89.705 122.55 90.1013 122.291 90.5057 122.375L93.681 123.04C94.0853 123.125 94.3444 123.521 94.2597 123.926L92.5134 132.266C92.4289 132.67 92.0323 132.929 91.628 132.845Z" fill="#E0E0E0"/>
<path d="M91.7631 132.706L88.4133 132.005L88.3163 132.468L91.6661 133.17L91.7631 132.706Z" fill="#E0E0E0"/>
<path d="M93.8449 122.767L90.4949 122.065L90.3978 122.529L93.7479 123.23L93.8449 122.767Z" fill="#E0E0E0"/>
<path d="M93.3555 121.815C93.2998 121.727 93.2316 121.642 93.1397 121.593C93.0481 121.544 92.9286 121.535 92.8422 121.594C92.763 121.647 92.7255 121.747 92.7233 121.843C92.7211 121.939 92.7492 122.032 92.7768 122.124C92.861 122.401 92.9452 122.679 93.0293 122.957L93.562 122.77C93.6083 122.44 93.5338 122.096 93.3555 121.815ZM93.1645 122.081C93.1157 122.104 93.0583 122.104 93.0067 122.089C92.9349 122.068 92.8709 122.019 92.8392 121.951C92.8074 121.883 92.811 121.799 92.8535 121.738C92.896 121.677 92.9777 121.643 93.0497 121.663L93.0453 121.659C93.1425 121.672 93.2338 121.739 93.2645 121.832C93.2948 121.925 93.2534 122.04 93.1645 122.081Z" fill="#E0E0E0"/>
<path d="M89.0035 125.905L94.0243 125.055L93.0479 129.718L87.9321 131.021L89.0035 125.905Z" fill="white"/>
<path d="M93.908 123.06C93.9 123.099 93.1077 122.966 92.139 122.763C91.1698 122.56 90.391 122.364 90.399 122.325C90.4073 122.286 91.199 122.419 92.1683 122.622C93.1372 122.825 93.9163 123.021 93.908 123.06Z" fill="#222222"/>
<path d="M91.5898 132.814C91.5818 132.853 90.8342 132.73 89.9205 132.538C89.0064 132.347 88.2723 132.16 88.2803 132.121C88.2886 132.083 89.0357 132.206 89.9497 132.398C90.8637 132.589 91.5981 132.775 91.5898 132.814Z" fill="#222222"/>
<path d="M89.0299 127.96C88.991 127.953 89.1737 126.795 89.4378 125.374C89.7022 123.952 89.948 122.806 89.9872 122.814C90.0261 122.821 89.8437 123.979 89.5791 125.4C89.3147 126.821 89.0688 127.968 89.0299 127.96Z" fill="white"/>
<path d="M77.4889 122.235L87.9 127.978L86.5792 131.569C86.5792 131.569 77.4006 129.086 72.0376 125.531L77.4889 122.235Z" fill="#FFD5BD"/>
<path d="M93.7158 126.613C93.7158 126.613 91.6289 125.707 91.3041 125.606C90.9793 125.506 89.2696 125.791 89.2696 125.791L87.2442 128.174L86.5811 131.569C86.5811 131.569 87.6295 131.954 88.6881 131.96C89.7468 131.966 91.9946 130.76 91.9946 130.76C91.9946 130.76 92.7695 131.218 92.8915 131.133C93.0137 131.048 93.521 130.603 93.3366 130.313C93.3366 130.313 93.9551 129.663 93.7735 129.299L93.4247 129.034C93.4247 129.034 94.3009 128.258 93.6272 127.892C93.6278 127.892 94.443 127.159 93.7158 126.613Z" fill="#FFD5BD"/>
<path d="M93.6181 127.792C93.5916 127.831 93.0584 127.499 92.3566 127.181C91.6562 126.86 91.0554 126.676 91.0676 126.63C91.0761 126.589 91.7075 126.706 92.4234 127.035C93.1404 127.359 93.643 127.759 93.6181 127.792Z" fill="#FFB294"/>
<path d="M93.5712 129.11C93.5569 129.128 93.4404 129.06 93.2461 128.965C92.969 128.835 92.7298 128.722 92.4753 128.602C91.8743 128.308 91.4026 128.038 91.4222 127.998C91.4418 127.958 91.9446 128.164 92.546 128.457C92.8454 128.604 93.1173 128.741 93.303 128.866C93.489 128.99 93.5845 129.093 93.5712 129.11Z" fill="#FFB294"/>
<path d="M91.6015 129.134C91.6035 129.093 92.1046 129.144 92.6014 129.489C93.1012 129.83 93.3275 130.28 93.2902 130.296C93.2505 130.324 92.9786 129.94 92.5103 129.622C92.0461 129.298 91.5902 129.181 91.6015 129.134Z" fill="#FFB294"/>
<path d="M98.3334 140.437C98.3085 140.438 98.2895 139.993 98.1923 139.283C98.0963 138.573 97.9017 137.599 97.5485 136.564C97.1925 135.53 96.7484 134.642 96.3886 134.022C96.0292 133.401 95.7715 133.038 95.7914 133.024C95.7994 133.018 95.8708 133.103 95.9934 133.264C96.1176 133.423 96.2837 133.664 96.4755 133.97C96.8605 134.58 97.3244 135.472 97.6843 136.518C98.0414 137.563 98.2221 138.552 98.2928 139.271C98.3289 139.63 98.3455 139.922 98.345 140.124C98.3472 140.326 98.3433 140.437 98.3334 140.437Z" fill="#222222"/>
<path d="M98.9321 136.061C98.9128 136.07 98.7679 135.791 98.525 135.346C98.2824 134.901 97.9361 134.293 97.5183 133.644C97.0996 132.995 96.689 132.428 96.384 132.024C96.0793 131.619 95.8851 131.372 95.9013 131.358C95.9151 131.346 96.137 131.57 96.4638 131.961C96.7908 132.351 97.2172 132.912 97.6391 133.566C98.06 134.22 98.395 134.84 98.6155 135.299C98.8363 135.759 98.9486 136.053 98.9321 136.061Z" fill="#222222"/>
<path d="M58.4116 181.24L54.5543 187.449C54.5543 187.449 59.5698 193.455 58.9688 194.672L46.6611 187.625L52.2742 177.704L58.4116 181.24Z" fill="white"/>
<path d="M51.0634 184.734C50.788 184.663 50.4701 184.836 50.3876 185.108C50.305 185.381 50.4789 185.705 50.753 185.781C51.027 185.858 51.4153 185.661 51.4666 185.381C51.5182 185.101 51.2933 184.731 51.0088 184.723" fill="#E0E0E0"/>
<path d="M46.6611 187.625L47.2661 186.647L58.8401 193.769C58.8401 193.769 59.2516 194.321 58.9688 194.672L46.6611 187.625Z" fill="#222222"/>
<path d="M54.7952 187.5C54.7588 187.559 54.4428 187.414 54.0363 187.438C53.6292 187.451 53.3279 187.624 53.2862 187.569C53.2376 187.525 53.5329 187.217 54.0253 187.197C54.5176 187.172 54.8397 187.452 54.7952 187.5Z" fill="#222222"/>
<path d="M55.7871 188.771C55.7675 188.837 55.4487 188.79 55.0991 188.928C54.7453 189.055 54.5366 189.3 54.4781 189.263C54.4163 189.241 54.5761 188.865 55.0143 188.702C55.4506 188.536 55.8185 188.713 55.7871 188.771Z" fill="#222222"/>
<path d="M55.6238 190.74C55.5619 190.721 55.65 190.373 55.9927 190.132C56.3338 189.889 56.6915 189.921 56.6885 189.986C56.694 190.055 56.4106 190.127 56.1321 190.329C55.8492 190.524 55.687 190.768 55.6238 190.74Z" fill="#222222"/>
<path d="M55.5195 185.99C55.4629 186.03 55.2347 185.789 54.8817 185.618C54.5323 185.439 54.2028 185.402 54.2009 185.332C54.1909 185.269 54.5765 185.194 54.9893 185.402C55.4036 185.606 55.5761 185.959 55.5195 185.99Z" fill="#222222"/>
<path d="M57.8851 183.79L57.4692 191.088C57.4692 191.088 64.7472 193.961 64.8018 195.318L50.6228 195.02L50.8041 183.622L57.8851 183.79Z" fill="white"/>
<path d="M53.0909 190.375C52.815 190.444 52.6187 190.749 52.6767 191.028C52.7346 191.306 53.0426 191.508 53.3197 191.444C53.5968 191.379 53.8435 191.021 53.7549 190.751C53.6663 190.48 53.2916 190.263 53.0379 190.392" fill="#E0E0E0"/>
<path d="M50.623 195.018L50.6862 193.87L64.257 194.585C64.257 194.585 64.8824 194.873 64.8018 195.316L50.623 195.018Z" fill="#222222"/>
<path d="M57.6978 191.016C57.6942 191.085 57.3473 191.11 57.0018 191.325C56.6507 191.531 56.4689 191.828 56.4057 191.799C56.3422 191.784 56.454 191.372 56.8768 191.119C57.2973 190.861 57.7143 190.953 57.6978 191.016Z" fill="#222222"/>
<path d="M59.1963 191.664C59.2106 191.732 58.9084 191.843 58.6669 192.131C58.4172 192.412 58.3512 192.727 58.2822 192.723C58.2168 192.732 58.1776 192.326 58.4845 191.974C58.7884 191.619 59.1963 191.598 59.1963 191.664Z" fill="#222222"/>
<path d="M59.9794 193.465C59.9162 193.478 59.827 193.13 60.0128 192.755C60.196 192.378 60.5255 192.235 60.5537 192.294C60.5915 192.352 60.3771 192.551 60.2291 192.861C60.0743 193.168 60.0484 193.459 59.9794 193.465Z" fill="#222222"/>
<path d="M57.6065 189.355C57.5762 189.418 57.2605 189.315 56.8686 189.334C56.4764 189.344 56.169 189.469 56.1342 189.409C56.0953 189.358 56.3981 189.108 56.8598 189.093C57.3215 189.074 57.6419 189.302 57.6065 189.355Z" fill="#222222"/>
<path d="M51.6169 138.826C51.6169 138.826 50.7374 142.832 51.1285 143.418C51.5192 144.005 52.2034 145.861 52.2034 145.861L51.6158 163.939L49.8582 190.517H58.3016L61.9246 167.079C61.9246 167.079 63.1949 164.93 63.6834 163.073C64.1721 161.216 67.056 142.748 67.056 142.748V135.629L51.6169 138.826Z" fill="#222222"/>
<path d="M70.8775 136.108C70.8775 136.108 69.1148 160.326 68.5286 162.476C67.9425 164.626 55.9387 186.609 55.9387 186.609L48.696 183.052L58.301 159.842V137.442L70.8775 136.108Z" fill="#222222"/>
<path d="M67.9879 138.193C67.9909 138.194 67.9865 138.24 67.9747 138.331C67.9609 138.429 67.9424 138.562 67.9186 138.731C67.8643 139.092 67.7865 139.608 67.6868 140.268C67.4765 141.611 67.1743 143.538 66.8018 145.915C66.4212 148.301 65.9689 151.138 65.4669 154.287C65.2108 155.862 64.9574 157.516 64.6624 159.229C64.3613 160.939 63.9871 162.711 63.3474 164.448C62.7116 166.184 61.8031 167.763 61.4976 169.473C61.1341 171.166 60.8805 172.823 60.6332 174.398C60.1555 177.552 59.7713 180.4 59.4435 182.791C59.1176 185.182 58.8523 187.117 58.652 188.452C58.5513 189.119 58.4704 189.637 58.4066 189.987C58.3752 190.155 58.3503 190.287 58.3321 190.384C58.3145 190.474 58.3037 190.519 58.3009 190.519C58.2979 190.518 58.3026 190.471 58.3145 190.381C58.3285 190.283 58.3476 190.15 58.3719 189.981C58.4218 189.62 58.4933 189.103 58.5844 188.442C58.7593 187.095 59.0105 185.161 59.3204 182.775C59.6322 180.382 60.0037 177.532 60.4731 174.374C60.7163 172.797 60.9663 171.14 61.3295 169.436C61.6394 167.699 62.5551 166.104 63.1827 164.388C63.8168 162.667 64.1905 160.905 64.493 159.2C64.7894 157.491 65.0466 155.835 65.3071 154.262C65.8232 151.115 66.2882 148.28 66.6792 145.896C67.075 143.522 67.3959 141.599 67.6195 140.258C67.7329 139.6 67.8218 139.086 67.8839 138.726C67.9148 138.558 67.9391 138.427 67.957 138.329C67.9747 138.239 67.9849 138.193 67.9879 138.193Z" fill="#455A64"/>
<path d="M50.8001 176.242C50.8123 176.243 50.8112 176.442 50.7993 176.802C50.7877 177.161 50.7623 177.681 50.7259 178.323C50.6533 179.608 50.5261 181.38 50.3776 183.336C50.2291 185.293 50.1011 187.064 50.018 188.347C49.9769 188.965 49.9432 189.477 49.9173 189.866C49.8922 190.225 49.8723 190.423 49.8604 190.423C49.8483 190.422 49.845 190.223 49.8491 189.863C49.8524 189.504 49.8679 188.983 49.8941 188.34C49.9454 187.055 50.0542 185.28 50.2026 183.323C50.3575 181.382 50.4974 179.626 50.602 178.315C50.6544 177.697 50.698 177.186 50.7308 176.798C50.7642 176.439 50.7883 176.241 50.8001 176.242Z" fill="#455A64"/>
<path d="M61.4864 84.6678L59.4809 98.0081C59.1398 100.277 59.1022 103.679 62.7136 104.054C65.8716 104.144 67.1025 101.312 67.4184 99.1951C67.5683 98.1908 67.6955 97.3535 67.7176 97.2511C67.7176 97.2511 71.1618 97.4421 71.9121 94.1177C72.2748 92.5113 72.7525 89.1413 73.1493 86.088C73.5754 82.8086 71.4077 79.7527 68.173 79.0644L67.8514 78.996C64.3408 78.4606 61.9244 81.1433 61.4864 84.6678Z" fill="#FFD5BD"/>
<path d="M67.7351 97.2008C67.7351 97.2008 65.5921 96.9237 63.6526 95.041C63.6526 95.041 64.1692 97.6584 67.559 98.066L67.7351 97.2008Z" fill="#FFB294"/>
<path d="M72.2973 87.6429C72.2256 87.6998 71.7782 87.4936 71.1479 87.5268C70.5184 87.5535 70.0597 87.8025 69.9905 87.7522C69.9565 87.7302 70.0288 87.6305 70.2284 87.5182C70.4249 87.4064 70.7613 87.2905 71.154 87.272C71.5467 87.2538 71.8784 87.3377 72.0699 87.431C72.2656 87.5246 72.3327 87.6176 72.2973 87.6429Z" fill="#222222"/>
<path d="M67.0587 87.1033C66.9699 87.1216 66.6605 86.7435 66.0835 86.4945C65.51 86.2404 64.992 86.2567 64.952 86.1821C64.9313 86.1476 65.0394 86.0922 65.2666 86.0817C65.4907 86.0704 65.8414 86.117 66.2002 86.2738C66.5587 86.4308 66.8181 86.6507 66.9484 86.8172C67.0819 86.9855 67.1015 87.0967 67.0587 87.1033Z" fill="#222222"/>
<path d="M66.741 88.1713C66.7065 88.3669 66.5125 88.4988 66.3077 88.4666C66.1032 88.4343 65.9649 88.2502 65.9994 88.0545C66.0339 87.8589 66.2279 87.7267 66.4324 87.7587C66.6372 87.791 66.7755 87.9756 66.741 88.1713Z" fill="#222222"/>
<path d="M71.6978 89.038C71.6633 89.2336 71.4693 89.3655 71.2642 89.3335C71.0597 89.3012 70.9215 89.1172 70.956 88.9215C70.9905 88.7261 71.1845 88.5937 71.389 88.6259C71.594 88.6577 71.7323 88.8426 71.6978 89.038Z" fill="#222222"/>
<path d="M68.1014 90.7861C68.1052 90.7566 68.4353 90.7693 68.9652 90.8132C69.0987 90.8275 69.2282 90.8278 69.269 90.7434C69.3201 90.6553 69.2952 90.5027 69.2643 90.3371C69.2086 89.9944 69.1506 89.6353 69.0896 89.2589C68.8542 87.7264 68.7135 86.4779 68.7753 86.4688C68.8371 86.46 69.078 87.6947 69.3134 89.2269C69.3684 89.6041 69.4211 89.9637 69.4707 90.3076C69.4884 90.4668 69.5378 90.6537 69.4293 90.8355C69.3733 90.9258 69.2624 90.9763 69.1738 90.981C69.0844 90.9887 69.0104 90.9744 68.945 90.9647C68.4196 90.8816 68.0972 90.8157 68.1014 90.7861Z" fill="#222222"/>
<path d="M67.2701 84.5244C67.1983 84.642 66.7601 84.4858 66.2161 84.4391C65.673 84.3809 65.2116 84.4504 65.1655 84.3216C65.1459 84.2603 65.2458 84.1568 65.4448 84.0704C65.6421 83.9841 65.9404 83.9255 66.2664 83.9567C66.5923 83.9885 66.8724 84.1027 67.0482 84.225C67.2254 84.3478 67.3021 84.4684 67.2701 84.5244Z" fill="#222222"/>
<path d="M72.4772 86.304C72.4041 86.3979 71.9799 86.2243 71.4492 86.1343C70.9199 86.0349 70.4668 86.0518 70.4251 85.9375C70.4074 85.8834 70.5079 85.8042 70.7046 85.7488C70.9 85.6933 71.1931 85.6707 71.511 85.727C71.8287 85.7841 72.0997 85.9074 72.268 86.0278C72.4383 86.1489 72.5101 86.2588 72.4772 86.304Z" fill="#222222"/>
<path d="M61.2362 87.1951C61.1846 87.1584 59.0902 86.0303 58.6779 88.3247C58.2659 90.6189 60.6542 90.5595 60.6699 90.4944C60.6856 90.4293 61.2362 87.1951 61.2362 87.1951Z" fill="#FFD5BD"/>
<path d="M60.1342 89.491C60.1254 89.4819 60.0892 89.512 60.0161 89.5308C59.9449 89.549 59.8279 89.5495 59.7161 89.4833C59.4898 89.3508 59.3549 88.9294 59.4178 88.5138C59.4495 88.3041 59.529 88.1131 59.6325 87.9616C59.7327 87.8062 59.8624 87.7085 59.9882 87.7088C60.1146 87.7024 60.188 87.791 60.2043 87.8606C60.2236 87.9304 60.2007 87.9734 60.2123 87.9795C60.2178 87.9864 60.2683 87.95 60.2669 87.8517C60.2656 87.8045 60.2485 87.7455 60.2026 87.6917C60.1555 87.637 60.0787 87.5998 59.9921 87.5937C59.813 87.5741 59.6245 87.7082 59.5108 87.8744C59.3871 88.0397 59.2928 88.2533 59.2572 88.489C59.1887 88.954 59.3477 89.4289 59.6623 89.5846C59.816 89.6558 59.9595 89.6312 60.0387 89.5895C60.1201 89.5457 60.1414 89.4965 60.1342 89.491Z" fill="#FFB294"/>
<path d="M67.3174 92.3088C67.3505 92.2539 66.9172 92.0563 66.6578 91.5885C66.5278 91.3578 66.4674 91.1177 66.4216 90.9419C66.3774 90.7653 66.3407 90.6529 66.3148 90.6574C66.2902 90.6615 66.2805 90.7757 66.2924 90.9631C66.3062 91.1486 66.3493 91.4171 66.4964 91.679C66.6407 91.9428 66.8584 92.1186 67.0237 92.2114C67.1902 92.3069 67.3088 92.3275 67.3174 92.3088Z" fill="#222222"/>
<path d="M78.0345 83.6799C78.0166 83.5394 77.9335 83.4144 77.8223 83.3264C77.5802 83.1346 77.2742 83.1136 76.9814 83.0684C76.0905 82.9312 75.2419 82.5366 74.5575 81.9512C74.2755 81.3957 73.9451 80.8647 73.5767 80.3624C72.7018 79.1708 71.9611 78.3395 71.1415 77.8707C70.0812 77.2641 68.2289 76.8225 67.0162 76.9685C65.8033 77.1145 64.6216 77.9195 64.2937 79.0963C63.7136 78.451 62.7276 78.32 61.8839 78.5313L61.8652 78.5198C60.931 78.7146 60.2957 79.5856 59.908 80.4574C59.5202 81.3292 59.2746 82.2846 58.6818 83.0322C58.5579 83.1887 58.4103 83.3761 58.4737 83.5651C58.5229 83.7114 58.689 83.7917 58.8433 83.7903C58.9975 83.7889 59.1432 83.7238 59.2834 83.6598C59.1512 83.8839 59.0193 84.108 58.8871 84.332C59.2015 84.4325 59.5387 84.4526 59.8646 84.4008C59.9369 85.2759 60.0288 86.2766 60.1685 86.8823C60.5408 86.9326 60.8777 87.006 61.0789 87.2439C61.3521 87.567 61.4189 88.1137 61.9648 87.9848C62.2424 87.9192 62.5592 87.3989 62.6845 87.1426C63.5158 85.4404 63.9731 83.5571 64.018 81.6634C64.4408 81.3209 64.9301 81.0609 65.4506 80.9022L65.4059 80.9326C66.3911 80.7356 67.4986 80.5606 68.3299 81.1247C68.9748 81.5624 69.2825 82.3362 69.721 82.9803C70.552 84.2012 71.7931 84.9731 73.2461 85.2372C73.1655 86.1913 72.9014 87.5193 72.8208 88.4733L73.8264 87.0656L73.8262 87.0733C73.9067 86.9712 73.976 86.8666 74.0436 86.7617L74.0663 86.73L74.0668 86.7258C74.1744 86.557 74.2782 86.3875 74.4074 86.2236C74.4101 86.2266 74.4126 86.2296 74.4154 86.233C74.8663 86.7565 75.7177 86.1681 75.389 85.5607C75.3239 85.4401 75.2411 85.3294 75.1426 85.2337C75.3468 85.4862 75.6821 85.6399 76.0025 85.5877C76.3232 85.5356 76.6047 85.2571 76.6221 84.9328C76.6339 84.7115 76.5045 84.4943 76.3188 84.3803C76.7289 84.4692 77.1655 84.4375 77.5551 84.281C77.8107 84.1794 78.074 83.989 78.0345 83.6799Z" fill="#222222"/>
<path d="M65.2998 79.6289C65.3053 79.6386 65.1466 79.6985 64.9197 79.8911C64.6948 80.0829 64.4241 80.4336 64.2494 80.9373C64.1611 81.1876 64.0882 81.4708 64.0457 81.7807C64.0016 82.0903 63.9809 82.4256 63.9566 82.7786C63.9312 83.1313 63.9053 83.5044 63.8299 83.8855C63.7921 84.076 63.7424 84.268 63.674 84.4574C63.6053 84.6434 63.5263 84.8443 63.3588 84.9894C63.225 85.1078 63.0241 85.1409 62.8618 85.0838C62.6979 85.0308 62.5604 84.9207 62.4677 84.7836C62.2858 84.501 62.2762 84.1731 62.2613 83.8833L62.3308 83.9015C62.1804 84.1394 62.0275 84.374 61.8244 84.5501C61.6241 84.7278 61.3666 84.8283 61.1207 84.8164C60.9982 84.8106 60.8789 84.7744 60.7821 84.7079C60.6833 84.6417 60.6181 84.5432 60.5784 84.4433C60.5411 84.3417 60.529 84.2344 60.548 84.135C60.5674 84.0359 60.6195 83.9465 60.6921 83.8883L60.7233 83.925C60.423 84.1847 60.1272 84.3058 59.9257 84.3679C59.8242 84.3988 59.7438 84.4146 59.6898 84.424C59.6354 84.4322 59.6072 84.435 59.6067 84.4328C59.6064 84.4306 59.634 84.4234 59.687 84.411C59.74 84.3972 59.8184 84.3776 59.9177 84.3431C60.1145 84.2744 60.402 84.148 60.6913 83.8888L60.7225 83.9255C60.5927 84.0299 60.5571 84.2396 60.6314 84.4226C60.6689 84.5128 60.7288 84.6009 60.8163 84.6574C60.9027 84.7157 61.0117 84.7479 61.1237 84.7518C61.35 84.7604 61.5901 84.666 61.7781 84.4968C61.9699 84.3282 62.1183 84.1 62.2674 83.8612L62.3306 83.76L62.3366 83.8795C62.3518 84.169 62.3667 84.4847 62.5328 84.7397C62.6159 84.8625 62.7418 84.9624 62.8855 85.0082C63.029 85.057 63.1913 85.0297 63.3078 84.9284C63.4538 84.8031 63.5327 84.6133 63.5998 84.4303C63.6668 84.2457 63.7159 84.0577 63.7538 83.8704C63.8288 83.4956 63.8564 83.1255 63.8837 82.7734C63.9102 82.4207 63.9334 82.0842 63.9809 81.771C64.0267 81.4575 64.1037 81.1708 64.197 80.918C64.381 80.4088 64.665 80.0553 64.9002 79.8676C65.1367 79.6789 65.2998 79.6289 65.2998 79.6289Z" fill="#455A64"/>
<path d="M75.2599 84.336C75.2605 84.3371 75.2503 84.3437 75.2299 84.3553C75.2047 84.3688 75.1744 84.3851 75.1374 84.405C75.0968 84.4273 75.0458 84.453 74.9823 84.4767C74.9197 84.5021 74.8479 84.5336 74.7626 84.5562C74.4298 84.6616 73.9082 84.7403 73.2867 84.6172C72.6708 84.4969 71.956 84.1745 71.359 83.5875C70.7533 83.0116 70.2612 82.2181 69.8911 81.3364C69.7024 80.8954 69.5605 80.45 69.3936 80.0341C69.2282 79.6179 69.0362 79.228 68.7826 78.9062C68.5328 78.5833 68.2262 78.3277 67.8939 78.1842C67.7289 78.1094 67.5567 78.0738 67.3908 78.0551C67.2236 78.041 67.0619 78.0529 66.9103 78.0805C66.6068 78.1379 66.3509 78.2659 66.1506 78.4064C65.9494 78.5482 65.8059 78.7075 65.703 78.8468C65.5073 79.135 65.4714 79.3326 65.4598 79.3276C65.4584 79.3273 65.4612 79.3154 65.4673 79.2925C65.4753 79.2652 65.4852 79.2321 65.4974 79.1918C65.5261 79.1038 65.5829 78.9788 65.6773 78.8295C65.7777 78.6848 65.9213 78.519 66.1244 78.3705C66.3267 78.2234 66.5872 78.0885 66.8993 78.0255C67.055 77.9952 67.2222 77.9811 67.3958 77.9941C67.568 78.0117 67.7485 78.0479 67.9199 78.1241C68.2657 78.2703 68.583 78.5322 68.84 78.8615C69.101 79.1899 69.2981 79.5867 69.4656 80.0057C69.6348 80.4249 69.7769 80.8689 69.964 81.306C70.3313 82.1812 70.8159 82.9655 71.4095 83.5354C71.9949 84.116 72.692 84.4364 73.2978 84.5628C73.9079 84.6911 74.4221 84.6224 74.7538 84.5272C75.0883 84.4295 75.255 84.3255 75.2599 84.336Z" fill="#455A64"/>
<path d="M75.7671 82.9C75.7693 82.905 75.7221 82.9287 75.6349 82.9674C75.5483 83.0077 75.4175 83.054 75.2527 83.0996C75.0882 83.1468 74.8868 83.184 74.6613 83.2075C74.4355 83.2268 74.1852 83.2298 73.9244 83.2039C73.6639 83.1752 73.4197 83.12 73.2028 83.0543C72.987 82.9845 72.7979 82.9061 72.6467 82.8258C72.4952 82.7469 72.3768 82.6743 72.3003 82.6169C72.2228 82.5609 72.1819 82.528 72.185 82.5233C72.1933 82.5109 72.366 82.6321 72.6712 82.7753C72.8233 82.8479 73.0112 82.9196 73.2237 82.9842C73.4376 83.0449 73.6772 83.0968 73.9324 83.125C74.1877 83.1504 74.4328 83.1498 74.6547 83.1346C74.8763 83.1156 75.0747 83.0847 75.2386 83.0452C75.5673 82.9688 75.7616 82.886 75.7671 82.9Z" fill="#455A64"/>
<path d="M87.3215 127.653C87.2947 127.684 87.0574 127.521 86.7439 127.364C86.4315 127.204 86.1588 127.111 86.1682 127.07C86.1754 127.033 86.4781 127.067 86.8087 127.235C87.1402 127.401 87.3474 127.625 87.3215 127.653Z" fill="#222222"/>
<path d="M70.5271 119.932C70.5381 119.506 67.5022 100.573 67.5022 100.573C66.8743 99.9544 59.7914 94.5654 59.7914 94.5654L53.4443 101.888C53.4443 101.888 51.7664 107.684 51.2029 111.9C50.8317 114.678 49.13 127.931 48.6065 133.529C48.4652 135.038 49.1364 136.508 50.3689 137.391L51.0237 137.473L51.1634 139.148C56.8943 139.391 70.7818 137.114 70.9549 137.225C71.1643 137.359 70.4874 121.465 70.5271 119.932Z" fill="white"/>
<path d="M58.4127 108.481C58.4127 108.481 64.6458 124.806 68.1333 126.809C71.6208 128.813 82.3062 131.781 82.3062 131.781L83.345 131.336L85.1258 131.781L87.9455 126.587L74.5146 119.686C74.5146 119.686 68.0141 102.421 67.5543 102.075C67.0942 101.729 65.907 99.725 62.9389 100.987C59.9711 102.248 57.5224 106.237 58.4127 108.481Z" fill="white"/>
<path d="M70.9959 135.148C70.9967 135.153 70.9286 135.17 70.798 135.198C70.6531 135.228 70.4627 135.266 70.2248 135.315C69.727 135.415 69.0031 135.542 68.1065 135.687C66.3137 135.978 63.825 136.302 61.0697 136.59C58.3132 136.877 55.8154 137.1 54.0083 137.269C53.1164 137.352 52.3892 137.419 51.8679 137.467C51.6261 137.488 51.4327 137.504 51.2853 137.516C51.152 137.526 51.0816 137.529 51.0811 137.524C51.0805 137.519 51.1498 137.506 51.282 137.488C51.4285 137.468 51.6211 137.443 51.8615 137.412C52.3652 137.348 53.0951 137.266 53.9978 137.168C55.8173 136.982 58.3052 136.728 61.0545 136.448C63.8084 136.16 66.2961 135.852 68.091 135.586C68.9885 135.455 69.7143 135.343 70.2149 135.26C70.4544 135.222 70.6465 135.192 70.7925 135.17C70.925 135.151 70.9951 135.143 70.9959 135.148Z" fill="#222222"/>
<path d="M59.7915 102.947C59.7995 102.955 59.6767 103.041 59.5484 103.282C59.417 103.521 59.2923 103.908 59.2051 104.42C59.1256 104.931 59.0514 105.57 59.0972 106.302C59.1527 107.037 59.4402 107.834 59.7617 108.707C61.0279 112.211 62.894 117.008 65.1578 122.223C65.4371 122.876 65.7208 123.517 66.0379 124.13C66.3561 124.738 66.6989 125.335 67.1286 125.831C67.5762 126.313 68.1433 126.66 68.6969 126.978C69.2616 127.282 69.8273 127.559 70.3936 127.798C72.655 128.765 74.7692 129.449 76.5407 130.02C78.3163 130.583 79.7607 131.014 80.7598 131.309C81.2529 131.456 81.639 131.571 81.9097 131.651C82.0353 131.69 82.1338 131.721 82.2078 131.744C82.2746 131.765 82.3088 131.778 82.308 131.78C82.3074 131.782 82.2721 131.775 82.2037 131.758C82.1289 131.738 82.029 131.712 81.9017 131.679C81.6294 131.605 81.2408 131.499 80.7443 131.363C79.7403 131.084 78.2909 130.668 76.51 130.117C74.733 129.558 72.6144 128.884 70.3409 127.92C69.7719 127.681 69.2014 127.404 68.6304 127.098C68.0697 126.777 67.4937 126.429 67.0248 125.926C66.5755 125.408 66.2344 124.811 65.911 124.195C65.5906 123.578 65.3058 122.934 65.0257 122.28C62.7616 117.063 60.9081 112.255 59.6662 108.742C59.3514 107.868 59.0663 107.059 59.0171 106.309C58.9782 105.562 59.0616 104.925 59.1502 104.41C59.2468 103.896 59.3814 103.507 59.5233 103.268C59.6624 103.027 59.7915 102.947 59.7915 102.947Z" fill="#222222"/>
<path d="M74.5174 119.685C74.5378 119.722 73.9585 120.037 73.3867 120.601C72.8094 121.159 72.4619 121.719 72.4247 121.695C72.3927 121.681 72.6924 121.073 73.2868 120.498C73.8763 119.916 74.5053 119.65 74.5174 119.685Z" fill="#222222"/>
<path d="M56.8957 94.0469C55.8939 94.3135 55.0513 94.9745 54.24 95.6194C53.0712 96.5486 51.9022 97.4776 50.7335 98.4068C50.0565 98.9449 49.3505 99.5214 49.0379 100.328C48.5889 101.486 49.1229 102.875 50.102 103.64C51.0812 104.405 52.4067 104.615 53.6397 104.46C54.8725 104.305 56.0371 103.819 57.1694 103.307L60.039 94.7496C59.457 93.8918 57.8975 93.7803 56.8957 94.0469Z" fill="white"/>
<path d="M67.5845 100.648C67.5801 100.657 67.4504 100.6 67.2197 100.489C66.9878 100.38 66.6597 100.208 66.2587 99.9879C65.4576 99.5447 64.3832 98.8716 63.2567 98.0459C62.1302 97.2196 61.1474 96.4256 60.4343 95.8549C60.0954 95.5806 59.8131 95.3515 59.5934 95.1738C59.3961 95.0113 59.2898 94.9177 59.2959 94.9097C59.302 94.902 59.4195 94.9804 59.6276 95.1294C59.8357 95.2779 60.1324 95.4989 60.4969 95.7749C61.2266 96.3254 62.2187 97.1065 63.3417 97.93C64.4646 98.7532 65.5241 99.436 66.3095 99.8999C66.7028 100.131 67.0226 100.316 67.2459 100.44C67.468 100.565 67.5892 100.639 67.5845 100.648Z" fill="#222222"/>
<path d="M57.9307 97.778C57.9362 97.7862 57.819 97.8784 57.6029 98.0374C57.4933 98.1149 57.3633 98.2151 57.2146 98.334C57.0633 98.45 56.8936 98.5846 56.7131 98.7422C55.9821 99.3571 55.0319 100.296 54.2379 101.523C53.4307 102.741 52.956 103.991 52.6743 104.903C52.5432 105.364 52.4388 105.738 52.3831 106C52.3207 106.261 52.2818 106.405 52.2719 106.404C52.2622 106.402 52.2826 106.255 52.3282 105.989C52.3671 105.722 52.4568 105.342 52.5763 104.875C52.8349 103.949 53.3002 102.678 54.1173 101.444C54.9212 100.202 55.8954 99.2627 56.6483 98.6638C56.8343 98.5101 57.0095 98.3801 57.1663 98.2697C57.3205 98.1563 57.4561 98.0622 57.5709 97.9916C57.7977 97.8458 57.9252 97.7697 57.9307 97.778Z" fill="#222222"/>
<g opacity="0.3">
<path d="M57.7845 94.2226C55.3137 94.4724 52.6334 97.1642 50.5962 98.7693C51.4191 98.9578 52.7148 98.1456 53.4746 97.7774C55.378 96.856 56.7921 95.3364 59.2996 94.9081L60.0417 94.7489C59.6123 94.3474 58.3271 94.1914 57.7845 94.2226Z" fill="black"/>
</g>
<path d="M59.2114 94.902C59.2122 94.9142 59.0759 94.9241 58.8375 94.9765C58.599 95.027 58.2615 95.136 57.8693 95.3279C57.0864 95.7153 56.0794 96.4019 54.9366 97.1071C53.7973 97.8213 52.7017 98.3771 51.8641 98.6644C51.4474 98.8123 51.1 98.9012 50.8585 98.9525C50.617 99.0041 50.4804 99.0174 50.479 99.0093C50.4768 98.9978 50.6093 98.966 50.845 98.8981C51.0807 98.8305 51.4204 98.7276 51.8288 98.5692C52.6493 98.2601 53.7248 97.6968 54.8609 96.9848C56.0018 96.2811 57.0177 95.6069 57.8263 95.236C58.2306 95.0527 58.5811 94.9558 58.8272 94.9216C58.9498 94.9023 59.0464 94.8965 59.1115 94.8957C59.1769 94.8949 59.2109 94.8971 59.2114 94.902Z" fill="#222222"/>
<path d="M68.2463 104.031C68.2218 104.037 68.1558 103.732 67.9436 103.283C67.7347 102.836 67.3522 102.251 66.7655 101.776C66.1785 101.302 65.5255 101.05 65.0451 100.94C64.5618 100.826 64.2494 100.825 64.2502 100.8C64.2502 100.791 64.3281 100.782 64.4696 100.781C64.6109 100.781 64.8163 100.795 65.066 100.84C65.5633 100.928 66.2469 101.172 66.8557 101.665C67.4645 102.157 67.8465 102.774 68.0363 103.242C68.1329 103.477 68.1901 103.675 68.219 103.813C68.2486 103.951 68.2552 104.029 68.2463 104.031Z" fill="#222222"/>
<path d="M85.8253 130.468C85.8052 130.503 85.5132 130.373 85.1544 130.215C84.7959 130.057 84.5028 129.929 84.5155 129.891C84.5271 129.854 84.8464 129.922 85.2124 130.084C85.5789 130.245 85.8449 130.435 85.8253 130.468Z" fill="#222222"/>
<path d="M86.6509 129.107C86.6253 129.139 86.3435 128.952 85.985 128.744C85.6273 128.534 85.3257 128.381 85.3409 128.343C85.3544 128.307 85.6892 128.404 86.0576 128.62C86.4263 128.834 86.6755 129.078 86.6509 129.107Z" fill="#222222"/>
<g opacity="0.3">
<path d="M59.4468 107.852C60.3067 114.403 61.2817 121.255 65.1509 126.612C66.1712 128.024 67.636 129.413 69.3736 129.282C70.0671 129.229 70.8699 128.627 70.5964 127.987C70.6077 128.052 69.8477 127.672 69.3203 127.315C68.164 126.533 67.1385 126.198 66.4008 125.013C65.6631 123.828 65.0548 122.201 64.5172 120.913C62.8283 116.867 60.8098 111.967 59.4468 107.852Z" fill="black"/>
</g>
<path d="M55.7532 139.215C55.7187 139.229 55.528 138.793 55.4604 138.215C55.3898 137.637 55.4717 137.169 55.5084 137.174C55.5504 137.177 55.5341 137.638 55.6031 138.198C55.6682 138.758 55.793 139.201 55.7532 139.215Z" fill="#222222"/>
<path d="M58.3721 138.751C58.3326 138.755 58.2614 138.34 58.2129 137.824C58.1646 137.308 58.1574 136.886 58.1969 136.883C58.2363 136.879 58.3075 137.294 58.3561 137.81C58.4044 138.326 58.4116 138.748 58.3721 138.751Z" fill="#222222"/>
<path d="M61.4262 138.28C61.387 138.286 61.2882 137.873 61.206 137.357C61.1235 136.842 61.0884 136.419 61.1276 136.412C61.1668 136.406 61.2653 136.819 61.3478 137.335C61.4304 137.85 61.4654 138.274 61.4262 138.28Z" fill="#222222"/>
<path d="M64.0969 138.109C64.0549 138.109 64.021 137.695 63.9073 137.2C63.7966 136.704 63.6489 136.316 63.687 136.298C63.7204 136.281 63.9326 136.655 64.0475 137.168C64.165 137.68 64.1344 138.11 64.0969 138.109Z" fill="#222222"/>
<path d="M66.807 137.637C66.7681 137.645 66.6724 137.297 66.5934 136.861C66.5145 136.426 66.4822 136.067 66.5211 136.06C66.56 136.053 66.6558 136.4 66.7347 136.836C66.8137 137.271 66.8459 137.63 66.807 137.637Z" fill="#222222"/>
<path d="M69.2377 137.524C69.1958 137.523 69.1836 137.071 69.0845 136.527C68.9888 135.983 68.8433 135.555 68.8825 135.539C68.9165 135.524 69.127 135.94 69.2261 136.502C69.3279 137.063 69.275 137.527 69.2377 137.524Z" fill="#222222"/>
<path d="M65.4871 125.701C65.497 125.7 65.5103 125.816 65.5257 126.026C65.5354 126.131 65.5423 126.259 65.5367 126.409C65.5329 126.559 65.5376 126.73 65.5147 126.918C65.4887 127.294 65.4126 127.739 65.2864 128.223C65.1512 128.703 64.9608 129.222 64.6994 129.736C64.4317 130.248 64.1204 130.704 63.8072 131.093C63.4863 131.476 63.1683 131.797 62.8764 132.036C62.737 132.164 62.5946 132.259 62.4751 132.349C62.3564 132.44 62.2474 132.509 62.1563 132.562C61.9761 132.672 61.8746 132.728 61.8696 132.719C61.8536 132.695 62.2546 132.456 62.8096 131.959C63.0889 131.713 63.3944 131.391 63.7043 131.01C64.0065 130.622 64.3089 130.173 64.5719 129.67C64.8286 129.165 65.0193 128.658 65.1592 128.187C65.2897 127.714 65.3753 127.278 65.4137 126.907C65.4967 126.167 65.4578 125.702 65.4871 125.701Z" fill="#222222"/>
<g opacity="0.3">
<path d="M62.9338 131.836L63.0241 131.764C64.2541 130.688 65.1022 129.184 65.3859 127.574C64.1757 128.607 63.3039 130.288 62.9338 131.836Z" fill="black"/>
</g>
<path d="M62.2553 136.359C62.2272 136.379 61.838 135.741 61.6923 134.845C61.5397 133.949 61.7009 133.219 61.734 133.23C61.7787 133.234 61.6851 133.953 61.8339 134.821C61.9746 135.69 62.2961 136.34 62.2553 136.359Z" fill="#222222"/>
<path d="M66.6684 125.207C66.6845 125.244 66.4573 125.379 66.1612 125.509C65.8651 125.639 65.612 125.715 65.596 125.679C65.58 125.642 65.8071 125.507 66.1035 125.377C66.3994 125.247 66.6524 125.171 66.6684 125.207Z" fill="#222222"/>
<path d="M53.3398 139.223C53.3103 139.244 53.0509 138.849 52.9893 138.284C52.9228 137.719 53.0873 137.276 53.121 137.29C53.1632 137.3 53.0685 137.735 53.1323 138.268C53.1891 138.801 53.3784 139.204 53.3398 139.223Z" fill="#222222"/>
<path d="M86.5368 143.438L81.79 153.884L85.8725 191.951C85.9661 192.824 86.7032 193.486 87.5816 193.486H109.848C110.732 193.486 111.472 192.816 111.559 191.936L115.308 153.999L110.628 143.438H86.5368Z" fill="white"/>
<path d="M115.179 154.845H81.483C80.9261 154.845 80.4746 154.393 80.4746 153.837C80.4746 153.28 80.9261 152.828 81.483 152.828H115.179C115.736 152.828 116.188 153.28 116.188 153.837C116.187 154.393 115.736 154.845 115.179 154.845Z" fill="white"/>
<path d="M91.3144 143.438L89.7314 151.064H107.987L106.676 143.438H91.3144Z" fill="#222222"/>
<path d="M90.9961 193.486H87.72V195.313H90.9961V193.486Z" fill="white"/>
<path d="M109.625 193.486H106.349V195.313H109.625V193.486Z" fill="white"/>
<path d="M107.986 164.35C107.986 164.35 107.989 164.394 107.99 164.485C107.991 164.58 107.992 164.715 107.994 164.892C107.996 165.256 107.999 165.789 108.002 166.48C108.006 167.876 108.012 169.909 108.02 172.475C108.028 177.627 108.039 184.918 108.052 193.487V193.553H107.986C102.263 193.555 95.9674 193.557 89.3584 193.559H89.3562H89.2842V193.487C89.29 182.46 89.2952 172.308 89.2994 164.35V164.293H89.3562C95.0543 164.305 99.7163 164.316 102.958 164.323C104.57 164.329 105.828 164.334 106.688 164.337C107.111 164.34 107.436 164.342 107.659 164.344C107.877 164.346 107.986 164.35 107.986 164.35C107.986 164.35 107.869 164.354 107.647 164.356C107.421 164.357 107.093 164.359 106.665 164.362C105.803 164.366 104.541 164.371 102.923 164.377C99.6895 164.384 95.0393 164.394 89.3559 164.406L89.4128 164.35C89.4169 172.308 89.4222 182.46 89.428 193.487L89.3562 193.415H89.3584C95.9674 193.417 102.263 193.419 107.986 193.421L107.92 193.487C107.933 184.936 107.944 177.66 107.952 172.518C107.96 169.946 107.966 167.908 107.97 166.508C107.974 165.811 107.976 165.274 107.978 164.907C107.98 164.727 107.981 164.589 107.982 164.493C107.984 164.399 107.986 164.35 107.986 164.35Z" fill="#222222"/>
<path d="M115.202 154.742C115.202 154.781 107.708 154.813 98.4652 154.813C89.2193 154.813 81.7266 154.781 81.7266 154.742C81.7266 154.702 89.2193 154.67 98.4652 154.67C107.708 154.67 115.202 154.702 115.202 154.742Z" fill="#222222"/>
<path d="M115.202 152.829C115.202 152.868 107.708 152.9 98.4652 152.9C89.2193 152.9 81.7266 152.868 81.7266 152.829C81.7266 152.789 89.2193 152.757 98.4652 152.757C107.708 152.757 115.202 152.789 115.202 152.829Z" fill="#222222"/>
<path d="M109.848 193.496C109.848 193.535 104.781 193.567 98.5322 193.567C92.2811 193.567 87.2156 193.535 87.2156 193.496C87.2156 193.456 92.2814 193.424 98.5322 193.424C104.781 193.424 109.848 193.456 109.848 193.496Z" fill="#222222"/>
<path d="M431.447 173.068C430.761 173.366 430.256 174 430.003 174.703C429.75 175.407 429.727 176.175 429.812 176.918C429.974 178.355 430.791 179.806 431.671 180.954C432.881 179.898 433.159 178.055 433.242 177.112C433.372 175.62 432.702 172.846 431.447 173.068Z" fill="#CACACA"/>
<path d="M430.265 183.326C430.458 182.514 430.12 181.623 429.497 181.067C428.873 180.512 428.002 180.277 427.17 180.34C426.785 180.37 426.368 180.482 426.148 180.799C425.942 181.095 425.965 181.509 426.132 181.829C426.299 182.149 426.589 182.388 426.895 182.58C427.943 183.238 429.079 183.682 430.265 183.326Z" fill="#CACACA"/>
<path d="M431.811 187.733C431.818 187.731 431.802 187.627 431.768 187.438C431.73 187.231 431.681 186.962 431.622 186.64C431.488 185.973 431.316 185.017 430.798 184.09C430.287 183.165 429.571 182.484 428.968 182.146C428.669 181.972 428.407 181.869 428.222 181.816C428.131 181.785 428.056 181.773 428.007 181.761C427.958 181.75 427.931 181.747 427.931 181.75C427.922 181.774 428.35 181.851 428.93 182.209C429.512 182.557 430.204 183.232 430.707 184.141C431.215 185.049 431.397 185.992 431.549 186.655C431.623 186.989 431.682 187.26 431.728 187.447C431.774 187.633 431.804 187.735 431.811 187.733Z" fill="#222222"/>
<path d="M431.771 175.225C431.767 175.225 431.762 175.269 431.756 175.353C431.75 175.449 431.743 175.572 431.734 175.724C431.716 176.046 431.698 176.511 431.679 177.087C431.642 178.239 431.613 179.831 431.62 181.589C431.628 183.348 431.671 184.939 431.718 186.091C431.742 186.666 431.765 187.132 431.785 187.453C431.795 187.605 431.804 187.728 431.81 187.823C431.817 187.908 431.822 187.952 431.826 187.952C431.83 187.952 431.831 187.908 431.831 187.823C431.83 187.727 431.828 187.604 431.826 187.452C431.818 187.117 431.806 186.654 431.793 186.088C431.764 184.937 431.733 183.346 431.725 181.588C431.718 179.831 431.736 178.24 431.754 177.089C431.763 176.523 431.77 176.061 431.775 175.725C431.776 175.573 431.777 175.45 431.777 175.354C431.776 175.27 431.774 175.225 431.771 175.225Z" fill="#222222"/>
<path d="M432.356 184.2C432.632 182.462 433.803 180.889 435.391 180.129C435.796 179.935 436.324 179.809 436.656 180.109C436.989 180.411 436.915 180.951 436.752 181.37C436.074 183.111 434.253 184.34 432.385 184.319" fill="#CACACA"/>
<path d="M435.2 181.491C435.197 181.484 435.106 181.525 434.943 181.603C434.861 181.642 434.762 181.689 434.653 181.758C434.544 181.825 434.413 181.892 434.283 181.989C434.151 182.083 434.004 182.182 433.86 182.308C433.71 182.425 433.564 182.566 433.411 182.716C433.113 183.023 432.812 183.39 432.556 183.814C432.303 184.241 432.121 184.679 431.993 185.087C431.935 185.294 431.88 185.49 431.851 185.679C431.81 185.865 431.795 186.042 431.778 186.203C431.756 186.364 431.764 186.511 431.758 186.639C431.752 186.767 431.761 186.877 431.768 186.967C431.781 187.148 431.792 187.246 431.799 187.246C431.823 187.245 431.781 186.846 431.852 186.211C431.873 186.052 431.892 185.878 431.936 185.696C431.968 185.51 432.026 185.318 432.085 185.116C432.216 184.716 432.398 184.287 432.646 183.868C432.898 183.452 433.191 183.09 433.48 182.784C433.629 182.634 433.771 182.492 433.917 182.374C434.056 182.247 434.198 182.146 434.326 182.05C434.846 181.677 435.21 181.511 435.2 181.491Z" fill="#222222"/>
<path d="M474.318 136L479.065 146.446L474.982 184.512C474.889 185.386 474.152 186.048 473.273 186.048H451.007C450.123 186.048 449.383 185.377 449.296 184.498L445.547 146.56L450.227 136H474.318Z" fill="white"/>
<path d="M445.676 147.406H479.372C479.929 147.406 480.38 146.955 480.38 146.398C480.38 145.841 479.929 145.39 479.372 145.39H445.676C445.119 145.39 444.667 145.841 444.667 146.398C444.667 146.955 445.119 147.406 445.676 147.406Z" fill="white"/>
<path d="M469.54 136L471.123 143.626H452.868L454.178 136H469.54Z" fill="#222222"/>
<path d="M469.859 186.048H473.135V187.875H469.859V186.048Z" fill="white"/>
<path d="M451.23 186.048H454.506V187.875H451.23V186.048Z" fill="white"/>
<path d="M452.869 156.911C452.869 156.911 452.866 156.956 452.865 157.047C452.864 157.142 452.863 157.277 452.861 157.453C452.859 157.818 452.856 158.35 452.853 159.042C452.849 160.437 452.843 162.47 452.835 165.036C452.827 170.189 452.816 177.479 452.802 186.048V186.115H452.869C458.591 186.116 464.887 186.118 471.496 186.12H471.499H471.571V186.048C471.565 175.022 471.56 164.869 471.555 156.911V156.854H471.499C465.8 156.867 461.138 156.877 457.896 156.885C456.285 156.891 455.027 156.896 454.167 156.899C453.743 156.902 453.419 156.904 453.196 156.905C452.978 156.907 452.869 156.911 452.869 156.911C452.869 156.911 452.986 156.915 453.208 156.917C453.433 156.919 453.761 156.921 454.19 156.924C455.052 156.927 456.314 156.932 457.932 156.938C461.165 156.945 465.815 156.955 471.499 156.968L471.442 156.911C471.438 164.869 471.433 175.021 471.427 186.048L471.499 185.976H471.496C464.887 185.978 458.592 185.98 452.869 185.982L452.935 186.048C452.922 177.497 452.91 170.222 452.902 165.08C452.895 162.507 452.888 160.469 452.884 159.07C452.881 158.373 452.878 157.836 452.876 157.469C452.875 157.289 452.873 157.151 452.872 157.054C452.871 156.961 452.869 156.911 452.869 156.911Z" fill="#222222"/>
<path d="M445.653 147.303C445.653 147.343 453.147 147.375 462.39 147.375C471.635 147.375 479.128 147.343 479.128 147.303C479.128 147.264 471.635 147.231 462.39 147.231C453.147 147.231 445.653 147.263 445.653 147.303Z" fill="#222222"/>
<path d="M445.653 145.39C445.653 145.43 453.147 145.462 462.39 145.462C471.635 145.462 479.128 145.43 479.128 145.39C479.128 145.35 471.635 145.318 462.39 145.318C453.147 145.318 445.653 145.35 445.653 145.39Z" fill="#222222"/>
<path d="M451.007 186.057C451.007 186.097 456.074 186.129 462.323 186.129C468.574 186.129 473.639 186.097 473.639 186.057C473.639 186.018 468.573 185.985 462.323 185.985C456.074 185.985 451.007 186.017 451.007 186.057Z" fill="#222222"/>
</g>
</g>
<defs>
<linearGradient id="paint0_linear_13619_3296" x1="-4.30872e-06" y1="16.9733" x2="430.27" y2="320.942" gradientUnits="userSpaceOnUse">
<stop stop-color="#FDA23F"/>
<stop offset="1" stop-color="#EF7579"/>
</linearGradient>
</defs>
</svg>
