<svg width="90" height="117" viewBox="0 0 90 117" fill="none" xmlns="http://www.w3.org/2000/svg">
<path d="M44.9815 40.6406C46.4053 38.8828 47.5655 36.9492 48.8663 35.1035C49.9737 33.539 51.0284 31.9218 52.1006 30.3398C52.628 29.5664 53.2784 29.3554 54.1749 29.6543C59.6417 31.4648 65.126 33.2578 70.6104 35.0332C73.8448 36.0878 77.0967 37.1074 80.3487 38.1621C81.8253 38.6367 82.1592 39.6562 81.2979 40.9394C79.3116 43.8925 77.3253 46.8457 75.3038 49.7988C74.9346 50.3261 74.9171 50.7128 75.2862 51.2578C77.6241 54.6152 79.9092 58.0078 82.212 61.3828C83.0382 62.5781 82.6866 63.6855 81.2803 64.1425C79.1358 64.8457 76.9737 65.5312 74.8116 66.2168C74.6182 66.6386 74.1963 66.7089 73.8096 66.832C67.6573 68.7832 61.5401 70.8398 55.3878 72.791C53.9991 73.2304 53.3487 73.0371 52.5753 71.8769C50.1671 68.291 47.7413 64.7226 45.3155 61.1543C45.1573 60.9257 45.0167 60.6796 45.0342 60.3808C45.1573 59.9062 45.5616 59.8007 45.9483 59.6777C51.2569 57.9902 56.5303 56.25 61.8389 54.5449C65.8643 53.2441 69.8897 51.9609 74.0557 50.5722C72.2979 49.9921 70.6983 49.4296 69.0811 48.9199C61.4522 46.4589 53.8233 43.9804 46.1944 41.4668C45.7901 41.3261 45.3506 41.2558 45.0167 40.9218C44.9815 40.8339 44.9639 40.746 44.9815 40.6406Z" fill="#E8F2FB"/>
<path d="M45 40.8164C54.8437 44.0156 64.6875 47.2324 74.6016 50.4668C74.3906 50.8184 74.0918 50.8184 73.8633 50.8887C67.7109 52.9102 61.541 54.9141 55.3887 56.918C52.2949 57.9199 49.1836 58.9043 46.0898 59.9062C45.7559 60.0117 45.3164 60.0117 45.1582 60.4336C45.334 62.8242 45.2988 65.1973 45.1406 67.6055C44.9824 69.8379 45.1055 72.0879 45.1055 74.3203C45.1055 77.4316 45.1055 80.543 45.1055 83.6543C45.1055 84.7793 45.1055 85.8867 45.2461 87.0117C45.334 87.7324 45.4746 88.5059 45 89.1738C44.9297 89.1738 44.8769 89.1738 44.8066 89.1738C44.5605 88.3828 44.0156 88.6641 43.5059 88.8223C43.1894 88.7519 42.8906 88.6816 42.5742 88.6113C42.2754 88.4531 42.0996 87.9961 41.6426 88.2598C41.3262 88.1895 41.0273 88.1191 40.7109 88.0488C40.4121 87.8906 40.2363 87.4336 39.7793 87.6973C39.4629 87.627 39.1641 87.5566 38.8477 87.4863C38.5488 87.3281 38.373 86.8711 37.916 87.1348C37.5996 87.0644 37.3008 86.9941 36.9844 86.9238C36.6855 86.7656 36.5098 86.3086 36.0527 86.5723C35.7363 86.5019 35.4375 86.4316 35.1211 86.3613C34.8223 86.2031 34.6465 85.7461 34.1895 86.0098C33.873 85.9394 33.5742 85.8691 33.2578 85.7988C32.959 85.6406 32.7832 85.1836 32.3262 85.4473C32.0098 85.3769 31.7109 85.3066 31.3945 85.2363C31.0957 85.0781 30.9199 84.6211 30.4629 84.8848C30.1465 84.8144 29.8477 84.7441 29.5312 84.6738C29.2324 84.5156 29.0566 84.0586 28.5996 84.3223C28.2832 84.252 27.9844 84.1816 27.668 84.1113C27.3691 83.9531 27.1934 83.4961 26.7363 83.7598C26.4199 83.6894 26.1211 83.6191 25.8047 83.5488C25.5059 83.3906 25.3301 82.9336 24.873 83.1973C24.5566 83.1269 24.2578 83.0566 23.9414 82.9863C23.6426 82.8281 23.4668 82.3711 23.0098 82.6348C22.6934 82.5644 22.3945 82.4941 22.0781 82.4238C21.7793 82.2656 21.6035 81.8086 21.1465 82.0723C20.8301 82.0019 20.5312 81.9316 20.2148 81.8613C19.916 81.7031 19.7402 81.2461 19.2832 81.5098C18.9668 81.4395 18.668 81.3691 18.3516 81.2988C18.0176 80.8418 17.6133 80.4551 17.0508 80.3144C16.4355 80.1738 16.1543 79.7871 15.9609 79.207C15.7852 78.627 15.7148 77.9766 15.1875 77.5723C15.1875 73.8457 15.1875 70.1016 15.1699 66.375C16.0137 66.0234 16.6816 66.5859 17.4023 66.832C18.2988 68.0625 20.6016 68.8184 22.2891 68.4141C23.1855 68.5723 24.0469 68.8711 24.873 69.2578C25.752 70.4883 27.4922 71.0508 29.1973 70.6465C30.2871 70.8574 31.3066 71.2617 32.3437 71.6484C33.2754 72.791 34.4707 73.2832 35.9297 73.2129C36.3164 73.1953 36.668 73.1074 36.9316 72.8262C37.916 71.7891 38.8477 70.6992 38.8477 69.1523C38.9004 68.8535 39.0586 68.6074 39.3398 68.4844C40.043 68.3789 40.4824 67.957 40.8516 67.3769C41.2207 66.7969 41.5898 66.2344 41.9941 65.6895C42.5215 65.0039 42.8027 64.248 42.7676 63.3691C42.8203 63.0176 42.9961 62.7539 43.3125 62.5781C44.4902 62.3496 44.5781 62.209 44.6309 60.4336C44.6484 60.2754 44.666 60.1172 44.7187 59.959C44.7891 54.123 44.7187 48.3047 44.7539 42.4688C44.7539 41.9414 44.6836 41.4141 44.9297 40.9219C44.9121 40.8867 44.9648 40.8516 45 40.8164Z" fill="#C9DBEF"/>
<path d="M44.9985 89.1563C44.6646 82.1953 44.8052 75.2344 44.8579 68.2734C44.8755 65.8652 44.981 63.4395 44.9985 61.0137C44.9985 60.8027 44.9634 60.5742 45.1743 60.416C47.7759 64.2832 50.3774 68.1328 52.979 72C53.5767 72.8789 54.3853 72.8613 55.2817 72.5625C60.5552 70.8398 65.8462 69.1348 71.1196 67.4121C72.3501 67.0078 73.5981 66.6035 74.8286 66.1992C74.8286 70.207 74.8462 74.2148 74.8462 78.2051C74.8462 79.5234 74.0024 80.6484 72.6841 81.0352C63.8247 83.6895 54.9653 86.3437 46.0884 88.998C45.7368 89.1211 45.3677 89.1738 44.9985 89.1563Z" fill="#A3BADA"/>
<path d="M44.8059 60.2228C44.8059 60.3459 44.8059 60.4689 44.7883 60.592C44.4543 61.383 44.0676 62.174 43.3118 62.6486C43.2063 62.8947 42.9075 63.0705 42.925 63.3869C41.9407 65.2677 40.7278 66.9904 39.3743 68.6076C39.1282 68.713 39.0051 68.9064 39.0051 69.1701C38.5481 70.2599 37.8274 71.1916 37.1594 72.1584C36.7024 72.8087 36.0696 73.09 35.2961 72.9318C34.2414 72.7033 33.1868 72.4572 32.2903 71.7892C31.1829 71.6486 30.1985 71.0861 29.1262 70.8576C27.6321 70.5587 26.1379 70.2072 24.8372 69.3634C23.9231 69.2755 23.1145 68.7834 22.2356 68.6076C20.5481 68.256 18.8782 67.8517 17.384 66.9376C16.6457 66.7443 15.8899 66.5685 15.1516 66.3752C14.9407 66.1115 14.6418 66.0587 14.343 65.9533C12.427 65.338 10.511 64.7228 8.59496 64.09C7.43481 63.7209 6.97778 62.6134 7.66332 61.5939C9.54418 58.7462 11.4602 55.9337 13.3762 53.1212C13.9739 52.2423 14.5539 51.381 15.1516 50.5021C15.345 50.3791 15.5383 50.4318 15.7317 50.4845C18.6497 51.2755 21.4797 52.3126 24.345 53.2443C30.8137 55.3537 37.3176 57.3927 43.7512 59.5724C44.1379 59.713 44.595 59.7482 44.8059 60.2228Z" fill="#E8F2FB"/>
<path d="M15.5203 50.6954C15.3973 50.6426 15.2566 50.5899 15.1336 50.5196C12.9891 47.3379 10.8445 44.1563 8.70001 40.9747C7.80352 39.6387 8.15508 38.6368 9.6668 38.1446C14.2899 36.6504 18.9129 35.1387 23.5359 33.6446C25.5398 32.9942 27.5438 32.3614 29.5477 31.711C29.8816 32.2911 29.5301 32.8536 29.4949 33.4161C29.4598 33.8555 29.3719 34.2774 29.5301 34.6993C29.741 35.2618 30.1453 35.543 30.743 35.5079C31.3055 35.4903 31.7098 35.1914 31.8152 34.6465C31.9734 33.8907 32.0965 33.1348 32.2195 32.3789C32.325 31.7989 31.7098 31.4649 31.7625 30.92C33.0457 30.6914 34.241 30.1465 35.4715 29.7774C36.9832 29.3204 37.2645 29.3907 38.1609 30.7266C40.3055 33.9082 42.4676 37.0723 44.6297 40.2539C44.7352 40.3946 44.8758 40.5176 44.9988 40.6582C44.9988 40.711 45.0164 40.7813 45.0164 40.834L44.9988 40.8516C44.8055 41.0801 44.577 41.2032 44.2957 41.2911C41.8699 42.0645 39.4969 42.9786 37.0359 43.6289C36.2449 43.6114 35.5594 43.875 34.9617 44.3497C28.8621 46.336 22.7625 48.3047 16.6805 50.3262C16.2762 50.4493 15.8719 50.4668 15.5203 50.6954Z" fill="#C9DBEF"/>
<path d="M43.4883 7.18948C44.1738 3.93753 46.5645 1.52932 49.8164 0.931668C51.0469 0.703152 52.2773 0.843777 53.0684 1.98636C53.8242 3.09378 53.209 4.14846 52.7168 5.11526C52.3477 5.85354 51.8027 6.48636 51.3457 7.1719C51.082 7.50589 50.6953 7.48831 50.3262 7.48831C48.3926 7.50589 46.4414 7.50589 44.5078 7.48831C44.1387 7.50589 43.752 7.52347 43.4883 7.18948Z" fill="#C9DBEF"/>
<path d="M51.3457 10.2305C51.7676 11.0566 52.5059 11.6719 52.8926 12.5508C53.3145 13.5 53.7891 14.4844 53.0684 15.4512C52.3125 16.4707 51.2051 16.5586 49.9922 16.4355C46.7578 16.1016 44.0684 13.2012 43.5059 10.248C43.7871 9.93164 44.1738 9.93164 44.543 9.93164C46.4766 9.91406 48.3926 9.91406 50.3262 9.93164C50.6777 9.91406 51.0645 9.91406 51.3457 10.2305Z" fill="#C9DBEF"/>
<path d="M51.3454 10.2305C48.7263 10.2305 46.1071 10.2305 43.488 10.2305C42.2927 10.0547 41.7653 9.5625 41.8005 8.64844C41.8181 7.78711 42.3454 7.33008 43.488 7.17188C46.1071 7.17188 48.7263 7.17188 51.3454 7.18945C51.9606 7.18945 52.5934 7.18945 53.2087 7.22461C54.1227 7.25977 54.7028 7.82227 54.7204 8.66602C54.738 9.54492 54.1579 10.1602 53.2087 10.1953C52.5934 10.2305 51.9782 10.2129 51.3454 10.2305Z" fill="#24CBC7"/>
<path d="M63.1925 10.8458C63.1749 11.5314 62.9113 12.006 62.3488 12.2697C61.7511 12.5685 61.1359 12.4982 60.714 12.006C59.9054 11.0743 58.9914 10.3536 57.7785 9.9845C57.0753 9.77356 56.8292 9.08801 56.9874 8.38489C57.1457 7.68176 57.6378 7.25989 58.3761 7.22473C59.8175 7.15442 62.6652 9.12317 63.1046 10.4767C63.1574 10.6173 63.1749 10.7755 63.1925 10.8458Z" fill="#24CBC7"/>
<path d="M64.7737 16.4884C64.7561 17.2442 64.4749 18.4571 63.9651 19.5997C63.5432 20.5314 62.7522 20.9005 61.9436 20.5489C61.135 20.1974 60.8362 19.4064 61.2053 18.4571C61.5217 17.6485 61.7503 16.8224 61.7678 15.9435C61.803 14.5899 62.2952 13.9396 63.2971 13.9571C64.2991 13.9571 64.7913 14.6603 64.7737 16.4884Z" fill="#24CBC7"/>
<path d="M56.0738 25.7345C55.0894 25.752 54.5972 25.3653 54.3863 24.6798C54.1578 23.9239 54.4566 23.2559 55.1422 22.9747C56.3375 22.4825 57.5328 21.9727 58.693 21.3751C59.3609 21.0411 59.9937 21.3048 60.398 21.8849C60.8375 22.5177 60.8551 23.2384 60.2574 23.7481C59.0094 24.8204 57.4449 25.3477 56.0738 25.7345Z" fill="#24CBC7"/>
<path d="M49.4823 26.7362C48.8847 26.7362 48.3046 26.789 47.7069 26.7187C46.828 26.6308 46.2479 25.9276 46.3183 25.1366C46.371 24.3632 46.9511 23.8183 47.8124 23.7831C48.8671 23.7304 49.9218 23.6776 50.9765 23.6425C52.0136 23.6249 52.6464 24.1874 52.664 25.0839C52.6815 25.998 52.0839 26.5605 51.0468 26.6308C50.5194 26.6659 49.9921 26.6835 49.4647 26.7011C49.4823 26.7187 49.4823 26.7362 49.4823 26.7362Z" fill="#24CBC7"/>
<path d="M41.7477 23.5899C43.2067 23.5724 44.0153 24.2403 43.7868 25.3302C43.6286 26.0509 43.1539 26.4552 42.4332 26.5606C41.6071 26.6661 40.7633 26.7716 39.9371 26.8243C39.0231 26.877 38.3727 26.3673 38.2672 25.5587C38.1618 24.7149 38.6891 24.0294 39.6207 23.8712C40.3414 23.7481 41.0446 23.6778 41.7477 23.5899Z" fill="#24CBC7"/>
<path d="M31.7456 30.92C32.4136 31.465 32.6246 32.1329 32.3433 32.9767C32.1851 33.4337 32.1851 33.9435 32.1324 34.4357C32.0269 35.297 31.482 35.8068 30.6558 35.7892C29.8472 35.7892 29.2496 35.2794 29.1792 34.4357C29.0914 33.504 29.4078 32.6075 29.5484 31.6935C30.0757 30.8322 30.7789 30.5157 31.7456 30.92Z" fill="#24CBC7"/>
<path d="M35.0675 25.6816C35.5597 25.6816 36.0519 25.9805 36.298 26.5781C36.5617 27.1758 36.4562 27.7734 35.9816 28.1953C35.4015 28.7051 34.7863 29.1797 34.1359 29.6016C33.591 29.9531 32.9933 29.8652 32.5011 29.4434C32.0441 29.0566 31.8332 28.5469 32.009 27.9492C32.2199 27.1758 34.1183 25.6992 35.0675 25.6816Z" fill="#24CBC7"/>
<path d="M15.1519 77.5898C15.6616 77.5546 15.8022 77.8183 15.9077 78.2929C16.0835 79.1191 16.2241 80.0331 17.3667 80.2265C17.8589 80.3144 18.3687 80.6308 18.3159 81.3164C16.8921 81.0175 15.6616 80.4726 15.2222 78.8906C15.0991 78.4511 15.1519 78.0117 15.1519 77.5898Z" fill="#C9DBEF"/>
<path d="M43.5059 88.7872C43.6641 88.1017 44.2793 88.4005 44.6309 88.4005C44.9824 88.4005 44.7539 88.8927 44.8242 89.1564C44.332 89.174 43.8926 89.0861 43.5059 88.7872Z" fill="#C9DBEF"/>
<path d="M19.248 81.5098C19.6523 80.9649 19.7051 80.9824 20.1797 81.8614C19.8457 81.8086 19.5117 81.7383 19.248 81.5098Z" fill="#C9DBEF"/>
<path d="M21.1113 82.0723C21.5156 81.5274 21.5684 81.5449 22.043 82.4239C21.709 82.3535 21.375 82.3008 21.1113 82.0723Z" fill="#C9DBEF"/>
<path d="M22.9746 82.6348C23.3789 82.0899 23.4316 82.1074 23.9063 82.9864C23.5723 82.916 23.2383 82.8633 22.9746 82.6348Z" fill="#C9DBEF"/>
<path d="M24.8379 83.1973C25.2422 82.6524 25.2949 82.6699 25.7695 83.5489C25.4355 83.4785 25.1016 83.4258 24.8379 83.1973Z" fill="#C9DBEF"/>
<path d="M26.7012 83.7598C27.1055 83.2149 27.1582 83.2324 27.6328 84.1114C27.2988 84.041 26.9648 83.9883 26.7012 83.7598Z" fill="#C9DBEF"/>
<path d="M28.5645 84.3047C28.9688 83.7598 29.0215 83.7774 29.4961 84.6563C29.1797 84.6035 28.8457 84.5508 28.5645 84.3047Z" fill="#C9DBEF"/>
<path d="M30.4453 84.8672C30.8496 84.3223 30.9023 84.3399 31.377 85.2188C31.043 85.166 30.709 85.1133 30.4453 84.8672Z" fill="#C9DBEF"/>
<path d="M32.3086 85.4297C32.7129 84.8848 32.7656 84.9024 33.2402 85.7813C32.9063 85.7285 32.5723 85.6582 32.3086 85.4297Z" fill="#C9DBEF"/>
<path d="M34.1719 85.9922C34.5762 85.4473 34.6289 85.4649 35.1035 86.3438C34.7695 86.2735 34.4355 86.2207 34.1719 85.9922Z" fill="#C9DBEF"/>
<path d="M36.0352 86.5547C36.4395 86.0098 36.4922 86.0274 36.9668 86.9063C36.6328 86.836 36.2988 86.7832 36.0352 86.5547Z" fill="#C9DBEF"/>
<path d="M37.8984 87.1172C38.3027 86.5723 38.3555 86.5899 38.8301 87.4688C38.4961 87.3985 38.1621 87.3457 37.8984 87.1172Z" fill="#C9DBEF"/>
<path d="M39.7617 87.6797C40.166 87.1348 40.2188 87.1524 40.6934 88.0313C40.377 87.961 40.043 87.9082 39.7617 87.6797Z" fill="#C9DBEF"/>
<path d="M41.6426 88.2246C42.0469 87.6797 42.0996 87.6973 42.5742 88.5762C42.2402 88.5235 41.9063 88.4707 41.6426 88.2246Z" fill="#C9DBEF"/>
<path d="M36.9304 43.4531C39.6199 42.5742 42.2918 41.6953 44.9812 40.834C44.9812 47.0742 44.9988 53.2969 44.9988 59.5371C44.9988 59.7832 45.0515 60.0469 44.823 60.2227C39.1277 58.3594 33.45 56.4961 27.7546 54.6328C23.6765 53.3145 19.5984 52.0137 15.5379 50.6953C15.5203 50.3437 15.8191 50.3262 16.0476 50.2559C22.2175 48.2344 28.405 46.2129 34.575 44.209C34.6804 44.1738 34.8211 44.1914 34.9441 44.1738C34.9968 45.6855 36.0691 46.4063 37.1765 47.127C37.9675 47.6367 38.8113 47.584 39.1804 47.0391C39.5671 46.459 39.3386 45.7207 38.6531 45.1055C38.0378 44.5781 37.2117 44.2969 36.9304 43.4531Z" fill="#A3BADA"/>
<path d="M32.3086 71.8066C33.1523 72.0703 34.0137 72.3516 34.8574 72.6152C35.9648 72.9492 36.4746 72.7559 37.1426 71.8066C37.7754 70.9277 38.2324 69.9434 39.0059 69.1875C39.0937 70.998 37.9336 72.1406 36.791 73.2656C36.3691 73.6875 35.7012 73.5469 35.1738 73.4766C34.0313 73.3008 32.8535 73.0723 32.3086 71.8066Z" fill="#C9DBEF"/>
<path d="M39.3926 68.625C40.4297 66.7793 41.6777 65.0742 42.9434 63.4043C43.0312 64.248 42.75 64.9687 42.2754 65.6543C41.7832 66.3574 41.3262 67.0957 40.834 67.7988C40.4824 68.2734 40.0957 68.748 39.3926 68.625Z" fill="#C9DBEF"/>
<path d="M17.3839 66.9551C19.0187 67.4824 20.6711 67.9219 22.2355 68.625C20.9699 69.3457 19.88 68.5547 18.755 68.1855C18.1398 67.9746 17.3488 67.9043 17.3839 66.9551Z" fill="#C9DBEF"/>
<path d="M24.8378 69.3809C26.2792 69.8379 27.7558 70.2246 29.1268 70.875C27.5976 71.7012 26.4022 70.6113 25.119 70.1191C24.8554 69.9961 24.8202 69.6621 24.8378 69.3809Z" fill="#C9DBEF"/>
<path d="M43.3301 62.6484C43.8223 61.9629 44.3145 61.2773 44.8066 60.5918C44.7715 61.2773 44.9824 61.998 44.2969 62.543C43.9629 62.8066 43.6816 62.8945 43.3301 62.6484Z" fill="#C9DBEF"/>
<path d="M33.1858 42.8556C31.885 42.8907 29.9866 39.7794 30.6018 38.6368C31.1116 37.7052 32.3421 37.5645 33.01 38.4259C33.555 39.129 34.0471 39.9024 34.4514 40.6934C34.9436 41.6778 34.2405 42.8204 33.1858 42.8556Z" fill="#24CBC7"/>
<path d="M36.9306 43.4533C37.5986 43.9982 38.2841 44.5255 38.9521 45.0704C39.6376 45.6154 39.8134 46.547 39.3564 47.1974C38.9345 47.7951 38.0029 47.9533 37.2822 47.4962C36.7548 47.1622 36.2802 46.7755 35.788 46.4064C34.997 45.8439 34.663 45.1232 34.9267 44.1564C35.4365 43.506 36.122 43.2951 36.9306 43.4533Z" fill="#24CBC7"/>
<path d="M23.5733 112V107.968C23.5733 106.4 23.5593 105.266 23.4893 104.076L23.5313 104.062C23.9933 105.084 24.6233 106.162 25.2813 107.212L28.2773 112H29.5093V102.564H28.3613V106.512C28.3613 107.982 28.3893 109.13 28.5013 110.39L28.4593 110.404C28.0253 109.438 27.4653 108.444 26.7793 107.338L23.7693 102.564H22.4253V112H23.5733ZM34.4682 105.084C32.6062 105.084 31.1082 106.414 31.1082 108.668C31.1082 110.81 32.5362 112.154 34.3562 112.154C35.9802 112.154 37.7302 111.062 37.7302 108.556C37.7302 106.498 36.4142 105.084 34.4682 105.084ZM34.4402 106.008C35.8962 106.008 36.4702 107.45 36.4702 108.598C36.4702 110.124 35.5882 111.23 34.4122 111.23C33.2082 111.23 32.3682 110.11 32.3682 108.626C32.3682 107.352 32.9982 106.008 34.4402 106.008ZM42.2906 111.972C42.9066 112.042 43.6206 112.084 44.5026 112.084C46.3366 112.084 47.7926 111.608 48.6886 110.726C49.5566 109.858 50.0466 108.598 50.0466 107.058C50.0466 105.532 49.5566 104.44 48.7026 103.67C47.8766 102.914 46.6306 102.494 44.8806 102.494C43.9146 102.494 43.0326 102.578 42.2906 102.704V111.972ZM43.5086 103.586C43.8306 103.516 44.3066 103.46 44.9366 103.46C47.5126 103.46 48.7726 104.874 48.7586 107.1C48.7586 109.648 47.3586 111.104 44.7406 111.104C44.2646 111.104 43.8166 111.09 43.5086 111.048V103.586ZM56.3328 107.842C56.3328 106.498 55.8288 105.084 53.7568 105.084C52.9028 105.084 52.0768 105.322 51.5168 105.672L51.7968 106.498C52.2728 106.176 52.9308 105.994 53.5748 105.994C54.9608 105.98 55.1148 107.002 55.1148 107.548V107.688C52.4968 107.674 51.0408 108.57 51.0408 110.208C51.0408 111.188 51.7408 112.154 53.1128 112.154C54.0788 112.154 54.8068 111.678 55.1848 111.146H55.2268L55.3248 112H56.4308C56.3608 111.538 56.3328 110.964 56.3328 110.376V107.842ZM55.1428 109.718C55.1428 109.83 55.1288 109.97 55.0868 110.11C54.8908 110.684 54.3168 111.244 53.4208 111.244C52.8048 111.244 52.2728 110.88 52.2728 110.068C52.2728 108.752 53.7988 108.514 55.1428 108.542V109.718ZM58.552 103.964V105.224H57.502V106.162H58.552V109.858C58.552 110.656 58.692 111.258 59.028 111.636C59.322 111.958 59.784 112.154 60.358 112.154C60.834 112.154 61.212 112.07 61.45 111.986L61.394 111.048C61.212 111.104 61.016 111.132 60.68 111.132C59.994 111.132 59.756 110.656 59.756 109.816V106.162H61.52V105.224H59.756V103.6L58.552 103.964ZM67.6668 107.842C67.6668 106.498 67.1628 105.084 65.0908 105.084C64.2368 105.084 63.4108 105.322 62.8508 105.672L63.1308 106.498C63.6068 106.176 64.2648 105.994 64.9088 105.994C66.2948 105.98 66.4488 107.002 66.4488 107.548V107.688C63.8308 107.674 62.3748 108.57 62.3748 110.208C62.3748 111.188 63.0748 112.154 64.4468 112.154C65.4128 112.154 66.1408 111.678 66.5188 111.146H66.5608L66.6588 112H67.7648C67.6948 111.538 67.6668 110.964 67.6668 110.376V107.842ZM66.4768 109.718C66.4768 109.83 66.4628 109.97 66.4208 110.11C66.2248 110.684 65.6508 111.244 64.7548 111.244C64.1388 111.244 63.6068 110.88 63.6068 110.068C63.6068 108.752 65.1328 108.514 66.4768 108.542V109.718Z" fill="#828282"/>
</svg>
