<svg width="421" height="261" viewBox="0 0 421 261" fill="none" xmlns="http://www.w3.org/2000/svg">
<g clip-path="url(#clip0_11295_11553)">
<path d="M269.484 253.049C272.461 251.381 276.283 251.319 279.316 252.888C282.349 254.457 284.499 257.608 284.847 261C278.57 261 272.387 259.543 269.484 253.049Z" fill="#EBEBEB"/>
<path d="M276.799 246.635C281 248.006 285.866 247.138 289.322 244.384C292.777 241.636 294.716 237.096 294.312 232.705C286.345 234.262 278.856 237.667 276.799 246.635Z" fill="#EBEBEB"/>
<path d="M249.473 257.229C249.473 257.229 249.603 257.167 249.864 257.074C250.156 256.975 250.535 256.844 251.008 256.689C252.008 256.367 253.45 255.895 255.221 255.281C258.764 254.059 263.63 252.286 268.875 250.003C271.492 248.856 273.959 247.69 276.165 246.573C278.365 245.438 280.316 244.353 281.914 243.379C283.498 242.38 284.76 241.543 285.562 240.873C286.382 240.228 286.786 239.807 286.811 239.838C286.817 239.844 286.724 239.949 286.525 240.148C286.326 240.34 286.053 240.644 285.636 240.973C284.847 241.673 283.598 242.548 282.026 243.571C280.435 244.576 278.496 245.686 276.296 246.834C274.089 247.969 271.622 249.147 268.999 250.295C263.742 252.577 258.857 254.326 255.29 255.492C253.506 256.081 252.052 256.516 251.045 256.801C250.566 256.937 250.181 257.043 249.883 257.13C249.616 257.204 249.473 257.235 249.473 257.223V257.229Z" fill="#E0E0E0"/>
<path d="M277.545 256.695C277.514 256.739 276.787 256.236 275.531 255.56C274.282 254.884 272.48 254.072 270.392 253.501C268.297 252.931 266.333 252.713 264.916 252.664C263.493 252.608 262.611 252.676 262.604 252.62C262.604 252.596 262.822 252.565 263.22 252.521C263.618 252.472 264.202 252.441 264.916 252.441C266.352 252.434 268.347 252.62 270.472 253.197C272.592 253.78 274.406 254.636 275.637 255.368C276.252 255.734 276.737 256.057 277.06 256.298C277.383 256.54 277.551 256.683 277.539 256.702L277.545 256.695Z" fill="#E0E0E0"/>
<path d="M129.491 228.81C127.981 232.835 128.627 237.598 131.169 241.072C133.711 244.545 138.055 246.616 142.355 246.399C141.162 238.591 138.154 231.179 129.491 228.81Z" fill="#EBEBEB"/>
<path d="M128.266 224.977C128.316 224.964 128.534 225.833 128.981 227.191C129.429 228.549 130.156 230.398 131.187 232.326C132.225 234.249 133.363 235.874 134.251 237.003C135.14 238.132 135.743 238.789 135.699 238.826C135.681 238.839 135.519 238.69 135.227 238.411C134.935 238.132 134.537 237.698 134.071 237.152C133.133 236.054 131.946 234.429 130.902 232.481C129.857 230.534 129.161 228.648 128.764 227.259C128.565 226.564 128.428 225.994 128.353 225.597C128.279 225.2 128.242 224.977 128.266 224.977Z" fill="#E0E0E0"/>
<path d="M5.29465 72.3008C2.95169 78.5341 3.95848 85.9149 7.89242 91.2923C11.8264 96.6697 18.5632 99.8763 25.2254 99.5476C23.3796 87.4531 18.7185 75.9726 5.29465 72.3008Z" fill="#EBEBEB"/>
<path d="M3.39308 66.3711C3.39308 66.3711 3.51737 66.6936 3.68517 67.2952C3.84675 67.8969 4.10156 68.759 4.44337 69.8196C5.12699 71.9346 6.23944 74.8063 7.84284 77.7958C9.45246 80.7853 11.2299 83.3034 12.622 85.0401C13.3118 85.9084 13.896 86.6031 14.3062 87.0683C14.7164 87.5396 14.9339 87.8063 14.9152 87.8249C14.8966 87.8373 14.648 87.6017 14.213 87.1551C13.7717 86.7147 13.1627 86.0449 12.4418 85.1889C10.9999 83.4771 9.17902 80.9652 7.55696 77.957C5.94113 74.9427 4.85355 72.0338 4.22586 69.894C3.9089 68.821 3.68517 67.9465 3.56088 67.3325C3.43037 66.7184 3.36822 66.3835 3.39308 66.3773V66.3711Z" fill="#E0E0E0"/>
<path d="M26.2947 195.757C22.9388 198.455 21.0743 202.883 21.4907 207.163C21.9071 211.443 24.5919 215.431 28.4078 217.434C31.366 210.109 32.553 202.201 26.301 195.757" fill="#EBEBEB"/>
<path d="M27.1899 191.837C27.2396 191.856 26.9848 192.706 26.6803 194.107C26.3758 195.509 26.0526 197.463 25.9594 199.646C25.8724 201.829 26.0215 203.808 26.2142 205.228C26.4006 206.649 26.5871 207.523 26.5311 207.536C26.5125 207.536 26.4441 207.331 26.3385 206.94C26.2328 206.549 26.1085 205.979 25.9842 205.265C25.7357 203.845 25.543 201.842 25.6362 199.634C25.7294 197.426 26.0899 195.447 26.4566 194.052C26.6368 193.351 26.8108 192.793 26.9475 192.414C27.0843 192.036 27.1713 191.825 27.1899 191.837Z" fill="#E0E0E0"/>
<path d="M141.628 38.926C145.481 40.8425 150.298 40.6813 154.02 38.5167C157.743 36.352 160.254 32.2461 160.477 27.9541C152.572 28.3386 144.878 30.5653 141.628 38.926Z" fill="#EBEBEB"/>
<path d="M137.682 39.7451C137.675 39.6893 138.558 39.5715 139.962 39.2613C141.367 38.9574 143.281 38.424 145.307 37.5991C147.333 36.768 149.067 35.8005 150.285 35.0376C151.503 34.2747 152.218 33.7413 152.249 33.7847C152.261 33.8033 152.1 33.9522 151.783 34.2127C151.472 34.4732 151.006 34.8205 150.41 35.2298C149.216 36.0485 147.476 37.0595 145.431 37.903C143.381 38.7404 141.435 39.2427 140.006 39.4908C139.291 39.6149 138.713 39.6955 138.309 39.7265C137.905 39.7637 137.682 39.7699 137.682 39.7513V39.7451Z" fill="#E0E0E0"/>
<path d="M125.519 37.7969C131.069 36.6061 135.904 32.4939 137.955 27.2095C140.006 21.9252 139.21 15.636 135.91 11.0215C128.08 17.8999 121.977 26.5149 125.519 37.7969Z" fill="#EBEBEB"/>
<path d="M122.132 41.8778C122.132 41.8778 122.306 41.6359 122.654 41.2389C123.009 40.8482 123.512 40.2652 124.109 39.5333C125.308 38.0696 126.856 35.9546 128.266 33.4364C129.671 30.9121 130.659 28.487 131.274 26.6945C131.585 25.8014 131.815 25.0695 131.964 24.5609C132.119 24.0523 132.213 23.7732 132.231 23.7794C132.25 23.7794 132.2 24.0709 132.082 24.5919C131.97 25.1129 131.771 25.8572 131.492 26.7627C130.932 28.58 129.963 31.0423 128.552 33.5853C127.129 36.1282 125.544 38.2432 124.289 39.676C123.661 40.3954 123.133 40.9536 122.748 41.3258C122.368 41.6979 122.151 41.8964 122.132 41.8778Z" fill="#E0E0E0"/>
<path d="M176.499 250.264C177.674 252.571 180.054 254.221 182.633 254.513C185.212 254.804 187.903 253.719 189.556 251.728C185.604 249.073 181.079 247.386 176.499 250.258" fill="#EBEBEB"/>
<path d="M174.299 249.247C174.349 249.154 176.219 250.239 178.774 250.884C181.322 251.548 183.484 251.492 183.484 251.591C183.484 251.629 182.95 251.697 182.074 251.672C181.197 251.653 179.992 251.523 178.693 251.194C177.4 250.859 176.275 250.394 175.498 249.997C174.722 249.594 174.28 249.284 174.299 249.247Z" fill="#E0E0E0"/>
<path d="M234.11 27.5754C235.707 29.616 238.367 30.7758 240.952 30.5587C243.538 30.3417 245.968 28.7663 247.204 26.49C242.811 24.6541 238.05 23.8664 234.11 27.5692" fill="#EBEBEB"/>
<path d="M231.754 27.0046C231.785 26.9054 233.83 27.6125 236.459 27.7489C239.088 27.9102 241.201 27.4326 241.219 27.538C241.226 27.5752 240.716 27.7427 239.852 27.8916C238.988 28.0404 237.777 28.1459 236.44 28.0714C235.104 27.997 233.911 27.7551 233.072 27.5132C232.233 27.2713 231.736 27.048 231.754 27.0108V27.0046Z" fill="#E0E0E0"/>
<path d="M383.413 46.6601C387.565 47.8014 392.257 46.7284 395.495 43.8939C398.726 41.0594 400.404 36.5503 399.808 32.3018C392.126 34.1873 385.004 37.8404 383.419 46.6663" fill="#EBEBEB"/>
<path d="M379.697 48.2171C379.678 48.1674 380.523 47.8759 381.841 47.3053C383.158 46.7347 384.936 45.8478 386.763 44.6507C388.59 43.4475 390.106 42.1698 391.157 41.1836C392.201 40.2037 392.804 39.5462 392.841 39.5772C392.859 39.5896 392.723 39.7695 392.468 40.0796C392.213 40.3959 391.822 40.8301 391.312 41.3449C390.299 42.3745 388.789 43.7018 386.937 44.9174C385.085 46.1269 383.27 46.9952 381.922 47.51C381.244 47.7705 380.691 47.9566 380.306 48.0682C379.914 48.1798 379.697 48.2295 379.69 48.2109L379.697 48.2171Z" fill="#E0E0E0"/>
<path d="M398.118 235.694C405.414 234.013 411.709 228.487 414.307 221.472C416.905 214.464 415.73 206.177 411.281 200.161C401.088 209.396 393.22 220.877 398.118 235.688" fill="#EBEBEB"/>
<path d="M393.73 241.152C393.73 241.152 393.96 240.836 394.42 240.309C394.886 239.788 395.538 239.012 396.315 238.038C397.098 237.065 397.981 235.868 398.913 234.503C399.827 233.132 400.784 231.582 401.691 229.907C402.586 228.226 403.35 226.577 403.99 225.057C404.618 223.531 405.128 222.136 405.507 220.945C405.892 219.754 406.178 218.786 406.358 218.11C406.545 217.434 406.657 217.062 406.675 217.068C406.694 217.068 406.625 217.453 406.476 218.141C406.333 218.83 406.079 219.81 405.724 221.013C405.37 222.216 404.879 223.63 404.264 225.175C403.636 226.713 402.872 228.375 401.971 230.062C401.057 231.749 400.088 233.3 399.155 234.671C398.204 236.035 397.297 237.226 396.489 238.181C395.681 239.142 395.004 239.899 394.507 240.395C394.016 240.898 393.736 241.164 393.724 241.152H393.73Z" fill="#E0E0E0"/>
<path d="M313.752 157.496C309.824 135.633 291.018 116.542 268.838 114.737C256.75 113.757 244.6 117.559 232.562 116.108C222.463 114.892 212.874 109.843 206.162 102.214C196.231 90.9262 192.85 74.8684 182.328 64.1198C167.823 49.3086 142.504 49.073 124.861 59.9704C107.211 70.8679 96.54 90.5355 91.6552 110.662L91.4625 116.784C90.3998 137.661 95.8999 161.93 108.043 180.537C120.342 199.392 128.428 207.176 150.838 220.735C169.868 232.246 207.132 237.307 229.38 237.841C251.629 238.374 274.481 231.756 291.217 217.113C307.947 202.469 317.686 179.347 313.764 157.49L313.752 157.496Z" fill="#6842EF"/>
<g opacity="0.8">
<path d="M313.752 157.496C309.824 135.633 291.018 116.542 268.838 114.737C256.75 113.757 244.6 117.559 232.562 116.108C222.463 114.892 212.874 109.843 206.162 102.214C196.231 90.9262 192.85 74.8684 182.328 64.1198C167.823 49.3086 142.504 49.073 124.861 59.9704C107.211 70.8679 96.54 90.5355 91.6552 110.662L91.4625 116.784C90.3998 137.661 95.8999 161.93 108.043 180.537C120.342 199.392 128.428 207.176 150.838 220.735C169.868 232.246 207.132 237.307 229.38 237.841C251.629 238.374 274.481 231.756 291.217 217.113C307.947 202.469 317.686 179.347 313.764 157.49L313.752 157.496Z" fill="white"/>
</g>
<path d="M335.561 235.555C336.412 229.708 332.352 224.279 326.492 223.43C320.633 222.581 315.193 226.634 314.343 232.481C313.492 238.329 317.553 243.758 323.412 244.606C329.271 245.455 334.711 241.403 335.561 235.555Z" fill="#6842EF"/>
<path opacity="0.8" d="M335.561 235.555C336.412 229.708 332.352 224.279 326.492 223.43C320.633 222.581 315.193 226.634 314.343 232.481C313.492 238.329 317.553 243.758 323.412 244.606C329.271 245.455 334.711 241.403 335.561 235.555Z" fill="white"/>
<path d="M249.703 151.696C249.908 173.051 245.241 189.375 235.707 200.676C226.167 211.976 213.11 217.701 196.536 217.856C179.88 218.017 166.643 212.541 156.817 201.426C146.991 190.318 141.976 174.086 141.765 152.726L141.404 115.164C141.199 93.8841 145.867 77.5596 155.4 66.1845C164.933 54.8157 178.028 49.0475 194.684 48.8862C211.258 48.725 224.465 54.2389 234.29 65.4278C244.116 76.6168 249.137 92.8483 249.342 114.128L249.703 151.69V151.696ZM221.836 110.19C221.705 96.7434 219.35 86.8073 214.77 80.3941C210.189 73.9746 203.564 70.8115 194.901 70.8921C186.238 70.9727 179.694 74.2662 175.275 80.7724C170.856 87.2786 168.706 97.252 168.836 110.699L169.278 156.335C169.408 169.863 171.782 179.848 176.406 186.305C181.024 192.762 187.667 195.943 196.337 195.863C205 195.782 211.526 192.489 215.907 185.982C220.288 179.476 222.414 169.428 222.283 155.827L221.842 110.19H221.836Z" fill="#6842EF"/>
<g opacity="0.4">
<path d="M249.703 151.696C249.908 173.051 245.241 189.375 235.707 200.676C226.167 211.976 213.11 217.701 196.536 217.856C179.88 218.017 166.643 212.541 156.817 201.426C146.991 190.318 141.976 174.086 141.765 152.726L141.404 115.164C141.199 93.8841 145.867 77.5596 155.4 66.1845C164.933 54.8157 178.028 49.0475 194.684 48.8862C211.258 48.725 224.465 54.2389 234.29 65.4278C244.116 76.6168 249.137 92.8483 249.342 114.128L249.703 151.69V151.696ZM221.836 110.19C221.705 96.7434 219.35 86.8073 214.77 80.3941C210.189 73.9746 203.564 70.8115 194.901 70.8921C186.238 70.9727 179.694 74.2662 175.275 80.7724C170.856 87.2786 168.706 97.252 168.836 110.699L169.278 156.335C169.408 169.863 171.782 179.848 176.406 186.305C181.024 192.762 187.667 195.943 196.337 195.863C205 195.782 211.526 192.489 215.907 185.982C220.288 179.476 222.414 169.428 222.283 155.827L221.842 110.19H221.836Z" fill="black"/>
</g>
<path d="M265.526 151.548C265.731 172.902 261.063 189.227 251.53 200.527C241.99 211.828 228.933 217.553 212.358 217.708C195.703 217.869 182.465 212.392 172.64 201.278C162.814 190.169 157.799 173.938 157.588 152.577L157.227 115.016C157.022 93.7357 161.689 77.4112 171.223 66.0361C180.756 54.6672 193.851 48.8991 210.506 48.7378C227.081 48.5766 240.287 54.0904 250.113 65.2794C259.938 76.4684 264.96 92.6999 265.165 113.98L265.526 151.541V151.548ZM237.659 110.042C237.528 96.5949 235.173 86.6588 230.592 80.2456C226.012 73.8262 219.387 70.663 210.724 70.7437C202.06 70.8243 195.516 74.1177 191.098 80.624C186.679 87.1302 184.529 97.1035 184.659 110.55L185.1 156.187C185.231 169.714 187.605 179.7 192.229 186.157C196.846 192.613 203.49 195.795 212.159 195.714C220.823 195.634 227.348 192.34 231.73 185.834C236.111 179.328 238.237 169.28 238.106 155.678L237.665 110.042H237.659Z" fill="#6842EF"/>
<path d="M157.345 117.255C157.376 117.336 153.703 118.793 149.142 120.505C144.58 122.217 140.851 123.538 140.82 123.451C140.789 123.371 144.462 121.913 149.03 120.201C153.591 118.489 157.32 117.168 157.351 117.255H157.345Z" fill="#6842EF"/>
<path d="M158.259 132.097C158.29 132.177 154.617 133.635 150.055 135.347C145.487 137.059 141.765 138.38 141.734 138.293C141.703 138.212 145.375 136.755 149.943 135.043C154.505 133.331 158.234 132.01 158.265 132.097H158.259Z" fill="#6842EF"/>
<path d="M159.172 146.94C159.203 147.02 155.53 148.478 150.969 150.19C146.401 151.901 142.678 153.223 142.647 153.136C142.616 153.055 146.289 151.598 150.857 149.886C155.418 148.174 159.147 146.853 159.178 146.94H159.172Z" fill="#6842EF"/>
<path d="M160.086 161.781C160.117 161.862 156.444 163.32 151.882 165.031C147.314 166.743 143.592 168.064 143.561 167.978C143.53 167.897 147.203 166.439 151.77 164.727C156.332 163.016 160.061 161.695 160.092 161.781H160.086Z" fill="#6842EF"/>
<path d="M160.999 176.624C160.999 176.624 160.807 176.741 160.427 176.903C160.055 177.064 159.508 177.287 158.836 177.554C157.488 178.094 155.611 178.813 153.535 179.594C151.46 180.376 149.57 181.064 148.197 181.542C147.513 181.784 146.954 181.976 146.569 182.1C146.183 182.224 145.966 182.286 145.953 182.261C145.947 182.243 146.146 182.144 146.525 181.982C146.898 181.821 147.445 181.598 148.116 181.331C149.465 180.792 151.341 180.072 153.417 179.291C155.493 178.509 157.382 177.821 158.749 177.343C159.433 177.101 159.992 176.909 160.378 176.785C160.763 176.661 160.981 176.599 160.993 176.624H160.999Z" fill="#6842EF"/>
<path d="M165.244 190.2C165.263 190.244 164.542 190.554 163.361 191.025C162.186 191.497 160.552 192.129 158.737 192.811C156.923 193.494 155.282 194.089 154.082 194.505C152.883 194.92 152.137 195.162 152.119 195.119C152.1 195.075 152.821 194.765 154.002 194.294C155.176 193.822 156.811 193.19 158.625 192.508C160.434 191.825 162.081 191.23 163.28 190.814C164.48 190.399 165.225 190.157 165.244 190.2Z" fill="#6842EF"/>
<path d="M174.336 202.654C174.355 202.698 173.715 202.977 172.665 203.405C171.62 203.826 170.16 204.391 168.55 204.999C166.935 205.606 165.468 206.134 164.399 206.506C163.33 206.878 162.665 207.083 162.646 207.039C162.628 206.996 163.268 206.717 164.318 206.289C165.362 205.867 166.823 205.303 168.432 204.695C170.048 204.087 171.515 203.56 172.584 203.188C173.653 202.815 174.318 202.611 174.336 202.654Z" fill="#6842EF"/>
<path d="M189.444 210.823C189.463 210.867 188.823 211.146 187.773 211.574C186.722 212.002 185.268 212.56 183.658 213.168C182.042 213.775 180.576 214.303 179.507 214.675C178.438 215.047 177.773 215.252 177.754 215.208C177.736 215.165 178.376 214.886 179.426 214.458C180.47 214.036 181.931 213.472 183.54 212.864C185.156 212.256 186.623 211.729 187.692 211.357C188.761 210.984 189.426 210.78 189.444 210.823Z" fill="#6842EF"/>
<path d="M235.011 179.154C235.048 179.234 230.331 181.43 224.477 184.06C218.622 186.689 213.843 188.749 213.806 188.668C213.769 188.587 218.486 186.392 224.34 183.762C230.194 181.132 234.973 179.073 235.011 179.154Z" fill="#6842EF"/>
<path d="M238.106 166.433C238.143 166.514 234.247 168.344 229.412 170.515C224.57 172.685 220.618 174.379 220.58 174.298C220.543 174.217 224.44 172.388 229.281 170.217C234.122 168.046 238.075 166.353 238.112 166.433H238.106Z" fill="#6842EF"/>
<path d="M239.529 152.149C239.566 152.23 235.669 154.06 230.834 156.23C225.993 158.401 222.04 160.094 222.003 160.014C221.966 159.933 225.863 158.103 230.704 155.933C235.545 153.762 239.498 152.069 239.535 152.149H239.529Z" fill="#6842EF"/>
<path d="M240.952 137.865C240.989 137.946 237.093 139.775 232.258 141.946C227.416 144.117 223.464 145.81 223.427 145.73C223.389 145.649 227.286 143.819 232.127 141.648C236.968 139.478 240.921 137.784 240.958 137.865H240.952Z" fill="#6842EF"/>
<path d="M242.381 123.575C242.419 123.656 238.522 125.485 233.687 127.656C228.846 129.827 224.893 131.52 224.856 131.44C224.818 131.359 228.715 129.529 233.556 127.358C238.398 125.188 242.35 123.494 242.388 123.575H242.381Z" fill="#6842EF"/>
<path d="M239.529 110.854C239.566 110.935 235.669 112.765 230.834 114.935C225.993 117.106 222.04 118.8 222.003 118.719C221.966 118.638 225.863 116.809 230.704 114.638C235.545 112.467 239.498 110.774 239.535 110.854H239.529Z" fill="#6842EF"/>
<path d="M239.529 97.159C239.566 97.2396 235.669 99.0693 230.834 101.24C225.993 103.411 222.04 105.104 222.003 105.024C221.966 104.943 225.863 103.113 230.704 100.942C235.545 98.7716 239.498 97.0784 239.535 97.159H239.529Z" fill="#6842EF"/>
<path d="M238.106 84.2645C238.143 84.3451 234.247 86.1748 229.412 88.3456C224.57 90.5164 220.618 92.2097 220.58 92.129C220.543 92.0484 224.44 90.2187 229.281 88.0479C234.122 85.8771 238.075 84.1839 238.112 84.2645H238.106Z" fill="#6842EF"/>
<path d="M225.832 75.2838C225.869 75.3645 223.513 76.4995 220.568 77.8206C217.622 79.1417 215.204 80.1465 215.173 80.0658C215.136 79.9852 217.491 78.8502 220.437 77.5291C223.383 76.208 225.794 75.2032 225.832 75.2838Z" fill="#6842EF"/>
<path d="M219.269 69.776C219.306 69.8566 216.951 70.9917 214.005 72.3128C211.059 73.6339 208.642 74.6386 208.611 74.558C208.573 74.4774 210.929 73.3424 213.875 72.0213C216.82 70.7002 219.232 69.6954 219.269 69.776Z" fill="#6842EF"/>
<path d="M158.047 99.2619C158.078 99.3425 154.405 100.8 149.844 102.512C145.276 104.224 141.553 105.545 141.522 105.458C141.491 105.371 145.164 103.92 149.732 102.208C154.293 100.496 158.022 99.175 158.053 99.2619H158.047Z" fill="#6842EF"/>
<path d="M162.622 80.7537C162.653 80.8344 158.669 82.4098 153.722 84.2643C148.775 86.1187 144.742 87.5577 144.711 87.4709C144.68 87.3902 148.663 85.8148 153.61 83.9603C158.557 82.1058 162.59 80.6669 162.622 80.7537Z" fill="#6842EF"/>
<path d="M174.572 62.4326C174.603 62.5133 169.551 64.4856 163.286 66.8363C157.022 69.187 151.919 71.0229 151.888 70.936C151.857 70.8554 156.91 68.8831 163.174 66.5324C169.439 64.1817 174.541 62.3458 174.572 62.4326Z" fill="#6842EF"/>
<path d="M262.847 179.359C262.847 179.359 262.754 179.334 262.586 179.272C262.406 179.204 262.157 179.105 261.84 178.981C261.511 178.857 261.082 178.77 260.585 178.627C260.075 178.559 259.491 178.416 258.826 178.416C256.172 178.243 252.195 179.21 248.348 182.082C246.396 183.471 244.576 185.375 242.798 187.559C241.015 189.736 239.268 192.198 237.286 194.685C235.303 197.16 233.022 199.672 230.126 201.613C227.249 203.561 223.849 204.969 220.22 205.62C216.584 206.29 212.911 206.097 209.537 205.266C206.15 204.454 203.061 203.126 200.177 201.799C197.294 200.466 194.597 199.101 192.011 197.985C189.432 196.843 186.934 196.019 184.603 195.467C182.266 194.933 180.104 194.704 178.202 194.729C176.3 194.747 174.678 195.039 173.386 195.38C172.105 195.771 171.142 196.174 170.521 196.502C170.216 196.664 169.986 196.788 169.812 196.875C169.65 196.955 169.57 196.999 169.563 196.992C169.563 196.992 169.638 196.937 169.793 196.843C169.961 196.744 170.197 196.614 170.489 196.44C171.105 196.093 172.068 195.665 173.348 195.256C174.647 194.89 176.282 194.58 178.196 194.542C180.11 194.499 182.298 194.716 184.653 195.237C187.002 195.777 189.525 196.595 192.117 197.73C194.721 198.841 197.418 200.199 200.302 201.52C203.185 202.835 206.255 204.15 209.611 204.95C212.949 205.769 216.572 205.955 220.164 205.297C223.75 204.652 227.106 203.263 229.952 201.346C232.817 199.436 235.079 196.955 237.062 194.493C239.044 192.024 240.797 189.568 242.599 187.385C244.395 185.202 246.247 183.285 248.224 181.896C252.12 179.018 256.16 178.075 258.838 178.286C259.516 178.299 260.1 178.447 260.616 178.528C261.113 178.677 261.542 178.782 261.871 178.913C262.188 179.049 262.431 179.154 262.611 179.235C262.779 179.31 262.859 179.347 262.859 179.353L262.847 179.359Z" fill="white"/>
<path d="M266.768 137.958C266.768 137.995 266.327 138.051 265.563 138.305C264.798 138.566 263.736 139.068 262.561 139.905C261.374 140.73 260.088 141.884 258.577 143.075C257.055 144.259 255.252 145.401 253.239 146.356C249.212 148.291 245.166 149.041 242.264 149.184C241.537 149.246 240.878 149.221 240.3 149.234C239.722 149.209 239.225 149.203 238.814 149.172C238.442 149.135 238.131 149.104 237.882 149.079C237.671 149.054 237.559 149.035 237.559 149.023C237.559 149.01 237.671 149.01 237.888 149.01C238.137 149.017 238.448 149.029 238.821 149.041C239.243 149.041 239.734 149.041 240.3 149.054C240.872 149.023 241.53 149.029 242.251 148.955C245.129 148.756 249.119 147.975 253.108 146.058C255.097 145.115 256.887 143.993 258.403 142.833C259.914 141.661 261.225 140.519 262.443 139.707C263.649 138.882 264.749 138.398 265.538 138.175C265.936 138.07 266.24 138.001 266.458 137.977C266.669 137.946 266.781 137.939 266.787 137.946L266.768 137.958Z" fill="white"/>
<path d="M185.585 152.329C185.585 152.329 185.467 152.329 185.243 152.279C185.026 152.23 184.69 152.18 184.28 152.062C183.453 151.82 182.279 151.386 180.949 150.605C179.619 149.83 178.152 148.726 176.598 147.435C175.038 146.152 173.373 144.675 171.465 143.361C169.551 142.052 167.525 141.115 165.567 140.663C163.616 140.179 161.795 140.073 160.278 140.16C158.762 140.235 157.544 140.489 156.724 140.7C155.897 140.911 155.45 141.072 155.443 141.041C155.443 141.028 155.549 140.985 155.76 140.898C155.972 140.818 156.282 140.694 156.693 140.576C157.513 140.328 158.731 140.036 160.266 139.924C161.801 139.813 163.653 139.887 165.642 140.365C167.637 140.811 169.712 141.76 171.651 143.088C173.584 144.421 175.25 145.91 176.797 147.2C178.339 148.502 179.774 149.619 181.073 150.406C182.372 151.2 183.515 151.665 184.323 151.938C185.137 152.18 185.597 152.292 185.591 152.323L185.585 152.329Z" fill="white"/>
<path d="M185.697 93.6981C185.697 93.6981 185.336 93.8531 184.659 94.0764C184.323 94.1942 183.907 94.3245 183.416 94.4423C182.925 94.5664 182.372 94.7276 181.75 94.8393C181.129 94.9695 180.445 95.106 179.699 95.199C178.96 95.3231 178.164 95.3789 177.325 95.4533C175.647 95.5588 173.789 95.5588 171.856 95.3851C169.924 95.1928 168.097 94.8455 166.468 94.4299C165.66 94.2004 164.883 93.9958 164.181 93.7353C163.467 93.5058 162.82 93.2453 162.236 93.0034C161.639 92.7801 161.13 92.5134 160.67 92.3025C160.21 92.0917 159.825 91.887 159.52 91.7133C158.899 91.366 158.563 91.1675 158.576 91.1489C158.588 91.1303 158.942 91.2916 159.582 91.6017C159.899 91.7629 160.285 91.949 160.751 92.1413C161.211 92.3397 161.726 92.5878 162.323 92.7987C162.913 93.0282 163.56 93.2763 164.268 93.4872C164.971 93.7353 165.741 93.9275 166.543 94.1446C168.165 94.5416 169.973 94.8765 171.888 95.0626C173.808 95.2362 175.641 95.2362 177.307 95.1556C178.14 95.0874 178.929 95.044 179.662 94.9323C180.402 94.8517 181.079 94.7276 181.701 94.616C182.328 94.5168 182.875 94.3741 183.366 94.2625C183.857 94.1632 184.274 94.0454 184.615 93.9524C185.299 93.7663 185.678 93.6732 185.684 93.6919L185.697 93.6981Z" fill="white"/>
<path d="M263.238 93.5431C263.238 93.5431 263.139 93.5058 262.971 93.419C262.772 93.3074 262.536 93.1709 262.25 93.0035C261.946 92.8174 261.56 92.5941 261.094 92.377C260.634 92.1537 260.125 91.8622 259.522 91.6389C259.224 91.5149 258.913 91.3847 258.59 91.2544C258.266 91.1242 257.912 91.0249 257.552 90.9009C256.843 90.6404 256.048 90.4605 255.227 90.2434C253.562 89.8837 251.704 89.6294 249.74 89.5984C247.776 89.5984 245.912 89.8155 244.24 90.1442C243.413 90.3427 242.618 90.5101 241.903 90.7582C241.543 90.8761 241.188 90.9691 240.859 91.0931C240.536 91.2234 240.219 91.3474 239.92 91.4653C239.311 91.6824 238.802 91.9615 238.336 92.1785C237.87 92.3894 237.484 92.6003 237.174 92.7864C236.888 92.9476 236.645 93.0779 236.446 93.1895C236.279 93.2764 236.185 93.3198 236.179 93.3136C236.179 93.3074 236.254 93.2453 236.409 93.1337C236.602 93.0097 236.832 92.8608 237.111 92.6747C237.416 92.4763 237.795 92.2406 238.255 92.0111C238.715 91.7816 239.224 91.4839 239.833 91.2482C240.138 91.1241 240.449 90.9939 240.778 90.8575C241.107 90.721 241.462 90.6218 241.828 90.4977C242.549 90.231 243.351 90.0574 244.184 89.8465C245.868 89.4991 247.757 89.2634 249.746 89.2697C251.735 89.3007 253.618 89.5674 255.296 89.9457C256.129 90.169 256.924 90.3613 257.639 90.6342C257.999 90.7644 258.353 90.8699 258.677 91.0125C259 91.1552 259.311 91.2916 259.609 91.4219C260.212 91.6637 260.721 91.9739 261.175 92.2096C261.635 92.4452 262.008 92.6809 262.306 92.8918C262.579 93.0779 262.809 93.2329 262.996 93.3632C263.151 93.4748 263.232 93.5369 263.226 93.5431H263.238Z" fill="white"/>
<path d="M225.248 51.4177C225.248 51.4177 225.099 51.5169 224.8 51.6844C224.471 51.8643 224.036 52.1 223.483 52.3977C222.333 53.0117 220.667 53.8862 218.579 54.922C214.415 56.975 208.561 59.7846 201.638 61.5337C198.176 62.3834 194.789 62.8424 191.7 62.9106C188.612 62.9788 185.828 62.6997 183.541 62.2097C181.253 61.726 179.457 61.1119 178.258 60.5971C177.649 60.3614 177.208 60.1133 176.891 59.9769C176.58 59.828 176.425 59.7412 176.431 59.735C176.431 59.7226 176.605 59.7908 176.922 59.9211C177.245 60.0451 177.692 60.2746 178.308 60.4855C179.513 60.9631 181.309 61.5399 183.584 61.9865C185.859 62.4454 188.624 62.6997 191.694 62.6129C194.758 62.5261 198.12 62.0671 201.557 61.2174C208.437 59.4807 214.285 56.7145 218.474 54.7111C220.537 53.6939 222.221 52.869 223.414 52.2798C223.98 52.0069 224.427 51.7836 224.763 51.6224C225.074 51.4735 225.235 51.3991 225.242 51.4115L225.248 51.4177Z" fill="white"/>
<path d="M100.486 159.481L121.262 160.386L120.299 182.361L99.5231 181.456L97.9259 217.969L70.5996 216.778L72.1968 180.265L1.62207 177.188L1.678 160.455L76.8766 52.6582L105.104 53.8863L100.486 159.481ZM29.0105 156.367L73.1601 158.29L76.0749 91.6894L75.4099 91.4351L72.9426 96.1799L29.0167 156.367H29.0105Z" fill="#6842EF"/>
<g opacity="0.4">
<path d="M100.486 159.481L121.262 160.386L120.299 182.361L99.5231 181.456L97.9259 217.969L70.5996 216.778L72.1968 180.265L1.62207 177.188L1.678 160.455L76.8766 52.6582L105.104 53.8863L100.486 159.481ZM29.0105 156.367L73.1601 158.29L76.0749 91.6894L75.4099 91.4351L72.9426 96.1799L29.0167 156.367H29.0105Z" fill="black"/>
</g>
<path d="M117.863 160.238L138.639 161.143L137.676 183.118L116.9 182.213L115.302 218.726L87.9761 217.535L89.5733 181.022L18.9985 177.945L19.0545 161.211L94.253 53.415L122.48 54.6431L117.863 160.238ZM46.387 157.124L90.5366 159.047L93.4513 92.4463L92.7863 92.192L90.3191 96.9367L46.3932 157.124H46.387Z" fill="#6842EF"/>
<path d="M19.4026 164.393C19.4026 164.393 19.1726 164.548 18.7314 164.771C18.2901 164.994 17.6438 165.304 16.8421 165.683C15.2387 166.433 13.0076 167.432 10.5217 168.48C8.03578 169.528 5.76118 170.427 4.10184 171.054C3.27528 171.364 2.60408 171.612 2.13176 171.773C1.66566 171.935 1.39842 172.015 1.39221 171.99C1.38599 171.972 1.62837 171.848 2.08826 171.656C2.60408 171.438 3.25042 171.166 4.02105 170.843C5.71768 170.136 7.93634 169.212 10.3974 168.182C12.846 167.14 15.0585 166.191 16.7489 165.472C17.5133 165.149 18.1596 164.876 18.6754 164.659C19.1353 164.473 19.3901 164.38 19.4026 164.399V164.393Z" fill="#6842EF"/>
<path d="M29.52 145.823C29.52 145.823 29.1968 146.016 28.5816 146.319C27.9663 146.617 27.0776 147.033 25.9714 147.541C23.7589 148.552 20.6764 149.898 17.2521 151.343C13.8278 152.788 10.7142 154.054 8.44578 154.934C7.31469 155.375 6.38869 155.722 5.74857 155.952C5.10845 156.181 4.748 156.299 4.74178 156.274C4.73557 156.256 5.07738 156.094 5.70507 155.834C6.38248 155.548 7.2774 155.176 8.35877 154.717C10.652 153.756 13.7221 152.466 17.1216 151.039C20.5148 149.6 23.5849 148.298 25.872 147.33C26.9533 146.871 27.8482 146.493 28.5257 146.208C29.1533 145.947 29.5014 145.811 29.5138 145.829L29.52 145.823Z" fill="#6842EF"/>
<path d="M41.8691 129.263C41.8691 129.263 41.5273 129.461 40.8872 129.759C40.247 130.057 39.3148 130.478 38.1589 130.981C35.847 131.992 32.6277 133.338 29.0605 134.783C25.487 136.228 22.2367 137.493 19.8751 138.374C18.6943 138.814 17.731 139.162 17.066 139.391C16.401 139.621 16.0281 139.738 16.0157 139.714C16.0095 139.695 16.3637 139.534 17.0225 139.273C17.7248 138.988 18.6632 138.616 19.7943 138.157C22.1807 137.195 25.3938 135.905 28.9424 134.479C32.4848 133.04 35.6916 131.737 38.0719 130.77C39.203 130.311 40.1352 129.933 40.8374 129.647C41.49 129.381 41.8567 129.25 41.8691 129.269V129.263Z" fill="#6842EF"/>
<path d="M91.3321 148.391C91.3321 148.391 91.1021 148.54 90.6547 148.757C90.2134 148.974 89.5671 149.272 88.7592 149.632C87.1558 150.357 84.9185 151.319 82.4263 152.33C79.9342 153.334 77.6534 154.197 76.0003 154.792C75.1737 155.09 74.4963 155.325 74.0302 155.474C73.5641 155.629 73.2969 155.704 73.2906 155.679C73.2844 155.654 73.533 155.542 73.9867 155.356C74.5025 155.145 75.1551 154.885 75.9195 154.575C77.6223 153.899 79.8472 153.006 82.3083 152.026C84.7631 151.021 86.9817 150.115 88.6722 149.421C89.4428 149.111 90.0891 148.85 90.6049 148.639C91.0648 148.459 91.3197 148.373 91.3321 148.391Z" fill="#6842EF"/>
<path d="M89.3184 182.46C89.3184 182.46 89.0947 182.609 88.6658 182.826C88.237 183.043 87.6093 183.341 86.8325 183.7C85.2788 184.426 83.1098 185.387 80.6923 186.392C78.2748 187.397 76.0685 188.259 74.4589 188.855C73.6572 189.152 72.9984 189.388 72.5448 189.543C72.0911 189.698 71.8363 189.773 71.8239 189.754C71.8176 189.735 72.0538 189.617 72.495 189.431C72.9984 189.221 73.6261 188.96 74.3719 188.65C76.025 187.968 78.1815 187.081 80.568 186.101C82.942 185.096 85.0924 184.19 86.7393 183.496C87.4788 183.186 88.1065 182.925 88.6161 182.714C89.0636 182.534 89.3122 182.448 89.3184 182.466V182.46Z" fill="#6842EF"/>
<path d="M89.0326 194.406C89.0326 194.406 88.8089 194.555 88.38 194.772C87.9512 194.989 87.3235 195.287 86.5467 195.647C84.993 196.372 82.8241 197.334 80.4065 198.339C77.989 199.343 75.7827 200.205 74.1731 200.801C73.3714 201.099 72.7126 201.334 72.259 201.489C71.8053 201.644 71.5505 201.719 71.5381 201.7C71.5256 201.682 71.768 201.564 72.2092 201.378C72.7126 201.167 73.3403 200.906 74.0861 200.596C75.7392 199.914 77.8957 199.027 80.2822 198.047C82.6562 197.042 84.8066 196.137 86.4535 195.442C87.193 195.132 87.8207 194.871 88.3303 194.661C88.7778 194.481 89.0264 194.394 89.0326 194.412V194.406Z" fill="#6842EF"/>
<path d="M88.7466 206.346C88.7466 206.346 88.5229 206.495 88.0941 206.712C87.6652 206.929 87.0376 207.226 86.2607 207.586C84.707 208.312 82.5381 209.273 80.1205 210.278C77.703 211.283 75.4968 212.145 73.8871 212.74C73.0854 213.038 72.4267 213.274 71.973 213.429C71.5193 213.584 71.2645 213.658 71.2521 213.64C71.2459 213.621 71.482 213.503 71.9233 213.317C72.4267 213.106 73.0544 212.846 73.8001 212.536C75.4532 211.853 77.6098 210.966 79.9962 209.986C82.3703 208.982 84.5206 208.076 86.1675 207.381C86.907 207.071 87.5347 206.811 88.0443 206.6C88.4918 206.42 88.7404 206.333 88.7466 206.352V206.346Z" fill="#6842EF"/>
<path d="M91.6553 135.769C91.6553 135.769 91.4254 135.918 90.9779 136.135C90.5367 136.352 89.8903 136.65 89.0824 137.01C87.479 137.735 85.2417 138.697 82.7496 139.708C80.2575 140.712 77.9766 141.574 76.3235 142.17C75.497 142.468 74.8195 142.703 74.3534 142.852C73.8873 143.007 73.6201 143.082 73.6139 143.057C73.6077 143.032 73.8563 142.92 74.3099 142.734C74.8258 142.523 75.4783 142.263 76.2427 141.953C77.9456 141.277 80.1705 140.384 82.6315 139.404C85.0863 138.399 87.305 137.493 88.9954 136.799C89.766 136.489 90.4124 136.228 90.9282 136.017C91.3881 135.837 91.6429 135.75 91.6553 135.769Z" fill="#6842EF"/>
<path d="M91.9786 123.154C91.9786 123.154 91.7486 123.303 91.3012 123.52C90.8599 123.737 90.2136 124.035 89.4057 124.394C87.8022 125.12 85.5649 126.081 83.0728 127.092C80.5807 128.097 78.2999 128.959 76.6468 129.555C75.8202 129.852 75.1428 130.088 74.6767 130.237C74.2106 130.392 73.9433 130.466 73.9371 130.442C73.9309 130.423 74.1795 130.305 74.6332 130.119C75.149 129.908 75.8015 129.648 76.566 129.338C78.2688 128.662 80.4937 127.768 82.9547 126.788C85.4096 125.784 87.6282 124.878 89.3186 124.183C90.0893 123.873 90.7356 123.613 91.2514 123.402C91.7113 123.222 91.9661 123.135 91.9786 123.154Z" fill="#6842EF"/>
<path d="M92.3017 110.538C92.3017 110.538 92.0842 110.681 91.6616 110.885C91.239 111.09 90.6237 111.375 89.8593 111.723C88.3305 112.411 86.2051 113.335 83.831 114.297C81.457 115.258 79.2818 116.07 77.7033 116.635C76.914 116.92 76.2739 117.137 75.8264 117.286C75.379 117.429 75.1304 117.503 75.1241 117.478C75.1179 117.46 75.3541 117.348 75.7829 117.168C76.2801 116.97 76.8954 116.715 77.6225 116.424C79.2507 115.779 81.3638 114.929 83.7067 113.999C86.0373 113.044 88.1503 112.175 89.7661 111.512C90.4932 111.22 91.1085 110.966 91.6057 110.767C92.0407 110.6 92.2893 110.513 92.2955 110.532L92.3017 110.538Z" fill="#6842EF"/>
<path d="M93.7312 98.7475C93.7622 98.8281 92.3701 99.4235 90.6176 100.075C88.865 100.72 87.4232 101.179 87.3921 101.098C87.361 101.018 88.7531 100.422 90.5057 99.7709C92.2583 99.1258 93.7001 98.6668 93.7312 98.7475Z" fill="#6842EF"/>
<path d="M54.1928 112.089C54.1928 112.089 53.851 112.287 53.2109 112.585C52.5708 112.883 51.6386 113.305 50.4826 113.807C48.1707 114.818 44.9515 116.164 41.3842 117.609C37.8107 119.054 34.5604 120.319 32.1988 121.2C31.018 121.64 30.0547 121.988 29.3897 122.217C28.7248 122.447 28.3519 122.565 28.3394 122.54C28.3332 122.521 28.6875 122.36 29.3462 122.099C30.0485 121.814 30.9869 121.442 32.118 120.983C34.5045 120.022 37.7175 118.732 41.2661 117.305C44.8085 115.866 48.0154 114.564 50.3956 113.596C51.5267 113.137 52.4589 112.759 53.1612 112.473C53.8137 112.207 54.1804 112.076 54.1928 112.095V112.089Z" fill="#6842EF"/>
<path d="M66.5229 94.9209C66.5229 94.9209 66.1811 95.1194 65.541 95.4171C64.9008 95.7148 63.9686 96.1366 62.8127 96.6389C60.5008 97.6499 57.2816 98.9958 53.7143 100.441C50.1408 101.886 46.8905 103.151 44.5289 104.032C43.3481 104.472 42.3848 104.82 41.7198 105.049C41.0548 105.279 40.6819 105.397 40.6695 105.372C40.6633 105.353 41.0175 105.192 41.6763 104.931C42.3786 104.646 43.317 104.274 44.4481 103.815C46.8345 102.854 50.0476 101.564 53.5962 100.137C57.1386 98.6981 60.3454 97.3956 62.7257 96.4281C63.8568 95.9691 64.789 95.5908 65.4912 95.3054C66.1438 95.0387 66.5105 94.9085 66.5229 94.9271V94.9209Z" fill="#6842EF"/>
<path d="M77.9147 77.7461C77.9147 77.7461 77.5729 77.9446 76.9328 78.2423C76.2927 78.54 75.3605 78.9617 74.2045 79.4641C71.8926 80.4751 68.6734 81.821 65.1061 83.2662C61.5326 84.7113 58.2823 85.9766 55.9207 86.8573C54.7399 87.2977 53.7766 87.645 53.1116 87.8745C52.4467 88.104 52.0738 88.2218 52.0613 88.197C52.0489 88.1722 52.4094 88.0171 53.0681 87.7566C53.7704 87.4713 54.7088 87.0992 55.8399 86.6402C58.2264 85.6789 61.4394 84.3888 64.988 82.9622C68.5305 81.5233 71.7373 80.2208 74.1175 79.2533C75.2486 78.7943 76.1808 78.4159 76.8831 78.1306C77.5356 77.8639 77.9023 77.7337 77.9147 77.7523V77.7461Z" fill="#6842EF"/>
<path d="M89.7722 61.2363C89.7722 61.2363 89.4303 61.4348 88.7902 61.7325C88.1501 62.0302 87.2179 62.452 86.0619 62.9544C83.7501 63.9653 80.5308 65.3113 76.9635 66.7564C73.3901 68.2015 70.1397 69.4668 67.7781 70.3475C66.5973 70.7879 65.634 71.1352 64.9691 71.3647C64.3041 71.5942 63.9312 71.7121 63.9188 71.6872C63.9063 71.6624 64.2668 71.5074 64.9256 71.2469C65.6278 70.9616 66.5663 70.5894 67.6973 70.1305C70.0838 69.1691 73.2968 67.879 76.8455 66.4525C80.3879 65.0135 83.5947 63.7111 85.9749 62.7435C87.106 62.2845 88.0382 61.9062 88.7405 61.6209C89.3931 61.3542 89.7597 61.2239 89.7722 61.2425V61.2363Z" fill="#6842EF"/>
<path d="M121.232 86.4667C121.232 86.4667 121.113 86.6156 120.871 86.8761C120.629 87.1366 120.268 87.5211 119.746 87.9615C118.733 88.8608 117.136 90.0517 114.917 91.075C112.705 92.0922 109.852 92.8923 106.614 92.9668C104.999 92.9978 103.296 92.8241 101.587 92.4023C99.8714 91.9992 98.181 91.3045 96.503 90.5106C93.1595 88.8856 90.1888 86.9691 87.2866 85.6356C84.4029 84.2711 81.5565 83.595 79.1514 83.5144C76.7339 83.4276 74.8135 83.9734 73.6017 84.5502C72.9988 84.8479 72.5389 85.1084 72.2531 85.3193C71.961 85.5178 71.7994 85.617 71.7932 85.6108C71.7869 85.6046 71.9299 85.4867 72.2158 85.2697C72.4892 85.0402 72.9429 84.7611 73.5457 84.4386C74.7576 83.8183 76.709 83.2291 79.1577 83.2849C81.6001 83.3407 84.4899 83.9982 87.4171 85.3627C90.3504 86.6962 93.3335 88.6065 96.646 90.2191C98.3053 91.0068 99.9771 91.6953 101.661 92.0922C103.339 92.5078 105.011 92.6876 106.608 92.6628C109.796 92.607 112.624 91.8441 114.818 90.8642C117.024 89.8842 118.628 88.7306 119.659 87.8684C120.187 87.4467 120.56 87.0745 120.821 86.8327C121.082 86.5908 121.225 86.4667 121.232 86.4729V86.4667Z" fill="white"/>
<path d="M112.58 55.7965C112.58 55.7965 112.307 55.9763 111.791 56.2554C111.275 56.5345 110.505 56.9005 109.535 57.3098C108.566 57.7254 107.391 58.1471 106.055 58.5503C104.719 58.941 103.227 59.2946 101.642 59.5613C100.058 59.8156 98.5287 59.9458 97.1366 60.0016C95.7445 60.0388 94.4891 60.014 93.4451 59.9272C92.3948 59.8466 91.5496 59.7473 90.9716 59.6419C90.3936 59.5427 90.0767 59.4806 90.0767 59.4558C90.0767 59.431 90.406 59.4558 90.984 59.5179C91.5682 59.5861 92.4134 59.6481 93.4513 59.6977C94.4953 59.7535 95.7383 59.7597 97.118 59.6977C98.4977 59.6233 100.008 59.4868 101.58 59.2325C103.153 58.972 104.632 58.6247 105.962 58.2526C107.285 57.868 108.466 57.4711 109.436 57.0865C110.411 56.7082 111.188 56.3795 111.723 56.1314C112.257 55.8895 112.555 55.7654 112.568 55.7841L112.58 55.7965Z" fill="white"/>
<path d="M68.4557 124.679C68.4557 124.679 68.2444 124.468 67.8963 124.053C67.511 123.594 67.0138 123.005 66.4234 122.31C65.1681 120.852 63.372 118.88 61.2217 116.883C60.1465 115.884 59.0527 115.016 57.9589 114.377C56.8714 113.738 55.79 113.354 54.8516 113.174C52.9623 112.802 51.7753 113.23 51.769 113.155C51.769 113.143 51.8374 113.118 51.9741 113.075C52.1109 113.031 52.3159 112.982 52.5832 112.932C53.1176 112.839 53.9193 112.789 54.8888 112.951C55.8521 113.106 56.977 113.478 58.1019 114.123C59.2267 114.756 60.3516 115.643 61.433 116.647C63.5957 118.663 65.3731 120.666 66.5912 122.167C67.2003 122.918 67.6726 123.544 67.9896 123.985C68.3065 124.425 68.4681 124.673 68.4494 124.692L68.4557 124.679Z" fill="white"/>
<path d="M118.031 143.423C118.031 143.423 117.956 143.497 117.788 143.609C117.621 143.72 117.384 143.894 117.049 144.08C116.396 144.477 115.414 144.986 114.134 145.463C111.605 146.431 107.739 147.132 103.613 146.294C99.4922 145.451 96.2108 143.286 94.2655 141.407C93.2774 140.464 92.5751 139.614 92.1277 138.994C91.8977 138.69 91.7486 138.436 91.6367 138.268C91.531 138.101 91.4751 138.008 91.4875 138.002C91.5124 137.983 91.7548 138.324 92.2271 138.913C92.6994 139.503 93.4203 140.328 94.4147 141.239C96.3786 143.057 99.6227 145.153 103.668 145.978C107.714 146.803 111.524 146.152 114.047 145.252C115.321 144.806 116.309 144.334 116.974 143.975C117.639 143.615 118 143.404 118.018 143.423H118.031Z" fill="white"/>
<path d="M136.134 182.689C136.134 182.689 136.066 182.596 135.954 182.404C135.836 182.199 135.675 181.914 135.463 181.548C135.066 180.773 134.338 179.712 133.338 178.404C133.071 178.087 132.791 177.759 132.493 177.405C132.343 177.231 132.194 177.052 132.039 176.872C131.865 176.704 131.691 176.531 131.511 176.357C131.15 176.003 130.777 175.637 130.392 175.259C129.976 174.912 129.534 174.552 129.087 174.174C127.254 172.722 124.985 171.271 122.263 170.124C119.547 168.989 116.378 168.139 112.91 167.959C109.448 167.76 105.713 168.294 102.078 169.696C98.442 171.122 94.9306 173.28 91.2142 175.364C89.356 176.406 87.4294 177.424 85.3785 178.249C83.3339 179.08 81.1525 179.719 78.8841 179.948C76.6157 180.209 74.3473 179.998 72.1784 179.545C70.0094 179.086 67.9524 178.323 66.0071 177.442C62.1043 175.668 58.6862 173.33 55.498 171.066C52.3036 168.802 49.2957 166.619 46.2939 164.87C43.2984 163.127 40.3216 161.788 37.4503 161.099C34.5791 160.417 31.8757 160.305 29.5514 160.578C27.2208 160.832 25.2818 161.496 23.8089 162.234C22.3174 162.96 21.3541 163.822 20.6829 164.374C20.3846 164.672 20.1485 164.907 19.9869 165.075C19.8253 165.23 19.7383 165.304 19.7383 165.304C19.7383 165.304 19.8066 165.217 19.962 165.05C20.1236 164.876 20.3473 164.634 20.6394 164.324C21.2982 163.754 22.2553 162.867 23.753 162.123C25.2259 161.36 27.1773 160.671 29.5265 160.398C31.8695 160.101 34.5978 160.2 37.5001 160.876C40.4023 161.558 43.4103 162.892 46.4244 164.634C49.451 166.384 52.4714 168.567 55.6658 170.818C58.8602 173.07 62.2659 175.395 66.1376 177.151C68.0704 178.019 70.1027 178.782 72.2468 179.229C74.3846 179.675 76.6157 179.88 78.8468 179.625C81.0779 179.396 83.2282 178.77 85.2542 177.945C87.2865 177.126 89.2006 176.115 91.0588 175.079C94.769 173.008 98.2928 170.849 101.966 169.41C102.892 169.069 103.799 168.734 104.737 168.517C105.204 168.399 105.657 168.257 106.123 168.164C106.589 168.089 107.056 168.009 107.515 167.934C109.355 167.63 111.176 167.612 112.922 167.686C116.421 167.884 119.616 168.753 122.344 169.913C125.078 171.079 127.353 172.561 129.193 174.031C129.646 174.409 130.081 174.775 130.498 175.129C130.883 175.513 131.256 175.892 131.616 176.245C131.797 176.425 131.971 176.599 132.138 176.766C132.294 176.952 132.443 177.132 132.592 177.312C132.884 177.666 133.164 178 133.431 178.323C134.419 179.65 135.128 180.729 135.513 181.517C135.712 181.896 135.867 182.181 135.979 182.392C136.085 182.59 136.128 182.696 136.128 182.696L136.134 182.689Z" fill="white"/>
<path d="M117.354 208.597C117.354 208.597 117.248 208.634 117.037 208.678C116.788 208.728 116.49 208.783 116.117 208.852C115.719 208.932 115.228 209.013 114.656 209.062C114.085 209.118 113.432 209.217 112.705 209.23C112.338 209.249 111.959 209.261 111.568 209.28C111.17 209.292 110.76 209.273 110.331 209.267C109.473 209.273 108.566 209.186 107.609 209.112C105.701 208.901 103.613 208.529 101.475 207.921C99.3431 207.289 97.3855 206.482 95.6578 205.639C94.8064 205.186 93.9922 204.777 93.2775 204.311C92.9171 204.082 92.5566 203.883 92.2272 203.66C91.9041 203.437 91.5933 203.214 91.295 203.009C90.6922 202.606 90.1888 202.178 89.7413 201.818C89.2815 201.465 88.9148 201.136 88.6227 200.857C88.3492 200.602 88.1255 200.392 87.9453 200.218C87.7899 200.069 87.7153 199.988 87.7215 199.976C87.7278 199.964 87.821 200.032 87.9888 200.168C88.1814 200.33 88.4176 200.522 88.7097 200.764C89.0142 201.03 89.3933 201.347 89.8594 201.682C90.3193 202.023 90.8227 202.438 91.4318 202.823C91.7301 203.028 92.047 203.232 92.3702 203.456C92.6996 203.673 93.06 203.871 93.4205 204.088C94.1414 204.541 94.9493 204.938 95.7945 205.378C97.5098 206.203 99.455 206.997 101.568 207.617C103.681 208.219 105.751 208.597 107.64 208.821C108.591 208.901 109.492 209 110.337 209.007C110.76 209.013 111.17 209.044 111.561 209.038C111.953 209.025 112.332 209.019 112.692 209.007C113.413 209.007 114.066 208.926 114.638 208.889C115.209 208.852 115.7 208.79 116.098 208.734C116.471 208.69 116.776 208.647 117.024 208.616C117.235 208.591 117.347 208.585 117.354 208.597Z" fill="white"/>
<path d="M370.368 159.735L391.064 157.713L393.208 179.601L372.513 181.623L376.08 217.993L348.859 220.648L345.292 184.277L274.984 191.137L272.679 174.565L331.936 57.2847L360.058 54.5371L370.368 159.729V159.735ZM299.166 166.688L343.148 162.396L336.647 96.0493L335.951 95.8942L334.174 100.943L299.166 166.694V166.688Z" fill="#6842EF"/>
<g opacity="0.4">
<path d="M370.368 159.735L391.064 157.713L393.208 179.601L372.513 181.623L376.08 217.993L348.859 220.648L345.292 184.277L274.984 191.137L272.679 174.565L331.936 57.2847L360.058 54.5371L370.368 159.729V159.735ZM299.166 166.688L343.148 162.396L336.647 96.0493L335.951 95.8942L334.174 100.943L299.166 166.694V166.688Z" fill="black"/>
</g>
<path d="M387.677 158.048L408.372 156.026L410.516 177.914L389.821 179.936L393.388 216.306L366.167 218.961L362.6 182.59L292.293 189.45L289.987 172.878L349.245 55.5979L377.366 52.8564L387.677 158.048ZM316.474 165.001L360.456 160.709L353.955 94.3624L353.259 94.2011L351.482 99.2498L316.474 165.001Z" fill="#6842EF"/>
<path d="M290.782 175.985C290.782 175.985 290.577 176.171 290.167 176.451C289.763 176.736 289.166 177.133 288.427 177.617C286.948 178.584 284.878 179.887 282.566 181.276C280.248 182.665 278.129 183.875 276.575 184.724C275.799 185.152 275.171 185.487 274.73 185.711C274.288 185.934 274.04 186.052 274.027 186.033C274.015 186.015 274.245 185.859 274.667 185.605C275.146 185.32 275.749 184.954 276.464 184.532C278.042 183.596 280.112 182.368 282.399 181.003C284.673 179.626 286.737 178.379 288.309 177.431C289.024 177.003 289.62 176.643 290.105 176.351C290.534 176.103 290.776 175.973 290.789 175.992L290.782 175.985Z" fill="#6842EF"/>
<path d="M298.178 156.175C298.178 156.175 297.886 156.41 297.32 156.795C296.755 157.173 295.934 157.713 294.909 158.37C292.858 159.679 289.999 161.447 286.817 163.357C283.629 165.267 280.727 166.954 278.608 168.151C277.545 168.747 276.681 169.224 276.085 169.541C275.482 169.857 275.146 170.025 275.134 170.006C275.121 169.987 275.438 169.783 276.022 169.435C276.65 169.057 277.489 168.561 278.496 167.959C280.627 166.688 283.493 164.976 286.656 163.09C289.813 161.192 292.665 159.468 294.797 158.191C295.804 157.583 296.637 157.087 297.264 156.702C297.849 156.355 298.178 156.169 298.19 156.187L298.178 156.175Z" fill="#6842EF"/>
<path d="M308.072 138.046C308.072 138.046 307.761 138.288 307.171 138.672C306.58 139.057 305.716 139.603 304.641 140.266C302.491 141.587 299.495 143.374 296.171 145.309C292.839 147.238 289.8 148.95 287.582 150.153C286.476 150.754 285.568 151.232 284.94 151.555C284.313 151.877 283.959 152.045 283.946 152.026C283.934 152.007 284.269 151.803 284.878 151.449C285.537 151.071 286.407 150.568 287.464 149.954C289.695 148.67 292.69 146.94 296.003 145.03C299.309 143.107 302.298 141.37 304.523 140.074C305.58 139.46 306.45 138.951 307.102 138.573C307.711 138.22 308.059 138.033 308.066 138.052L308.072 138.046Z" fill="#6842EF"/>
<path d="M359.741 150.041C359.741 150.041 359.53 150.221 359.126 150.494C358.716 150.767 358.119 151.157 357.373 151.629C355.882 152.571 353.806 153.837 351.482 155.189C349.157 156.535 347.02 157.707 345.466 158.532C344.689 158.941 344.055 159.27 343.614 159.487C343.173 159.704 342.924 159.816 342.912 159.797C342.899 159.779 343.129 159.63 343.552 159.375C344.036 159.096 344.639 158.749 345.354 158.333C346.939 157.422 349.021 156.231 351.32 154.91C353.607 153.57 355.677 152.361 357.255 151.436C357.97 151.021 358.573 150.674 359.058 150.388C359.486 150.146 359.729 150.022 359.741 150.041Z" fill="#6842EF"/>
<path d="M362.55 184.061C362.55 184.061 362.351 184.24 361.953 184.513C361.562 184.786 360.984 185.171 360.263 185.636C358.827 186.572 356.814 187.825 354.564 189.165C352.314 190.505 350.245 191.665 348.741 192.483C347.989 192.893 347.374 193.215 346.945 193.432C346.516 193.649 346.274 193.761 346.261 193.736C346.249 193.718 346.473 193.569 346.883 193.321C347.355 193.042 347.939 192.694 348.629 192.285C350.17 191.379 352.178 190.201 354.403 188.892C356.615 187.565 358.61 186.368 360.145 185.45C360.835 185.041 361.419 184.693 361.891 184.414C362.308 184.172 362.544 184.048 362.556 184.067L362.55 184.061Z" fill="#6842EF"/>
<path d="M363.949 195.926C363.949 195.926 363.75 196.106 363.352 196.379C362.96 196.651 362.382 197.036 361.662 197.501C360.226 198.438 358.212 199.691 355.963 201.03C353.713 202.37 351.643 203.53 350.139 204.349C349.387 204.758 348.772 205.08 348.343 205.297C347.914 205.515 347.672 205.626 347.66 205.601C347.647 205.577 347.871 205.434 348.281 205.186C348.753 204.907 349.338 204.559 350.027 204.15C351.569 203.245 353.576 202.066 355.801 200.757C358.013 199.43 360.008 198.233 361.543 197.315C362.233 196.906 362.817 196.558 363.29 196.279C363.706 196.037 363.942 195.913 363.955 195.932L363.949 195.926Z" fill="#6842EF"/>
<path d="M365.347 207.784C365.347 207.784 365.148 207.964 364.75 208.237C364.359 208.51 363.781 208.894 363.06 209.36C361.624 210.296 359.611 211.549 357.361 212.889C355.111 214.228 353.042 215.388 351.538 216.207C350.786 216.616 350.171 216.939 349.742 217.156C349.313 217.373 349.071 217.485 349.058 217.46C349.046 217.441 349.269 217.292 349.68 217.044C350.152 216.765 350.736 216.418 351.426 216.008C352.967 215.103 354.975 213.924 357.199 212.616C359.412 211.288 361.407 210.091 362.942 209.173C363.632 208.764 364.216 208.417 364.688 208.138C365.105 207.896 365.341 207.772 365.353 207.79L365.347 207.784Z" fill="#6842EF"/>
<path d="M358.281 137.506C358.281 137.506 358.069 137.686 357.665 137.959C357.255 138.231 356.659 138.622 355.913 139.094C354.421 140.036 352.346 141.302 350.021 142.654C347.697 144 345.559 145.172 344.005 145.997C343.229 146.406 342.595 146.735 342.153 146.952C341.712 147.169 341.464 147.281 341.451 147.262C341.439 147.243 341.669 147.095 342.091 146.84C342.576 146.561 343.179 146.208 343.894 145.798C345.478 144.887 347.56 143.696 349.86 142.375C352.147 141.035 354.216 139.825 355.795 138.901C356.51 138.486 357.112 138.138 357.597 137.853C358.026 137.611 358.268 137.487 358.281 137.506Z" fill="#6842EF"/>
<path d="M356.827 124.965C356.827 124.965 356.615 125.145 356.211 125.417C355.801 125.69 355.205 126.081 354.459 126.553C352.967 127.495 350.892 128.761 348.567 130.113C346.243 131.459 344.105 132.631 342.551 133.456C341.774 133.865 341.141 134.194 340.699 134.411C340.258 134.628 340.009 134.74 339.997 134.721C339.985 134.702 340.215 134.554 340.637 134.299C341.122 134.02 341.725 133.667 342.439 133.257C344.024 132.345 346.106 131.155 348.406 129.834C350.693 128.494 352.762 127.284 354.341 126.36C355.055 125.945 355.658 125.597 356.143 125.312C356.572 125.07 356.814 124.946 356.827 124.965Z" fill="#6842EF"/>
<path d="M355.366 112.43C355.366 112.43 355.167 112.604 354.782 112.864C354.39 113.125 353.825 113.497 353.116 113.95C351.699 114.849 349.723 116.059 347.511 117.343C345.292 118.626 343.26 119.737 341.774 120.518C341.035 120.909 340.426 121.219 340.003 121.424C339.581 121.628 339.344 121.734 339.332 121.715C339.32 121.697 339.537 121.554 339.941 121.312C340.407 121.045 340.979 120.71 341.663 120.313C343.179 119.445 345.161 118.31 347.349 117.057C349.524 115.786 351.488 114.632 352.998 113.745C353.676 113.354 354.254 113.02 354.72 112.747C355.13 112.517 355.36 112.399 355.372 112.418L355.366 112.43Z" fill="#6842EF"/>
<path d="M355.117 100.558C355.161 100.639 353.862 101.421 352.221 102.307C350.581 103.194 349.214 103.852 349.17 103.771C349.127 103.691 350.425 102.909 352.066 102.022C353.707 101.135 355.074 100.478 355.117 100.558Z" fill="#6842EF"/>
<path d="M317.854 119.314C317.854 119.314 317.543 119.556 316.952 119.941C316.362 120.325 315.498 120.871 314.423 121.535C312.273 122.856 309.277 124.642 305.952 126.577C302.621 128.506 299.582 130.218 297.364 131.421C296.257 132.023 295.35 132.501 294.722 132.823C294.095 133.146 293.74 133.313 293.728 133.294C293.715 133.276 294.051 133.071 294.66 132.718C295.319 132.339 296.189 131.837 297.245 131.223C299.477 129.939 302.472 128.209 305.784 126.298C309.091 124.376 312.08 122.639 314.305 121.343C315.361 120.729 316.232 120.22 316.884 119.842C317.493 119.488 317.841 119.302 317.847 119.321L317.854 119.314Z" fill="#6842EF"/>
<path d="M327.642 100.583C327.642 100.583 327.331 100.825 326.741 101.209C326.151 101.594 325.287 102.14 324.212 102.803C322.061 104.125 319.066 105.911 315.741 107.846C312.41 109.775 309.371 111.487 307.152 112.69C306.046 113.292 305.139 113.769 304.511 114.092C303.883 114.414 303.529 114.582 303.516 114.563C303.504 114.544 303.84 114.34 304.449 113.986C305.107 113.608 305.977 113.105 307.034 112.491C309.265 111.208 312.261 109.477 315.573 107.567C318.879 105.644 321.869 103.907 324.093 102.611C325.15 101.997 326.02 101.489 326.673 101.11C327.282 100.757 327.63 100.571 327.636 100.589L327.642 100.583Z" fill="#6842EF"/>
<path d="M336.504 81.9824C336.504 81.9824 336.194 82.2243 335.603 82.6089C335.013 82.9934 334.149 83.5392 333.074 84.2029C330.924 85.5239 327.928 87.3102 324.603 89.2453C321.272 91.1743 318.233 92.8861 316.014 94.0894C314.908 94.691 314.001 95.1686 313.373 95.4911C312.745 95.8136 312.391 95.9811 312.379 95.9625C312.366 95.9439 312.702 95.7392 313.311 95.3856C313.97 95.0073 314.84 94.5049 315.896 93.8909C318.127 92.607 321.123 90.8766 324.435 88.9662C327.742 87.0435 330.731 85.3069 332.956 84.0106C334.012 83.3966 334.882 82.888 335.535 82.5096C336.144 82.1561 336.492 81.97 336.498 81.9886L336.504 81.9824Z" fill="#6842EF"/>
<path d="M345.914 63.9707C345.914 63.9707 345.603 64.2126 345.012 64.5971C344.422 64.9817 343.558 65.5275 342.483 66.1911C340.333 67.5122 337.337 69.2985 334.012 71.2336C330.681 73.1625 327.642 74.8744 325.424 76.0776C324.317 76.6793 323.41 77.1568 322.782 77.4794C322.155 77.8019 321.8 77.9693 321.788 77.9507C321.776 77.9321 322.111 77.7275 322.72 77.3739C323.379 76.9956 324.249 76.4932 325.305 75.8792C327.537 74.5953 330.532 72.8648 333.845 70.9545C337.151 69.0318 340.14 67.2952 342.365 65.9989C343.421 65.3848 344.292 64.8762 344.944 64.4979C345.553 64.1444 345.901 63.9583 345.907 63.9769L345.914 63.9707Z" fill="#6842EF"/>
<path d="M380.617 84.5383C380.617 84.5383 380.524 84.6995 380.312 84.991C380.107 85.2826 379.803 85.7167 379.349 86.2253C378.473 87.2549 377.056 88.6628 375.005 89.9839C372.96 91.2988 370.244 92.4959 367.05 93.0169C365.453 93.2774 363.744 93.3394 361.997 93.1657C360.245 93.0045 358.467 92.5579 356.702 92.0059C353.166 90.8646 349.953 89.3823 346.889 88.4706C343.844 87.5216 340.929 87.2549 338.53 87.5154C336.125 87.7697 334.298 88.576 333.18 89.3203C332.626 89.6986 332.21 90.0211 331.955 90.2692C331.694 90.5049 331.545 90.629 331.539 90.6228C331.533 90.6166 331.657 90.4801 331.912 90.2258C332.154 89.9591 332.558 89.618 333.111 89.2148C334.224 88.4333 336.069 87.5712 338.506 87.2859C340.929 86.9944 343.888 87.2425 346.976 88.1852C350.071 89.0908 353.29 90.5669 356.802 91.6958C358.561 92.2478 360.307 92.6881 362.035 92.8494C363.756 93.0293 365.44 92.9672 367.013 92.7253C370.164 92.223 372.848 91.0693 374.887 89.7916C376.931 88.5078 378.355 87.1433 379.262 86.1447C379.728 85.6547 380.045 85.2329 380.262 84.9538C380.486 84.6747 380.611 84.5321 380.617 84.5383Z" fill="white"/>
<path d="M367.727 55.3871C367.727 55.3871 367.485 55.6042 367.012 55.9516C366.54 56.3051 365.832 56.7703 364.93 57.3099C364.029 57.8557 362.923 58.4387 361.661 59.0279C360.394 59.5985 358.971 60.1629 357.435 60.6467C355.9 61.1181 354.409 61.4654 353.035 61.7135C351.662 61.9492 350.419 62.0981 349.369 62.1601C348.318 62.2283 347.467 62.2469 346.883 62.2221C346.292 62.2097 345.969 62.1911 345.969 62.1663C345.969 62.1415 346.292 62.1229 346.877 62.0981C347.461 62.0795 348.306 62.0298 349.35 61.9306C350.394 61.8376 351.625 61.6701 352.979 61.422C354.334 61.1553 355.813 60.808 357.336 60.3366C358.852 59.859 360.269 59.307 361.537 58.755C362.793 58.1906 363.905 57.6262 364.812 57.1114C365.72 56.6028 366.447 56.1624 366.938 55.8461C367.435 55.536 367.715 55.3685 367.727 55.3871Z" fill="white"/>
<path d="M333.751 129.778C333.751 129.778 333.509 129.598 333.111 129.238C332.664 128.835 332.092 128.327 331.408 127.719C329.96 126.453 327.903 124.754 325.492 123.073C324.286 122.236 323.081 121.529 321.912 121.051C320.744 120.574 319.619 120.344 318.668 120.295C316.742 120.195 315.629 120.778 315.617 120.704C315.617 120.691 315.679 120.654 315.809 120.592C315.94 120.53 316.133 120.45 316.394 120.369C316.909 120.201 317.699 120.04 318.681 120.065C319.656 120.084 320.825 120.295 322.03 120.772C323.236 121.243 324.473 121.957 325.685 122.8C328.115 124.487 330.153 126.224 331.57 127.539C332.278 128.196 332.832 128.748 333.204 129.139C333.577 129.53 333.776 129.759 333.758 129.772L333.751 129.778Z" fill="white"/>
<path d="M385.471 141.377C385.471 141.377 385.402 141.457 385.259 141.594C385.11 141.724 384.899 141.935 384.594 142.164C384.004 142.648 383.103 143.287 381.903 143.944C379.535 145.259 375.807 146.493 371.605 146.245C367.404 145.991 363.856 144.304 361.662 142.716C360.549 141.922 359.735 141.178 359.207 140.626C358.934 140.359 358.753 140.124 358.617 139.981C358.486 139.826 358.424 139.745 358.43 139.739C358.449 139.72 358.741 140.024 359.294 140.539C359.841 141.06 360.674 141.773 361.792 142.53C363.992 144.056 367.497 145.675 371.624 145.923C375.751 146.171 379.424 144.992 381.798 143.746C382.997 143.126 383.911 142.518 384.52 142.071C385.129 141.625 385.458 141.358 385.471 141.383V141.377Z" fill="white"/>
<path d="M408.937 177.716C408.937 177.716 408.856 177.629 408.72 177.455C408.577 177.269 408.372 177.009 408.111 176.674C407.607 175.967 406.737 175.018 405.563 173.858C405.252 173.585 404.929 173.293 404.587 172.99C404.413 172.841 404.239 172.679 404.059 172.524C403.866 172.382 403.667 172.239 403.468 172.084C403.064 171.786 402.642 171.476 402.207 171.154C401.74 170.868 401.262 170.571 400.759 170.267C398.739 169.088 396.29 167.966 393.431 167.215C390.579 166.471 387.322 166.08 383.867 166.384C380.411 166.669 376.788 167.724 373.389 169.622C369.989 171.544 366.82 174.174 363.433 176.754C361.736 178.044 359.971 179.322 358.063 180.432C356.155 181.543 354.086 182.479 351.873 183.031C349.667 183.608 347.386 183.72 345.18 183.571C342.968 183.422 340.823 182.95 338.773 182.355C334.658 181.146 330.948 179.31 327.468 177.517C323.988 175.725 320.7 173.982 317.481 172.673C314.268 171.365 311.129 170.459 308.196 170.18C305.256 169.907 302.565 170.174 300.303 170.775C298.029 171.352 296.201 172.282 294.853 173.219C293.479 174.143 292.647 175.136 292.062 175.774C291.808 176.115 291.609 176.376 291.472 176.568C291.335 176.748 291.261 176.835 291.261 176.835C291.261 176.835 291.317 176.736 291.447 176.55C291.584 176.357 291.77 176.084 292.019 175.737C292.591 175.086 293.417 174.069 294.791 173.12C296.139 172.152 297.979 171.197 300.266 170.602C302.547 169.981 305.263 169.696 308.227 169.957C311.198 170.223 314.361 171.123 317.593 172.425C320.831 173.728 324.137 175.464 327.617 177.251C331.097 179.031 334.795 180.854 338.872 182.051C340.904 182.64 343.03 183.105 345.211 183.254C347.386 183.397 349.63 183.285 351.805 182.721C353.98 182.181 356.018 181.257 357.914 180.159C359.809 179.062 361.562 177.796 363.259 176.506C366.64 173.932 369.828 171.302 373.258 169.361C374.122 168.896 374.98 168.437 375.875 168.09C376.316 167.91 376.751 167.705 377.192 167.544C377.646 167.401 378.093 167.265 378.535 167.122C380.318 166.564 382.114 166.291 383.854 166.117C387.347 165.82 390.628 166.235 393.5 166.998C396.377 167.773 398.832 168.915 400.858 170.112C401.355 170.422 401.84 170.726 402.306 171.017C402.741 171.346 403.164 171.662 403.568 171.966C403.766 172.115 403.965 172.264 404.158 172.413C404.338 172.574 404.512 172.735 404.68 172.884C405.022 173.194 405.345 173.486 405.656 173.765C406.824 174.943 407.676 175.911 408.167 176.63C408.415 176.971 408.614 177.238 408.751 177.43C408.881 177.61 408.943 177.709 408.943 177.709L408.937 177.716Z" fill="white"/>
<path d="M393.985 205.998C393.985 205.998 393.885 206.054 393.686 206.122C393.45 206.202 393.158 206.302 392.804 206.426C392.419 206.562 391.946 206.711 391.387 206.841C390.828 206.978 390.194 207.164 389.479 207.282C389.119 207.35 388.746 207.418 388.36 207.493C387.969 207.561 387.559 207.598 387.136 207.654C386.291 207.778 385.377 207.821 384.42 207.883C382.5 207.945 380.381 207.871 378.181 207.567C375.981 207.238 373.93 206.717 372.103 206.122C371.201 205.793 370.331 205.502 369.554 205.142C369.163 204.968 368.778 204.819 368.423 204.64C368.069 204.46 367.734 204.286 367.404 204.125C366.745 203.815 366.192 203.455 365.695 203.17C365.192 202.884 364.782 202.611 364.452 202.376C364.148 202.159 363.893 201.985 363.688 201.836C363.514 201.712 363.427 201.638 363.433 201.631C363.439 201.625 363.539 201.675 363.725 201.78C363.936 201.91 364.197 202.072 364.521 202.264C364.862 202.481 365.279 202.742 365.788 203.008C366.292 203.281 366.851 203.622 367.51 203.92C367.833 204.075 368.175 204.243 368.529 204.41C368.883 204.577 369.269 204.72 369.66 204.888C370.437 205.235 371.295 205.514 372.196 205.83C374.01 206.407 376.049 206.916 378.23 207.238C380.412 207.536 382.506 207.623 384.414 207.579C385.365 207.53 386.272 207.499 387.111 207.381C387.534 207.331 387.944 207.3 388.329 207.238C388.715 207.176 389.087 207.108 389.448 207.052C390.163 206.953 390.796 206.779 391.356 206.661C391.921 206.55 392.394 206.413 392.785 206.302C393.146 206.202 393.444 206.122 393.686 206.06C393.891 206.01 394.003 205.985 394.01 205.998H393.985Z" fill="white"/>
<path d="M363.899 246.933C364.961 244.626 367.205 242.901 369.71 242.467C372.214 242.033 374.911 242.908 376.689 244.725C375.477 246.877 373.302 248.31 370.965 249.11C368.212 250.059 365.223 248.949 363.893 246.933" fill="#24CBC7"/>
<path d="M359.486 247.95C359.474 247.913 360.151 247.665 361.27 247.392C362.395 247.119 363.955 246.809 365.695 246.524C367.429 246.239 369.013 246.022 370.157 245.891C371.3 245.755 372.015 245.705 372.021 245.749C372.021 245.792 371.325 245.929 370.188 246.121C368.951 246.325 367.429 246.574 365.744 246.846C364.011 247.132 362.444 247.405 361.313 247.616C360.182 247.826 359.492 247.994 359.48 247.95H359.486Z" fill="#263238"/>
<path d="M141.765 207.666C144.4 209.831 145.848 213.36 145.481 216.752C145.115 220.145 142.952 223.283 139.913 224.84C137.632 219.004 136.756 212.727 141.765 207.672" fill="#24CBC7"/>
<path d="M150.41 212.144C150.652 216.547 153.231 220.759 157.053 222.973C160.875 225.187 165.816 225.348 169.769 223.376C165.425 216.529 159.533 210.798 150.41 212.144Z" fill="#24CBC7"/>
<path d="M130.603 190.572C130.603 190.572 130.709 190.672 130.889 190.882C131.088 191.118 131.343 191.428 131.666 191.807C132.331 192.619 133.288 193.791 134.506 195.212C136.93 198.065 140.354 201.947 144.387 205.997C146.407 208.019 148.39 209.886 150.235 211.536C152.094 213.174 153.815 214.594 155.3 215.723C156.804 216.833 158.047 217.701 158.961 218.21C159.862 218.743 160.397 218.96 160.384 218.998C160.384 219.01 160.247 218.954 159.993 218.849C159.738 218.737 159.359 218.588 158.905 218.321C157.967 217.844 156.699 217 155.17 215.909C153.654 214.799 151.92 213.391 150.043 211.759C148.185 210.116 146.19 208.249 144.164 206.227C140.124 202.171 136.718 198.257 134.338 195.36C133.145 193.915 132.206 192.724 131.573 191.887C131.274 191.49 131.032 191.174 130.845 190.926C130.684 190.703 130.603 190.585 130.609 190.578L130.603 190.572Z" fill="#263238"/>
<path d="M141.286 216.492C141.23 216.48 141.441 215.617 141.615 214.21C141.796 212.802 141.895 210.835 141.678 208.683C141.448 206.531 140.944 204.627 140.478 203.287C140.012 201.948 139.633 201.147 139.683 201.123C139.701 201.11 139.813 201.303 140 201.662C140.192 202.016 140.428 202.543 140.689 203.213C141.218 204.546 141.765 206.469 142.001 208.652C142.224 210.835 142.082 212.833 141.845 214.247C141.727 214.954 141.603 215.524 141.491 215.909C141.385 216.294 141.311 216.504 141.292 216.498L141.286 216.492Z" fill="#263238"/>
<path d="M415.55 90.9694C414.015 88.9413 413.561 86.1502 414.369 83.7437C415.177 81.3372 417.221 79.3773 419.67 78.6826C420.994 80.7666 421.224 83.353 420.826 85.7905C420.354 88.6622 417.961 90.7585 415.556 90.9694" fill="#24CBC7"/>
<path d="M414.356 95.3358C414.319 95.3296 414.418 94.6163 414.717 93.4999C415.009 92.3835 415.481 90.8639 416.053 89.2017C416.625 87.5395 417.184 86.0509 417.606 84.9841C418.029 83.9111 418.321 83.2661 418.365 83.2785C418.408 83.2971 418.191 83.9731 417.824 85.0648C417.414 86.2494 416.917 87.7008 416.357 89.3134C415.786 90.9694 415.282 92.4765 414.934 93.5682C414.586 94.6598 414.406 95.3482 414.356 95.3358Z" fill="#263238"/>
<path d="M388.161 137.115C386.881 132.376 388.08 127.036 391.275 123.302C394.469 119.568 399.559 117.534 404.45 118.049C405.314 122.738 403.853 127.551 401.374 131.632C398.447 136.438 392.63 138.473 388.161 137.121" fill="#24CBC7"/>
<path d="M369.803 155.473C369.803 155.473 369.884 155.349 370.064 155.138C370.269 154.903 370.536 154.605 370.865 154.226C371.58 153.445 372.618 152.329 373.923 150.964C376.527 148.235 380.169 144.507 384.221 140.414C388.273 136.32 391.965 132.642 394.649 129.988C395.979 128.685 397.061 127.625 397.844 126.862C398.204 126.514 398.496 126.235 398.726 126.024C398.931 125.838 399.043 125.739 399.049 125.745C399.056 125.752 398.962 125.863 398.776 126.068C398.565 126.291 398.285 126.583 397.937 126.949C397.173 127.73 396.116 128.816 394.817 130.149C392.145 132.859 388.491 136.556 384.457 140.643C380.424 144.724 376.769 148.421 374.091 151.125C372.792 152.453 371.729 153.532 370.959 154.313C370.611 154.673 370.325 154.958 370.113 155.182C369.915 155.38 369.809 155.479 369.803 155.473Z" fill="#263238"/>
<g opacity="0.3">
<path d="M388.161 137.115C386.881 132.376 388.08 127.036 391.275 123.302C394.469 119.568 399.559 117.534 404.45 118.049C405.314 122.738 403.853 127.551 401.374 131.632C398.447 136.438 392.63 138.473 388.161 137.121" fill="black"/>
</g>
<path d="M379.672 138.957C376.987 137.58 375.054 134.826 374.675 131.837C374.296 128.847 375.471 125.703 377.727 123.699C380.219 125.244 381.804 127.898 382.636 130.702C383.612 134.014 382.139 137.487 379.672 138.957Z" fill="#24CBC7"/>
<g opacity="0.3">
<path d="M379.672 138.957C376.987 137.58 375.054 134.826 374.675 131.837C374.296 128.847 375.471 125.703 377.727 123.699C380.219 125.244 381.804 127.898 382.636 130.702C383.612 134.014 382.139 137.487 379.672 138.957Z" fill="black"/>
</g>
<path d="M380.641 144.242C380.641 144.242 380.554 144.043 380.449 143.677C380.343 143.305 380.225 142.765 380.095 142.096C379.834 140.75 379.56 138.883 379.312 136.811C379.063 134.74 378.889 132.86 378.79 131.502C378.684 130.137 378.653 129.294 378.696 129.294C378.74 129.294 378.852 130.125 379.013 131.483C379.181 132.929 379.392 134.758 379.628 136.78C379.877 138.846 380.113 140.712 380.318 142.065C380.517 143.41 380.685 144.235 380.635 144.248L380.641 144.242Z" fill="#263238"/>
<path d="M263.301 210.848C265.196 206.389 269.435 203.002 274.208 202.134C278.98 201.265 284.145 202.946 287.488 206.451C280.441 211.902 272.219 215.624 263.294 210.848" fill="#24CBC7"/>
<g opacity="0.3">
<path d="M263.301 210.848C265.196 206.389 269.435 203.002 274.208 202.134C278.98 201.265 284.145 202.946 287.488 206.451C280.441 211.902 272.219 215.624 263.294 210.848" fill="black"/>
</g>
<path d="M259.317 213.025C259.317 213.025 259.503 212.852 259.876 212.591C260.249 212.324 260.802 211.971 261.504 211.561C262.909 210.737 264.947 209.744 267.315 208.963C269.683 208.187 271.914 207.778 273.536 207.604C274.344 207.518 275.003 207.474 275.463 207.468C275.916 207.455 276.171 207.468 276.171 207.486C276.171 207.542 275.171 207.604 273.567 207.834C271.964 208.063 269.77 208.504 267.421 209.273C265.078 210.048 263.046 210.997 261.623 211.766C260.193 212.529 259.354 213.075 259.323 213.031L259.317 213.025Z" fill="#263238"/>
<path d="M99.4736 130.025C102.867 128.444 107.056 128.686 110.244 130.652C113.432 132.618 115.526 136.24 115.632 139.98C108.765 139.478 102.121 137.369 99.4799 130.025" fill="#24CBC7"/>
<g opacity="0.3">
<path d="M99.4736 130.025C102.867 128.444 107.056 128.686 110.244 130.652C113.432 132.618 115.526 136.24 115.632 139.98C108.765 139.478 102.121 137.369 99.4799 130.025" fill="black"/>
</g>
<path d="M96.0616 129.225C96.0616 129.225 96.2604 129.213 96.6085 129.25C96.9565 129.281 97.4661 129.361 98.0814 129.485C99.3181 129.734 101.002 130.205 102.767 130.98C104.532 131.755 106.024 132.673 107.037 133.418C107.546 133.79 107.944 134.106 108.205 134.342C108.472 134.578 108.609 134.708 108.597 134.726C108.566 134.77 107.95 134.292 106.906 133.604C105.862 132.915 104.377 132.041 102.637 131.272C100.897 130.509 99.2435 130.006 98.0316 129.703C96.8198 129.399 96.0553 129.268 96.0616 129.219V129.225Z" fill="#263238"/>
<path d="M322.167 203.244C321.763 199.925 323.136 196.44 325.697 194.281C328.257 192.123 331.93 191.354 335.143 192.303C332.8 197.99 329.159 203.045 322.167 203.244Z" fill="#24CBC7"/>
<path d="M320.532 205.917C320.501 205.898 320.756 205.253 321.309 204.267C321.862 203.287 322.732 201.985 323.888 200.701C325.044 199.417 326.244 198.412 327.157 197.755C328.077 197.097 328.692 196.775 328.711 196.806C328.736 196.849 328.164 197.24 327.294 197.935C326.418 198.629 325.262 199.646 324.124 200.912C322.987 202.177 322.098 203.436 321.502 204.379C320.905 205.322 320.576 205.929 320.532 205.911V205.917Z" fill="#263238"/>
<path d="M371.07 171.029C370.051 167.841 370.741 164.163 372.848 161.564C374.955 158.965 378.416 157.52 381.754 157.849C380.523 163.871 377.9 169.522 371.07 171.029Z" fill="#6842EF"/>
<g opacity="0.3">
<path d="M371.07 171.029C370.051 167.841 370.741 164.163 372.848 161.564C374.955 158.965 378.416 157.52 381.754 157.849C380.523 163.871 377.9 169.522 371.07 171.029Z" fill="black"/>
</g>
<path d="M369.97 173.957C369.933 173.944 370.064 173.262 370.424 172.195C370.778 171.129 371.394 169.683 372.282 168.207C373.171 166.731 374.165 165.515 374.942 164.703C375.719 163.884 376.266 163.45 376.291 163.481C376.328 163.518 375.837 164.008 375.11 164.858C374.383 165.701 373.438 166.923 372.556 168.381C371.68 169.838 371.046 171.24 370.635 172.276C370.225 173.312 370.02 173.975 369.97 173.963V173.957Z" fill="#263238"/>
<path d="M2.43018 126.67C3.1573 123.401 5.61213 120.573 8.74437 119.389C11.8766 118.204 15.5992 118.694 18.3089 120.66C14.2071 125.244 9.08618 128.804 2.43018 126.67Z" fill="#24CBC7"/>
<path d="M0.000222481 128.649C0.000222481 128.649 0.429041 128.097 1.28046 127.352C2.12567 126.608 3.38726 125.671 4.89745 124.847C6.41385 124.022 7.88053 123.47 8.9619 123.153C10.0433 122.837 10.7393 122.738 10.7455 122.775C10.758 122.825 10.0868 123.004 9.03026 123.37C7.97375 123.736 6.54436 124.313 5.0466 125.126C3.55506 125.944 2.29347 126.838 1.41719 127.526C0.540906 128.214 0.0250815 128.686 -0.012207 128.649H0.000222481Z" fill="#263238"/>
<path d="M286.5 45.7298L291.497 36.7427C289.216 33.1205 287.874 28.8471 287.83 24.2574C287.706 11.0588 298.321 0.254374 311.552 0.124125C324.777 7.87495e-05 335.603 10.5936 335.734 23.7984C335.858 36.9969 325.243 47.8014 312.012 47.9316C306.487 47.9875 301.391 46.164 297.308 43.069V43.0814L286.507 45.7298H286.5Z" fill="white"/>
<path d="M286.5 45.7295C287.06 45.5868 290.441 44.7309 297.289 43.0005L297.246 43.1307V43.1183L296.86 42.6345L297.351 43.0005C298.725 44.0301 300.365 45.0348 302.286 45.8659C304.206 46.6847 306.406 47.3421 308.824 47.6336C310.029 47.7701 311.291 47.8507 312.584 47.7763C313.23 47.7328 313.889 47.708 314.548 47.646C315.206 47.5406 315.871 47.4289 316.549 47.3173C319.227 46.7529 321.956 45.7047 324.497 44.0921C327.033 42.4857 329.376 40.3149 331.247 37.6603C333.111 35.0119 334.509 31.8797 335.149 28.4932C335.777 25.1068 335.684 21.4846 334.758 17.9927C333.826 14.5132 332.123 11.1143 329.593 8.33568L328.618 7.28129C328.295 6.92776 327.916 6.63625 327.567 6.31373C327.207 6.00981 326.878 5.66248 326.486 5.38958L325.343 4.55227C324.97 4.26076 324.566 4.02507 324.162 3.78938L322.956 3.07611C322.534 2.87764 322.111 2.67916 321.695 2.48069C321.272 2.28842 320.862 2.06513 320.421 1.92868C316.971 0.601386 313.305 0.111402 309.799 0.396709C306.294 0.675814 302.951 1.7116 300.086 3.34902C297.208 4.97402 294.791 7.13864 292.926 9.54514C291.056 11.9516 289.744 14.6062 288.937 17.2484C288.135 19.8968 287.93 22.5266 287.955 24.9579C288.122 29.8577 289.782 33.8769 291.559 36.7113L291.584 36.7485L291.559 36.7857C288.334 42.4857 286.768 45.2519 286.494 45.7357C286.755 45.2519 288.284 42.4609 291.422 36.7113V36.7919C289.62 33.9513 287.917 29.9074 287.731 24.9641C287.7 22.508 287.892 19.8534 288.694 17.174C289.502 14.507 290.82 11.8214 292.703 9.37767C294.58 6.93396 297.028 4.74454 299.937 3.09472C302.833 1.42629 306.226 0.378102 309.768 0.0927954C313.317 -0.198714 317.033 0.29127 320.532 1.63717C320.98 1.77363 321.396 2.00311 321.825 2.19538C322.248 2.39386 322.676 2.59853 323.105 2.80321L324.33 3.52888C324.74 3.77077 325.15 4.00646 325.529 4.30417L326.685 5.15389C327.083 5.42679 327.412 5.78033 327.779 6.09044C328.133 6.41917 328.518 6.71067 328.841 7.07041L329.83 8.13721C332.396 10.9593 334.124 14.3954 335.062 17.9307C335.995 21.4722 336.088 25.144 335.448 28.5739C334.801 32.01 333.378 35.1793 331.483 37.8525C329.587 40.5382 327.213 42.7276 324.64 44.3464C322.067 45.9714 319.302 47.0258 316.592 47.5902C315.909 47.7018 315.237 47.8073 314.572 47.9127C313.901 47.9747 313.236 47.9995 312.584 48.043C311.279 48.1174 310.005 48.0306 308.786 47.8879C306.344 47.5902 304.132 46.9141 302.199 46.0768C300.266 45.2271 298.619 44.2037 297.246 43.1555L297.358 43.0439V43.0563L297.445 43.1555L297.326 43.1865C290.453 44.8178 287.053 45.6241 286.494 45.7605L286.5 45.7295Z" fill="#263238"/>
<path d="M305.139 19.9341L308.252 19.903C308.252 19.903 308.227 17.2919 310.943 17.2174C312.354 17.1802 313.093 18.0982 313.398 18.799C313.752 19.6177 313.653 20.5543 313.199 21.3172C312.677 22.1917 311.527 22.9918 309.427 22.6445L309.495 29.6593L312.578 29.6283L312.54 25.5223C312.54 25.5223 316.853 24.3687 316.804 19.6115C316.76 15.0652 312.665 14.048 310.912 14.0667C309.576 14.0791 305.021 14.445 305.132 19.9341H305.139Z" fill="#FFD600"/>
<path d="M312.632 31.0785L309.506 31.1084L309.534 34.0234L312.66 33.9934L312.632 31.0785Z" fill="#FFD600"/>
</g>
<defs>
<clipPath id="clip0_11295_11553">
<rect width="421" height="261" fill="white"/>
</clipPath>
</defs>
</svg>
