<svg width="18" height="18" viewBox="0 0 18 18" fill="none" xmlns="http://www.w3.org/2000/svg">
<g id="Group">
<path id="Vector" d="M0.175781 9.88604C0.175781 9.79463 0.175781 9.70322 0.175781 9.61182C0.249609 9.43252 0.372656 9.29893 0.548438 9.20752C3.5543 7.64307 6.56016 6.07158 9.56602 4.50361C12.0938 3.18174 14.618 1.85986 17.1422 0.541504C17.2336 0.541504 17.325 0.541504 17.4164 0.541504C17.7961 0.752441 17.8629 0.88252 17.7996 1.31846C17.7293 1.8001 17.659 2.28525 17.5887 2.76689C17.3637 4.27158 17.1422 5.77627 16.9172 7.28096C16.6922 8.79268 16.4672 10.3009 16.2422 11.8126C16.0945 12.7935 15.9469 13.7778 15.8027 14.7587C15.7781 14.9274 15.7043 15.0646 15.5637 15.1595C15.3668 15.2931 15.1629 15.2579 14.9555 15.1876C13.0078 14.5196 11.0602 13.8552 9.1125 13.1872C8.53945 12.9903 7.96641 12.7935 7.36875 12.5896C9.84727 9.60479 12.3082 6.6376 14.7727 3.66689C14.7129 3.66338 14.6813 3.68447 14.6496 3.70908C11.5313 6.37393 8.41289 9.04229 5.29805 11.7106C5.19609 11.7985 5.11172 11.8267 4.97813 11.7774C3.56484 11.2888 2.14805 10.8001 0.727734 10.3255C0.485156 10.2411 0.284766 10.1286 0.175781 9.88604Z" fill="#ADAAAA"/>
<path id="Vector_2" d="M6.61602 13.4966C7.625 13.8411 8.60586 14.1751 9.59727 14.5161C9.56563 14.5653 9.54453 14.604 9.51641 14.6392C8.89414 15.4864 8.27891 16.3337 7.64609 17.1739C7.5582 17.2935 7.40703 17.3954 7.26641 17.4376C6.95703 17.529 6.64766 17.2864 6.62305 16.9665C6.60898 16.8013 6.61602 16.6325 6.61602 16.4673C6.61602 15.5497 6.61602 14.6321 6.61602 13.711C6.61602 13.6513 6.61602 13.588 6.61602 13.4966Z" fill="#ADAAAA"/>
</g>
</svg>
