<svg width="2155" height="670" viewBox="0 0 2155 670" fill="none" xmlns="http://www.w3.org/2000/svg">
<g clip-path="url(#clip0_12615_15466)">
<path d="M1911.4 157.652C1810.05 56.5459 1593.52 102.992 1418.25 285.235H1513.86C1663.74 156.644 1835.49 114.125 1919.04 197.433C1943.97 222.283 1957.96 255.425 1961.99 293.63C1961.73 238.97 1945.44 191.569 1911.42 157.626L1911.4 157.652Z" fill="#6842EF"/>
<path d="M1976.9 117.509C2027.52 168.01 2042.78 245.377 2027.13 333.076L2103.81 235.87L2124.24 399.593C2172.9 263.691 2165.33 138.433 2090.79 64.063C1958.87 -67.5243 1667.15 10.1003 1439.25 237.446C1433.8 242.871 1428.48 248.373 1423.18 253.849C1619.86 66.982 1864.6 5.47641 1976.9 117.483V117.509Z" fill="#24CBC7"/>
<path d="M597.565 420.18C520.032 420.18 469.023 469.468 469.023 547.041C469.023 624.613 523.002 670 593.149 670C657.407 670 719.728 629.987 719.728 542.649C719.728 470.423 670.656 420.18 597.565 420.18ZM595.112 473.368C628.971 473.368 642.685 509.481 642.685 544.612C642.685 588.036 624.529 616.838 595.112 616.838C563.215 616.838 546.04 586.098 546.04 545.129C546.04 509.998 559.78 473.394 595.112 473.394V473.368Z" fill="#202730"/>
<path d="M770.84 664.627H845.403V543.631C845.403 537.767 845.894 531.929 846.876 527.047C851.783 504.108 870.43 489.487 897.91 489.487C906.253 489.487 912.141 490.469 918.03 491.425V421.653C912.632 420.671 909.197 420.18 902.327 420.18C878.772 420.18 849.82 434.827 837.552 469.958H835.589L832.645 426.044H768.852C770.324 446.529 770.814 469.468 770.814 504.599V664.627H770.84Z" fill="#202730"/>
<path d="M1035.26 318.222H960.67V664.653H1035.26V589.999L1053.91 566.569L1112.3 664.653H1204.04L1105.9 522.681L1191.77 426.07H1101.97L1053.39 497.779C1047.5 506.562 1041.61 516.326 1036.22 526.556H1035.23V318.222H1035.26Z" fill="#202730"/>
<path d="M0 317.886L91.6609 668.76H183.322L214.728 559.027C222.424 530.327 228.829 500.982 234.589 462.054H235.88C242.285 500.982 248.071 529.036 256.387 559.672L285.882 668.786H376.897L473.052 317.912H377.543L351.251 480.575C343.554 516.301 337.149 552.026 332.655 587.132H331.364C325.604 551.406 317.262 516.946 308.274 481.221L276.868 317.912H199.929L166.612 485.69C159.561 516.327 149.953 551.406 144.168 587.132H142.257C137.117 551.406 130.712 516.947 124.952 485.044L99.3058 317.912H0V317.886Z" fill="#202730"/>
<path d="M1355.67 665.583C1295.24 665.583 1248.15 624.872 1228.14 555.488L1281.5 535.132C1302.29 597.439 1341.52 602.424 1365.85 599.505C1398.8 595.759 1404.31 572.098 1405.08 562.126C1407.04 539.679 1402.32 498.993 1321.5 489.436L1365.85 398.017H1264.24V332.792H1467.09L1408.64 453.271C1423.55 462.829 1436.51 475.28 1446.3 489.823C1462 513.072 1469.05 540.944 1466.7 567.939C1464.74 592.453 1454.93 614.875 1439.25 631.924C1418.07 654.372 1389.43 665.557 1355.67 665.557V665.583Z" fill="#828282"/>
<path d="M1721.36 567.448C1715.24 626.009 1669.91 665.583 1610.72 665.583C1591.94 665.583 1572.75 661.476 1556.01 652.796C1453.53 600.823 1507.85 438.366 1574.79 332.792H1645.01C1626.24 362.059 1608.68 400.006 1594.78 436.713L1592.74 442.499C1596.41 442.086 1600.1 441.673 1603.36 441.673C1623.76 440.846 1643.36 444.152 1658.08 450.326C1701.76 469.7 1727.07 516.714 1721.36 567.448ZM1612.34 506.407C1582.13 506.407 1565.39 521.26 1565.39 555.048C1565.39 583.076 1583.75 600.822 1611.93 600.822C1640.11 600.822 1657.26 585.143 1657.67 554.635C1658.5 525.781 1641.76 506.381 1612.34 506.381V506.407Z" fill="#828282"/>
<path d="M2008.97 434.026V548.513C2008.97 613.273 1955.9 665.583 1890.19 665.583H1872.79C1807.08 665.583 1754.01 613.273 1754.01 548.513V434.026C1754.01 369.266 1807.08 316.957 1872.79 316.957H1890.19C1955.9 316.957 2008.97 369.266 2008.97 434.026ZM1872.79 384.274C1845.38 384.274 1822.76 406.593 1822.76 434.026V548.513C1822.76 575.946 1845.38 597.826 1872.79 597.826H1890.19C1918.03 597.826 1940.66 575.946 1940.66 548.513V434.026C1940.66 406.593 1918.03 384.274 1890.19 384.274H1872.79Z" fill="#828282"/>
</g>
<defs>
<clipPath id="clip0_12615_15466">
<rect width="2155" height="670" fill="white"/>
</clipPath>
</defs>
</svg>
