<svg width="20" height="20" viewBox="0 0 20 20" fill="none" xmlns="http://www.w3.org/2000/svg">
<g id="Iconly/Two-tone/Chat">
<g id="Chat">
<path id="Stroke 4" fill-rule="evenodd" clip-rule="evenodd" d="M15.8928 15.8916C13.346 18.4386 9.57483 18.9889 6.4887 17.5617C6.03311 17.3783 5.65959 17.23 5.3045 17.23C4.31543 17.2359 3.08433 18.1949 2.44449 17.5558C1.80465 16.9159 2.76441 15.6838 2.76441 14.6888C2.76441 14.3337 2.62203 13.9668 2.43862 13.5103C1.01071 10.4247 1.56178 6.65224 4.10857 4.10601C7.35969 0.853698 12.6417 0.853699 15.8928 4.10517C19.1498 7.36251 19.1439 12.6401 15.8928 15.8916Z" stroke="#6842EF" stroke-width="1.5" stroke-linecap="round" stroke-linejoin="round"/>
<path id="Stroke 11" d="M13.2829 10.3442H13.2904" stroke="#FFD600" stroke-width="2" stroke-linecap="round" stroke-linejoin="round"/>
<path id="Stroke 13" d="M9.94197 10.3442H9.94947" stroke="#FFD600" stroke-width="2" stroke-linecap="round" stroke-linejoin="round"/>
<path id="Stroke 15" d="M6.60115 10.3442H6.60865" stroke="#FFD600" stroke-width="2" stroke-linecap="round" stroke-linejoin="round"/>
</g>
</g>
</svg>
