<svg width="20" height="20" viewBox="0 0 20 20" fill="none" xmlns="http://www.w3.org/2000/svg">
<g id="Iconly/Two-tone/Ticket">
<g id="Ticket">
<g id="Group">
<path id="Stroke 1" d="M11.5414 3.54192V5.55858" stroke="#FFD600" stroke-width="1.5" stroke-linecap="round" stroke-linejoin="round"/>
<path id="Stroke 3" d="M11.5414 14.8001V16.4867" stroke="#FFD600" stroke-width="1.5" stroke-linecap="round" stroke-linejoin="round"/>
<path id="Stroke 6" d="M11.5414 11.9372V7.91967" stroke="#FFD600" stroke-width="1.5" stroke-linecap="round" stroke-linejoin="round"/>
</g>
<path id="Stroke 7" fill-rule="evenodd" clip-rule="evenodd" d="M15.5851 16.6667C17.1035 16.6667 18.3333 15.4521 18.3333 13.9526V11.7922C17.3286 11.7922 16.5194 10.9931 16.5194 10.0009C16.5194 9.00863 17.3286 8.20866 18.3333 8.20866L18.3324 6.04738C18.3324 4.54787 17.1017 3.33333 15.5842 3.33333H4.41572C2.8982 3.33333 1.6675 4.54787 1.6675 6.04738L1.66663 8.27904C2.67135 8.27904 3.48053 9.00863 3.48053 10.0009C3.48053 10.9931 2.67135 11.7922 1.66663 11.7922V13.9526C1.66663 15.4521 2.89646 16.6667 4.41485 16.6667H15.5851Z" stroke="#6842EF" stroke-width="1.5" stroke-linecap="round" stroke-linejoin="round"/>
</g>
</g>
</svg>
