<svg width="20" height="20" viewBox="0 0 20 20" fill="none" xmlns="http://www.w3.org/2000/svg">
<g id="Iconly/Two-tone/3 User">
<g id="3 User">
<path id="Stroke 1" d="M14.9064 9.08058C16.0689 8.91725 16.9639 7.92058 16.9664 6.71308C16.9664 5.52308 16.0989 4.53641 14.9614 4.34975" stroke="#FFD600" stroke-width="1.5" stroke-linecap="round" stroke-linejoin="round"/>
<path id="Stroke 3" d="M16.4404 11.8752C17.5663 12.0436 18.3521 12.4377 18.3521 13.2502C18.3521 13.8094 17.9821 14.1727 17.3838 14.4011" stroke="#6842EF" stroke-width="1.5" stroke-linecap="round" stroke-linejoin="round"/>
<path id="Stroke 5" fill-rule="evenodd" clip-rule="evenodd" d="M9.90553 12.2198C7.2272 12.2198 4.9397 12.6257 4.9397 14.2465C4.9397 15.8665 7.21303 16.284 9.90553 16.284C12.5839 16.284 14.8705 15.8823 14.8705 14.2607C14.8705 12.639 12.598 12.2198 9.90553 12.2198Z" stroke="#6842EF" stroke-width="1.5" stroke-linecap="round" stroke-linejoin="round"/>
<path id="Stroke 7" fill-rule="evenodd" clip-rule="evenodd" d="M9.90555 9.90658C11.663 9.90658 13.088 8.48241 13.088 6.72408C13.088 4.96658 11.663 3.54158 9.90555 3.54158C8.14805 3.54158 6.72305 4.96658 6.72305 6.72408C6.71638 8.47575 8.13055 9.90075 9.88221 9.90658H9.90555Z" stroke="#FFD600" stroke-width="1.5" stroke-linecap="round" stroke-linejoin="round"/>
<path id="Stroke 9" d="M4.90399 9.08058C3.74066 8.91725 2.84649 7.92058 2.84399 6.71308C2.84399 5.52308 3.71149 4.53641 4.84899 4.34975" stroke="#FFD600" stroke-width="1.5" stroke-linecap="round" stroke-linejoin="round"/>
<path id="Stroke 11" d="M3.36992 11.8752C2.24409 12.0436 1.45825 12.4377 1.45825 13.2502C1.45825 13.8094 1.82825 14.1727 2.42659 14.4011" stroke="#6842EF" stroke-width="1.5" stroke-linecap="round" stroke-linejoin="round"/>
</g>
</g>
</svg>
