<svg width="54" height="54" viewBox="0 0 54 54" fill="none" xmlns="http://www.w3.org/2000/svg">
<circle cx="27" cy="27" r="27" fill="#0FB3C9"/>
<path d="M20.7188 42.9532C18.7345 42.4532 16.7032 41.797 14.7735 40.8673C13.3282 40.172 11.961 39.3516 10.8126 38.2266C9.97666 37.4063 9.3126 36.4845 9.0626 35.3126C8.8126 34.1407 9.0626 33.0626 9.6876 32.0548C10.297 31.0626 11.1329 30.2891 12.0704 29.6173C13.6407 28.4845 15.3829 27.6798 17.1954 27.0235C19.3751 26.2266 21.6173 25.6641 23.9063 25.2735C25.0626 25.0782 26.2267 24.9063 27.3907 24.7657C28.211 24.6641 29.0392 24.6095 29.8673 24.5548C30.8204 24.5001 31.7735 24.461 32.7345 24.4298C33.5548 24.4063 34.3673 24.3907 35.1876 24.3985C36.1564 24.4141 37.1251 24.4532 38.0939 24.5157C39.9376 24.6407 41.7814 24.8204 43.6017 25.1407C44.7032 25.336 45.797 25.5704 46.8985 25.7813C46.9376 25.7891 46.9767 25.8048 47.047 25.8282C43.0079 25.3829 39.0001 25.3438 34.922 25.6641C36.3985 28.2188 37.8517 30.7266 39.3204 33.2813C39.1954 33.2813 39.1095 33.2813 39.0235 33.2813C35.3985 33.2813 31.7735 33.2813 28.1485 33.2813C27.7657 33.2813 27.7735 33.2266 27.7735 33.6641C27.7735 36.7735 27.7735 39.8829 27.7735 42.9923C27.7735 43.2891 27.7735 43.2891 27.4845 43.2891C26.4767 43.2891 25.461 43.2813 24.4532 43.297C24.2579 43.297 24.211 43.2423 24.211 43.047C24.2188 39.8907 24.2188 36.7345 24.211 33.5782C24.211 33.2813 24.211 33.2813 23.9142 33.2813C21.0782 33.2813 18.2423 33.2813 15.4142 33.2735C15.2188 33.2735 15.1173 33.3438 15.0235 33.5079C14.5704 34.297 14.297 35.1329 14.3204 36.047C14.3438 37.1016 14.7267 38.0391 15.336 38.8907C16.1329 40.0001 17.1563 40.8595 18.3126 41.5704C19.1095 42.0782 19.961 42.5235 20.7188 42.9532ZM19.3126 29.7501C19.3204 29.7657 19.3282 29.7813 19.3282 29.797C23.9532 29.797 28.586 29.797 33.2345 29.797C33.2189 29.7423 33.211 29.711 33.1954 29.6876C32.5313 28.5391 31.8673 27.3907 31.2032 26.2345C31.1485 26.1329 31.0782 26.1173 30.9767 26.1407C29.5548 26.422 28.1251 26.6641 26.711 27.0001C24.336 27.5626 22.0313 28.3438 19.8517 29.461C19.672 29.5548 19.4923 29.6485 19.3126 29.7501Z" fill="white"/>
<path d="M26.25 10.6953C28.75 15.0156 31.2266 19.3047 33.7031 23.5938C32.375 23.5781 31.0781 23.5703 29.7734 23.5469C29.7031 23.5469 29.6016 23.4531 29.5625 23.3828C28.7266 21.9453 27.8906 20.5 27.0547 19.0547C26.7969 18.6094 26.5391 18.1641 26.2578 17.6797C26.1953 17.7656 26.1484 17.8281 26.1094 17.8906C24.9453 19.9063 23.7812 21.9141 22.625 23.9297C22.5469 24.0625 22.4609 24.1016 22.3125 24.125C20.9375 24.3672 19.5625 24.6172 18.1875 24.8672C18.1484 24.875 18.1094 24.875 18.0469 24.8828C20.7812 20.1563 23.5 15.4531 26.25 10.6953ZM26.25 12.7813C24.1875 16.3438 22.1641 19.8516 20.1172 23.3906C20.2187 23.3906 20.2812 23.3984 20.3359 23.3906C20.7812 23.3203 21.2266 23.2422 21.6719 23.1797C21.8359 23.1563 21.9219 23.0781 22 22.9375C23.375 20.5547 24.75 18.1719 26.125 15.7969C26.1562 15.7344 26.1953 15.6797 26.25 15.6016C26.3047 15.6953 26.3437 15.75 26.3828 15.8125C26.7734 16.4922 27.1641 17.1719 27.5625 17.8516C28.4297 19.3438 29.2891 20.8438 30.1484 22.3359C30.2187 22.4609 30.3047 22.5234 30.4609 22.5234C30.8516 22.5078 31.2422 22.5234 31.6406 22.5156C31.7031 22.5156 31.7656 22.5078 31.8672 22.5C29.9922 19.2578 28.1406 16.0469 26.25 12.7813Z" fill="white"/>
</svg>
