<svg width="16" height="16" viewBox="0 0 16 16" fill="none" xmlns="http://www.w3.org/2000/svg">
<g id="Iconly/Two-tone/Category">
<g id="Category">
<path id="Stroke 1" fill-rule="evenodd" clip-rule="evenodd" d="M2 4.33333C2 2.58319 2.01874 2 4.33333 2C6.64793 2 6.66667 2.58319 6.66667 4.33333C6.66667 6.08348 6.67405 6.66667 4.33333 6.66667C1.99262 6.66667 2 6.08348 2 4.33333Z" stroke="#828282" stroke-width="1.5" stroke-linecap="round" stroke-linejoin="round"/>
<path id="Stroke 3" opacity="0.4" fill-rule="evenodd" clip-rule="evenodd" d="M9.33337 4.33333C9.33337 2.58319 9.35211 2 11.6667 2C13.9813 2 14 2.58319 14 4.33333C14 6.08348 14.0074 6.66667 11.6667 6.66667C9.32599 6.66667 9.33337 6.08348 9.33337 4.33333Z" stroke="#828282" stroke-width="1.5" stroke-linecap="round" stroke-linejoin="round"/>
<path id="Stroke 5" fill-rule="evenodd" clip-rule="evenodd" d="M2 11.6667C2 9.91657 2.01874 9.33337 4.33333 9.33337C6.64793 9.33337 6.66667 9.91657 6.66667 11.6667C6.66667 13.4168 6.67405 14 4.33333 14C1.99262 14 2 13.4168 2 11.6667Z" stroke="#828282" stroke-width="1.5" stroke-linecap="round" stroke-linejoin="round"/>
<path id="Stroke 7" fill-rule="evenodd" clip-rule="evenodd" d="M9.33337 11.6667C9.33337 9.91657 9.35211 9.33337 11.6667 9.33337C13.9813 9.33337 14 9.91657 14 11.6667C14 13.4168 14.0074 14 11.6667 14C9.32599 14 9.33337 13.4168 9.33337 11.6667Z" stroke="#828282" stroke-width="1.5" stroke-linecap="round" stroke-linejoin="round"/>
</g>
</g>
</svg>
