<svg width="20" height="20" viewBox="0 0 20 20" fill="none" xmlns="http://www.w3.org/2000/svg">
<path d="M17.1702 2.77019C16.2883 1.93969 15.0405 1.5 13.5801 1.5L6.38428 1.5034L6.37995 1.50343C4.93094 1.51157 3.69327 1.95436 2.81875 2.78336C1.94683 3.60988 1.5 4.75933 1.5 6.07403V13.926C1.5 15.2469 1.9501 16.4017 2.82919 17.2297C3.71094 18.0603 4.95915 18.5 6.41951 18.5L13.6148 18.4974H13.6191C15.0682 18.4893 16.3061 18.0462 17.1808 17.2171C18.0529 16.3904 18.5 15.2408 18.5 13.926V6.07403C18.5 4.75299 18.0496 3.5982 17.1702 2.77019Z" fill="white"/>
<g opacity="0.4">
<path fill-rule="evenodd" clip-rule="evenodd" d="M8.48449 9.29437C8.90509 9.1487 9.44944 9.10791 9.99012 9.10791C10.5343 9.10791 11.079 9.15033 11.4993 9.29799C11.7114 9.3725 11.9189 9.48294 12.0766 9.65367C12.2428 9.83368 12.3374 10.0639 12.3374 10.3311C12.3374 10.5991 12.2419 10.8294 12.0745 11.0088C11.916 11.1788 11.7078 11.2882 11.4957 11.3617C11.0751 11.5074 10.5308 11.5483 9.99012 11.5483C9.44595 11.5483 8.90118 11.5059 8.48084 11.3583C8.26872 11.2838 8.06119 11.1734 7.90346 11.0026C7.73715 10.8226 7.64258 10.5923 7.64258 10.3251C7.64258 10.057 7.73812 9.82666 7.90549 9.64719C8.06404 9.47717 8.2723 9.36786 8.48449 9.29437ZM8.44123 10.1803C8.40468 10.2195 8.38648 10.2599 8.38648 10.3251C8.38648 10.3911 8.40493 10.4324 8.44165 10.4721C8.48694 10.5211 8.57242 10.5788 8.72028 10.6307C9.01989 10.7359 9.46292 10.7798 9.99012 10.7798C10.515 10.7798 10.9584 10.7373 11.2591 10.6331C11.4076 10.5817 11.4934 10.5244 11.5388 10.4757C11.5753 10.4365 11.5935 10.3962 11.5935 10.3311C11.5935 10.2651 11.5751 10.2239 11.5384 10.1841C11.4931 10.1351 11.4076 10.0774 11.2598 10.0255C10.9602 9.92028 10.5173 9.87637 9.99012 9.87637C9.4652 9.87637 9.02176 9.91879 8.72096 10.0229C8.57245 10.0744 8.48661 10.1317 8.44123 10.1803Z" fill="#58ACE6"/>
<path fill-rule="evenodd" clip-rule="evenodd" d="M8.35157 6.90434C8.35191 5.96995 9.08545 5.21289 9.98985 5.21289C10.8946 5.21289 11.6279 5.97041 11.6279 6.90499C11.6279 7.83946 10.8947 8.59736 9.98985 8.59736H9.97967C9.0777 8.5942 8.34886 7.83609 8.35157 6.90434ZM9.98985 5.98135C9.49588 5.98135 9.09547 6.39492 9.09547 6.90499V6.90629C9.0938 7.41392 9.49072 7.82685 9.98161 7.8289H9.98985C10.4836 7.8289 10.884 7.41526 10.884 6.90499C10.884 6.39481 10.4837 5.98135 9.98985 5.98135Z" fill="#58ACE6"/>
</g>
<path fill-rule="evenodd" clip-rule="evenodd" d="M8.10742 14.2168C8.10742 13.8684 8.32478 13.5859 8.5929 13.5859H13.2665C13.5346 13.5859 13.752 13.8684 13.752 14.2168C13.752 14.5652 13.5346 14.8477 13.2665 14.8477H8.5929C8.32478 14.8477 8.10742 14.5652 8.10742 14.2168Z" fill="#58ACE6"/>
<path d="M6.87891 14.8477C7.22732 14.8477 7.50976 14.5652 7.50976 14.2168C7.50976 13.8684 7.22732 13.5859 6.87891 13.5859C6.53049 13.5859 6.24805 13.8684 6.24805 14.2168C6.24805 14.5652 6.53049 14.8477 6.87891 14.8477Z" fill="#58ACE6"/>
</svg>
