<svg width="20" height="20" viewBox="0 0 20 20" fill="none" xmlns="http://www.w3.org/2000/svg">
<path fill-rule="evenodd" clip-rule="evenodd" d="M13.5801 1.5C15.0405 1.5 16.2883 1.93969 17.1702 2.77019C18.0496 3.5982 18.5 4.75299 18.5 6.07403V13.926C18.5 15.2408 18.0529 16.3904 17.1808 17.2171C16.3061 18.0462 15.0682 18.4893 13.6191 18.4974L13.6148 18.4974L6.41951 18.5C4.95915 18.5 3.71094 18.0603 2.82919 17.2297C1.9501 16.4017 1.5 15.2469 1.5 13.926V6.07403C1.5 4.75933 1.94683 3.60988 2.81875 2.78336C3.69327 1.95436 4.93094 1.51157 6.37995 1.50343L6.38428 1.5034L13.5801 1.5ZM13.5803 2.78076C13.5803 2.78076 13.5803 2.78076 13.5803 2.78076L6.3886 2.78417C6.38797 2.78417 6.38733 2.78417 6.3867 2.78418C5.25367 2.79092 4.40079 3.1306 3.83019 3.6715C3.25666 4.21518 2.9038 5.0236 2.9038 6.07403V13.926C2.9038 14.9821 3.25948 15.7942 3.83753 16.3387C4.41289 16.8806 5.27372 17.2192 6.41871 17.2192C6.41878 17.2192 6.41865 17.2192 6.41871 17.2192L13.6104 17.2167C13.6111 17.2167 13.6117 17.2167 13.6123 17.2167C14.7452 17.21 15.5984 16.8701 16.1693 16.3289C16.7431 15.785 17.0962 14.9763 17.0962 13.926V6.07403C17.0962 5.01798 16.7403 4.20594 16.1621 3.66141C15.5865 3.1194 14.7253 2.78082 13.5803 2.78076Z" fill="#130F26"/>
<g opacity="0.4">
<path fill-rule="evenodd" clip-rule="evenodd" d="M8.48449 9.29425C8.90509 9.14858 9.44944 9.10779 9.99012 9.10779C10.5343 9.10779 11.079 9.15021 11.4993 9.29787C11.7114 9.37238 11.9189 9.48282 12.0766 9.65355C12.2428 9.83356 12.3374 10.0638 12.3374 10.331C12.3374 10.599 12.2419 10.8293 12.0745 11.0087C11.916 11.1787 11.7078 11.2881 11.4957 11.3616C11.0751 11.5073 10.5308 11.5482 9.99012 11.5482C9.44595 11.5482 8.90118 11.5058 8.48084 11.3582C8.26872 11.2837 8.06119 11.1733 7.90346 11.0025C7.73715 10.8225 7.64258 10.5922 7.64258 10.325C7.64258 10.0569 7.73812 9.82654 7.90549 9.64707C8.06404 9.47705 8.2723 9.36774 8.48449 9.29425ZM8.44123 10.1802C8.40468 10.2194 8.38648 10.2598 8.38648 10.325C8.38648 10.391 8.40493 10.4323 8.44165 10.472C8.48694 10.521 8.57242 10.5787 8.72028 10.6306C9.01989 10.7358 9.46292 10.7797 9.99012 10.7797C10.515 10.7797 10.9584 10.7372 11.2591 10.633C11.4076 10.5816 11.4934 10.5243 11.5388 10.4756C11.5753 10.4364 11.5935 10.3961 11.5935 10.331C11.5935 10.265 11.5751 10.2238 11.5384 10.184C11.4931 10.135 11.4076 10.0773 11.2598 10.0254C10.9602 9.92016 10.5173 9.87625 9.99012 9.87625C9.4652 9.87625 9.02176 9.91867 8.72096 10.0228C8.57245 10.0743 8.48661 10.1316 8.44123 10.1802Z" fill="#202730"/>
<path fill-rule="evenodd" clip-rule="evenodd" d="M8.35169 6.90422C8.35203 5.96983 9.08557 5.21277 9.98997 5.21277C10.8947 5.21277 11.628 5.97029 11.628 6.90487C11.628 7.83934 10.8948 8.59724 9.98997 8.59724H9.97979C9.07782 8.59408 8.34898 7.83597 8.35169 6.90422ZM9.98997 5.98123C9.496 5.98123 9.09559 6.3948 9.09559 6.90487V6.90617C9.09392 7.4138 9.49084 7.82673 9.98173 7.82878H9.98997C10.4837 7.82878 10.8841 7.41514 10.8841 6.90487C10.8841 6.39469 10.4838 5.98123 9.98997 5.98123Z" fill="#202730"/>
</g>
<path opacity="0.4" fill-rule="evenodd" clip-rule="evenodd" d="M8.10742 14.2168C8.10742 13.8684 8.32478 13.5859 8.5929 13.5859H13.2665C13.5346 13.5859 13.752 13.8684 13.752 14.2168C13.752 14.5652 13.5346 14.8477 13.2665 14.8477H8.5929C8.32478 14.8477 8.10742 14.5652 8.10742 14.2168Z" fill="#202730"/>
<circle opacity="0.4" cx="6.87891" cy="14.2168" r="0.630859" fill="#202730"/>
</svg>
