<svg width="20" height="20" viewBox="0 0 20 20" fill="none" xmlns="http://www.w3.org/2000/svg">
<g id="Iconly/Two-tone/Ticket">
<g id="Ticket">
<g id="Group">
<path id="Stroke 1" opacity="0.4" d="M11.5414 3.54192V5.55858" stroke="#202730" stroke-width="1.5" stroke-linecap="round" stroke-linejoin="round"/>
<path id="Stroke 3" opacity="0.4" d="M11.5414 14.8001V16.4867" stroke="#202730" stroke-width="1.5" stroke-linecap="round" stroke-linejoin="round"/>
<path id="Stroke 6" opacity="0.4" d="M11.5414 11.9372V7.91966" stroke="#202730" stroke-width="1.5" stroke-linecap="round" stroke-linejoin="round"/>
</g>
<path id="Stroke 7" fill-rule="evenodd" clip-rule="evenodd" d="M15.5851 16.6667C17.1035 16.6667 18.3334 15.4521 18.3334 13.9526V11.7922C17.3286 11.7922 16.5195 10.9931 16.5195 10.0009C16.5195 9.00862 17.3286 8.20866 18.3334 8.20866L18.3325 6.04738C18.3325 4.54787 17.1018 3.33333 15.5843 3.33333H4.41578C2.89826 3.33333 1.66756 4.54787 1.66756 6.04738L1.66669 8.27904C2.67142 8.27904 3.48059 9.00862 3.48059 10.0009C3.48059 10.9931 2.67142 11.7922 1.66669 11.7922V13.9526C1.66669 15.4521 2.89652 16.6667 4.41491 16.6667H15.5851Z" stroke="#202730" stroke-width="1.5" stroke-linecap="round" stroke-linejoin="round"/>
</g>
</g>
</svg>
