<svg width="17" height="14" viewBox="0 0 17 14" fill="none" xmlns="http://www.w3.org/2000/svg">
<g clip-path="url(#clip0_10347_11076)">
<path d="M14.5099 9.02962C14.3567 9.41576 14.2337 9.80189 14.0567 10.1579C12.9767 12.3342 11.2785 13.6261 8.98411 13.936C6.69154 14.2456 4.75656 13.4257 3.20835 11.6053C2.75006 11.0663 2.99125 10.2735 3.64329 10.1443C3.9757 10.0785 4.2366 10.2225 4.45407 10.4863C5.10502 11.2768 5.90959 11.8104 6.8645 12.0882C9.42526 12.833 12.1214 11.2849 12.8909 8.62839C12.8982 8.60363 12.9041 8.57848 12.9245 8.50032C12.6742 8.68759 12.4647 8.85512 12.2447 9.00486C12.1291 9.08379 12.0006 9.16039 11.8685 9.1898C11.4883 9.27376 11.1263 9.06715 10.9705 8.70384C10.8118 8.33279 10.9085 7.90138 11.2311 7.65376C11.8762 7.15813 12.5301 6.67449 13.1799 6.18582C13.258 6.12701 13.3354 6.06781 13.4142 6.01055C13.8674 5.68013 14.3282 5.76138 14.6468 6.23457C15.0802 6.87839 15.5093 7.52492 15.9403 8.17067C16.0286 8.303 16.1216 8.43261 16.203 8.56958C16.4391 8.96694 16.3449 9.4765 15.9914 9.74115C15.6283 10.0131 15.1423 9.93422 14.8661 9.5535C14.7427 9.38325 14.6285 9.20605 14.5092 9.03039L14.5099 9.02962Z" fill="#24CBC7"/>
<path d="M3.4134 5.5018C3.6856 5.29906 3.91876 5.11567 4.16104 4.94659C4.67918 4.58521 5.33926 4.89358 5.43084 5.54127C5.47718 5.8686 5.36845 6.15027 5.11668 6.34256C4.3672 6.91597 3.61299 7.48318 2.85366 8.04226C2.49279 8.30807 2.01771 8.23572 1.75901 7.86042C1.20621 7.05835 0.664719 6.247 0.133447 5.42829C-0.115405 5.04448 -0.00338507 4.52137 0.350917 4.25943C0.70741 3.99556 1.19198 4.07178 1.46382 4.44089C1.58897 4.61075 1.70245 4.79027 1.83709 4.98915C1.8692 4.90209 1.89584 4.83825 1.91664 4.77248C2.80915 1.93835 5.32904 -0.0101345 8.1412 -7.43943e-05C10.1214 0.00688916 11.7835 0.807022 13.1102 2.37324C13.4634 2.79033 13.4547 3.31808 13.096 3.6543C12.7355 3.99208 12.2421 3.93984 11.8922 3.52623C10.8457 2.28812 9.5347 1.6915 7.97117 1.73367C5.92453 1.789 4.04793 3.30376 3.45171 5.36484C3.44295 5.39502 3.43456 5.42558 3.4134 5.5018Z" fill="#24CBC7"/>
</g>
<defs>
<clipPath id="clip0_10347_11076">
<rect width="16.3333" height="14" fill="white" transform="translate(16.333 14) rotate(180)"/>
</clipPath>
</defs>
</svg>
