<svg width="18" height="18" viewBox="0 0 18 18" fill="none" xmlns="http://www.w3.org/2000/svg">
<path id="Vector" d="M0.246094 16.9313C0.386719 16.5234 0.675 16.3547 1.10039 16.3828C1.26562 16.3934 1.42734 16.3863 1.61367 16.3863C1.61367 16.309 1.61367 16.2422 1.61367 16.1754C1.61367 14.2102 1.61016 12.2449 1.61367 10.2797C1.61719 9.06328 2.32383 8.04024 3.45938 7.65704C3.76523 7.55508 4.10625 7.50938 4.42969 7.50586C5.64258 7.48829 6.85547 7.49883 8.07188 7.49883C8.13516 7.49883 8.19492 7.49883 8.2793 7.49883C8.2793 7.36524 8.2793 7.24219 8.2793 7.11915C8.2793 6.66211 8.27578 6.2086 8.28281 5.75157C8.28281 5.66016 8.2582 5.61446 8.17031 5.57227C7.18594 5.09415 6.75 4.12032 7.03125 3.05157C7.25273 2.20782 7.75195 1.53985 8.34258 0.92813C8.50781 0.755865 8.68359 0.597662 8.85938 0.44649C9.08438 0.25313 9.3375 0.186334 9.61875 0.312896C9.88945 0.435943 10.023 0.660943 10.023 0.95274C10.0266 1.40274 10.1742 1.79649 10.4238 2.16563C10.5645 2.37305 10.698 2.58399 10.8176 2.80196C11.243 3.57891 11.0602 4.60547 10.3852 5.18204C10.1988 5.34375 9.9668 5.45274 9.76289 5.58985C9.71719 5.62149 9.65742 5.67422 9.65742 5.71641C9.65039 6.3 9.65391 6.88711 9.65391 7.4918C9.72773 7.4918 9.79102 7.4918 9.85078 7.4918C11.1094 7.4918 12.368 7.48829 13.6301 7.4918C14.966 7.49883 16.0629 8.3918 16.3336 9.68555C16.3652 9.84024 16.3863 10.002 16.3863 10.1602C16.3898 11.4645 16.3898 12.7688 16.3898 14.073C16.3898 14.3438 16.2703 14.5582 16.0277 14.6883C15.7992 14.8113 15.5672 14.8008 15.3457 14.6637C15.1242 14.5266 15.0258 14.3156 15.0223 14.059C15.0223 13.609 15.0223 13.159 15.0223 12.6879C14.0273 13.0676 13.1414 12.9094 12.3539 12.1816C11.8863 12.6316 11.3344 12.8813 10.684 12.8848C10.0406 12.8883 9.48516 12.6563 9.00703 12.2063C8.53242 12.6527 7.97344 12.8918 7.32305 12.8848C6.67969 12.8777 6.12773 12.6352 5.65664 12.1816C4.87266 12.8988 3.98672 13.0711 2.9918 12.6879C2.9918 13.9148 2.9918 15.1348 2.9918 16.3758C3.06211 16.3758 3.13242 16.3758 3.20625 16.3758C7.78359 16.3758 12.3574 16.3758 16.9348 16.3758C17.0402 16.3758 17.1527 16.3793 17.2547 16.4074C17.5395 16.4777 17.7328 16.7203 17.7539 17.0086C17.775 17.2863 17.6203 17.5535 17.3637 17.673C17.3145 17.6977 17.2617 17.7188 17.209 17.7398C11.7387 17.7398 6.26836 17.7398 0.794531 17.7398C0.520313 17.652 0.3375 17.4691 0.246094 17.1914C0.246094 17.1141 0.246094 17.0227 0.246094 16.9313ZM2.98477 10.3957C2.98477 10.459 2.98125 10.5223 2.98477 10.582C3.01641 11.2676 3.69141 11.7106 4.32422 11.4539C4.69336 11.3063 4.90078 11.0215 4.93242 10.6172C4.96055 10.2516 5.12578 10.0125 5.41055 9.9211C5.90273 9.76289 6.32812 10.0688 6.3668 10.6102C6.4125 11.2606 7.03477 11.6789 7.65 11.468C8.08945 11.3168 8.28984 10.9898 8.31797 10.5363C8.34258 10.1566 8.63789 9.88594 9.00352 9.88594C9.36211 9.88946 9.64687 10.1566 9.68203 10.5258C9.68555 10.5785 9.68906 10.6277 9.69609 10.6805C9.76289 11.1797 10.1953 11.5418 10.6945 11.5242C11.2008 11.5066 11.5945 11.1234 11.6367 10.6172C11.6473 10.5012 11.6684 10.3781 11.7141 10.2691C11.8441 9.97735 12.1711 9.82969 12.498 9.89297C12.8355 9.95977 13.0395 10.2129 13.0676 10.6066C13.1063 11.1375 13.5281 11.5313 14.0484 11.5242C14.5723 11.5172 14.9871 11.1164 15.0152 10.5856C15.0188 10.4836 15.0188 10.3816 15.0188 10.2797C15.0082 9.44649 14.4281 8.85938 13.5949 8.85938C10.5363 8.85586 7.47773 8.85586 4.41914 8.8629C4.19766 8.8629 3.95859 8.91211 3.76172 9.00704C3.18516 9.28477 2.96367 9.78047 2.98477 10.3957ZM8.90859 2.31329C8.76094 2.55938 8.59922 2.77735 8.49727 3.01641C8.40234 3.2379 8.34609 3.48047 8.325 3.71954C8.30391 4.0043 8.51484 4.26094 8.78555 4.34883C9.05977 4.43672 9.34453 4.34883 9.53086 4.11329C9.71719 3.87774 9.73125 3.62461 9.5625 3.35391C9.35508 3.01641 9.14414 2.68243 8.90859 2.31329Z" fill="#24CBC7"/>
</svg>
