<svg width="18" height="18" viewBox="0 0 18 18" fill="none" xmlns="http://www.w3.org/2000/svg">
<path opacity="0.4" d="M2.31934 7.05334H15.6873" stroke="#130F26" stroke-width="1.5" stroke-linecap="round" stroke-linejoin="round"/>
<path opacity="0.4" fill-rule="evenodd" clip-rule="evenodd" d="M4.91797 9.98242C4.91797 9.56821 5.25376 9.23242 5.66797 9.23242H5.67492C6.08913 9.23242 6.42492 9.56821 6.42492 9.98242C6.42492 10.3966 6.08913 10.7324 5.67492 10.7324H5.66797C5.25376 10.7324 4.91797 10.3966 4.91797 9.98242ZM9.00301 9.23242C8.5888 9.23242 8.25301 9.56821 8.25301 9.98242C8.25301 10.3966 8.5888 10.7324 9.00301 10.7324H9.00996C9.42417 10.7324 9.75996 10.3966 9.75996 9.98242C9.75996 9.56821 9.42417 9.23242 9.00996 9.23242H9.00301ZM12.3311 9.23242C11.9169 9.23242 11.5811 9.56821 11.5811 9.98242C11.5811 10.3966 11.9169 10.7324 12.3311 10.7324H12.3381C12.7523 10.7324 13.0881 10.3966 13.0881 9.98242C13.0881 9.56821 12.7523 9.23242 12.3381 9.23242H12.3311ZM12.3311 12.1473C11.9169 12.1473 11.5811 12.4831 11.5811 12.8973C11.5811 13.3115 11.9169 13.6473 12.3311 13.6473H12.3381C12.7523 13.6473 13.0881 13.3115 13.0881 12.8973C13.0881 12.4831 12.7523 12.1473 12.3381 12.1473H12.3311ZM8.25301 12.8973C8.25301 12.4831 8.5888 12.1473 9.00301 12.1473H9.00996C9.42417 12.1473 9.75996 12.4831 9.75996 12.8973C9.75996 13.3115 9.42417 13.6473 9.00996 13.6473H9.00301C8.5888 13.6473 8.25301 13.3115 8.25301 12.8973ZM5.66797 12.1473C5.25376 12.1473 4.91797 12.4831 4.91797 12.8973C4.91797 13.3115 5.25376 13.6473 5.66797 13.6473H5.67492C6.08913 13.6473 6.42492 13.3115 6.42492 12.8973C6.42492 12.4831 6.08913 12.1473 5.67492 12.1473H5.66797Z" fill="#130F26"/>
<path d="M12.0329 1.5V3.96809" stroke="#130F26" stroke-width="1.5" stroke-linecap="round" stroke-linejoin="round"/>
<path d="M5.97435 1.5V3.96809" stroke="#130F26" stroke-width="1.5" stroke-linecap="round" stroke-linejoin="round"/>
<path fill-rule="evenodd" clip-rule="evenodd" d="M12.1787 2.68457H5.82822C3.6257 2.68457 2.25 3.91152 2.25 6.16684V12.9541C2.25 15.2449 3.6257 16.5002 5.82822 16.5002H12.1718C14.3812 16.5002 15.75 15.2661 15.75 13.0108V6.16684C15.7569 3.91152 14.3882 2.68457 12.1787 2.68457Z" stroke="#130F26" stroke-width="1.5" stroke-linecap="round" stroke-linejoin="round"/>
</svg>
