<svg width="62" height="62" viewBox="0 0 62 62" fill="none" xmlns="http://www.w3.org/2000/svg">
<rect x="1" y="1" width="60" height="60" rx="20" fill="white" stroke="white" stroke-opacity="0.1" stroke-width="0.5"/>
<path opacity="0.4" d="M38.869 29.7128C40.4965 29.4841 41.7495 28.0888 41.753 26.3983C41.753 24.7323 40.5385 23.3509 38.946 23.0896" stroke="#B757A7" stroke-width="1.5" stroke-linecap="round" stroke-linejoin="round"/>
<path d="M41.0166 33.6253C42.5927 33.861 43.6929 34.4128 43.6929 35.5503C43.6929 36.3331 43.1749 36.8418 42.3372 37.1615" stroke="#B757A7" stroke-width="1.5" stroke-linecap="round" stroke-linejoin="round"/>
<path fill-rule="evenodd" clip-rule="evenodd" d="M31.8678 34.1077C28.1181 34.1077 24.9156 34.6759 24.9156 36.9451C24.9156 39.2131 28.0983 39.7976 31.8678 39.7976C35.6175 39.7976 38.8188 39.2352 38.8188 36.9649C38.8188 34.6946 35.6373 34.1077 31.8678 34.1077Z" stroke="#B757A7" stroke-width="1.5" stroke-linecap="round" stroke-linejoin="round"/>
<path opacity="0.4" fill-rule="evenodd" clip-rule="evenodd" d="M31.8678 30.8692C34.3283 30.8692 36.3233 28.8754 36.3233 26.4137C36.3233 23.9532 34.3283 21.9582 31.8678 21.9582C29.4073 21.9582 27.4123 23.9532 27.4123 26.4137C27.403 28.866 29.3828 30.861 31.8351 30.8692H31.8678Z" stroke="#B757A7" stroke-width="1.5" stroke-linecap="round" stroke-linejoin="round"/>
<path opacity="0.4" d="M24.8656 29.7128C23.2369 29.4841 21.9851 28.0888 21.9816 26.3983C21.9816 24.7323 23.1961 23.3509 24.7886 23.0896" stroke="#B757A7" stroke-width="1.5" stroke-linecap="round" stroke-linejoin="round"/>
<path d="M22.7179 33.6253C21.1417 33.861 20.0415 34.4128 20.0415 35.5503C20.0415 36.3331 20.5595 36.8418 21.3972 37.1615" stroke="#B757A7" stroke-width="1.5" stroke-linecap="round" stroke-linejoin="round"/>
</svg>
