<svg width="18" height="18" viewBox="0 0 18 18" fill="none" xmlns="http://www.w3.org/2000/svg">
<g id="Iconly/Two-tone/3 User">
<g id="3 User">
<path id="Stroke 1" d="M13.416 8.17242C14.4623 8.02542 15.2678 7.12842 15.27 6.04167C15.27 4.97067 14.4893 4.08267 13.4655 3.91467" stroke="#6842EF" stroke-width="1.5" stroke-linecap="round" stroke-linejoin="round"/>
<path id="Stroke 3" d="M14.7969 10.6876C15.8101 10.8391 16.5174 11.1939 16.5174 11.9251C16.5174 12.4284 16.1844 12.7554 15.6459 12.9609" stroke="#6842EF" stroke-width="1.5" stroke-linecap="round" stroke-linejoin="round"/>
<path id="Stroke 5" fill-rule="evenodd" clip-rule="evenodd" d="M8.91554 10.9978C6.50504 10.9978 4.44629 11.3631 4.44629 12.8218C4.44629 14.2798 6.49229 14.6556 8.91554 14.6556C11.326 14.6556 13.384 14.2941 13.384 12.8346C13.384 11.3751 11.3388 10.9978 8.91554 10.9978Z" stroke="#6842EF" stroke-width="1.5" stroke-linecap="round" stroke-linejoin="round"/>
<path id="Stroke 7" fill-rule="evenodd" clip-rule="evenodd" d="M8.91505 8.91588C10.4968 8.91588 11.7793 7.63413 11.7793 6.05163C11.7793 4.46988 10.4968 3.18738 8.91505 3.18738C7.3333 3.18738 6.0508 4.46988 6.0508 6.05163C6.0448 7.62813 7.31755 8.91063 8.89405 8.91588H8.91505Z" stroke="#6842EF" stroke-width="1.5" stroke-linecap="round" stroke-linejoin="round"/>
<path id="Stroke 9" d="M4.41357 8.17242C3.36657 8.02542 2.56182 7.12842 2.55957 6.04167C2.55957 4.97067 3.34032 4.08267 4.36407 3.91467" stroke="#6842EF" stroke-width="1.5" stroke-linecap="round" stroke-linejoin="round"/>
<path id="Stroke 11" d="M3.033 10.6876C2.01975 10.8391 1.3125 11.1939 1.3125 11.9251C1.3125 12.4284 1.6455 12.7554 2.184 12.9609" stroke="#6842EF" stroke-width="1.5" stroke-linecap="round" stroke-linejoin="round"/>
</g>
</g>
</svg>
