<svg width="20" height="20" viewBox="0 0 20 20" fill="none" xmlns="http://www.w3.org/2000/svg">
<g id="Iconly/Two-tone/3 User">
<g id="3 User">
<path id="Stroke 1" opacity="0.4" d="M14.9064 9.08058C16.0689 8.91725 16.9639 7.92058 16.9664 6.71308C16.9664 5.52308 16.0989 4.53642 14.9614 4.34975" stroke="#202730" stroke-width="1.5" stroke-linecap="round" stroke-linejoin="round"/>
<path id="Stroke 3" d="M16.4404 11.8753C17.5663 12.0436 18.3521 12.4378 18.3521 13.2503C18.3521 13.8094 17.9821 14.1728 17.3838 14.4011" stroke="#202730" stroke-width="1.5" stroke-linecap="round" stroke-linejoin="round"/>
<path id="Stroke 5" fill-rule="evenodd" clip-rule="evenodd" d="M9.90559 12.2198C7.22726 12.2198 4.93976 12.6257 4.93976 14.2465C4.93976 15.8665 7.21309 16.284 9.90559 16.284C12.5839 16.284 14.8706 15.8823 14.8706 14.2607C14.8706 12.639 12.5981 12.2198 9.90559 12.2198Z" stroke="#202730" stroke-width="1.5" stroke-linecap="round" stroke-linejoin="round"/>
<path id="Stroke 7" opacity="0.4" fill-rule="evenodd" clip-rule="evenodd" d="M9.90561 9.90658C11.6631 9.90658 13.0881 8.48242 13.0881 6.72408C13.0881 4.96658 11.6631 3.54158 9.90561 3.54158C8.14811 3.54158 6.72311 4.96658 6.72311 6.72408C6.71644 8.47575 8.13061 9.90075 9.88227 9.90658H9.90561Z" stroke="#202730" stroke-width="1.5" stroke-linecap="round" stroke-linejoin="round"/>
<path id="Stroke 9" opacity="0.4" d="M4.90399 9.08058C3.74066 8.91725 2.84649 7.92058 2.84399 6.71308C2.84399 5.52308 3.71149 4.53642 4.84899 4.34975" stroke="#202730" stroke-width="1.5" stroke-linecap="round" stroke-linejoin="round"/>
<path id="Stroke 11" d="M3.36992 11.8753C2.24409 12.0436 1.45825 12.4378 1.45825 13.2503C1.45825 13.8094 1.82825 14.1728 2.42659 14.4011" stroke="#202730" stroke-width="1.5" stroke-linecap="round" stroke-linejoin="round"/>
</g>
</g>
</svg>
