<svg width="62" height="62" viewBox="0 0 62 62" fill="none" xmlns="http://www.w3.org/2000/svg">
<rect x="1" y="1" width="60" height="60" rx="20" fill="white" stroke="white" stroke-opacity="0.1" stroke-width="0.5"/>
<path fill-rule="evenodd" clip-rule="evenodd" d="M39.2499 39.2482C35.6844 42.8141 30.4047 43.5845 26.0841 41.5863C25.4463 41.3295 24.9234 41.122 24.4262 41.122C23.0416 41.1302 21.318 42.4728 20.4222 41.5781C19.5265 40.6823 20.8701 38.9573 20.8701 37.5643C20.8701 37.0671 20.6708 36.5535 20.414 35.9144C18.4149 31.5945 19.1864 26.3131 22.7519 22.7484C27.3035 18.1952 34.6983 18.1952 39.2499 22.7472C43.8097 27.3075 43.8015 34.6961 39.2499 39.2482Z" stroke="#FF8B67" stroke-width="2" stroke-linecap="round" stroke-linejoin="round"/>
<path opacity="0.4" d="M35.596 31.4818H35.6065" stroke="#FF8B67" stroke-width="3" stroke-linecap="round" stroke-linejoin="round"/>
<path opacity="0.4" d="M30.9188 31.4818H30.9293" stroke="#FF8B67" stroke-width="3" stroke-linecap="round" stroke-linejoin="round"/>
<path opacity="0.4" d="M26.2416 31.4818H26.2521" stroke="#FF8B67" stroke-width="3" stroke-linecap="round" stroke-linejoin="round"/>
</svg>
