<svg width="20" height="20" viewBox="0 0 20 20" fill="none" xmlns="http://www.w3.org/2000/svg">
<path fill-rule="evenodd" clip-rule="evenodd" d="M12.2802 2.30164H6.73687C5.02104 2.30164 3.54187 3.69247 3.54187 5.40914V14.45C3.54187 16.2633 4.92354 17.5958 6.73687 17.5958H13.3935C15.1102 17.5958 16.5019 16.1666 16.5019 14.45V6.6983L12.2802 2.30164Z" stroke="#202730" stroke-width="1.5" stroke-linecap="round" stroke-linejoin="round"/>
<path d="M12.0613 2.29187V4.71604C12.0613 5.89937 13.0188 6.85937 14.2021 6.86187C15.2988 6.86437 16.4213 6.8652 16.4971 6.8602" stroke="#202730" stroke-width="1.5" stroke-linecap="round" stroke-linejoin="round"/>
<path opacity="0.4" fill-rule="evenodd" clip-rule="evenodd" d="M10.6196 8.72046C10.6196 8.30625 10.2839 7.97046 9.86964 7.97046C9.45543 7.97046 9.11964 8.30625 9.11964 8.72046V10.0119H7.82776C7.41355 10.0119 7.07776 10.3477 7.07776 10.7619C7.07776 11.1761 7.41355 11.5119 7.82776 11.5119H9.11964V12.8046C9.11964 13.2188 9.45543 13.5546 9.86964 13.5546C10.2839 13.5546 10.6196 13.2188 10.6196 12.8046V11.5119H11.9119C12.3261 11.5119 12.6619 11.1761 12.6619 10.7619C12.6619 10.3477 12.3261 10.0119 11.9119 10.0119H10.6196V8.72046Z" fill="#202730"/>
</svg>
