<svg width="12" height="21" viewBox="0 0 12 21" fill="none" xmlns="http://www.w3.org/2000/svg">
<path d="M6.776 20.088V17.616C9.536 17.16 11.024 15.336 11.024 13.2C11.024 11.016 9.896 9.696 7.04 8.688C4.976 7.944 4.136 7.416 4.136 6.648C4.136 5.976 4.64 5.28 6.2 5.28C7.928 5.28 9.056 5.832 9.656 6.12L10.376 3.408C9.536 3.024 8.456 2.664 6.872 2.616V0.503999H4.52V2.784C1.952 3.264 0.464 4.92 0.464 7.056C0.464 9.384 2.216 10.584 4.784 11.448C6.584 12.048 7.352 12.624 7.352 13.536C7.352 14.472 6.416 15.024 5.024 15.024C3.464 15.024 2.048 14.52 1.04 13.968L0.32 16.776C1.232 17.28 2.792 17.736 4.4 17.808V20.088H6.776Z" fill="#202730"/>
</svg>
