<svg width="35" height="35" viewBox="0 0 35 35" fill="none" xmlns="http://www.w3.org/2000/svg">
<rect width="35" height="35" rx="10" fill="#D7F6F6"/>
<g clip-path="url(#clip0_15418_22513)">
<path d="M24.0294 22.3605C24.0243 22.3689 24.0213 22.3784 24.0209 22.3883C24.0205 22.3982 24.0226 22.4081 24.027 22.4171C24.3896 23.1376 24.736 23.8308 25.0662 24.4969C25.1499 24.666 25.1914 24.8875 25.1822 25.0735C25.1544 25.6321 24.7895 26.1148 24.24 26.254C24.1289 26.2824 23.9723 26.2966 23.77 26.2966C21.0789 26.297 18.9923 26.2972 17.5101 26.2969C17.2626 26.2969 17.0283 26.2905 16.8073 26.2776C16.5378 26.2621 16.3012 26.2431 16.0975 26.2206C14.5867 26.0545 13.2228 25.5113 12.0056 24.5911C9.22549 22.4888 8.07061 18.8716 9.09893 15.5479C9.76514 13.3939 11.3268 11.5559 13.3704 10.5659C14.6878 9.92794 16.0799 9.65408 17.5466 9.74431C20.9269 9.95244 23.8551 12.2703 24.882 15.4878C25.6178 17.7933 25.3035 20.3042 24.0294 22.3605ZM16.0433 24.3482L16.0443 24.3447L16.0436 24.3411L16.0413 24.3383L16.0381 24.337C12.3987 23.7762 9.95956 20.2722 10.7284 16.6711C11.2642 14.1606 13.2484 12.206 15.7593 11.7117C17.5329 11.3622 19.3572 11.7721 20.8165 12.8528C23.14 14.5741 24.0006 17.6021 22.9871 20.2947C22.9852 20.2996 22.9843 20.3048 22.9846 20.31C22.9848 20.3152 22.9861 20.3203 22.9885 20.3249L23.5527 21.4542C23.5614 21.4715 23.5703 21.4715 23.5794 21.4542C25.03 18.6627 24.5951 15.2811 22.4597 12.9653C20.2417 10.5603 16.7268 9.89478 13.7881 11.3021C11.112 12.5835 9.44874 15.3521 9.57987 18.3182C9.62135 19.2581 9.82127 20.1339 10.1796 20.9458C10.8591 22.4854 11.9332 23.6699 13.4021 24.4994C14.1593 24.9269 15.0161 25.2124 15.8718 25.3431C15.8743 25.3436 15.8768 25.3434 15.8792 25.3426C15.8816 25.3418 15.8837 25.3404 15.8855 25.3385C15.8872 25.3367 15.8884 25.3344 15.889 25.332C15.8896 25.3295 15.8896 25.327 15.889 25.3245C15.8029 24.9775 15.8746 24.6583 16.0433 24.3482ZM11.9529 15.6541C10.8473 17.9983 11.549 20.8034 13.5778 22.3879C14.4075 23.0357 15.3581 23.4192 16.4297 23.5382C16.4361 23.5389 16.4426 23.5377 16.4483 23.5346C16.454 23.5315 16.4587 23.5268 16.4617 23.521C17.4353 21.5806 18.3872 19.6762 19.3174 17.8077C19.483 17.4752 19.6507 17.2491 19.9717 17.0962C20.607 16.7942 21.3431 17.0491 21.6617 17.6851C21.9223 18.2054 22.1758 18.7123 22.4221 19.2059C22.4282 19.2181 22.4326 19.2175 22.4355 19.2042C22.8144 17.4351 22.3448 15.6179 21.1357 14.2774C20.5238 13.5991 19.7906 13.1006 18.9364 12.7818C17.4492 12.2267 15.7452 12.3395 14.3548 13.1038C13.2757 13.697 12.4751 14.5471 11.9529 15.6541ZM16.7479 24.8411C16.7156 24.9056 16.7004 24.9772 16.7037 25.0493C16.7069 25.1213 16.7285 25.1913 16.7664 25.2526C16.8043 25.3139 16.8572 25.3645 16.9202 25.3996C16.9832 25.4348 17.0541 25.4532 17.1262 25.4532H23.9155C23.9876 25.4532 24.0585 25.4348 24.1215 25.3996C24.1845 25.3645 24.2374 25.3139 24.2753 25.2526C24.3132 25.1913 24.3348 25.1213 24.338 25.0493C24.3413 24.9772 24.3261 24.9056 24.2938 24.8411L20.8991 18.05C20.864 17.9797 20.81 17.9206 20.7432 17.8793C20.6764 17.8381 20.5994 17.8162 20.5208 17.8162C20.4423 17.8162 20.3653 17.8381 20.2985 17.8793C20.2317 17.9206 20.1777 17.9797 20.1426 18.05L16.7479 24.8411Z" fill="#24CBC7"/>
<path d="M16.5791 18.3084C16.5773 17.3451 16.5771 16.2774 16.5788 15.1053C16.5791 14.7886 16.9289 14.6008 17.213 14.7552C17.3645 14.8374 17.4261 15.002 17.425 15.1707C17.4189 16.2399 17.4188 17.3747 17.4246 18.5749C17.4254 18.7296 17.3473 18.8667 17.2148 18.9426C16.4561 19.3774 15.6971 19.8152 14.9377 20.2561C14.4135 20.5605 13.9937 19.8265 14.4979 19.535C15.1584 19.153 15.8447 18.7569 16.557 18.3467C16.5718 18.3381 16.5791 18.3253 16.5791 18.3084Z" fill="#24CBC7"/>
<path d="M20.498 19.8025L20.4776 19.8025C20.2507 19.8021 20.0663 19.9858 20.0659 20.2127L20.061 23.0421C20.0606 23.2691 20.2443 23.4534 20.4713 23.4538L20.4916 23.4538C20.7186 23.4542 20.9029 23.2706 20.9033 23.0436L20.9083 20.2142C20.9087 19.9872 20.725 19.8029 20.498 19.8025Z" fill="#24CBC7"/>
<path d="M20.4847 24.7179C20.7169 24.7179 20.9051 24.5296 20.9051 24.2974C20.9051 24.0652 20.7169 23.877 20.4847 23.877C20.2525 23.877 20.0642 24.0652 20.0642 24.2974C20.0642 24.5296 20.2525 24.7179 20.4847 24.7179Z" fill="#24CBC7"/>
</g>
<defs>
<clipPath id="clip0_15418_22513">
<rect width="18" height="18" fill="white" transform="translate(8 9)"/>
</clipPath>
</defs>
</svg>
