<svg width="30" height="30" viewBox="0 0 30 30" fill="none" xmlns="http://www.w3.org/2000/svg">
<rect width="30" height="30" rx="15" fill="#6842EF"/>
<path fill-rule="evenodd" clip-rule="evenodd" d="M20.8339 21.6265H15.9985C15.7225 21.6265 15.4985 21.4025 15.4985 21.1265C15.4985 20.8505 15.7225 20.6265 15.9985 20.6265H20.8339C21.1099 20.6265 21.3339 20.8505 21.3339 21.1265C21.3339 21.4025 21.1099 21.6265 20.8339 21.6265" fill="white"/>
<mask id="mask0_9887_10782" style="mask-type:luminance" maskUnits="userSpaceOnUse" x="8" y="9" width="12" height="13">
<path fill-rule="evenodd" clip-rule="evenodd" d="M8.3335 9H19.7872V21.6264H8.3335V9Z" fill="white"/>
</mask>
<g mask="url(#mask0_9887_10782)">
<path fill-rule="evenodd" clip-rule="evenodd" d="M15.7403 10.3444L9.46368 18.1944C9.34968 18.3371 9.30768 18.5211 9.34968 18.6978L9.80368 20.6211L11.8297 20.5958C12.0223 20.5938 12.2003 20.5078 12.3183 20.3611C14.463 17.6778 18.5517 12.5618 18.6677 12.4118C18.777 12.2344 18.8197 11.9838 18.7623 11.7424C18.7037 11.4951 18.5497 11.2851 18.3277 11.1511C18.2803 11.1184 17.157 10.2464 17.1223 10.2191C16.6997 9.88043 16.083 9.9391 15.7403 10.3444V10.3444ZM9.40901 21.6264C9.17768 21.6264 8.97635 21.4678 8.92235 21.2418L8.37635 18.9278C8.26368 18.4484 8.37568 17.9538 8.68301 17.5698L14.963 9.7151C14.9657 9.71243 14.9677 9.7091 14.9703 9.70643C15.659 8.8831 16.9043 8.76176 17.7443 9.43576C17.7777 9.46176 18.893 10.3284 18.893 10.3284C19.2983 10.5698 19.615 11.0011 19.735 11.5118C19.8543 12.0171 19.7677 12.5384 19.4897 12.9791C19.469 13.0118 19.451 13.0398 13.099 20.9864C12.793 21.3678 12.3343 21.5898 11.8417 21.5958L9.41568 21.6264H9.40901Z" fill="white"/>
</g>
<path fill-rule="evenodd" clip-rule="evenodd" d="M17.8155 14.7898C17.7089 14.7898 17.6022 14.7558 17.5109 14.6865L13.8762 11.8945C13.6575 11.7265 13.6162 11.4132 13.7842 11.1932C13.9529 10.9745 14.2662 10.9338 14.4855 11.1018L18.1209 13.8932C18.3395 14.0612 18.3809 14.3752 18.2122 14.5945C18.1142 14.7225 17.9655 14.7898 17.8155 14.7898" fill="white"/>
</svg>
