<svg width="62" height="62" viewBox="0 0 62 62" fill="none" xmlns="http://www.w3.org/2000/svg">
<rect x="1" y="1" width="60" height="60" rx="20" fill="white" stroke="white" stroke-opacity="0.1" stroke-width="0.5"/>
<path opacity="0.4" d="M37.869 29.7128C39.4965 29.4841 40.7495 28.0888 40.753 26.3983C40.753 24.7323 39.5385 23.3509 37.946 23.0896" stroke="#FFA526" stroke-width="2" stroke-linecap="round" stroke-linejoin="round"/>
<path d="M40.0166 33.6253C41.5928 33.861 42.6929 34.4128 42.6929 35.5503C42.6929 36.3331 42.1749 36.8418 41.3373 37.1615" stroke="#FFA526" stroke-width="2" stroke-linecap="round" stroke-linejoin="round"/>
<path fill-rule="evenodd" clip-rule="evenodd" d="M30.8678 34.1077C27.1182 34.1077 23.9157 34.6759 23.9157 36.9451C23.9157 39.2131 27.0983 39.7976 30.8678 39.7976C34.6175 39.7976 37.8188 39.2352 37.8188 36.9649C37.8188 34.6946 34.6373 34.1077 30.8678 34.1077Z" stroke="#FFA526" stroke-width="2" stroke-linecap="round" stroke-linejoin="round"/>
<path opacity="0.4" fill-rule="evenodd" clip-rule="evenodd" d="M30.8678 30.8692C33.3283 30.8692 35.3233 28.8754 35.3233 26.4137C35.3233 23.9532 33.3283 21.9582 30.8678 21.9582C28.4073 21.9582 26.4123 23.9532 26.4123 26.4137C26.403 28.866 28.3828 30.861 30.8352 30.8692H30.8678Z" stroke="#FFA526" stroke-width="2" stroke-linecap="round" stroke-linejoin="round"/>
<path opacity="0.4" d="M23.8656 29.7128C22.237 29.4841 20.9851 28.0888 20.9816 26.3983C20.9816 24.7323 22.1961 23.3509 23.7886 23.0896" stroke="#FFA526" stroke-width="2" stroke-linecap="round" stroke-linejoin="round"/>
<path d="M21.7179 33.6253C20.1417 33.861 19.0416 34.4128 19.0416 35.5503C19.0416 36.3331 19.5596 36.8418 20.3972 37.1615" stroke="#FFA526" stroke-width="2" stroke-linecap="round" stroke-linejoin="round"/>
</svg>
