<svg width="30" height="30" viewBox="0 0 30 30" fill="none" xmlns="http://www.w3.org/2000/svg">
<rect width="30" height="30" rx="15" fill="#6842EF"/>
<path fill-rule="evenodd" clip-rule="evenodd" d="M14.9997 13.231C14.0022 13.231 13.1914 14.0425 13.1914 15.04C13.1914 16.0367 14.0022 16.8475 14.9997 16.8475C15.9972 16.8475 16.8087 16.0367 16.8087 15.04C16.8087 14.0425 15.9972 13.231 14.9997 13.231ZM14.9997 17.9725C13.3819 17.9725 12.0664 16.657 12.0664 15.04C12.0664 13.4222 13.3819 12.106 14.9997 12.106C16.6174 12.106 17.9337 13.4222 17.9337 15.04C17.9337 16.657 16.6174 17.9725 14.9997 17.9725Z" fill="white"/>
<mask id="mask0_9873_10652" style="mask-type:luminance" maskUnits="userSpaceOnUse" x="7" y="9" width="16" height="13">
<path fill-rule="evenodd" clip-rule="evenodd" d="M7.50012 9.00024H22.5V21.079H7.50012V9.00024Z" fill="white"/>
</mask>
<g mask="url(#mask0_9873_10652)">
<path fill-rule="evenodd" clip-rule="evenodd" d="M8.67743 15.0396C10.0724 18.1213 12.4222 19.9536 14.9999 19.9543C17.5777 19.9536 19.9274 18.1213 21.3224 15.0396C19.9274 11.9586 17.5777 10.1263 14.9999 10.1256C12.4229 10.1263 10.0724 11.9586 8.67743 15.0396ZM15.0014 21.0793H14.9984H14.9977C11.8957 21.0771 9.11018 18.9028 7.54568 15.2616C7.48493 15.1198 7.48493 14.9593 7.54568 14.8176C9.11018 11.1771 11.8964 9.00281 14.9977 9.00056C14.9992 8.99981 14.9992 8.99981 14.9999 9.00056C15.0014 8.99981 15.0014 8.99981 15.0022 9.00056C18.1042 9.00281 20.8897 11.1771 22.4542 14.8176C22.5157 14.9593 22.5157 15.1198 22.4542 15.2616C20.8904 18.9028 18.1042 21.0771 15.0022 21.0793H15.0014Z" fill="white"/>
</g>
</svg>
