<svg width="35" height="35" viewBox="0 0 35 35" fill="none" xmlns="http://www.w3.org/2000/svg">
<rect width="35" height="35" rx="10" fill="#D7F6F6"/>
<path d="M19.3872 12.1875V14.0025" stroke="#24CBC7" stroke-width="1.5" stroke-linecap="round" stroke-linejoin="round"/>
<path d="M19.3872 22.3203V23.8383" stroke="#24CBC7" stroke-width="1.5" stroke-linecap="round" stroke-linejoin="round"/>
<path d="M19.3872 19.7437V16.1279" stroke="#24CBC7" stroke-width="1.5" stroke-linecap="round" stroke-linejoin="round"/>
<path fill-rule="evenodd" clip-rule="evenodd" d="M23.0266 24C24.3931 24 25.5 22.9069 25.5 21.5574V19.613C24.5957 19.613 23.8675 18.8938 23.8675 18.0008C23.8675 17.1078 24.5957 16.3878 25.5 16.3878L25.4992 14.4426C25.4992 13.0931 24.3916 12 23.0258 12H12.9742C11.6084 12 10.5008 13.0931 10.5008 14.4426L10.5 16.4511C11.4043 16.4511 12.1325 17.1078 12.1325 18.0008C12.1325 18.8938 11.4043 19.613 10.5 19.613V21.5574C10.5 22.9069 11.6069 24 12.9734 24H23.0266Z" stroke="#24CBC7" stroke-width="1.5" stroke-linecap="round" stroke-linejoin="round"/>
</svg>
