<svg width="18" height="18" viewBox="0 0 18 18" fill="none" xmlns="http://www.w3.org/2000/svg">
<g id="Iconly/Two-tone/Work">
<g id="Work">
<path id="Stroke 1" d="M2.10303 11.6078C2.10303 11.6078 2.20953 12.9113 2.23428 13.3223C2.26728 13.8735 2.48028 14.4893 2.83578 14.9168C3.33753 15.5228 3.92853 15.7365 4.71753 15.738C5.64528 15.7395 12.3915 15.7395 13.3193 15.738C14.1083 15.7365 14.6993 15.5228 15.201 14.9168C15.5565 14.4893 15.7695 13.8735 15.8033 13.3223C15.8273 12.9113 15.9338 11.6078 15.9338 11.6078" stroke="#6842EF" stroke-width="1.5" stroke-linecap="round" stroke-linejoin="round"/>
<path id="Stroke 3" d="M6.37183 3.99712V3.71887C6.37183 2.80387 7.11283 2.06287 8.02783 2.06287H9.96433C10.8786 2.06287 11.6203 2.80387 11.6203 3.71887L11.6211 3.99712" stroke="#6842EF" stroke-width="1.5" stroke-linecap="round" stroke-linejoin="round"/>
<path id="Stroke 5" d="M8.99609 12.5086V11.5381" stroke="#6842EF" stroke-width="1.5" stroke-linecap="round" stroke-linejoin="round"/>
<path id="Stroke 7" fill-rule="evenodd" clip-rule="evenodd" d="M2.06226 6.29179V8.89204C3.50076 9.84079 5.22426 10.5053 7.11576 10.7685C7.34226 9.94279 8.08701 9.33754 8.99226 9.33754C9.88326 9.33754 10.643 9.94279 10.8545 10.776C12.7535 10.5128 14.4838 9.84829 15.9298 8.89204V6.29179C15.9298 5.02129 14.9075 3.99829 13.637 3.99829H4.36251C3.09201 3.99829 2.06226 5.02129 2.06226 6.29179Z" stroke="#6842EF" stroke-width="1.5" stroke-linecap="round" stroke-linejoin="round"/>
</g>
</g>
</svg>
