<svg width="20" height="20" viewBox="0 0 20 20" fill="none" xmlns="http://www.w3.org/2000/svg">
<path fill-rule="evenodd" clip-rule="evenodd" d="M12.2802 2.30151H6.73692C5.02108 2.30151 3.54192 3.69235 3.54192 5.40901V14.4498C3.54192 16.2632 4.92358 17.5957 6.73692 17.5957H13.3936C15.1102 17.5957 16.5019 16.1665 16.5019 14.4498V6.69818L12.2802 2.30151Z" stroke="#6842EF" stroke-width="1.5" stroke-linecap="round" stroke-linejoin="round"/>
<path d="M12.0613 2.29175V4.71591C12.0613 5.89925 13.0188 6.85925 14.2022 6.86175C15.2988 6.86425 16.4213 6.86508 16.4972 6.86008" stroke="#6842EF" stroke-width="1.5" stroke-linecap="round" stroke-linejoin="round"/>
<path fill-rule="evenodd" clip-rule="evenodd" d="M10.6197 8.72021C10.6197 8.306 10.284 7.97021 9.86974 7.97021C9.45552 7.97021 9.11974 8.306 9.11974 8.72021V10.0116H7.82786C7.41364 10.0116 7.07786 10.3474 7.07786 10.7616C7.07786 11.1759 7.41364 11.5116 7.82786 11.5116H9.11974V12.8044C9.11974 13.2186 9.45552 13.5544 9.86974 13.5544C10.284 13.5544 10.6197 13.2186 10.6197 12.8044V11.5116H11.912C12.3262 11.5116 12.662 11.1759 12.662 10.7616C12.662 10.3474 12.3262 10.0116 11.912 10.0116H10.6197V8.72021Z" fill="#6842EF"/>
</svg>
