<svg width="20" height="20" viewBox="0 0 20 20" fill="none" xmlns="http://www.w3.org/2000/svg">
<path d="M2.57721 7.83688H17.4305" stroke="#6842EF" stroke-width="1.5" stroke-linecap="round" stroke-linejoin="round"/>
<path fill-rule="evenodd" clip-rule="evenodd" d="M5.54825 11.0916C5.54825 10.6773 5.88403 10.3416 6.29825 10.3416H6.30597C6.72018 10.3416 7.05597 10.6773 7.05597 11.0916C7.05597 11.5058 6.72018 11.8416 6.30597 11.8416H6.29825C5.88403 11.8416 5.54825 11.5058 5.54825 11.0916ZM10.0039 10.3416C9.58964 10.3416 9.25385 10.6773 9.25385 11.0916C9.25385 11.5058 9.58964 11.8416 10.0039 11.8416H10.0116C10.4258 11.8416 10.7616 11.5058 10.7616 11.0916C10.7616 10.6773 10.4258 10.3416 10.0116 10.3416H10.0039ZM13.7017 10.3416C13.2875 10.3416 12.9517 10.6773 12.9517 11.0916C12.9517 11.5058 13.2875 11.8416 13.7017 11.8416H13.7095C14.1237 11.8416 14.4595 11.5058 14.4595 11.0916C14.4595 10.6773 14.1237 10.3416 13.7095 10.3416H13.7017ZM13.7017 13.5803C13.2875 13.5803 12.9517 13.9161 12.9517 14.3303C12.9517 14.7445 13.2875 15.0803 13.7017 15.0803H13.7095C14.1237 15.0803 14.4595 14.7445 14.4595 14.3303C14.4595 13.9161 14.1237 13.5803 13.7095 13.5803H13.7017ZM9.25385 14.3303C9.25385 13.9161 9.58964 13.5803 10.0039 13.5803H10.0116C10.4258 13.5803 10.7616 13.9161 10.7616 14.3303C10.7616 14.7445 10.4258 15.0803 10.0116 15.0803H10.0039C9.58964 15.0803 9.25385 14.7445 9.25385 14.3303ZM6.29825 13.5803C5.88403 13.5803 5.54825 13.9161 5.54825 14.3303C5.54825 14.7445 5.88403 15.0803 6.29825 15.0803H6.30597C6.72018 15.0803 7.05597 14.7445 7.05597 14.3303C7.05597 13.9161 6.72018 13.5803 6.30597 13.5803H6.29825Z" fill="#6842EF"/>
<path d="M13.3698 1.66675V4.40906" stroke="#6842EF" stroke-width="1.5" stroke-linecap="round" stroke-linejoin="round"/>
<path d="M6.63792 1.66675V4.40906" stroke="#6842EF" stroke-width="1.5" stroke-linecap="round" stroke-linejoin="round"/>
<path fill-rule="evenodd" clip-rule="evenodd" d="M13.5319 2.98267H6.4758C4.02856 2.98267 2.5 4.34594 2.5 6.85185V14.3932C2.5 16.9385 4.02856 18.3333 6.4758 18.3333H13.5242C15.9791 18.3333 17.5 16.9622 17.5 14.4563V6.85185C17.5077 4.34594 15.9868 2.98267 13.5319 2.98267Z" stroke="#6842EF" stroke-width="1.5" stroke-linecap="round" stroke-linejoin="round"/>
</svg>
