<svg width="22" height="22" viewBox="0 0 22 22" fill="none" xmlns="http://www.w3.org/2000/svg">
<g id="Iconly/Two-tone/Notification">
<g id="Notification">
<path id="Stroke 1 (Stroke)" fill-rule="evenodd" clip-rule="evenodd" d="M3.87559 7.28303C3.87559 4.16037 6.76095 0.833344 11 0.833344C15.239 0.833344 18.1244 4.16037 18.1244 7.28303C18.1244 8.01055 18.2168 8.50636 18.3366 8.87758C18.4569 9.25067 18.6173 9.5394 18.8165 9.87276C18.8367 9.90664 18.8577 9.94156 18.8794 9.97751C19.0629 10.2822 19.2914 10.6615 19.4652 11.1165C19.6682 11.6475 19.7916 12.2574 19.7916 13.0355C19.7916 13.0643 19.7904 13.0932 19.7879 13.1219C19.7172 13.9365 19.4729 14.6711 18.9948 15.2895C18.5195 15.9044 17.8702 16.3304 17.1124 16.6272C15.6449 17.2019 13.5811 17.3603 11 17.3603C8.42036 17.3603 6.35658 17.2045 4.88909 16.6313C4.1309 16.3351 3.48114 15.9093 3.00542 15.2935C2.52708 14.6743 2.28292 13.9384 2.21206 13.1219C2.20956 13.0932 2.20831 13.0643 2.20831 13.0355C2.20831 12.2574 2.33178 11.6475 2.53471 11.1165C2.70857 10.6615 2.93706 10.2822 3.12056 9.97751C3.14222 9.94155 3.16325 9.90663 3.18349 9.87276C3.38265 9.5394 3.54301 9.25067 3.66338 8.87758C3.78315 8.50636 3.87559 8.01055 3.87559 7.28303ZM11 2.83334C7.82275 2.83334 5.87559 5.30724 5.87559 7.28303C5.87559 8.18731 5.75962 8.89396 5.56677 9.49168C5.37453 10.0875 5.11807 10.5342 4.90041 10.8985C4.87956 10.9334 4.85932 10.9672 4.83965 11C4.64708 11.3213 4.51022 11.5497 4.40294 11.8304C4.2962 12.1097 4.2129 12.464 4.2085 12.9914C4.25746 13.4874 4.39676 13.8231 4.58814 14.0708C4.78754 14.3289 5.10213 14.5673 5.61682 14.7684C6.69511 15.1896 8.41123 15.3603 11 15.3603C13.5882 15.3603 15.3047 15.1872 16.383 14.7649C16.898 14.5632 17.213 14.3244 17.4126 14.0663C17.6039 13.8188 17.7428 13.4843 17.7915 12.9914C17.7871 12.464 17.7038 12.1097 17.597 11.8304C17.4897 11.5497 17.3529 11.3213 17.1603 11C17.1406 10.9672 17.1204 10.9334 17.0995 10.8985C16.8819 10.5342 16.6254 10.0875 16.4332 9.49168C16.2403 8.89396 16.1244 8.18731 16.1244 7.28303C16.1244 5.30724 14.1772 2.83334 11 2.83334Z" fill="#130F26"/>
<path id="Stroke 3 (Stroke)" opacity="0.4" fill-rule="evenodd" clip-rule="evenodd" d="M8.05778 18.3753C8.46858 18.0062 9.10085 18.0399 9.46997 18.4508C10.3312 19.4092 11.5895 19.4017 12.4466 18.4499C12.8162 18.0395 13.4485 18.0064 13.8589 18.376C14.2693 18.7456 14.3024 19.3779 13.9328 19.7883C12.289 21.6136 9.64591 21.6389 7.98231 19.7875C7.61318 19.3767 7.64697 18.7444 8.05778 18.3753Z" fill="#130F26"/>
</g>
<circle id="Ellipse 1" cx="17" cy="5" r="4.25" fill="#D64430" stroke="white" stroke-width="1.5"/>
</g>
</svg>
