<svg width="631" height="178" viewBox="0 0 631 178" fill="none" xmlns="http://www.w3.org/2000/svg">
<g opacity="0.5">
<path opacity="0.5" d="M197.568 86.6793C197.568 86.6793 194.636 62.0642 182 47.3558C180.332 45.4098 177.123 46.6482 177.173 49.2259C177.173 49.2765 177.173 49.3017 177.173 49.3523C177.35 53.7497 191.477 72.2995 197.568 86.6793Z" fill="#BCB3DE"/>
<path opacity="0.5" d="M199.11 93.7303C199.11 93.7303 186.524 62.9488 165.068 49.3523C163.754 48.5183 161.985 48.8216 161.1 50.1105C160.519 50.9445 160.266 52.2333 160.923 54.2804C162.616 59.6886 186.575 77.9099 199.11 93.7303Z" fill="#BCB3DE"/>
</g>
<g opacity="0.5">
<path opacity="0.5" d="M58.1665 162.723C58.1665 162.723 40.3496 145.488 21.2943 142.051C18.7671 141.596 17.0486 144.578 18.7166 146.549C18.7418 146.574 18.7671 146.625 18.7924 146.65C21.6987 149.936 44.3678 155.394 58.1665 162.723Z" fill="#BCB3DE"/>
<path opacity="0.5" d="M63.8022 167.222C63.8022 167.222 34.6129 151.275 9.36593 154.282C7.82432 154.459 6.63652 155.824 6.76288 157.366C6.8387 158.377 7.47051 159.539 9.23956 160.702C14.016 163.835 44.0899 162.85 63.8022 167.222Z" fill="#BCB3DE"/>
</g>
<path opacity="0.5" d="M73.7847 75.6859C73.7847 75.6859 72.7485 100.554 68.1237 100.074C63.4989 99.5934 71.2827 72.451 71.2827 72.451C71.2827 72.451 51.6209 56.6559 42.7251 55.4681C42.7251 55.4681 51.0649 81.9281 46.6929 80.336C42.346 78.7438 32.3888 51.6015 32.3888 51.6015C32.3888 51.6015 10.6547 42.1244 3.88175 54.7352C-2.8912 67.3461 1.43034 75.4332 4.61464 77.0506C7.77366 78.668 29.4319 83.3939 28.2189 86.0728C27.0058 88.7516 11.3876 89.8383 3.83121 85.441C3.83121 85.441 7.64731 109.677 19.7021 111.294C31.7317 112.912 37.0642 106.467 44.4942 107.605C51.9242 108.742 56.7765 111.926 52.6824 113.063C48.5883 114.175 36.5587 110.006 29.5078 113.645C22.4568 117.284 16.9727 119.255 27.3849 124.032C37.797 128.808 57.7368 131.967 63.6252 124.461C63.878 124.133 64.1307 123.829 64.3581 123.526C63.9538 124.158 63.6252 124.461 63.6252 124.461C65.369 126.104 67.0875 132.422 68.1995 137.224C68.3259 138.032 68.5786 139.144 68.9577 140.686C69.1093 141.368 69.2104 141.924 69.2862 142.329C70.9036 152.867 64.9899 169.041 64.9899 169.041L67.1886 170.204C76.2613 154.611 70.3729 138.74 70.3729 138.74C67.037 126.432 69.5137 116.981 69.5137 116.981C69.5137 116.981 93.2695 110.081 87.1789 91.8348C87.1789 91.8096 81.619 80.1591 73.7847 75.6859Z" fill="#BCB3DE"/>
<path opacity="0.5" d="M499.318 55.9483C495.249 41.063 470.103 45.7636 470.103 45.7636C470.103 45.7636 453.07 71.8698 448.116 72.5016C443.138 73.1334 458.301 47.3305 458.301 47.3305C448.672 46.4207 424.184 58.2734 424.184 58.2734C424.184 58.2734 425.801 88.7011 420.822 88.0946C415.844 87.488 420.772 61.0786 420.772 61.0786C411.472 63.8838 402.803 74.7761 402.803 74.7761C391.962 92.4919 415.288 105.482 415.288 105.482C415.288 105.482 415.616 116.046 409.121 128.151C409.121 128.151 407.656 130.4 406.165 134.191H408.692C408.894 133.509 409.121 132.852 409.374 132.22V132.195C409.551 131.79 409.804 131.234 410.107 130.552C410.89 129.036 411.396 127.898 411.724 127.09C414.049 122.313 417.385 116.096 419.609 114.782C419.609 114.782 419.331 114.378 419.053 113.619C419.23 113.999 419.407 114.378 419.609 114.782C423.981 124.082 445.716 125.599 457.821 123.097C469.926 120.595 464.644 117.183 458.099 111.648C451.579 106.114 437.906 107.605 433.863 105.431C429.819 103.258 435.708 101.084 443.795 101.691C451.857 102.298 455.926 110.359 468.966 111.572C482.006 112.786 491.888 88.2462 491.888 88.2462C482.891 91.0514 466.742 86.1233 466.11 83.0149C465.478 79.9064 489.386 80.1844 493.101 79.224C496.866 78.3142 503.387 70.8589 499.318 55.9483Z" fill="#BCB3DE"/>
<path d="M110.202 102.298C113.235 101.994 116.849 101.464 118.289 100.579C120.462 99.2396 124.253 93.6291 126.604 89.5603C126.679 89.4592 126.831 87.3869 126.882 87.2858C128.095 85.1124 128.651 86.4518 128.726 84.7333C128.777 83.6719 128.651 82.7874 128.448 82.0039C128.17 80.9678 127.69 80.159 127.21 79.5272C127.134 79.4261 127.084 79.3251 126.983 79.2492C126.174 78.2889 125.391 77.9098 125.391 77.9098C124.986 77.7329 124.557 77.9351 124.102 78.4153V78.4405C123.723 78.8196 123.344 79.4009 122.939 80.1338C122.914 80.159 122.914 80.1591 122.914 80.1843C122.838 80.336 122.737 80.5129 122.636 80.6898C122.611 80.7151 122.585 80.7656 122.56 80.8161C122.383 81.1952 122.181 81.5996 122.004 82.0292C119.957 86.5024 118.415 93.9071 116.596 95.9036C115.812 96.7629 111.592 97.8496 108.736 99.1132C106.664 99.9977 108.18 102.525 110.202 102.298Z" fill="#FFB27D"/>
<path d="M123.899 78.289C123.116 78.9713 122.206 81.2206 121.953 81.9787C121.953 81.9787 124.127 81.9029 125.011 83.5709C125.037 83.5961 125.037 77.3034 123.899 78.289Z" fill="#2B478B"/>
<path d="M46.2886 176.8L20.7889 83.3434L43.079 81.8018L51.343 127.544C52.2781 132.548 53.011 136.744 53.567 140.13C54.123 143.517 54.6032 146.524 55.0075 149.178C55.0075 145.21 55.0833 141.394 55.235 137.729C55.3613 134.039 55.5888 130.501 55.892 127.115L59.7587 80.6393L82.0488 79.0977L92.0818 124.537C92.4862 126.357 93.2949 130.602 94.508 137.224C95.2409 141.09 95.8221 144.148 96.2518 146.372C96.3023 140.635 96.3781 136.137 96.4539 132.877C96.5297 129.617 96.6308 126.887 96.7319 124.689L98.5515 77.9352L120.892 76.3683L108.711 172.453L84.7782 174.121L76.8932 135.278C76.2109 131.866 75.5538 128.277 74.9473 124.487C74.3407 120.721 73.7342 116.804 73.1782 112.76C73.1782 117.461 73.1277 121.656 73.0266 125.321C72.9255 128.985 72.7991 132.447 72.597 135.682L70.3983 175.107L46.2886 176.8Z" fill="#6842EF"/>
<path d="M130.47 54.3814C130.47 54.0781 130.723 50.8433 135.651 50.6664C135.651 50.6664 133.225 50.9444 132.795 52.0311C132.795 52.0311 134.438 50.7169 135.803 51.1466C137.142 51.5762 137.925 53.9265 137.951 54.7099C137.951 55.4934 137.218 57.9953 136.359 58.1975C136.03 58.2733 135.651 58.248 135.322 58.1975C135.55 58.5513 135.777 58.9557 135.979 59.3853C137.951 63.4288 135.929 67.3713 134.261 66.9417C133.2 66.6637 132.896 68.4833 132.896 68.4833L122.509 60.0676C122.484 60.0424 126.3 52.1574 130.47 54.3814Z" fill="#2C3A64"/>
<path d="M126.831 173.388L129.03 174.197C129.03 174.197 138.608 160.904 139.796 149.228C139.998 147.13 139.947 145.109 139.492 143.264C139.492 143.264 139.593 142.733 139.745 141.773C139.821 141.343 139.922 140.812 140.023 140.18C140.326 138.386 140.756 135.96 141.261 133.18C142.399 126.786 143.839 118.598 144.976 112.583L144.37 112.381L137.951 110.309L136.611 106.088L131.835 104.825C131.835 104.825 130.773 106.922 129.813 116.804C129.636 118.093 129.485 119.533 129.358 121.075C128.979 125.801 128.954 131.664 129.813 138.386C130.04 140.105 130.318 141.874 130.647 143.693C130.9 145.033 130.925 146.852 130.824 148.95C130.344 158.553 126.831 173.388 126.831 173.388Z" fill="#739AF0"/>
<path d="M129.358 121.125L139.745 141.798C139.821 141.368 139.922 140.838 140.023 140.206C140.326 138.412 140.756 135.985 141.261 133.205C142.399 126.812 143.839 118.623 144.976 112.609L144.37 112.406L137.951 110.334L136.611 106.114L130.066 104.395C130.066 104.42 129.358 117.183 129.358 121.125Z" fill="#6385DB"/>
<path d="M133.932 107.529L134.185 105.456C138.229 106.518 148.995 102.474 148.995 102.474C148.995 102.474 152.912 105.911 152.381 114.125C152.128 118.143 151.674 135.202 151.193 140.256C151.017 142.076 150.865 143.39 150.814 143.921C150.789 144.072 150.84 144.224 150.941 144.376C151.648 145.563 152.23 146.802 152.71 148.091C157.385 160.575 151.977 175.966 151.977 175.966L150.562 175.41C150.562 175.41 147.478 158.301 144.976 150.744C144.547 149.455 144.142 148.444 143.763 147.863C142.677 146.119 141.666 143.238 140.756 139.827C139.037 133.382 137.622 124.992 136.712 118.522C136.561 118.472 133.932 107.529 133.932 107.529Z" fill="#739AF0"/>
<path d="M126.225 82.5094C127.488 83.0906 129.03 83.495 130.875 83.5961C137.799 83.9752 139.391 77.9098 139.669 73.8663C138.659 73.5125 137.799 73.5377 137.294 73.563C137.117 73.563 136.915 73.5883 136.738 73.6136C136.055 73.6641 135.373 73.3861 134.944 72.8301C134.16 71.8192 133.225 69.9996 132.618 67.4977L132.315 67.624L127.311 69.9744C127.311 69.9744 127.842 71.5918 128.246 73.1587C128.423 73.841 128.55 74.4981 128.625 75.0035C128.676 75.4837 128.423 75.9639 127.968 76.1408C127.893 76.2924 126.806 79.0724 126.225 82.5094Z" fill="#FFB27D"/>
<path d="M124.481 87.0583C124.531 87.1847 124.582 87.3363 124.658 87.4627C126.401 91.2535 129.662 106.897 129.662 106.897C130.647 109.93 150.814 106.341 150.89 103.788C151.648 101.059 148.186 96.7123 146.24 94.5136C145.987 94.2356 145.785 93.9324 145.583 93.6291C145.103 92.8456 144.8 91.9611 144.699 91.0513C144.319 87.4121 144.471 84.0004 144.421 81.928C144.041 81.65 143.662 81.3721 143.334 81.1446C142.803 80.7655 142.348 80.4117 141.994 80.0326C141.615 79.6283 141.388 79.2239 141.363 78.769C141.337 78.4152 141.363 78.0614 141.388 77.7076C141.413 77.5307 141.413 77.3791 141.438 77.2022C141.716 75.4331 142.449 73.841 142.449 73.841C140.579 73.0828 137.294 73.5377 137.294 73.5377C137.294 73.5377 137.294 73.7146 137.294 74.0179C137.294 75.2309 136.308 77.556 135.146 79.2745C133.907 81.1193 129.51 82.6357 128.095 79.8557C127.615 78.8954 127.893 76.2924 127.943 76.1155C124.986 77.278 123.925 78.2636 123.925 78.2636C125.694 79.4514 123.116 83.3938 124.481 87.0583Z" fill="#2B478B"/>
<path d="M127.311 69.9745C127.311 69.9745 127.842 71.5919 128.246 73.1588C131.178 72.3501 132.062 69.2668 132.315 67.6241L127.311 69.9745Z" fill="#ED985F"/>
<path d="M126.679 71.7182C126.679 71.7182 133.68 70.1008 132.593 65.754C131.506 61.4071 131.709 58.2734 127.185 59.1326C122.686 59.9919 122.232 61.862 122.232 63.3784C122.257 64.92 124.835 72.0215 126.679 71.7182Z" fill="#FFB27D"/>
<path d="M121.852 60.9269C122.611 59.3601 123.495 59.4359 124.051 59.7139C127.337 56.6812 130.571 59.1579 130.571 59.1579C131.81 62.1653 134.489 63.3783 134.489 63.3783C134.489 63.3783 133.402 64.4903 130.293 64.4651C129.333 64.4651 128.398 64.0102 127.513 63.4289C129.181 65.1221 131.153 66.1583 131.153 66.1583C127.261 65.4001 124.632 60.9017 124.38 60.4215C124.051 60.9017 123.419 61.9378 123.369 62.8224C123.293 64.0102 123.697 66.3352 123.015 66.411C123.015 66.3857 120.715 63.2773 121.852 60.9269Z" fill="#2C3A64"/>
<path d="M143.789 177.103H154.883C154.883 177.103 155.161 175.41 154.58 174.121C154.024 172.883 153.165 172.327 153.367 170.836C152.659 171.569 151.522 172.377 149.905 172.15C149.702 172.478 148.641 174.172 147.984 174.652C147.251 175.183 144.016 175.006 143.789 177.103Z" fill="#304B77"/>
<path d="M119.932 177.103H131.026C131.026 177.103 131.431 175.334 130.723 174.121C130.066 173.06 130.319 172.453 130.799 171.569C130.293 171.771 129.636 171.973 128.929 171.922C128.373 171.897 127.791 171.644 127.286 171.341C126.806 171.897 124.759 174.197 124.127 174.677C123.394 175.182 120.159 175.006 119.932 177.103Z" fill="#304B77"/>
<path d="M144.876 80.2095C144.85 81.0688 144.673 82.1049 144.421 83.2422C144.016 85.1376 143.359 87.3363 142.525 89.5855C142.298 90.192 142.045 90.7986 141.818 91.4304C140.023 95.9036 137.698 100.073 135.752 101.489C135.676 101.565 135.601 101.615 135.525 101.666C134.716 102.171 133.503 102.702 132.113 103.182C130.142 103.839 127.817 104.446 125.719 104.951H125.694C124.481 105.229 118.921 106.392 118.921 106.392L118.466 104.673C118.466 104.673 128.727 98.6835 130.496 97.4199C131.507 96.687 132.29 96.0299 132.543 95.575C132.947 94.8674 133.427 93.7302 133.933 92.3149C134.211 91.582 134.489 90.7733 134.767 89.9393C135.272 88.5493 135.778 87.0077 136.283 85.4914C137.218 82.7115 138.229 79.9315 139.164 77.7834C139.316 77.4296 139.695 77.2527 140.074 77.3285L144.774 78.3141C144.8 78.6679 144.825 79.0217 144.825 79.4261C144.901 79.6283 144.876 79.9063 144.876 80.2095Z" fill="#FFB27D"/>
<path d="M137.294 80.0832C141.337 78.1878 144.875 79.3503 144.875 79.3503C144.825 74.5233 142.424 73.8662 142.424 73.8662C141.489 73.4619 137.294 74.0431 137.294 80.0832Z" fill="#2B478B"/>
<path d="M119.527 104.016C119.527 104.016 116.697 105.128 116.166 105.558C115.61 105.987 114.574 107.377 114.372 108.135C114.372 108.135 114.372 108.439 114.675 108.439C114.953 108.439 115.585 107.352 116.04 107.529C116.04 107.529 116.469 108.691 116.469 109.399C116.469 109.879 116.191 111.724 116.267 112.128C116.343 112.533 118.112 110.89 118.466 109.627C118.744 108.616 118.592 107.984 118.769 106.72C118.921 105.634 121.953 104.976 121.953 104.976L119.527 104.016Z" fill="#FFB27D"/>
<path d="M162.768 176.825V81.827H214.475V100.276H184.856V117.739H212.175V136.794H184.856V157.517H214.475V176.825H162.768Z" fill="#6842EF"/>
<path d="M274.673 176.825H225.746V81.827H247.961V157.644H274.673V176.825Z" fill="#6842EF"/>
<path d="M322.16 137.78H343.995C344.046 138.361 344.071 138.967 344.096 139.624C344.121 140.282 344.121 141.267 344.121 142.581C344.121 154.181 341.594 162.774 336.514 168.41C331.435 174.02 323.651 176.825 313.163 176.825C306.996 176.825 301.715 175.789 297.317 173.742C292.92 171.695 289.357 168.586 286.652 164.417C284.757 161.46 283.392 157.34 282.584 152.084C281.75 146.827 281.345 138.462 281.345 127.039C281.345 115.616 281.75 107.251 282.584 101.994C283.418 96.7375 284.757 92.6182 286.652 89.6614C289.331 85.542 292.844 82.4588 297.191 80.3864C301.538 78.3141 306.744 77.278 312.809 77.278C323.221 77.278 331.005 80.159 336.211 85.9463C341.417 91.7337 344.02 100.377 344.02 111.876V112.811L322.438 112.76C322.362 106.316 321.604 101.767 320.214 99.1637C318.824 96.5607 316.474 95.2465 313.188 95.2465C309.6 95.2465 307.173 96.8387 305.859 100.023C304.545 103.207 303.888 111.623 303.888 125.295V127.089C303.888 141.773 304.545 150.77 305.859 154.08C307.173 157.391 309.625 159.059 313.188 159.059C316.524 159.059 318.849 157.846 320.189 155.445C321.528 153.044 322.185 148.571 322.185 142.025V137.78H322.16Z" fill="#6842EF"/>
<path d="M354.963 127.064C354.963 115.641 355.368 107.276 356.202 102.019C357.036 96.7628 358.375 92.6435 360.271 89.6866C362.975 85.4914 366.538 82.3829 370.935 80.3359C375.333 78.2889 380.615 77.278 386.781 77.278C392.998 77.278 398.255 78.2889 402.601 80.3359C406.948 82.3829 410.461 85.4914 413.191 89.6866C415.162 92.694 416.552 96.8134 417.386 102.095C418.22 107.352 418.624 115.692 418.624 127.089C418.624 138.437 418.22 146.751 417.386 152.033C416.552 157.315 415.162 161.46 413.191 164.467C410.512 168.612 406.999 171.72 402.601 173.792C398.229 175.84 392.948 176.876 386.781 176.876C380.615 176.876 375.333 175.84 370.935 173.792C366.538 171.745 362.975 168.637 360.271 164.467C358.375 161.51 357.01 157.391 356.202 152.134C355.393 146.827 354.963 138.487 354.963 127.064ZM395.93 135.631V118.472C395.93 107.933 395.273 101.438 393.933 98.9362C392.594 96.4596 390.168 95.1959 386.68 95.1959C383.268 95.1959 380.893 96.4596 379.579 99.0121C378.264 101.565 377.607 108.034 377.607 118.446V135.606C377.607 145.892 378.264 152.336 379.579 154.939C380.893 157.542 383.294 158.857 386.806 158.857C390.269 158.857 392.644 157.593 393.958 155.041C395.273 152.513 395.93 146.044 395.93 135.631Z" fill="#6842EF"/>
<path d="M431.513 176.825V81.827H462.598L471.039 122.237C471.089 122.439 471.418 124.992 472.05 129.844C472.681 134.722 473.364 139.599 474.046 144.502C474.577 140.838 475.259 136.314 476.043 130.906C476.851 125.497 477.306 122.515 477.433 121.934L485.823 81.827H516.604V176.825H495.629L497.549 103.409L482.487 176.825H465.63L450.568 103.409L452.489 176.825H431.513Z" fill="#6842EF"/>
<path d="M29.71 29.3366C29.71 29.3366 34.1326 18.7981 44.6964 19.9607C44.6964 19.9607 60.0619 2.3712 76.413 17.6103C76.413 17.6103 93.8255 13.8448 106.714 20.8704C115.307 25.5711 118.137 30.4992 118.137 30.4992L29.71 29.3366Z" fill="#F8FCFF"/>
<path d="M199.564 36.8677C199.564 36.8677 205.402 26.7336 219.403 27.8456C219.403 27.8456 239.697 10.9384 261.355 25.5963C261.355 25.5963 284.353 21.9571 301.411 28.7301C312.784 33.2538 316.524 37.9797 316.524 37.9797L199.564 36.8677Z" fill="#F8FCFF"/>
<path d="M299.036 13.3394C299.036 13.3394 303.18 5.65661 313.087 6.51587C313.087 6.51587 327.492 -6.27186 342.832 4.79736C342.832 4.79736 359.158 2.0427 371.238 7.17295C379.3 10.5847 381.954 14.1733 381.954 14.1733L299.036 13.3394Z" fill="#F8FCFF"/>
<path d="M516.655 49.4785C516.655 49.4785 519.637 43.9439 526.814 44.5505C526.814 44.5505 537.201 35.3009 548.296 43.3121C548.296 43.3121 560.072 41.3409 568.791 45.0306C574.604 47.5073 576.525 50.0851 576.525 50.0851L516.655 49.4785Z" fill="#F8FCFF"/>
<path d="M603.364 88.8781C601.923 91.557 600.129 94.2611 598.284 96.4598C596.363 98.7595 594.367 100.503 592.699 101.11H592.674C592.598 101.135 592.497 101.16 592.421 101.186C592.421 101.186 592.421 101.186 592.396 101.186C592.067 101.287 591.739 101.312 591.435 101.312C585.951 101.059 580.189 89.333 580.189 89.333C580.189 89.333 580.341 87.943 581.402 86.9574C582.337 86.0982 583.045 85.8707 583.045 85.8707C583.045 85.8707 588.933 91.9108 590.374 92.3657C591.284 92.6437 592.472 88.4232 594.165 83.1161C595.883 77.8089 601.873 76.4948 601.873 76.4948C601.873 76.4948 607.963 80.3361 603.364 88.8781Z" fill="#24CBC7"/>
<path d="M598.284 96.4596C596.363 98.7593 594.367 100.528 592.699 101.11H592.673L592.421 101.185H592.396C592.446 101.135 594.24 100.225 594.518 98.5066C594.796 96.7629 592.951 95.3223 597.602 92.5929C600.356 91.0261 598.284 96.4596 598.284 96.4596Z" fill="#1BA4A0"/>
<path d="M594.013 176.952H606.826C607.736 176.32 606.573 170.229 606.573 170.229C606.573 170.229 603.06 168.89 602.479 171.594C601.873 174.298 598.031 175.157 595.984 175.486C594.594 175.739 594.139 176.497 594.013 176.952Z" fill="#24406D"/>
<path d="M613.574 113.822C613.574 113.822 613.169 121.302 612.664 129.971C612.31 136.188 611.88 143.011 611.527 148.116C611.476 148.798 611.425 149.455 611.4 150.062C611.375 150.264 611.375 150.441 611.35 150.618C610.44 162.092 607.357 172.125 607.357 172.125C603.743 172.883 602.125 171.493 602.125 171.493C602.125 171.493 599.649 142.379 598.714 130.628C598.031 121.985 597.45 109.399 597.45 109.399L613.574 113.822Z" fill="#2B478B"/>
<path d="M612.664 129.971C612.31 136.188 611.881 143.011 611.527 148.116C609.176 142.556 604.349 120.873 604.349 120.873L612.664 129.971Z" fill="#233862"/>
<path d="M613.018 176.952H625.831C626.741 176.32 625.578 170.229 625.578 170.229C625.578 170.229 622.091 168.89 621.484 171.594C620.877 174.298 617.036 175.157 614.989 175.486C613.599 175.739 613.169 176.497 613.018 176.952Z" fill="#24406D"/>
<path d="M600.938 112.331C600.938 112.331 610.086 135.126 613.018 143.769C615.115 149.936 620.979 171.518 620.979 171.518C620.979 171.518 623.531 172.302 625.679 170.785C625.679 170.785 627.878 148.723 623.455 142.506C621.105 139.195 622.874 108.186 613.372 107.933C603.869 107.655 600.938 112.331 600.938 112.331Z" fill="#2B478B"/>
<path d="M619.69 104.976C619.639 108.211 619.614 110.587 619.614 111.193C619.639 113.165 618.375 113.594 617.087 113.897C617.087 113.897 615.899 114.15 614.382 114.403C612.917 114.656 611.122 114.883 609.859 114.883C603.439 114.832 598.057 112.937 598.057 112.937C596.843 112.937 596.287 111.067 596.085 108.464C595.959 106.695 596.49 89.0549 596.565 84.6575C596.616 81.4985 598.335 78.5922 598.84 78.1625C603.338 74.1948 616.581 74.7002 618.957 77.4296C619.538 78.112 619.715 84.6322 619.74 91.7842C619.791 96.409 619.74 101.261 619.69 104.976Z" fill="#24CBC7"/>
<path d="M611.729 75.8629C610.036 77.7078 604.35 77.4298 604.526 75.8124C604.552 75.6102 604.577 74.4477 604.602 74.2708C604.628 74.1191 604.628 73.9928 604.653 73.8411C604.703 73.4368 604.729 73.1082 604.754 72.805C604.83 71.9204 604.855 71.4403 604.855 71.4403C605.007 71.3897 608.671 70.3536 610.491 69.9239C611.097 69.7723 611.502 69.6965 611.502 69.747C610.946 73.8664 612.285 75.2564 611.729 75.8629Z" fill="#FFB27D"/>
<path d="M610.693 71.137C610.693 71.137 609.176 72.6786 604.754 72.805C604.829 71.9204 604.855 71.4403 604.855 71.4403C605.006 71.3897 608.671 70.3536 610.49 69.924C610.819 70.0756 610.389 70.9348 610.693 71.137Z" fill="#ED975D"/>
<path d="M603.743 71.238C603.743 71.238 604.855 71.6423 606.27 71.8192C608.342 72.0972 611.097 71.9456 611.956 69.4184C613.397 65.1726 615.242 62.6454 610.996 60.9016C608.721 59.9666 607.256 59.916 606.27 60.2698C605.411 60.5731 604.905 61.1796 604.526 61.7862C603.667 63.1256 601.999 70.5051 603.743 71.238Z" fill="#FFB27D"/>
<path d="M604.829 58.5514C603.313 59.5623 603.793 61.8874 605.588 62.2159C606.674 62.3928 607.559 62.4433 608.089 62.6708C609.151 63.151 610.061 63.6311 609.808 65.2738C609.732 65.8298 609.454 66.5122 610.895 66.1836C611.122 66.1331 611.299 66.1331 611.425 66.2089C612.032 66.5627 611.249 68.2812 611.021 68.6603C611.021 68.6603 610.692 69.8986 611.425 70.4799C611.526 70.5557 612.967 71.1875 616.429 65.8551C616.985 65.0211 617.491 63.151 616.657 61.3314C615.823 59.5118 613.472 57.2373 609.025 57.2373C607.862 57.212 606.144 57.6669 604.829 58.5514Z" fill="#233862"/>
<path d="M603.693 68.5086C603.693 68.5086 603.591 69.0646 604.88 69.4943C604.88 69.4943 605.942 69.8733 606.144 69.2921C606.144 69.2921 605.31 68.4834 603.693 68.5086Z" fill="white"/>
<path d="M619.69 104.976C619.032 107.984 617.996 109.02 617.39 107.908C615.317 103.991 615.343 102.323 616.252 99.5429C617.162 96.763 614.003 92.3909 616.252 90.546C618.451 88.7264 619.715 91.658 619.765 91.7843C619.791 96.4091 619.74 101.261 619.69 104.976Z" fill="#1BA4A0"/>
<path d="M619.588 104.597C619.588 104.597 618.072 107.099 617.061 106.998C616.05 106.922 614.711 106.543 613.927 107.276C613.144 108.009 611.906 109.93 612.234 110.435C612.588 110.941 614.003 110.486 615.014 109.93C616.025 109.374 617.617 110.208 618.476 109.576C619.336 108.944 621.357 106.417 621.357 106.417L619.588 104.597Z" fill="#FFB27D"/>
<path d="M619.007 77.4298C619.007 77.4298 631.669 89.333 630.026 97.2432C629.268 100.857 626.943 103.89 620.751 108.818C620.751 108.818 617.819 106.796 617.188 105.153C617.188 105.153 622.798 97.2432 622.596 95.8785C622.318 94.2358 618.502 90.0912 617.112 89.4594C615.722 88.8276 615.848 78.8198 619.007 77.4298Z" fill="#24CBC7"/>
<path d="M617.087 106.998C617.087 106.998 615.747 106.417 615.317 106.164C614.888 105.912 614.989 106.316 615.115 106.518C615.242 106.72 615.595 107.175 616.126 107.226C616.657 107.276 617.087 106.998 617.087 106.998Z" fill="#FFB27D"/>
<path d="M398.836 109.298C401.868 108.641 405.002 109.576 407.251 111.699C408.237 112.634 409.324 113.822 410.309 115.212C412.761 118.649 408.06 122.06 408.692 123.223C409.324 124.386 410.764 125.321 410.133 127.747C409.501 130.173 405.306 133.332 403.941 133.484C390.092 134.899 384.077 127.267 388.702 123.147C393.326 119.028 391.456 113.064 395.197 110.739C396.359 109.98 397.648 109.551 398.836 109.298Z" fill="#233862"/>
<path d="M405.988 130.83C405.988 130.83 418.953 136.289 421.303 136.188C423.678 136.086 438.261 131.74 438.261 131.74L437.881 134.242C437.881 134.242 426.61 140.711 422.668 141.09C418.801 141.444 405.533 137.603 404.244 136.794C403.006 135.985 402.273 131.664 405.988 130.83Z" fill="#EF9F6A"/>
<path d="M407.479 136.819C406.342 137.603 404.901 138.26 403.082 138.69C396.309 140.256 393.731 134.545 392.745 130.602C393.655 130.072 394.54 129.971 395.045 129.895C395.525 129.844 396.056 129.794 396.486 129.768C397.244 129.187 398.381 126.812 398.634 123.097L398.962 123.172L404.295 124.638C404.295 124.638 404.042 126.331 403.941 127.924C403.84 129.187 403.84 130.375 404.067 130.678C404.472 130.779 404.725 130.83 404.725 130.83C404.775 130.981 406.317 133.509 407.479 136.819Z" fill="#FFB27D"/>
<path d="M404.27 124.664C404.27 124.664 404.017 126.357 403.916 127.949C400.883 127.646 399.493 124.765 398.937 123.198L404.27 124.664Z" fill="#ED985F"/>
<path d="M405.179 126.256C405.179 126.256 398.002 125.851 398.331 121.403C398.634 116.956 397.926 113.898 402.526 113.948C407.125 114.024 407.883 115.768 408.136 117.284C408.389 118.8 407.049 126.23 405.179 126.256Z" fill="#FFB27D"/>
<path d="M408.086 114.782C407.075 113.367 406.215 113.594 405.71 113.973C401.944 111.547 399.19 114.529 399.19 114.529C398.482 117.688 396.031 119.356 396.031 119.356C396.031 119.356 397.294 120.367 400.352 119.71C404.244 118.851 405.584 115.464 405.761 114.959C406.165 115.389 406.696 115.641 407.1 116.576C407.58 117.663 407.883 118.295 407.883 120.089C407.934 120.089 409.602 116.93 408.086 114.782Z" fill="#233862"/>
<path d="M390.724 151.376C390.067 148.066 387.969 134.848 390.067 130.603C390.825 129.086 393.807 128.935 397.067 129.061C398.078 129.718 401.945 132.195 403.537 131.891C403.562 131.891 403.587 131.891 403.638 131.866C404.396 131.689 404.674 131.158 404.042 130.704C404.042 130.704 405.66 130.552 407.656 130.931C408.793 131.133 411.851 132.725 411.851 132.725C411.851 132.725 410.31 135.505 408.035 136.466C408.414 139.928 407.858 141.444 404.27 149.43C401.237 156.178 404.674 162.243 404.674 162.243C404.674 162.243 386.857 176.573 386.756 169.269C386.68 163.785 391.558 155.622 390.724 151.376Z" fill="#24CBC7"/>
<path d="M405.559 177.811C406.519 177.71 407.403 177.179 407.934 176.371C408.01 176.244 408.111 176.093 408.212 175.966C410.234 172.883 411.043 163.482 415.592 153.474C416.704 151.022 420.697 150.593 421.783 147.838C421.783 147.838 424.462 138.892 416.653 138.639C408.844 138.386 395.753 163.507 395.551 166.135C395.374 168.662 390.42 179.53 405.559 177.811Z" fill="#233862"/>
<path d="M436.593 177.609H425.498C425.498 177.609 425.094 175.84 425.801 174.627C426.458 173.565 426.206 172.959 425.726 172.074C426.231 172.276 426.888 172.478 427.596 172.428C428.152 172.403 428.733 172.15 429.238 171.847C429.719 172.403 431.766 174.702 432.397 175.182C433.13 175.688 436.365 175.511 436.593 177.609Z" fill="#1A2D4C"/>
<path d="M391.153 136.794C391.153 136.794 392.594 142.683 403.941 145.083C415.263 147.484 406.519 139.397 406.519 139.397L394.641 136.213L391.153 136.794Z" fill="#198A87"/>
<path d="M422.061 141.191C422.718 146.195 425.347 162.041 429.946 169.749C431.437 172.226 426.206 173.641 426.181 173.616C425.473 173.439 424.31 172.327 423.78 171.821C420.039 168.46 412.458 158.907 412.458 151.25C412.458 147.51 412.382 140.383 415.111 138.588C416.754 137.502 421.783 139.195 422.061 141.191Z" fill="#233862"/>
<path d="M414.454 147.863C413.368 150.618 410.31 150.29 409.198 152.716C408.566 154.08 407.985 155.445 407.429 156.81C407.378 156.936 407.327 157.088 407.277 157.214C406.595 158.882 405.988 160.525 405.407 162.117C404.522 164.543 403.739 166.843 403.031 168.839C401.894 172.099 400.934 174.652 400.074 175.941C399.367 177.027 398.937 177.609 398.937 177.609C381.929 180.237 386.478 168.865 387.413 166.11C388.272 163.608 403.082 137.78 410.891 138.032C418.7 138.31 414.454 147.863 414.454 147.863Z" fill="#2B478B"/>
<path d="M428.43 177.609H417.335C417.335 177.609 416.931 175.84 417.638 174.627C418.296 173.565 418.043 172.959 417.563 172.074C418.068 172.276 418.725 172.478 419.433 172.428C419.989 172.403 420.57 172.15 421.076 171.847C421.556 172.403 423.603 174.702 424.235 175.182C424.967 175.688 428.202 175.511 428.43 177.609Z" fill="#233862"/>
<path opacity="0.5" d="M407.429 156.81C407.378 156.936 407.328 157.088 407.277 157.214C406.595 158.882 405.988 160.525 405.407 162.117C403.057 155.723 404.27 149.43 404.27 149.43C405.963 150.593 406.974 153.499 407.429 156.81Z" fill="#233862"/>
<path d="M415.566 140.838C416.223 145.842 417.184 162.041 421.783 169.749C423.274 172.226 418.043 173.641 418.018 173.616C417.31 173.439 416.148 172.327 415.617 171.822C411.877 168.46 404.295 158.907 404.295 151.25C404.295 147.51 408.667 140.686 411.396 138.892C413.039 137.805 415.314 138.841 415.566 140.838Z" fill="#2B478B"/>
<path d="M439.6 125.27L428.228 124.057C427.899 124.032 427.571 124.209 427.469 124.537L423.401 135.227C423.224 135.707 423.552 136.213 424.058 136.213L435.354 136.668C435.658 136.668 435.936 136.491 436.062 136.213L440.232 126.281C440.409 125.826 440.106 125.321 439.6 125.27Z" fill="#233862"/>
<path d="M440.611 125.371L429.239 124.158C428.91 124.133 428.582 124.31 428.48 124.638L424.412 135.328C424.235 135.809 424.563 136.314 425.069 136.314L436.365 136.769C436.669 136.769 436.947 136.592 437.073 136.314L441.243 126.382C441.395 125.927 441.091 125.422 440.611 125.371Z" fill="#2B478B"/>
<path d="M434.293 130.375C434.445 129.996 434.243 129.693 433.864 129.693C433.485 129.693 433.055 129.996 432.929 130.375C432.777 130.754 432.979 131.057 433.358 131.057C433.737 131.057 434.167 130.754 434.293 130.375Z" fill="#EBF3FA"/>
<path d="M440.257 126.382C440.333 126.205 440.232 126.053 440.03 126.053C439.853 126.053 439.626 126.205 439.575 126.382C439.499 126.559 439.6 126.711 439.802 126.711C440.005 126.711 440.181 126.584 440.257 126.382Z" fill="#EBF3FA"/>
<path d="M392.771 130.603C392.771 130.603 408.541 136.415 410.916 136.289C412.458 136.213 425.17 131.74 425.17 131.74L426.307 133.913C426.307 133.913 413.923 141.874 410.512 141.823C403.789 141.748 392.442 137.628 391.153 136.819C389.89 135.986 389.056 131.411 392.771 130.603Z" fill="#FFB27D"/>
<path d="M425.144 131.74C425.144 131.74 426.282 129.971 427.419 129.92C428.556 129.87 430.527 130.703 431.184 130.83C431.867 130.956 433.762 131.588 433.206 132.498C432.625 133.433 429.997 133.635 428.859 133.433C427.722 133.231 426.282 133.888 426.282 133.888L425.144 131.74Z" fill="#FFB27D"/>
<path d="M427.115 129.971C427.115 129.971 428.935 129.137 429.441 128.985C429.946 128.833 429.845 128.985 429.693 129.465C429.542 129.945 428.607 130.425 428.607 130.577C428.632 130.754 427.115 129.971 427.115 129.971Z" fill="#FFB27D"/>
<path d="M439.423 130.805C439.423 130.805 438.286 129.01 437.907 128.935C436.77 128.707 436.77 130.198 437.022 131.184C437.275 132.22 438.16 133.206 438.412 133.104C438.64 133.003 439.701 131.765 439.423 130.805Z" fill="#FFB27D"/>
<path d="M439.474 131.158C439.474 131.158 439.828 133.18 437.907 134.242L438.488 132.852L439.474 131.158Z" fill="#FFB27D"/>
<path d="M406.519 123.678C406.519 123.678 405.836 123.4 403.941 123.577C403.941 123.577 404.042 124.31 405.457 124.386C406.241 124.436 406.519 123.678 406.519 123.678Z" fill="white"/>
<path d="M400.883 133.458C400.883 133.458 399.468 137.932 394.641 138.942C394.641 138.942 386.655 136.491 390.623 131.032C390.623 131.032 394.565 128.101 400.883 133.458Z" fill="#22AFAC"/>
<path d="M398.633 56.2516C398.633 56.2516 397.193 58.9305 394.59 59.9667C392.644 60.7248 389.94 59.9667 389.813 59.8909L389.662 63.2015C389.662 63.2015 394.084 63.5048 396.662 61.4577C397.446 60.8259 398.431 59.2085 398.735 58.2229C399.088 57.1109 398.633 56.2516 398.633 56.2516Z" fill="#6BB7BF"/>
<path d="M395.828 50.9697L398.734 47.5327C398.734 47.5327 402.197 55.4681 397.066 61.0786C397.066 61.0786 398.355 53.7496 395.828 50.9697Z" fill="#86D1CD"/>
<path d="M91.1971 51.8542C91.1971 51.8542 88.4424 49.7566 87.7096 46.6482C87.1788 44.3231 88.5183 41.4421 88.6194 41.2905L84.9296 40.5576C84.9296 40.5576 83.8429 45.4604 85.6878 48.7458C86.269 49.7566 87.9117 51.1213 88.9732 51.6521C90.1357 52.208 91.1971 51.8542 91.1971 51.8542Z" fill="#6BB7BF"/>
<path d="M97.6163 49.605L100.977 53.4464C100.977 53.4464 91.4499 55.9736 86.0164 49.2512C86.0416 49.2512 94.0529 51.9553 97.6163 49.605Z" fill="#86D1CD"/>
<path d="M521.532 65.754C521.532 65.754 515.593 65.198 516.048 58.9305L511.828 57.6416C511.828 57.6416 511.322 61.3313 518.196 65.3244C522.72 67.9527 521.532 65.754 521.532 65.754Z" fill="#5685D8"/>
<path d="M527.37 66.31C527.37 66.31 522.796 69.6712 515.113 63.151C515.113 63.151 518.222 65.3244 523.63 63.4795L527.37 66.31Z" fill="#739AF0"/>
<path d="M227.692 65.754C227.692 65.754 221.753 65.198 222.208 58.9305L217.988 57.6416C217.988 57.6416 217.482 61.3313 224.356 65.3244C228.88 67.9527 227.692 65.754 227.692 65.754Z" fill="#5685D8"/>
<path d="M233.53 66.31C233.53 66.31 228.956 69.6712 221.273 63.151C221.273 63.151 224.382 65.3244 229.79 63.4795L233.53 66.31Z" fill="#739AF0"/>
<path d="M364.996 39.5214C364.996 39.5214 361.66 37.3986 361.307 34.8461C361.307 34.8461 358.046 35.023 357.339 36.0844C357.339 36.0844 358.83 40.3049 360.599 41.1136C360.574 41.1136 364.541 41.3663 364.996 39.5214Z" fill="#F99746"/>
<path d="M275.836 5.65662C275.836 5.65662 279.172 3.53375 279.526 0.981262C279.526 0.981262 282.786 1.15816 283.493 2.21959C283.493 2.21959 282.002 6.44005 280.233 7.24877C280.233 7.24877 276.291 7.50149 275.836 5.65662Z" fill="#F99746"/>
<path d="M303.231 58.9809C303.231 58.9809 306.163 57.1361 306.466 54.9121C306.466 54.9121 309.322 55.0637 309.928 55.9988C309.928 55.9988 308.614 59.6886 307.072 60.3709C307.072 60.3456 303.61 60.5731 303.231 58.9809Z" fill="#86D1CD"/>
<path d="M270.048 101.64C264.312 100.175 258.019 91.3041 258.019 91.3041L259.636 89.9141C261.304 91.8854 268.254 95.2718 268.254 95.2718C268.229 93.4775 268.254 91.8348 268.381 90.3438C269.139 80.1843 272.98 76.7979 274.042 76.0397C274.218 75.9133 274.319 75.8628 274.319 75.8628C274.319 75.8628 274.319 75.9386 274.319 76.065C274.345 76.3682 274.37 76.9748 274.395 77.8088C274.597 84.0257 274.85 102.853 270.048 101.64Z" fill="#FFB27D"/>
<path d="M274.648 87.766C274.623 88.322 274.623 88.878 274.598 89.434C274.421 93.9577 273.915 98.4562 272.803 101.084C272.525 101.742 272.222 102.272 271.868 102.651C271.363 103.233 270.756 103.511 270.049 103.409C266.182 102.854 265.171 99.2396 264.969 96.5355C264.842 94.8675 265.019 93.5533 265.019 93.5533C265.019 93.5533 266.915 93.5533 267.243 93.2501C267.875 92.6688 268.153 89.8636 268.33 86.7298C268.558 82.6357 268.608 78.0615 269.012 77.2528C270.124 75.0035 274.446 75.0035 274.446 75.0035C274.446 75.0035 274.825 81.1952 274.648 87.766Z" fill="#739AF0"/>
<path d="M279.222 64.6924C279.222 64.6924 276.038 66.5626 277.984 70.2018C277.984 70.2018 275.179 69.6963 274.597 68.8623C274.597 68.8623 274.673 69.2161 274.774 69.3931C274.774 69.3931 272.197 68.8118 271.363 67.7504C270.529 66.6889 274.648 53.8507 281.32 57.1613C281.32 57.1613 287.436 58.2986 285.035 65.0715C282.634 71.8445 284.909 72.451 284.909 72.451C284.909 72.451 284.201 72.6026 283.898 72.5015C283.898 72.5015 283.493 72.2236 283.468 71.9456C283.468 71.9456 283.443 72.3499 283.544 72.5015C283.544 72.5015 281.042 72.0972 280.082 70.8336C279.071 69.5952 278.489 66.0319 279.222 64.6924Z" fill="#233862"/>
<path d="M274.6 75.5848C274.6 75.613 274.6 75.613 274.6 75.5848C274.572 75.613 274.572 75.5848 274.6 75.5848Z" fill="#FFB27D"/>
<path d="M282.356 73.3608C282.457 74.1948 282.558 74.953 282.609 75.3068C282.71 76.1155 275.078 75.5847 274.598 75.5847C274.926 75.4331 275.962 72.1477 276.291 70.9094C276.695 69.3931 276.998 67.7504 276.998 67.7504L282.381 68.0789L282.71 68.1042C282.508 68.8371 282.381 69.5447 282.28 70.1765C282.255 70.2523 282.255 70.3534 282.255 70.4292C282.154 71.1621 282.255 72.3246 282.356 73.3608Z" fill="#FFB27D"/>
<path d="M276.266 67.1944C276.266 67.1944 275.381 64.4145 275.558 62.2916C275.684 60.7753 277.833 55.5945 283.039 57.7932C283.039 57.7932 284.555 58.3744 285.768 59.7391C286.728 60.8511 287.967 62.9993 284.833 67.1944L283.923 68.6602L276.266 67.1944Z" fill="#233862"/>
<path d="M275.28 88.1956L275.002 97.3441C275.002 97.3441 273.991 99.0879 272.803 101.084C272.5 101.59 272.171 102.121 271.868 102.651C271.363 103.233 270.756 103.511 270.049 103.409C266.182 102.853 265.171 99.2396 264.969 96.5354C264.842 94.8675 265.019 93.5533 265.019 93.5533C265.019 93.5533 266.915 93.5533 267.243 93.25C267.875 92.6688 268.153 89.8636 268.33 86.7298L270.984 85.2388L274.673 87.7407L275.28 88.1956Z" fill="#6385DB"/>
<path d="M282.356 73.3609C278.591 72.2489 276.973 67.9021 276.973 67.9021C278.565 67.9526 280.638 69.0646 282.28 70.1766C282.255 70.2524 282.255 70.3535 282.255 70.4293C282.154 71.1622 282.255 72.3247 282.356 73.3609Z" fill="#ED975D"/>
<path d="M282.634 71.8445C282.634 71.8445 275.811 70.1513 276.923 65.9308C278.035 61.7103 277.908 58.6524 282.306 59.5369C286.703 60.4215 287.107 62.2663 287.082 63.7574C287.057 65.2737 284.429 72.173 282.634 71.8445Z" fill="#FFB27D"/>
<path d="M287.512 61.3565C285.49 58.1469 283.064 57.8184 283.064 57.8184C281.32 56.6559 279.045 59.5116 279.045 59.5116C277.782 62.4179 275.154 63.5804 275.154 63.5804C275.154 63.5804 276.19 64.6671 279.222 64.6924C280.157 64.6924 281.093 64.2881 281.952 63.7068C280.284 65.3242 278.338 66.3098 278.338 66.3098C282.002 65.678 284.555 61.6345 285.01 60.8763C285.49 61.6598 285.995 62.5948 286.021 63.1508C286.071 64.3133 285.642 66.5626 286.299 66.6637C286.299 66.6889 288.876 63.5299 287.512 61.3565Z" fill="#233862"/>
<path d="M281.573 69.1151C281.573 69.1151 281.649 69.7469 282.078 69.8985C282.483 70.0501 283.569 70.3281 283.696 70.2523C283.797 70.1765 284.226 69.6711 284.226 69.6711C284.226 69.6711 282.483 69.0393 281.573 69.1151Z" fill="white"/>
<path d="M279.02 133.787C278.944 134.14 278.843 134.494 278.768 134.873C278.262 136.996 277.782 138.993 277.479 140.635C277.1 142.783 276.998 144.401 277.504 145.058C279.627 147.838 277.504 169.85 277.504 169.85L275.103 172.327C275.103 172.327 270.908 150.593 269.771 147.181C269.265 145.639 268.507 139.018 267.85 132.27C267.825 131.942 267.774 131.588 267.749 131.259C267.622 130.072 267.521 128.909 267.42 127.746C266.814 121.353 266.384 115.894 266.384 115.894C266.384 115.894 270.832 112.76 274.85 112.432C277.226 112.229 279.45 112.988 280.562 115.894C282.154 120.14 280.537 127.494 279.02 133.787Z" fill="#FFB27D"/>
<path d="M278.338 135.227C275.23 131.841 273.182 126.988 269.392 120.19C269.063 116.728 271.793 113.443 274.825 112.406C277.201 112.204 279.425 112.962 280.537 115.869C282.154 120.14 279.854 128.934 278.338 135.227Z" fill="#ED975D"/>
<path d="M291.05 91.8096L307.275 96.0047V97.9002C307.275 97.9002 291.151 97.7233 290.089 95.9037C289.053 94.0841 291.05 91.8096 291.05 91.8096Z" fill="#FFB27D"/>
<path d="M307.274 154.207L306.516 157.34C306.516 157.34 284.58 146.019 281.75 143.845C280.612 142.961 279.096 138.235 277.706 132.852C275.634 124.84 273.789 115.464 273.789 115.464C273.789 115.464 276.872 103.637 285.085 110.865C290.014 115.186 289.255 123.552 288.699 130.021C288.346 134.368 288.093 137.906 289.71 138.816C292.895 140.585 302.245 148.773 305.202 154.409L307.274 154.207Z" fill="#FFB27D"/>
<path d="M297.267 98.5067C295.902 99.9472 294.057 100.806 291.05 100.352C289.736 100.149 287.436 98.6836 286.223 96.2575C286.046 95.9037 285.591 94.8422 285.591 94.8422C285.591 94.8422 283.923 96.5102 283.872 96.8387V96.864C283.847 97.0156 283.746 97.7738 283.721 98.1781C283.721 98.254 283.696 98.3045 283.696 98.3298V98.4056C283.67 98.6078 283.822 99.3912 283.822 99.3912C283.822 99.3912 276.619 102.55 270.251 99.4418C270.251 99.4418 270.225 99.4418 270.225 99.4165C269.897 99.2649 269.594 99.0879 269.265 98.911C269.265 98.911 269.139 98.1276 268.987 96.7882C268.583 93.3764 267.976 86.3508 268.734 80.1085C268.937 78.4406 273.182 76.1913 274.471 75.0288C274.774 74.7761 275.078 73.9926 274.977 73.4872C274.901 73.0576 275.406 72.3499 275.811 72.4763C276.594 72.729 278.818 73.841 280.41 73.4114C281.194 73.2092 282.179 72.2994 282.937 72.5016C283.872 72.7543 282.887 74.9783 283.418 75.0035C284.15 75.0288 287.385 75.0793 288.371 76.444C289.18 77.556 289.609 79.6283 291.025 83.5708C293.678 90.9503 297.545 89.5603 299.086 91.759C300.047 93.2753 299.491 96.1817 297.267 98.5067Z" fill="#739AF0"/>
<path d="M285.566 94.8422C285.566 94.8422 284.757 92.9721 284.176 89.8383C283.999 88.9538 277.201 95.752 278.919 98.5067C280.638 101.261 285.566 94.8422 285.566 94.8422Z" fill="#6385DB"/>
<path d="M295.371 123.147C295.245 123.172 293.147 123.779 290.039 124.436C289.281 124.588 288.447 124.765 287.588 124.916C280.89 126.155 271.464 127.165 265.778 124.638C265.778 124.638 266.182 115.186 267.294 108.06C268.178 102.348 269.215 98.9111 269.215 98.9111C269.215 98.9111 275.002 100.099 281.067 98.9364C281.118 98.9364 281.194 98.9111 281.244 98.9111C282.028 98.7595 282.887 98.6836 283.67 98.4309C283.67 98.4309 288.194 104.85 290.544 109.424C292.162 112.558 295.371 123.147 295.371 123.147Z" fill="#2B478B"/>
<path d="M295.371 123.147C295.245 123.172 293.147 123.779 290.039 124.436C289.281 124.588 288.447 124.765 287.588 124.916C277.201 111.32 281.093 98.9616 281.093 98.9616C281.143 98.9363 281.168 98.9111 281.219 98.8858C282.002 98.7342 282.862 98.6584 283.645 98.4056C283.645 98.4056 288.169 104.825 290.519 109.399C292.162 112.558 295.371 123.147 295.371 123.147Z" fill="#233862"/>
<path d="M307.275 95.9796C307.275 95.9796 310.257 94.5138 311.445 94.3622C312.632 94.2105 314.604 94.1852 314.604 94.3622C314.604 94.5391 312.481 95.8785 311.899 95.9796C311.343 96.0807 310.231 96.8894 310.585 96.9652C310.914 97.0663 312.658 96.6619 312.683 96.9652C312.708 97.2684 311.621 97.4706 311.419 97.6981C311.242 97.9255 310.56 98.2288 309.499 98.0772C308.437 97.9255 307.249 97.875 307.249 97.875V95.9796H307.275Z" fill="#FFB27D"/>
<path d="M311.596 155.42C311.47 155.395 311.015 155.243 310.737 154.535C310.535 154.055 310.484 153.676 310.307 153.196L309.574 151.907C308.791 150.896 308.538 151.124 308.538 151.124C308.538 151.124 308.336 151.376 308.033 151.73C307.527 152.286 306.769 153.095 306.238 153.297C305.859 153.449 305.607 153.676 305.48 153.904C305.303 154.182 305.253 154.434 305.253 154.434C305.253 154.434 306.845 154.712 306.693 155.496C306.415 157.012 306.491 157.29 306.516 157.341C306.516 157.341 309.221 158.756 310.105 159.034C311.647 159.539 312.455 160.575 312.961 161.056C313.163 161.258 313.441 161.334 313.719 161.283C314.123 161.207 314.654 161.081 314.78 160.828L311.596 155.42Z" fill="#2B478B"/>
<path d="M279.93 173.439L278.641 174.146C278.161 174.323 277.782 174.374 277.302 174.551C276.569 174.829 276.063 175.385 276.038 175.486C275.659 176.977 275.128 176.926 275.128 176.926H269.922C269.669 176.8 270.099 175.739 270.301 175.562C270.807 175.082 272.272 175.309 272.803 173.793C273.106 172.933 274.598 170.255 274.598 170.255C274.648 170.229 274.926 170.179 276.442 170.482C277.226 170.634 277.554 169.067 277.554 169.067C277.554 169.067 277.807 169.117 278.085 169.319C278.313 169.471 278.54 169.724 278.666 170.103C278.843 170.634 279.627 171.417 280.157 171.948C280.486 172.251 280.739 172.479 280.739 172.479C280.739 172.479 280.966 172.681 279.93 173.439Z" fill="#2B478B"/>
<path d="M259.636 89.8888C259.636 89.8888 259.889 88.2461 259.459 87.1594C259.005 86.0222 258.904 84.7586 258.55 85.264C258.196 85.7695 258.499 87.1594 258.171 87.1089C258.044 87.0836 257.615 86.8562 257.438 86.1738C257.236 85.3146 257.741 84.2026 257.033 84.3037C256.351 84.4048 255.441 87.5638 255.896 88.3978C256.351 89.2318 258.019 91.2788 258.019 91.2788L259.636 89.8888Z" fill="#FFB27D"/>
<path d="M283.847 96.8386L283.67 98.1781C283.67 98.2539 283.645 98.3044 283.645 98.3297V98.4055C280.107 99.7197 277.63 100.351 275.356 100.351C272.879 100.351 271.211 99.8713 270.2 99.4164C270.2 99.4164 270.175 99.4164 270.175 99.3911C269.72 99.189 269.417 99.012 269.215 98.8857C269.215 98.8857 269.088 98.1022 268.937 96.7628C270.125 97.3946 275.71 99.846 283.847 96.8386Z" fill="#233862"/>
<path d="M531.844 176.825V81.827H583.551V100.276H553.932V117.739H581.251V136.794H553.932V157.517H583.551V176.825H531.844Z" fill="#6842EF"/>
<path d="M578.647 81.8271C578.647 81.8271 577.813 80.7151 576.373 80.7909C574.932 80.8668 574.149 81.7766 574.755 82.3578C575.362 82.9391 576.727 82.8886 577.687 82.3578C578.647 81.8271 578.647 81.8271 578.647 81.8271Z" fill="#FFB27D"/>
</svg>
