<svg width="35" height="35" viewBox="0 0 35 35" fill="none" xmlns="http://www.w3.org/2000/svg">
<rect width="35" height="35" rx="10" fill="#D7F6F6"/>
<path fill-rule="evenodd" clip-rule="evenodd" d="M20.0523 11.0713H14.9838C13.4395 11.0713 12.187 12.323 12.187 13.868V22.0048C12.187 23.6368 13.51 24.836 15.142 24.836H21.0543C22.5993 24.836 23.851 23.5498 23.851 22.0048V15.0283L20.0523 11.0713Z" stroke="#24CBC7" stroke-width="1.5" stroke-linecap="round" stroke-linejoin="round"/>
<path d="M19.8555 11.0625V13.2442C19.8555 14.3092 20.7172 15.1733 21.7815 15.1755C22.7692 15.1778 23.7795 15.1785 23.8477 15.174" stroke="#24CBC7" stroke-width="1.5" stroke-linecap="round" stroke-linejoin="round"/>
<path fill-rule="evenodd" clip-rule="evenodd" d="M17.2798 17.2197C16.9869 16.9268 16.5121 16.9268 16.2192 17.2197C15.9263 17.5126 15.9263 17.9874 16.2192 18.2803L16.9887 19.0498L16.2194 19.8192C15.9265 20.1121 15.9265 20.5869 16.2194 20.8798C16.5123 21.1727 16.9871 21.1727 17.28 20.8798L18.0494 20.1105L18.8187 20.8798C19.1116 21.1727 19.5864 21.1727 19.8793 20.8798C20.1722 20.5869 20.1722 20.1121 19.8793 19.8192L19.11 19.0498L19.8795 18.2803C20.1724 17.9874 20.1724 17.5126 19.8795 17.2197C19.5866 16.9268 19.1118 16.9268 18.8189 17.2197L18.0494 17.9892L17.2798 17.2197Z" fill="#24CBC7"/>
</svg>
