<svg width="18" height="18" viewBox="0 0 18 18" fill="none" xmlns="http://www.w3.org/2000/svg">
<g id="Iconly/Two-tone/Paper Fail">
<g id="Paper Fail">
<path id="Stroke 1" fill-rule="evenodd" clip-rule="evenodd" d="M11.0523 2.07141H5.98376C4.43951 2.07141 3.18701 3.32316 3.18701 4.86816V13.0049C3.18701 14.6369 4.51001 15.8362 6.14201 15.8362H12.0543C13.5993 15.8362 14.851 14.5499 14.851 13.0049V6.02841L11.0523 2.07141Z" stroke="#F2D01D" stroke-width="1.5" stroke-linecap="round" stroke-linejoin="round"/>
<path id="Stroke 3" d="M10.8555 2.06262V4.24437C10.8555 5.30937 11.7172 6.17337 12.7815 6.17562C13.7692 6.17787 14.7795 6.17862 14.8477 6.17412" stroke="#F2D01D" stroke-width="1.5" stroke-linecap="round" stroke-linejoin="round"/>
<path id="Union" fill-rule="evenodd" clip-rule="evenodd" d="M8.27984 8.21967C7.98695 7.92678 7.51207 7.92678 7.21918 8.21967C6.92629 8.51256 6.92629 8.98744 7.21918 9.28033L7.98869 10.0498L7.21936 10.8192C6.92647 11.1121 6.92647 11.5869 7.21936 11.8798C7.51226 12.1727 7.98713 12.1727 8.28002 11.8798L9.04935 11.1105L9.81868 11.8798C10.1116 12.1727 10.5864 12.1727 10.8793 11.8798C11.1722 11.5869 11.1722 11.1121 10.8793 10.8192L10.11 10.0498L10.8795 9.28033C11.1724 8.98744 11.1724 8.51256 10.8795 8.21967C10.5866 7.92678 10.1118 7.92678 9.81887 8.21967L9.04935 8.98918L8.27984 8.21967Z" fill="#F2D01D"/>
</g>
</g>
</svg>
