<svg width="17" height="14" viewBox="0 0 17 14" fill="none" xmlns="http://www.w3.org/2000/svg">
<g clip-path="url(#clip0_9642_12432)">
<path d="M14.5097 9.02962C14.3565 9.41576 14.2335 9.80189 14.0566 10.1579C12.9765 12.3342 11.2783 13.6261 8.98393 13.936C6.69136 14.2456 4.75637 13.4257 3.20817 11.6053C2.74987 11.0663 2.99106 10.2735 3.64311 10.1443C3.97552 10.0785 4.23641 10.2225 4.45389 10.4863C5.10484 11.2768 5.90941 11.8104 6.86431 12.0882C9.42507 12.833 12.1212 11.2849 12.8907 8.62839C12.898 8.60363 12.9039 8.57848 12.9243 8.50032C12.674 8.68759 12.4646 8.85512 12.2445 9.00486C12.1289 9.08379 12.0004 9.16039 11.8683 9.1898C11.4881 9.27376 11.1262 9.06715 10.9704 8.70384C10.8116 8.33279 10.9083 7.90138 11.2309 7.65376C11.876 7.15813 12.5299 6.67449 13.1797 6.18582C13.2578 6.12701 13.3352 6.06781 13.414 6.01055C13.8672 5.68013 14.328 5.76138 14.6466 6.23457C15.0801 6.87839 15.5092 7.52492 15.9401 8.17067C16.0284 8.303 16.1214 8.43261 16.2028 8.56958C16.4389 8.96694 16.3447 9.4765 15.9912 9.74115C15.6281 10.0131 15.1421 9.93422 14.8659 9.5535C14.7425 9.38325 14.6283 9.20605 14.509 9.03039L14.5097 9.02962Z" fill="#24CBC7"/>
<path d="M3.41346 5.5018C3.68566 5.29906 3.91882 5.11567 4.1611 4.94659C4.67924 4.58521 5.33932 4.89358 5.4309 5.54127C5.47724 5.8686 5.36851 6.15027 5.11674 6.34256C4.36726 6.91597 3.61305 7.48318 2.85372 8.04226C2.49285 8.30807 2.01777 8.23572 1.75907 7.86042C1.20627 7.05835 0.66478 6.247 0.133508 5.42829C-0.115344 5.04448 -0.00332403 4.52137 0.350978 4.25943C0.707471 3.99556 1.19204 4.07178 1.46388 4.44089C1.58903 4.61075 1.70251 4.79027 1.83715 4.98915C1.86926 4.90209 1.8959 4.83825 1.9167 4.77248C2.80921 1.93835 5.3291 -0.0101345 8.14127 -7.43943e-05C10.1215 0.00688916 11.7835 0.807022 13.1103 2.37324C13.4635 2.79033 13.4547 3.31808 13.096 3.6543C12.7355 3.99208 12.2422 3.93984 11.8923 3.52623C10.8458 2.28812 9.53476 1.6915 7.97123 1.73367C5.92459 1.789 4.04799 3.30376 3.45177 5.36484C3.44301 5.39502 3.43462 5.42558 3.41346 5.5018Z" fill="#24CBC7"/>
</g>
<defs>
<clipPath id="clip0_9642_12432">
<rect width="16.3333" height="14" fill="white" transform="translate(16.3333 14) rotate(180)"/>
</clipPath>
</defs>
</svg>
