<svg width="54" height="54" viewBox="0 0 54 54" fill="none" xmlns="http://www.w3.org/2000/svg">
<circle cx="27" cy="27" r="27" fill="#0FB3C9"/>
<path d="M15.0157 23.8818C15.9812 24.44 16.8987 24.9757 17.8257 25.5018C17.9797 25.5916 17.9701 25.7135 17.9701 25.8514C17.9701 27.2757 17.9957 28.7032 17.9637 30.1274C17.8578 35.2214 22.3712 39.2408 27.462 38.7179C32.1454 38.2368 35.5873 33.9704 35.0548 29.287C34.856 27.5484 34.3203 25.9541 33.1526 24.6164C32.4982 23.869 31.7219 23.282 30.8141 22.8682C30.1469 22.5634 29.4669 22.5153 28.7451 22.634C27.2118 22.881 25.7009 22.7495 24.2927 22.0758C22.8844 21.4022 22.2204 20.1736 22.0023 18.6595C22.1402 18.6531 22.1819 18.7365 22.2429 18.7878C23.619 19.9298 25.1652 20.3853 26.9583 20.0806C28.3666 19.84 29.8005 19.7855 31.2119 20.0613C32.8928 20.3885 34.1727 21.4086 35.3051 22.6148C36.7967 24.209 37.573 26.153 37.897 28.2829C38.4198 31.7249 37.6788 34.8622 35.4558 37.5727C33.4157 40.062 30.7371 41.4253 27.539 41.7108C22.1948 42.1856 17.2451 38.9264 15.5578 33.8677C15.2114 32.8284 15.0157 31.7602 15.0093 30.6663C14.9932 28.4594 15.0029 26.2524 15.0029 24.0454C15.0029 24.0037 15.0093 23.9652 15.0157 23.8818Z" fill="white"/>
<path d="M39.7162 13.3022C39.1805 13.8956 38.6192 14.4666 38.1219 15.0857C37.798 15.4867 37.4451 15.6054 36.9383 15.6022C32.8098 15.5797 28.6846 15.5894 24.5561 15.5861C24.2867 15.5861 24.0365 15.6278 23.7831 15.7145C22.6892 16.0866 21.6338 16.526 20.7164 17.251C19.2504 18.409 18.8751 19.8942 19.6225 21.6136C20.1454 22.8165 20.9794 23.7917 21.9161 24.6867C21.9995 24.7669 22.0926 24.8342 22.2145 24.9401C22.1246 24.9561 22.0926 24.9722 22.0765 24.9626C20.5336 24.058 19.0548 23.0667 17.8583 21.713C17.2103 20.9753 16.697 20.1637 16.5206 19.1725C16.3089 17.9824 16.7067 16.9655 17.4316 16.0577C18.4196 14.8163 19.7348 14.0047 21.1334 13.3054C21.5697 13.0873 22.0059 12.991 22.4967 13.0007C27.8377 13.0808 33.1755 13.1482 38.5165 13.2156C38.9079 13.222 39.296 13.2156 39.6874 13.2156C39.6938 13.2444 39.7066 13.2733 39.7162 13.3022Z" fill="white"/>
<path d="M28.0653 31.6636C27.9081 32.0197 27.7509 32.3758 27.4558 32.6516C26.9811 33.0943 26.3972 33.1007 25.9353 32.642C25.406 32.1159 25.22 31.4391 25.1462 30.7237C25.1237 30.4928 25.1302 30.2618 25.1237 30.0277C25.0692 29.8993 25.0275 29.7742 25.143 29.6523C25.2553 29.2706 25.3162 28.8728 25.5151 28.5168C25.7813 28.0388 26.0989 27.5993 26.702 27.6026C27.3179 27.6058 27.6515 28.0549 27.8985 28.5521C28.2802 29.3252 28.3251 30.1496 28.2193 30.9932C28.2064 31.0991 28.1936 31.2017 28.1808 31.3076C28.1968 31.4455 28.1936 31.5738 28.0653 31.6636Z" fill="white"/>
<path d="M25.1425 29.6557C25.1361 29.7808 25.1297 29.9059 25.1233 30.031C24.7223 29.8995 24.3373 29.7295 24.0101 29.4536C23.5097 29.0334 23.4199 28.533 23.7407 27.9652C23.9941 27.5161 24.3662 27.1761 24.7704 26.8682C26.2139 25.7711 27.8467 25.0269 29.5083 24.3404C29.5757 24.3115 29.5853 24.3468 29.5757 24.4014C28.4979 25.0012 27.4265 25.6107 26.4834 26.4191C25.9669 26.8617 25.4857 27.3333 25.1714 27.9428C24.8827 28.5041 24.7929 29.0783 25.1425 29.6557Z" fill="white"/>
<path d="M28.0656 31.6637C28.1041 31.545 28.1426 31.4263 28.1779 31.3076C28.5275 31.4295 28.8611 31.5803 29.1498 31.8177C29.6855 32.2603 29.7785 32.7511 29.4449 33.3574C29.2428 33.7231 28.9477 34.0086 28.6334 34.278C27.6518 35.1121 26.5226 35.6991 25.3646 36.2316C24.8963 36.4465 24.4279 36.6615 23.9564 36.8732C23.8569 36.9181 23.7575 36.995 23.626 36.9181C24.7968 36.2957 25.9163 35.6125 26.9076 34.7368C27.3534 34.3422 27.7512 33.9059 28.0239 33.3734C28.3126 32.8153 28.4184 32.2411 28.0656 31.6637Z" fill="white"/>
<path d="M29.5762 24.401C29.5537 24.3817 29.5312 24.3593 29.5088 24.34C29.6596 24.2502 29.8071 24.154 30.0092 24.1989C29.8649 24.2663 29.7205 24.3336 29.5762 24.401Z" fill="white"/>
<path d="M23.2139 37.1874C23.2973 37.0559 23.4224 37.0109 23.5603 36.9917C23.4865 37.1393 23.3326 37.1328 23.2139 37.1874Z" fill="white"/>
</svg>
