<svg width="24" height="24" viewBox="0 0 24 24" fill="none" xmlns="http://www.w3.org/2000/svg">
<g id="Iconly/Two-tone/Edit">
<g id="Edit">
<path id="Stroke 3" fill-rule="evenodd" clip-rule="evenodd" d="M13.6047 4.70561C14.3417 3.76661 15.5327 3.81561 16.4727 4.55261L17.8627 5.64261C18.8027 6.37961 19.1357 7.52261 18.3987 8.46361L10.1097 19.0386C9.83272 19.3926 9.40972 19.6016 8.95972 19.6066L5.76272 19.6476L5.03872 16.5326C4.93672 16.0956 5.03872 15.6356 5.31572 15.2806L13.6047 4.70561Z" stroke="white" stroke-width="2" stroke-linecap="round" stroke-linejoin="round"/>
<path id="Stroke 5" opacity="0.4" d="M12.0524 6.68604L16.8464 10.444" stroke="white" stroke-width="2" stroke-linecap="round" stroke-linejoin="round"/>
<path id="Stroke 6" d="M16 20L22 20" stroke="#FFD600" stroke-width="2" stroke-linecap="round" stroke-linejoin="round"/>
</g>
<g id="Star">
<path id="Star_2" d="M5.9728 4.77337C5.88646 4.85704 5.8468 4.97804 5.86646 5.09671L6.1628 6.73671C6.1878 6.87571 6.12913 7.01637 6.0128 7.09671C5.8988 7.18004 5.74713 7.19004 5.6228 7.12337L4.14646 6.35337C4.09513 6.32604 4.03813 6.31137 3.9798 6.30971H3.88946C3.85813 6.31437 3.82746 6.32437 3.79946 6.33971L2.3228 7.11337C2.2498 7.15004 2.16713 7.16304 2.08613 7.15004C1.8888 7.11271 1.75713 6.92471 1.78946 6.72637L2.08613 5.08637C2.1058 4.96671 2.06613 4.84504 1.9798 4.76004L0.776129 3.59337C0.675463 3.49571 0.640463 3.34904 0.686463 3.21671C0.731129 3.08471 0.845129 2.98837 0.982796 2.96671L2.63946 2.72637C2.76546 2.71337 2.87613 2.63671 2.9328 2.52337L3.6628 1.02671C3.68013 0.993374 3.70246 0.962707 3.72946 0.936707L3.75946 0.913374C3.77513 0.896041 3.79313 0.881707 3.81313 0.870041L3.84946 0.856707L3.90613 0.833374H4.04646C4.1718 0.846374 4.28213 0.921374 4.3398 1.03337L5.07946 2.52337C5.1328 2.63237 5.23646 2.70804 5.35613 2.72637L7.0128 2.96671C7.1528 2.98671 7.2698 3.08337 7.31613 3.21671C7.3598 3.35037 7.32213 3.49704 7.21946 3.59337L5.9728 4.77337Z" fill="#FFD600"/>
</g>
</g>
</svg>
