<svg width="16" height="16" viewBox="0 0 16 16" fill="none" xmlns="http://www.w3.org/2000/svg">
<g id="Iconly/Light/Show">
<g id="Show">
<path id="Stroke 1 (Stroke)" fill-rule="evenodd" clip-rule="evenodd" d="M7.99893 6.42773C7.11118 6.42773 6.3916 7.14711 6.3916 8.03573C6.3916 8.92359 7.11108 9.64307 7.99893 9.64307C8.887 9.64307 9.60694 8.92339 9.60694 8.03573C9.60694 7.14731 8.8869 6.42773 7.99893 6.42773ZM5.3916 8.03573C5.3916 6.59503 6.55869 5.42773 7.99893 5.42773C9.43897 5.42773 10.6069 6.59482 10.6069 8.03573C10.6069 9.47608 9.43887 10.6431 7.99893 10.6431C6.55879 10.6431 5.3916 9.47588 5.3916 8.03573Z" fill="#828282"/>
<path id="Stroke 3" fill-rule="evenodd" clip-rule="evenodd" d="M7.99834 12.9035C10.537 12.9035 12.859 11.0781 14.1663 8.03548C12.859 4.99281 10.537 3.16748 7.99834 3.16748H8.00101C5.46234 3.16748 3.14034 4.99281 1.83301 8.03548C3.14034 11.0781 5.46234 12.9035 8.00101 12.9035H7.99834Z" stroke="#828282" stroke-width="1.2" stroke-linecap="round" stroke-linejoin="round"/>
</g>
</g>
</svg>
