<svg width="18" height="18" viewBox="0 0 18 18" fill="none" xmlns="http://www.w3.org/2000/svg">
<g id="Iconly/Two-tone/2 User">
<g id="2 User">
<path id="Stroke 1" fill-rule="evenodd" clip-rule="evenodd" d="M7.194 11.4052C9.96075 11.4052 12.3255 11.8244 12.3255 13.4992C12.3255 15.1739 9.9765 15.6052 7.194 15.6052C4.4265 15.6052 2.0625 15.1897 2.0625 13.5142C2.0625 11.8387 4.41075 11.4052 7.194 11.4052Z" stroke="#F2D01D" stroke-width="1.5" stroke-linecap="round" stroke-linejoin="round"/>
<path id="Stroke 3" fill-rule="evenodd" clip-rule="evenodd" d="M7.1938 9.01488C5.3773 9.01488 3.9043 7.54263 3.9043 5.72613C3.9043 3.90963 5.3773 2.43738 7.1938 2.43738C9.00955 2.43738 10.4825 3.90963 10.4825 5.72613C10.4893 7.53588 9.0268 9.00813 7.21705 9.01488H7.1938Z" stroke="#F2D01D" stroke-width="1.5" stroke-linecap="round" stroke-linejoin="round"/>
<path id="Stroke 5" d="M12.3623 8.16121C13.5631 7.99246 14.4878 6.96196 14.4901 5.71471C14.4901 4.48546 13.5938 3.46546 12.4186 3.27271" stroke="#F2D01D" stroke-width="1.5" stroke-linecap="round" stroke-linejoin="round"/>
<path id="Stroke 7" d="M13.9473 11.0492C15.1105 11.2224 15.9228 11.6304 15.9228 12.4704C15.9228 13.0487 15.5403 13.4237 14.9223 13.6584" stroke="#F2D01D" stroke-width="1.5" stroke-linecap="round" stroke-linejoin="round"/>
</g>
</g>
</svg>
