<svg width="62" height="62" viewBox="0 0 62 62" fill="none" xmlns="http://www.w3.org/2000/svg">
<rect x="1" y="1" width="60" height="60" rx="20" fill="white" stroke="white" stroke-opacity="0.1" stroke-width="0.5"/>
<path fill-rule="evenodd" clip-rule="evenodd" d="M28.1901 34.7413C32.4939 34.7413 36.1724 35.3934 36.1724 37.9986C36.1724 40.6038 32.5184 41.2746 28.1901 41.2746C23.8851 41.2746 20.2077 40.6283 20.2077 38.0219C20.2077 35.4156 23.8606 34.7413 28.1901 34.7413Z" stroke="#2AAF63" stroke-width="2" stroke-linecap="round" stroke-linejoin="round"/>
<path opacity="0.4" fill-rule="evenodd" clip-rule="evenodd" d="M28.1901 31.0231C25.3644 31.0231 23.0731 28.7329 23.0731 25.9073C23.0731 23.0816 25.3644 20.7914 28.1901 20.7914C31.0146 20.7914 33.3059 23.0816 33.3059 25.9073C33.3164 28.7224 31.0414 31.0126 28.2262 31.0231H28.1901Z" stroke="#2AAF63" stroke-width="2" stroke-linecap="round" stroke-linejoin="round"/>
<path opacity="0.4" d="M36.2303 29.6952C38.0981 29.4327 39.5366 27.8297 39.5401 25.8895C39.5401 23.9774 38.146 22.3907 36.3178 22.0909" stroke="#2AAF63" stroke-width="2" stroke-linecap="round" stroke-linejoin="round"/>
<path d="M38.6946 34.1876C40.5041 34.4571 41.7676 35.0917 41.7676 36.3984C41.7676 37.2979 41.1726 37.8812 40.2113 38.2464" stroke="#2AAF63" stroke-width="2" stroke-linecap="round" stroke-linejoin="round"/>
</svg>
